<?xml version="1.0" encoding="UTF-8" standalone="no"?>
<svg
   xmlns:dc="http://purl.org/dc/elements/1.1/"
   xmlns:cc="http://creativecommons.org/ns#"
   xmlns:rdf="http://www.w3.org/1999/02/22-rdf-syntax-ns#"
   xmlns:svg="http://www.w3.org/2000/svg"
   xmlns="http://www.w3.org/2000/svg"
   xmlns:xlink="http://www.w3.org/1999/xlink"
   version="1.1"
   id="svg2"
   viewBox="0 0 744.0945 1052.3622"
   height="297mm"
   width="210mm">
  <defs
     id="defs4" />
  <metadata
     id="metadata7">
    <rdf:RDF>
      <cc:Work
         rdf:about="">
        <dc:format>image/svg+xml</dc:format>
        <dc:type
           rdf:resource="http://purl.org/dc/dcmitype/StillImage" />
        <dc:title></dc:title>
      </cc:Work>
    </rdf:RDF>
  </metadata>
  <g
     transform="translate(0,-4.7244093e-6)"
     id="layer1">
    <path
       id="rect4141"
       transform="translate(0,4.7244093e-6)"
       d="M 113.91992 20.394531 C 62.994114 20.394531 21.996094 61.392518 21.996094 112.31836 L 21.996094 117.83203 L 39.712891 117.83203 L 39.712891 170.98242 L 21.996094 170.98242 L 21.996094 224.13672 L 39.712891 224.13672 L 39.712891 277.28516 L 21.996094 277.28516 L 21.996094 282.80078 C 21.996094 333.72661 62.994114 374.72461 113.91992 374.72461 L 190.30078 374.72461 L 190.30078 357.00781 L 243.45117 357.00781 L 243.45117 374.72461 L 296.60547 374.72461 L 296.60547 357.00781 L 349.75391 357.00781 L 349.75391 374.72461 L 402.90039 374.72461 L 402.90039 357.00781 L 456.04883 357.00781 L 456.04883 374.72461 L 509.20312 374.72461 L 509.20312 357.00781 L 562.35352 357.00781 L 562.35352 374.72461 L 638.73438 374.72461 C 689.66021 374.72461 730.6582 333.72661 730.6582 282.80078 L 730.6582 277.28516 L 712.94141 277.28516 L 712.94141 224.13672 L 730.6582 224.13672 L 730.6582 170.98242 L 712.94141 170.98242 L 712.94141 117.83203 L 730.6582 117.83203 L 730.6582 112.31836 C 730.6582 61.392518 689.66021 20.394531 638.73438 20.394531 L 562.35352 20.394531 L 562.35352 38.109375 L 509.20312 38.109375 L 509.20312 20.394531 L 456.04883 20.394531 L 456.04883 38.109375 L 402.90039 38.109375 L 402.90039 20.394531 L 349.75391 20.394531 L 349.75391 38.109375 L 296.60547 38.109375 L 296.60547 20.394531 L 243.45117 20.394531 L 243.45117 38.109375 L 190.30078 38.109375 L 190.30078 20.394531 L 113.91992 20.394531 z "
       style="opacity:1;fill:none;fill-opacity:1;fill-rule:evenodd;stroke:#ff4141;stroke-width:1.41732287;stroke-linecap:round;stroke-linejoin:miter;stroke-miterlimit:4;stroke-dasharray:none;stroke-opacity:1" />
    <g
       transform="translate(22.489708,233.70725)"
       id="g4303">
      <circle
         style="opacity:1;fill:none;fill-opacity:1;fill-rule:evenodd;stroke:#ff4141;stroke-width:1.42106283;stroke-linecap:round;stroke-linejoin:miter;stroke-miterlimit:4;stroke-dasharray:none;stroke-opacity:1"
         id="path4143"
         cx="154.04527"
         cy="76.263229"
         r="11.602461" />
      <circle
         style="opacity:1;fill:none;fill-opacity:1;fill-rule:evenodd;stroke:#ff4141;stroke-width:1.42106283;stroke-linecap:round;stroke-linejoin:miter;stroke-miterlimit:4;stroke-dasharray:none;stroke-opacity:1"
         id="path4143-3"
         cx="295.77756"
         cy="76.263229"
         r="11.602461" />
      <circle
         style="opacity:1;fill:none;fill-opacity:1;fill-rule:evenodd;stroke:#ff4141;stroke-width:1.42106283;stroke-linecap:round;stroke-linejoin:miter;stroke-miterlimit:4;stroke-dasharray:none;stroke-opacity:1"
         id="path4143-5"
         cx="437.50986"
         cy="76.263229"
         r="11.602461" />
      <circle
         style="opacity:1;fill:none;fill-opacity:1;fill-rule:evenodd;stroke:#ff4141;stroke-width:1.42106283;stroke-linecap:round;stroke-linejoin:miter;stroke-miterlimit:4;stroke-dasharray:none;stroke-opacity:1"
         id="path4143-3-6"
         cx="579.24213"
         cy="76.263229"
         r="11.602461" />
    </g>
    <g
       transform="translate(74.437579,38)"
       id="g4309">
      <circle
         style="opacity:1;fill:none;fill-opacity:1;fill-rule:evenodd;stroke:#ff4141;stroke-width:1.42655706;stroke-linecap:round;stroke-linejoin:miter;stroke-miterlimit:4;stroke-dasharray:none;stroke-opacity:1"
         id="path4143-3-2"
         cx="53.858269"
         cy="112.67717"
         r="53.144989" />
      <circle
         style="opacity:1;fill:none;fill-opacity:1;fill-rule:evenodd;stroke:#ff4141;stroke-width:1.42655706;stroke-linecap:round;stroke-linejoin:miter;stroke-miterlimit:4;stroke-dasharray:none;stroke-opacity:1"
         id="path4143-3-2-1"
         cx="549.92126"
         cy="112.67717"
         r="53.144989" />
    </g>
    <path
       style="fill:#ff9933"
       d="m 206.58314,46.61133 0,77.00976 346.53906,0 0,-77.00976 -346.53906,0 z m 0,154.01758 0,77.00976 346.53906,0 0,-77.00976 -346.53906,0 z"
       id="rect4335" />
    <rect
       id="rect4339"
       y="200.62918"
       height="77.008621"
       width="346.53882"
       x="206.58383"
       style="fill:#128807" />
    <g
       id="g4341"
       transform="matrix(1.5401725,0,0,1.5401725,379.85325,162.12486)">
      <circle
         id="circle4343"
         r="20"
         cx="0"
         cy="0"
         style="fill:#000088" />
      <circle
         id="circle4345"
         r="17.5"
         cx="0"
         cy="0"
         style="fill:#ffffff" />
      <circle
         id="circle4347"
         r="3.5"
         cx="0"
         cy="0"
         style="fill:#000088" />
      <g
         id="d">
        <g
           id="c">
          <g
             id="b">
            <g
               id="a">
              <circle
                 id="circle4353"
                 transform="matrix(0.99144486,0.13052619,-0.13052619,0.99144486,17.350285,2.2842084)"
                 r="0.875"
                 cx="0"
                 cy="0"
                 style="fill:#000088" />
              <path
                 id="path4355"
                 d="M 0,17.5 0.6,7 C 0.6,7 0,2 0,2 0,2 -0.6,7 -0.6,7 L 0,17.5 Z"
                 style="fill:#000088" />
            </g>
            <use
               id="use4357"
               transform="matrix(0.96592583,0.25881905,-0.25881905,0.96592583,0,0)"
               xlink:href="#a"
               x="0"
               y="0"
               width="100%"
               height="100%" />
          </g>
          <use
             id="use4359"
             transform="matrix(0.8660254,0.5,-0.5,0.8660254,0,0)"
             xlink:href="#b"
             x="0"
             y="0"
             width="100%"
             height="100%" />
        </g>
        <use
           id="use4361"
           transform="matrix(0.5,0.8660254,-0.8660254,0.5,0,0)"
           xlink:href="#c"
           x="0"
           y="0"
           width="100%"
           height="100%" />
      </g>
      <use
         id="use4363"
         transform="matrix(-0.5,0.8660254,-0.8660254,-0.5,0,0)"
         xlink:href="#d"
         x="0"
         y="0"
         width="100%"
         height="100%" />
      <use
         id="use4365"
         transform="matrix(-0.5,-0.8660254,0.8660254,-0.5,0,0)"
         xlink:href="#d"
         x="0"
         y="0"
         width="100%"
         height="100%" />
    </g>
    <flowRoot
       transform="translate(-3.7443097,-116)"
       xml:space="preserve"
       id="flowRoot4402"
       style="font-style:normal;font-weight:normal;font-size:31.24999809px;line-height:125%;font-family:sans-serif;text-align:center;letter-spacing:0px;word-spacing:0px;text-anchor:middle;fill:#000000;fill-opacity:1;stroke:none;stroke-width:1px;stroke-linecap:butt;stroke-linejoin:miter;stroke-opacity:1"><flowRegion
         id="flowRegion4404"><rect
           id="rect4406"
           width="586.39355"
           height="54.548237"
           x="87.378197"
           y="435.58282"
           style="font-size:31.24999809px;text-align:center;text-anchor:middle" /></flowRegion><flowPara
         id="flowPara4408">TEAM GANGES RC-TRANSMITTER</flowPara></flowRoot>    <path
       id="rect4431-0"
       transform="translate(0,4.7244093e-6)"
       d="M 60.322266 389.01367 L 60.322266 397.86914 L 42.623047 397.86914 L 42.623047 451.01953 L 60.322266 451.01953 L 60.322266 504.17383 L 42.623047 504.17383 L 42.623047 557.32227 L 60.322266 557.32227 L 60.322266 566.17969 L 131.1875 566.17969 L 131.1875 557.32227 L 148.88672 557.32227 L 148.88672 504.17383 L 131.1875 504.17383 L 131.1875 451.02148 L 148.88672 451.02148 L 148.88672 397.875 L 131.1875 397.875 L 131.1875 389.01367 L 60.322266 389.01367 z "
       style="opacity:1;fill:none;fill-opacity:1;fill-rule:evenodd;stroke:#ff4141;stroke-width:1.41732287;stroke-linecap:round;stroke-linejoin:miter;stroke-miterlimit:4;stroke-dasharray:none;stroke-opacity:1" />
    <path
       id="rect4431-0-6"
       d="m 635.30868,381.93134 0,8.85547 -17.69922,0 0,53.15039 17.69922,0 0,53.15429 -17.69922,0 0,53.14844 17.69922,0 0,8.85742 70.86523,0 0,-8.85742 17.69922,0 0,-53.14844 -17.69922,0 0,-53.15234 17.69922,0 0,-53.14648 -17.69922,0 0,-8.86133 -70.86523,0 z"
       style="opacity:1;fill:none;fill-opacity:1;fill-rule:evenodd;stroke:#ff4141;stroke-width:1.41732287;stroke-linecap:round;stroke-linejoin:miter;stroke-miterlimit:4;stroke-dasharray:none;stroke-opacity:1" />
    <path
       id="rect4431-02-8-1"
       d="m 184.95271,519.1271 0,17.71485 -8.85547,0 0,70.86718 8.85547,0 0,17.7168 53.15039,0 0,-17.7168 53.15429,0 0,17.7168 53.15039,0 0,-17.7168 53.14454,0 0,17.7168 53.14843,0 0,-17.7168 53.1543,0 0,17.7168 53.15039,0 0,-17.7168 8.85547,0 0,-70.86718 -8.85547,0 0,-17.71485 -53.15039,0 0,17.71485 -53.1543,0 0,-17.71485 -53.14843,0 0,17.71485 -53.14454,0 0,-17.71485 -53.15039,0 0,17.71485 -53.15429,0 0,-17.71485 -53.15039,0 z"
       style="opacity:1;fill:none;fill-opacity:1;fill-rule:evenodd;stroke:#ff4141;stroke-width:1.41732287;stroke-linecap:round;stroke-linejoin:miter;stroke-miterlimit:4;stroke-dasharray:none;stroke-opacity:1" />
    <path
       id="rect4141-5"
       d="m 105.70672,642.65904 c -50.925812,0 -91.923832,40.99798 -91.923832,91.92383 l 0,5.51367 17.7168,0 0,53.15038 -17.7168,0 0,53.1543 17.7168,0 0,53.14844 -17.7168,0 0,5.51562 c 0,50.92583 40.99802,91.92383 91.923832,91.92383 l 76.38086,0 0,-17.7168 53.15039,0 0,17.7168 53.1543,0 0,-17.7168 53.14844,0 0,17.7168 53.14648,0 0,-17.7168 53.14844,0 0,17.7168 53.15429,0 0,-17.7168 53.1504,0 0,17.7168 76.38086,0 c 50.92583,0 91.92382,-40.998 91.92382,-91.92383 l 0,-5.51562 -17.71679,0 0,-53.14844 17.71679,0 0,-53.1543 -17.71679,0 0,-53.15038 17.71679,0 0,-5.51367 c 0,-50.92585 -40.99799,-91.92383 -91.92382,-91.92383 l -76.38086,0 0,17.71484 -53.1504,0 0,-17.71484 -53.15429,0 0,17.71484 -53.14844,0 0,-17.71484 -53.14648,0 0,17.71484 -53.14844,0 0,-17.71484 -53.1543,0 0,17.71484 -53.15039,0 0,-17.71484 -76.38086,0 z"
       style="opacity:1;fill:none;fill-opacity:1;fill-rule:evenodd;stroke:#ff4141;stroke-width:1.41732287;stroke-linecap:round;stroke-linejoin:miter;stroke-miterlimit:4;stroke-dasharray:none;stroke-opacity:1" />
    <path
       style="color:#000000;clip-rule:nonzero;display:inline;overflow:visible;visibility:visible;opacity:0.98999999;isolation:auto;mix-blend-mode:normal;color-interpolation:sRGB;color-interpolation-filters:linearRGB;solid-color:#000000;solid-opacity:1;fill:none;fill-opacity:1;fill-rule:evenodd;stroke:#ff4141;stroke-width:1.41732287;stroke-linecap:round;stroke-linejoin:miter;stroke-miterlimit:4;stroke-dasharray:none;stroke-dashoffset:0;stroke-opacity:1;color-rendering:auto;image-rendering:auto;shape-rendering:auto;text-rendering:auto;enable-background:accumulate"
       d="m 201.73948,551.01667 17.71653,0 0,42.51968 -17.71653,0 z"
       id="rect4952" />
    <path
       style="color:#000000;clip-rule:nonzero;display:inline;overflow:visible;visibility:visible;opacity:0.98999999;isolation:auto;mix-blend-mode:normal;color-interpolation:sRGB;color-interpolation-filters:linearRGB;solid-color:#000000;solid-opacity:1;fill:none;fill-opacity:1;fill-rule:evenodd;stroke:#ff4141;stroke-width:1.41732287;stroke-linecap:round;stroke-linejoin:miter;stroke-miterlimit:4;stroke-dasharray:none;stroke-dashoffset:0;stroke-opacity:1;color-rendering:auto;image-rendering:auto;shape-rendering:auto;text-rendering:auto;enable-background:accumulate"
       d="m 237.17255,551.01667 17.71654,0 0,42.51968 -17.71654,0 z"
       id="rect4952-6" />
    <path
       style="color:#000000;clip-rule:nonzero;display:inline;overflow:visible;visibility:visible;opacity:0.98999999;isolation:auto;mix-blend-mode:normal;color-interpolation:sRGB;color-interpolation-filters:linearRGB;solid-color:#000000;solid-opacity:1;fill:none;fill-opacity:1;fill-rule:evenodd;stroke:#ff4141;stroke-width:1.41732287;stroke-linecap:round;stroke-linejoin:miter;stroke-miterlimit:4;stroke-dasharray:none;stroke-dashoffset:0;stroke-opacity:1;color-rendering:auto;image-rendering:auto;shape-rendering:auto;text-rendering:auto;enable-background:accumulate"
       d="m 272.60562,551.01667 17.71654,0 0,42.51968 -17.71654,0 z"
       id="rect4952-9" />
    <path
       style="color:#000000;clip-rule:nonzero;display:inline;overflow:visible;visibility:visible;opacity:0.98999999;isolation:auto;mix-blend-mode:normal;color-interpolation:sRGB;color-interpolation-filters:linearRGB;solid-color:#000000;solid-opacity:1;fill:none;fill-opacity:1;fill-rule:evenodd;stroke:#ff4141;stroke-width:1.41732287;stroke-linecap:round;stroke-linejoin:miter;stroke-miterlimit:4;stroke-dasharray:none;stroke-dashoffset:0;stroke-opacity:1;color-rendering:auto;image-rendering:auto;shape-rendering:auto;text-rendering:auto;enable-background:accumulate"
       d="m 308.0387,551.01667 17.71653,0 0,42.51968 -17.71653,0 z"
       id="rect4952-6-3" />
    <path
       style="color:#000000;clip-rule:nonzero;display:inline;overflow:visible;visibility:visible;opacity:0.98999999;isolation:auto;mix-blend-mode:normal;color-interpolation:sRGB;color-interpolation-filters:linearRGB;solid-color:#000000;solid-opacity:1;fill:none;fill-opacity:1;fill-rule:evenodd;stroke:#ff4141;stroke-width:1.41732287;stroke-linecap:round;stroke-linejoin:miter;stroke-miterlimit:4;stroke-dasharray:none;stroke-dashoffset:0;stroke-opacity:1;color-rendering:auto;image-rendering:auto;shape-rendering:auto;text-rendering:auto;enable-background:accumulate"
       d="m 343.47176,551.01667 17.71653,0 0,42.51968 -17.71653,0 z"
       id="rect4952-5" />
    <path
       style="color:#000000;clip-rule:nonzero;display:inline;overflow:visible;visibility:visible;opacity:0.98999999;isolation:auto;mix-blend-mode:normal;color-interpolation:sRGB;color-interpolation-filters:linearRGB;solid-color:#000000;solid-opacity:1;fill:none;fill-opacity:1;fill-rule:evenodd;stroke:#ff4141;stroke-width:1.41732287;stroke-linecap:round;stroke-linejoin:miter;stroke-miterlimit:4;stroke-dasharray:none;stroke-dashoffset:0;stroke-opacity:1;color-rendering:auto;image-rendering:auto;shape-rendering:auto;text-rendering:auto;enable-background:accumulate"
       d="m 378.90483,551.01667 17.71654,0 0,42.51968 -17.71654,0 z"
       id="rect4952-6-4" />
    <path
       style="color:#000000;clip-rule:nonzero;display:inline;overflow:visible;visibility:visible;opacity:0.98999999;isolation:auto;mix-blend-mode:normal;color-interpolation:sRGB;color-interpolation-filters:linearRGB;solid-color:#000000;solid-opacity:1;fill:none;fill-opacity:1;fill-rule:evenodd;stroke:#ff4141;stroke-width:1.41732287;stroke-linecap:round;stroke-linejoin:miter;stroke-miterlimit:4;stroke-dasharray:none;stroke-dashoffset:0;stroke-opacity:1;color-rendering:auto;image-rendering:auto;shape-rendering:auto;text-rendering:auto;enable-background:accumulate"
       d="m 414.3379,551.01667 17.71654,0 0,42.51968 -17.71654,0 z"
       id="rect4952-9-4" />
    <path
       style="color:#000000;clip-rule:nonzero;display:inline;overflow:visible;visibility:visible;opacity:0.98999999;isolation:auto;mix-blend-mode:normal;color-interpolation:sRGB;color-interpolation-filters:linearRGB;solid-color:#000000;solid-opacity:1;fill:none;fill-opacity:1;fill-rule:evenodd;stroke:#ff4141;stroke-width:1.41732287;stroke-linecap:round;stroke-linejoin:miter;stroke-miterlimit:4;stroke-dasharray:none;stroke-dashoffset:0;stroke-opacity:1;color-rendering:auto;image-rendering:auto;shape-rendering:auto;text-rendering:auto;enable-background:accumulate"
       d="m 449.77098,551.01667 17.71653,0 0,42.51968 -17.71653,0 z"
       id="rect4952-6-3-4" />
    <path
       style="color:#000000;clip-rule:nonzero;display:inline;overflow:visible;visibility:visible;opacity:0.98999999;isolation:auto;mix-blend-mode:normal;color-interpolation:sRGB;color-interpolation-filters:linearRGB;solid-color:#000000;solid-opacity:1;fill:none;fill-opacity:1;fill-rule:evenodd;stroke:#ff4141;stroke-width:1.41732287;stroke-linecap:round;stroke-linejoin:miter;stroke-miterlimit:4;stroke-dasharray:none;stroke-dashoffset:0;stroke-opacity:1;color-rendering:auto;image-rendering:auto;shape-rendering:auto;text-rendering:auto;enable-background:accumulate"
       d="m 487.06906,551.01667 17.71653,0 0,42.51968 -17.71653,0 z"
       id="rect4952-5-7" />
    <path
       style="color:#000000;clip-rule:nonzero;display:inline;overflow:visible;visibility:visible;opacity:0.98999999;isolation:auto;mix-blend-mode:normal;color-interpolation:sRGB;color-interpolation-filters:linearRGB;solid-color:#000000;solid-opacity:1;fill:none;fill-opacity:1;fill-rule:evenodd;stroke:#ff4141;stroke-width:1.41732287;stroke-linecap:round;stroke-linejoin:miter;stroke-miterlimit:4;stroke-dasharray:none;stroke-dashoffset:0;stroke-opacity:1;color-rendering:auto;image-rendering:auto;shape-rendering:auto;text-rendering:auto;enable-background:accumulate"
       d="m 522.50213,551.01667 17.71654,0 0,42.51968 -17.71654,0 z"
       id="rect4952-6-4-8" />
    <rect
       id="rect4339-3"
       y="200.62918"
       height="77.008621"
       width="346.53882"
       x="206.58383"
       style="fill:#128807" />
    <path
       id="rect4431-02-8-1-9"
       d="m 176.83078,396.35565 0,17.71485 -8.85547,0 0,70.86718 8.85547,0 0,17.71679 53.15039,0 0,-17.71679 53.15429,0 0,17.71679 53.15039,0 0,-17.71679 53.14454,0 0,17.71679 53.14843,0 0,-17.71679 53.1543,0 0,17.71679 53.15039,0 0,-17.71679 8.85547,0 0,-70.86718 -8.85547,0 0,-17.71485 -53.15039,0 0,17.71485 -53.1543,0 0,-17.71485 -53.14843,0 0,17.71485 -53.14454,0 0,-17.71485 -53.15039,0 0,17.71485 -53.15429,0 0,-17.71485 -53.15039,0 z"
       style="opacity:1;fill:none;fill-opacity:1;fill-rule:evenodd;stroke:#ff4141;stroke-width:1.41732287;stroke-linecap:round;stroke-linejoin:miter;stroke-miterlimit:4;stroke-dasharray:none;stroke-opacity:1" />
    <path
       style="color:#000000;clip-rule:nonzero;display:inline;overflow:visible;visibility:visible;opacity:0.98999999;isolation:auto;mix-blend-mode:normal;color-interpolation:sRGB;color-interpolation-filters:linearRGB;solid-color:#000000;solid-opacity:1;fill:none;fill-opacity:1;fill-rule:evenodd;stroke:#ff4141;stroke-width:1.41732287;stroke-linecap:round;stroke-linejoin:miter;stroke-miterlimit:4;stroke-dasharray:none;stroke-dashoffset:0;stroke-opacity:1;color-rendering:auto;image-rendering:auto;shape-rendering:auto;text-rendering:auto;enable-background:accumulate"
       d="m 193.61755,428.24522 17.71653,0 0,42.51968 -17.71653,0 z"
       id="rect4952-2" />
    <path
       style="color:#000000;clip-rule:nonzero;display:inline;overflow:visible;visibility:visible;opacity:0.98999999;isolation:auto;mix-blend-mode:normal;color-interpolation:sRGB;color-interpolation-filters:linearRGB;solid-color:#000000;solid-opacity:1;fill:none;fill-opacity:1;fill-rule:evenodd;stroke:#ff4141;stroke-width:1.41732287;stroke-linecap:round;stroke-linejoin:miter;stroke-miterlimit:4;stroke-dasharray:none;stroke-dashoffset:0;stroke-opacity:1;color-rendering:auto;image-rendering:auto;shape-rendering:auto;text-rendering:auto;enable-background:accumulate"
       d="m 229.05062,428.24522 17.71654,0 0,42.51968 -17.71654,0 z"
       id="rect4952-6-6" />
    <path
       style="color:#000000;clip-rule:nonzero;display:inline;overflow:visible;visibility:visible;opacity:0.98999999;isolation:auto;mix-blend-mode:normal;color-interpolation:sRGB;color-interpolation-filters:linearRGB;solid-color:#000000;solid-opacity:1;fill:none;fill-opacity:1;fill-rule:evenodd;stroke:#ff4141;stroke-width:1.41732287;stroke-linecap:round;stroke-linejoin:miter;stroke-miterlimit:4;stroke-dasharray:none;stroke-dashoffset:0;stroke-opacity:1;color-rendering:auto;image-rendering:auto;shape-rendering:auto;text-rendering:auto;enable-background:accumulate"
       d="m 264.48369,428.24522 17.71654,0 0,42.51968 -17.71654,0 z"
       id="rect4952-9-6" />
    <path
       style="color:#000000;clip-rule:nonzero;display:inline;overflow:visible;visibility:visible;opacity:0.98999999;isolation:auto;mix-blend-mode:normal;color-interpolation:sRGB;color-interpolation-filters:linearRGB;solid-color:#000000;solid-opacity:1;fill:none;fill-opacity:1;fill-rule:evenodd;stroke:#ff4141;stroke-width:1.41732287;stroke-linecap:round;stroke-linejoin:miter;stroke-miterlimit:4;stroke-dasharray:none;stroke-dashoffset:0;stroke-opacity:1;color-rendering:auto;image-rendering:auto;shape-rendering:auto;text-rendering:auto;enable-background:accumulate"
       d="m 299.91677,428.24522 17.71653,0 0,42.51968 -17.71653,0 z"
       id="rect4952-6-3-49" />
    <path
       style="color:#000000;clip-rule:nonzero;display:inline;overflow:visible;visibility:visible;opacity:0.98999999;isolation:auto;mix-blend-mode:normal;color-interpolation:sRGB;color-interpolation-filters:linearRGB;solid-color:#000000;solid-opacity:1;fill:none;fill-opacity:1;fill-rule:evenodd;stroke:#ff4141;stroke-width:1.41732287;stroke-linecap:round;stroke-linejoin:miter;stroke-miterlimit:4;stroke-dasharray:none;stroke-dashoffset:0;stroke-opacity:1;color-rendering:auto;image-rendering:auto;shape-rendering:auto;text-rendering:auto;enable-background:accumulate"
       d="m 335.34983,428.24522 17.71653,0 0,42.51968 -17.71653,0 z"
       id="rect4952-5-5" />
    <path
       style="color:#000000;clip-rule:nonzero;display:inline;overflow:visible;visibility:visible;opacity:0.98999999;isolation:auto;mix-blend-mode:normal;color-interpolation:sRGB;color-interpolation-filters:linearRGB;solid-color:#000000;solid-opacity:1;fill:none;fill-opacity:1;fill-rule:evenodd;stroke:#ff4141;stroke-width:1.41732287;stroke-linecap:round;stroke-linejoin:miter;stroke-miterlimit:4;stroke-dasharray:none;stroke-dashoffset:0;stroke-opacity:1;color-rendering:auto;image-rendering:auto;shape-rendering:auto;text-rendering:auto;enable-background:accumulate"
       d="m 370.7829,428.24522 17.71654,0 0,42.51968 -17.71654,0 z"
       id="rect4952-6-4-0" />
    <path
       style="color:#000000;clip-rule:nonzero;display:inline;overflow:visible;visibility:visible;opacity:0.98999999;isolation:auto;mix-blend-mode:normal;color-interpolation:sRGB;color-interpolation-filters:linearRGB;solid-color:#000000;solid-opacity:1;fill:none;fill-opacity:1;fill-rule:evenodd;stroke:#ff4141;stroke-width:1.41732287;stroke-linecap:round;stroke-linejoin:miter;stroke-miterlimit:4;stroke-dasharray:none;stroke-dashoffset:0;stroke-opacity:1;color-rendering:auto;image-rendering:auto;shape-rendering:auto;text-rendering:auto;enable-background:accumulate"
       d="m 406.21597,428.24522 17.71654,0 0,42.51968 -17.71654,0 z"
       id="rect4952-9-4-4" />
    <path
       style="color:#000000;clip-rule:nonzero;display:inline;overflow:visible;visibility:visible;opacity:0.98999999;isolation:auto;mix-blend-mode:normal;color-interpolation:sRGB;color-interpolation-filters:linearRGB;solid-color:#000000;solid-opacity:1;fill:none;fill-opacity:1;fill-rule:evenodd;stroke:#ff4141;stroke-width:1.41732287;stroke-linecap:round;stroke-linejoin:miter;stroke-miterlimit:4;stroke-dasharray:none;stroke-dashoffset:0;stroke-opacity:1;color-rendering:auto;image-rendering:auto;shape-rendering:auto;text-rendering:auto;enable-background:accumulate"
       d="m 441.64905,428.24522 17.71653,0 0,42.51968 -17.71653,0 z"
       id="rect4952-6-3-4-8" />
    <path
       style="color:#000000;clip-rule:nonzero;display:inline;overflow:visible;visibility:visible;opacity:0.98999999;isolation:auto;mix-blend-mode:normal;color-interpolation:sRGB;color-interpolation-filters:linearRGB;solid-color:#000000;solid-opacity:1;fill:none;fill-opacity:1;fill-rule:evenodd;stroke:#ff4141;stroke-width:1.41732287;stroke-linecap:round;stroke-linejoin:miter;stroke-miterlimit:4;stroke-dasharray:none;stroke-dashoffset:0;stroke-opacity:1;color-rendering:auto;image-rendering:auto;shape-rendering:auto;text-rendering:auto;enable-background:accumulate"
       d="m 478.94713,428.24522 17.71653,0 0,42.51968 -17.71653,0 z"
       id="rect4952-5-7-7" />
    <path
       style="color:#000000;clip-rule:nonzero;display:inline;overflow:visible;visibility:visible;opacity:0.98999999;isolation:auto;mix-blend-mode:normal;color-interpolation:sRGB;color-interpolation-filters:linearRGB;solid-color:#000000;solid-opacity:1;fill:none;fill-opacity:1;fill-rule:evenodd;stroke:#ff4141;stroke-width:1.41732287;stroke-linecap:round;stroke-linejoin:miter;stroke-miterlimit:4;stroke-dasharray:none;stroke-dashoffset:0;stroke-opacity:1;color-rendering:auto;image-rendering:auto;shape-rendering:auto;text-rendering:auto;enable-background:accumulate"
       d="m 514.3802,428.24522 17.71654,0 0,42.51968 -17.71654,0 z"
       id="rect4952-6-4-8-1" />
  </g>
</svg>
