<?xml version="1.0" encoding="UTF-8" standalone="no"?>
<svg
   xmlns:dc="http://purl.org/dc/elements/1.1/"
   xmlns:cc="http://creativecommons.org/ns#"
   xmlns:rdf="http://www.w3.org/1999/02/22-rdf-syntax-ns#"
   xmlns:svg="http://www.w3.org/2000/svg"
   xmlns="http://www.w3.org/2000/svg"
   xmlns:xlink="http://www.w3.org/1999/xlink"
   xmlns:sodipodi="http://sodipodi.sourceforge.net/DTD/sodipodi-0.dtd"
   xmlns:inkscape="http://www.inkscape.org/namespaces/inkscape"
   version="1.1"
   id="svg2"
   viewBox="0 0 744.0945 1052.3622"
   height="297mm"
   width="210mm"
   inkscape:version="0.91 r13725"
   sodipodi:docname="draft2.svg">
  <sodipodi:namedview
     pagecolor="#ffffff"
     bordercolor="#666666"
     borderopacity="1"
     objecttolerance="10"
     gridtolerance="10"
     guidetolerance="10"
     inkscape:pageopacity="0"
     inkscape:pageshadow="2"
     inkscape:window-width="1322"
     inkscape:window-height="750"
     id="namedview62"
     showgrid="false"
     inkscape:zoom="0.6342957"
     inkscape:cx="605.07024"
     inkscape:cy="635.70686"
     inkscape:window-x="44"
     inkscape:window-y="18"
     inkscape:window-maximized="1"
     inkscape:current-layer="svg2"
     inkscape:document-units="cm" />
  <defs
     id="defs4" />
  <metadata
     id="metadata7">
    <rdf:RDF>
      <cc:Work
         rdf:about="">
        <dc:format>image/svg+xml</dc:format>
        <dc:type
           rdf:resource="http://purl.org/dc/dcmitype/StillImage" />
        <dc:title />
      </cc:Work>
    </rdf:RDF>
  </metadata>
  <path
     inkscape:connector-curvature="0"
     style="opacity:1;fill:none;fill-opacity:1;fill-rule:evenodd;stroke:#ff4141;stroke-width:1.41732287;stroke-linecap:round;stroke-linejoin:miter;stroke-miterlimit:4;stroke-dasharray:none;stroke-opacity:1"
     d="m 113.91992,20.394531 c -50.925806,0 -91.923826,40.997987 -91.923826,91.923829 l 0,5.51367 10.637764,0 0,53.15039 -10.637764,0 0,70.88505 10.637764,0 0,53.14844 -10.637764,0 0,5.51562 c 0,50.92583 42.317067,103.43935 91.923826,91.92383 l 76.38086,0 0.007,-10.61437 53.15039,0 -0.008,10.61437 53.1543,0 0.007,-10.61437 53.14844,0 -0.007,10.61437 53.14648,0 0.007,-10.61437 53.14844,0 -0.007,10.61437 53.15429,0 0.007,-10.61437 53.1504,0 -0.008,10.61437 76.38086,0 c 50.92583,0 91.92382,-40.998 91.92382,-91.92383 l 0,-5.51562 -10.62277,0 0,-53.14844 10.62277,0 0,-70.88505 -10.62277,0 0,-53.15039 10.62277,0 0,-5.51367 c 0,-50.925842 -40.99799,-91.923829 -91.92382,-91.923829 l -76.38086,0 0,10.644839 -53.1504,0 0,-10.644839 -53.15429,0 0,10.644839 -53.14844,0 0,-10.644839 -53.14648,0 0,10.644839 -53.14844,0 0,-10.644839 -53.1543,0 0,10.644839 -53.15039,0 0,-10.644839 z"
     id="rect4141"
     sodipodi:nodetypes="ssccccccccssccccccccccccccccssccccccccssccccccccccccccccs" />
  <g
     id="g4359"
     transform="translate(-62.849592,0)">
    <g
       transform="translate(22.489708,233.70725)"
       id="g4303">
      <g
         id="g4211">
        <path
           inkscape:connector-curvature="0"
           style="opacity:1;fill:none;fill-opacity:1;fill-rule:evenodd;stroke:#ff4141;stroke-width:1.41732283;stroke-linecap:round;stroke-linejoin:miter;stroke-miterlimit:4;stroke-dasharray:none;stroke-opacity:1"
           d="m 146.42435,72.311464 a 9.0007742,9.0007785 0 0 0 -4.49218,7.77734 9.0007742,9.0007785 0 0 0 9.00195,9 9.0007742,9.0007785 0 0 0 9,-9 9.0007742,9.0007785 0 0 0 -4.48633,-7.77734 l -9.02344,0 z"
           id="path4143" />
        <path
           inkscape:connector-curvature="0"
           style="opacity:1;fill:none;fill-opacity:1;fill-rule:evenodd;stroke:#ff4141;stroke-width:1.41732283;stroke-linecap:round;stroke-linejoin:miter;stroke-miterlimit:4;stroke-dasharray:none;stroke-opacity:1"
           d="m 252.71036,72.308952 a 9.0007742,9.0007785 0 0 0 -4.49218,7.77734 9.0007742,9.0007785 0 0 0 9.00195,9 9.0007742,9.0007785 0 0 0 9,-9 9.0007742,9.0007785 0 0 0 -4.48633,-7.77734 l -9.02344,0 z"
           id="path4143-9" />
        <path
           inkscape:connector-curvature="0"
           style="opacity:1;fill:none;fill-opacity:1;fill-rule:evenodd;stroke:#ff4141;stroke-width:1.41732283;stroke-linecap:round;stroke-linejoin:miter;stroke-miterlimit:4;stroke-dasharray:none;stroke-opacity:1"
           d="m 571.63093,72.308952 a 9.0007742,9.0007785 0 0 0 -4.49218,7.77734 9.0007742,9.0007785 0 0 0 9.00195,9 9.0007742,9.0007785 0 0 0 9,-9 9.0007742,9.0007785 0 0 0 -4.48633,-7.77734 l -9.02344,0 z"
           id="path4143-9-0" />
        <path
           inkscape:connector-curvature="0"
           style="opacity:1;fill:none;fill-opacity:1;fill-rule:evenodd;stroke:#ff4141;stroke-width:1.41732283;stroke-linecap:round;stroke-linejoin:miter;stroke-miterlimit:4;stroke-dasharray:none;stroke-opacity:1"
           d="m 677.93014,72.308952 a 9.0007742,9.0007785 0 0 0 -4.49218,7.77734 9.0007742,9.0007785 0 0 0 9.00193,9 9.0007742,9.0007785 0 0 0 9,-9 9.0007742,9.0007785 0 0 0 -4.48633,-7.77734 l -9.02343,0 z"
           id="path4143-9-0-6" />
      </g>
    </g>
  </g>
  <path
     style="opacity:1;fill:none;fill-opacity:1;fill-rule:evenodd;stroke:#ff4141;stroke-width:1.42655706;stroke-linecap:round;stroke-linejoin:miter;stroke-miterlimit:4;stroke-dasharray:none;stroke-opacity:1"
     d="M 181.44084,150.67717 A 53.144989,53.144989 0 0 1 128.29585,203.82216 53.144989,53.144989 0 0 1 75.150864,150.67717 53.144989,53.144989 0 0 1 128.29585,97.532181 53.144989,53.144989 0 0 1 181.44084,150.67717 Z"
     id="path4143-3-2" />
  <path
     style="opacity:1;fill:none;fill-opacity:1;fill-rule:evenodd;stroke:#ff4141;stroke-width:1.42655706;stroke-linecap:round;stroke-linejoin:miter;stroke-miterlimit:4;stroke-dasharray:none;stroke-opacity:1"
     d="m 677.50381,150.67717 a 53.144989,53.144989 0 0 1 -53.14498,53.14499 53.144989,53.144989 0 0 1 -53.14499,-53.14499 53.144989,53.144989 0 0 1 53.14499,-53.144989 53.144989,53.144989 0 0 1 53.14498,53.144989 z"
     id="path4143-3-2-1" />
  <path
     inkscape:connector-curvature="0"
     id="rect4335"
     d="m 206.58314,46.611325 0,77.009765 346.53906,0 0,-77.009765 -346.53906,0 z m 0,154.017585 0,77.00976 346.53906,0 0,-77.00976 -346.53906,0 z"
     style="fill:#ff9933" />
  <path
     style="fill:#128807"
     d="m 206.58383,200.62918 346.53882,0 0,77.00862 -346.53882,0 z"
     id="rect4339" />
  <g
     transform="matrix(1.5401725,0,0,1.5401725,379.85325,162.12486)"
     id="g4341">
    <path
       style="fill:#000088"
       d="M 20,0 A 20,20 0 0 1 0,20 20,20 0 0 1 -20,0 20,20 0 0 1 0,-20 20,20 0 0 1 20,0 Z"
       id="circle4343" />
    <path
       style="fill:#ffffff"
       d="M 17.5,0 A 17.5,17.5 0 0 1 0,17.5 17.5,17.5 0 0 1 -17.5,0 17.5,17.5 0 0 1 0,-17.5 17.5,17.5 0 0 1 17.5,0 Z"
       id="circle4345" />
    <path
       style="fill:#000088"
       d="M 3.5,0 A 3.5,3.5 0 0 1 0,3.5 3.5,3.5 0 0 1 -3.5,0 3.5,3.5 0 0 1 0,-3.5 3.5,3.5 0 0 1 3.5,0 Z"
       id="circle4347" />
    <g
       id="d">
      <g
         id="c">
        <g
           id="b">
          <g
             id="a">
            <path
               transform="matrix(0.99144486,0.13052619,-0.13052619,0.99144486,17.350285,2.2842084)"
               style="fill:#000088"
               d="M 0.875,0 A 0.875,0.875 0 0 1 0,0.875 0.875,0.875 0 0 1 -0.875,0 0.875,0.875 0 0 1 0,-0.875 0.875,0.875 0 0 1 0.875,0 Z"
               id="circle4353" />
            <path
               inkscape:connector-curvature="0"
               style="fill:#000088"
               d="M 0,17.5 0.6,7 C 0.6,7 0,2 0,2 0,2 -0.6,7 -0.6,7 L 0,17.5 Z"
               id="path4355" />
          </g>
          <use
             height="100%"
             width="100%"
             y="0"
             x="0"
             xlink:href="#a"
             transform="matrix(0.96592583,0.25881905,-0.25881905,0.96592583,0,0)"
             id="use4357" />
        </g>
        <use
           height="100%"
           width="100%"
           y="0"
           x="0"
           xlink:href="#b"
           transform="matrix(0.8660254,0.5,-0.5,0.8660254,0,0)"
           id="use4359" />
      </g>
      <use
         height="100%"
         width="100%"
         y="0"
         x="0"
         xlink:href="#c"
         transform="matrix(0.5,0.8660254,-0.8660254,0.5,0,0)"
         id="use4361" />
    </g>
    <use
       height="100%"
       width="100%"
       y="0"
       x="0"
       xlink:href="#d"
       transform="matrix(-0.5,0.8660254,-0.8660254,-0.5,0,0)"
       id="use4363" />
    <use
       height="100%"
       width="100%"
       y="0"
       x="0"
       xlink:href="#d"
       transform="matrix(-0.5,-0.8660254,0.8660254,-0.5,0,0)"
       id="use4365" />
  </g>
  <g
     transform="translate(-3.7443097,-116)"
     style="font-style:normal;font-weight:normal;font-size:31.24999809px;line-height:125%;font-family:sans-serif;text-align:center;letter-spacing:0px;word-spacing:0px;text-anchor:middle;fill:#000000;fill-opacity:1;stroke:none;stroke-width:1px;stroke-linecap:butt;stroke-linejoin:miter;stroke-opacity:1"
     id="flowRoot4402">
    <path
       d="m 125.53981,443.94907 19.27185,0 0,2.59399 -8.08716,0 0,20.18738 -3.09753,0 0,-20.18738 -8.08716,0 0,-2.59399 z"
       style=""
       id="path4445" />
    <path
       d="m 147.80238,443.94907 14.4043,0 0,2.59399 -11.32202,0 0,6.74439 10.849,0 0,2.59399 -10.849,0 0,8.25501 11.59668,0 0,2.59399 -14.67896,0 0,-22.78137 z"
       style=""
       id="path4447" />
    <path
       d="m 175.19191,446.98557 -4.18091,11.33728 8.37707,0 -4.19616,-11.33728 z m -1.73951,-3.0365 3.49427,0 8.68225,22.78137 -3.20435,0 -2.07519,-5.84412 -10.26917,0 -2.07519,5.84412 -3.25013,0 8.69751,-22.78137 z"
       style=""
       id="path4449" />
    <path
       d="m 188.94007,443.94907 4.5929,0 5.81359,15.50293 5.84412,-15.50293 4.5929,0 0,22.78137 -3.00599,0 0,-20.00427 -5.87463,15.625 -3.09753,0 -5.87464,-15.625 0,20.00427 -2.99072,0 0,-22.78137 z"
       style=""
       id="path4451" />
    <path
       d="m 241.39979,463.48032 0,-6.11878 -5.0354,0 0,-2.53295 8.08715,0 0,9.78088 q -1.78527,1.26648 -3.93676,1.92261 -2.15149,0.64087 -4.5929,0.64087 -5.34057,0 -8.36181,-3.1128 -3.00599,-3.12805 -3.00599,-8.69751 0,-5.58471 3.00599,-8.69751 3.02124,-3.12805 8.36181,-3.12805 2.22779,0 4.22669,0.54932 2.01416,0.54932 3.70788,1.61743 l 0,3.28064 q -1.70898,-1.44958 -3.63159,-2.18201 -1.92261,-0.73242 -4.04358,-0.73242 -4.18091,0 -6.28662,2.3346 -2.09045,2.33459 -2.09045,6.958 0,4.60816 2.09045,6.94275 2.10571,2.3346 6.28662,2.3346 1.63269,0 2.91443,-0.27466 1.28174,-0.28992 2.30408,-0.88501 z"
       style=""
       id="path4453" />
    <path
       d="m 257.71143,446.98557 -4.1809,11.33728 8.37707,0 -4.19617,-11.33728 z m -1.7395,-3.0365 3.49426,0 8.68225,22.78137 -3.20434,0 -2.0752,-5.84412 -10.26916,0 -2.0752,5.84412 -3.25012,0 8.69751,-22.78137 z"
       style=""
       id="path4455" />
    <path
       d="m 271.45959,443.94907 4.1504,0 10.10131,19.05823 0,-19.05823 2.99073,0 0,22.78137 -4.15039,0 -10.10132,-19.05823 0,19.05823 -2.99073,0 0,-22.78137 z"
       style=""
       id="path4457" />
    <path
       d="m 310.36951,463.48032 0,-6.11878 -5.0354,0 0,-2.53295 8.08715,0 0,9.78088 q -1.78527,1.26648 -3.93676,1.92261 -2.15149,0.64087 -4.5929,0.64087 -5.34057,0 -8.36181,-3.1128 -3.00599,-3.12805 -3.00599,-8.69751 0,-5.58471 3.00599,-8.69751 3.02124,-3.12805 8.36181,-3.12805 2.22778,0 4.22669,0.54932 2.01416,0.54932 3.70788,1.61743 l 0,3.28064 q -1.70898,-1.44958 -3.63159,-2.18201 -1.92261,-0.73242 -4.04358,-0.73242 -4.18091,0 -6.28662,2.3346 -2.09045,2.33459 -2.09045,6.958 0,4.60816 2.09045,6.94275 2.10571,2.3346 6.28662,2.3346 1.63269,0 2.91443,-0.27466 1.28174,-0.28992 2.30408,-0.88501 z"
       style=""
       id="path4459" />
    <path
       d="m 319.06702,443.94907 14.40429,0 0,2.59399 -11.32202,0 0,6.74439 10.849,0 0,2.59399 -10.849,0 0,8.25501 11.59668,0 0,2.59399 -14.67895,0 0,-22.78137 z"
       style=""
       id="path4461" />
    <path
       d="m 352.49902,444.69675 0,3.00598 q -1.75476,-0.83923 -3.31115,-1.25122 -1.5564,-0.41199 -3.00599,-0.41199 -2.5177,0 -3.89099,0.97657 -1.35803,0.97656 -1.35803,2.7771 0,1.51062 0.90027,2.28881 0.91553,0.76294 3.44849,1.23597 l 1.86157,0.38147 q 3.44848,0.65612 5.08117,2.31933 1.64795,1.64795 1.64795,4.42505 0,3.31116 -2.22778,5.02014 -2.21252,1.70899 -6.50024,1.70899 -1.61743,0 -3.44849,-0.36622 -1.8158,-0.36621 -3.76892,-1.08337 l 0,-3.17383 q 1.87683,1.05286 3.67737,1.58692 1.80053,0.53405 3.54004,0.53405 2.63977,0 4.07409,-1.03759 1.43433,-1.0376 1.43433,-2.96021 0,-1.67846 -1.0376,-2.62451 -1.02234,-0.94604 -3.37219,-1.41907 l -1.87683,-0.36621 q -3.44849,-0.68664 -4.98963,-2.15149 -1.54113,-1.46484 -1.54113,-4.07409 0,-3.02124 2.12097,-4.76075 2.13623,-1.7395 5.87463,-1.7395 1.60218,0 3.26538,0.28992 1.66321,0.28992 3.40271,0.86975 z"
       style=""
       id="path4463" />
    <path
       d="m 379.43079,456.04929 q 0.99182,0.33569 1.9226,1.43433 0.94605,1.09863 1.89209,3.02124 l 3.12805,6.22558 -3.31115,0 -2.91443,-5.84412 q -1.12915,-2.28881 -2.19727,-3.03649 -1.05285,-0.74768 -2.88391,-0.74768 l -3.35693,0 0,9.62829 -3.08228,0 0,-22.78137 6.95801,0 q 3.90625,0 5.82886,1.63269 1.92261,1.63269 1.92261,4.92859 0,2.15149 -1.00708,3.57056 -0.99183,1.41906 -2.89917,1.96838 z m -7.72095,-9.56726 0,8.08716 3.87573,0 q 2.22778,0 3.35693,-1.02234 1.14441,-1.0376 1.14441,-3.0365 0,-1.9989 -1.14441,-3.00598 -1.12915,-1.02234 -3.35693,-1.02234 l -3.87573,0 z"
       style=""
       id="path4465" />
    <path
       d="m 405.88951,445.70383 0,3.25012 q -1.5564,-1.44958 -3.32642,-2.16675 -1.75476,-0.71716 -3.7384,-0.71716 -3.90625,0 -5.98144,2.39563 -2.0752,2.38037 -2.0752,6.89697 0,4.50135 2.0752,6.89698 2.07519,2.38037 5.98144,2.38037 1.98364,0 3.7384,-0.71717 1.77002,-0.71716 3.32642,-2.16674 l 0,3.2196 q -1.61743,1.09863 -3.43323,1.64795 -1.80053,0.54932 -3.81469,0.54932 -5.17273,0 -8.1482,-3.15857 -2.97546,-3.17383 -2.97546,-8.65174 0,-5.49316 2.97546,-8.65173 2.97547,-3.17383 8.1482,-3.17383 2.04467,0 3.84521,0.54932 1.8158,0.53406 3.40271,1.61743 z"
       style=""
       id="path4467" />
    <path
       d="m 409.13963,456.91904 8.22449,0 0,2.50244 -8.22449,0 0,-2.50244 z"
       style=""
       id="path4469" />
    <path
       d="m 415.94505,443.94907 19.27185,0 0,2.59399 -8.08715,0 0,20.18738 -3.09754,0 0,-20.18738 -8.08716,0 0,-2.59399 z"
       style=""
       id="path4471" />
    <path
       d="m 449.01085,456.04929 q 0.99182,0.33569 1.92261,1.43433 0.94604,1.09863 1.89209,3.02124 l 3.12805,6.22558 -3.31116,0 -2.91443,-5.84412 q -1.12915,-2.28881 -2.19726,-3.03649 -1.05286,-0.74768 -2.88391,-0.74768 l -3.35694,0 0,9.62829 -3.08227,0 0,-22.78137 6.958,0 q 3.90625,0 5.82886,1.63269 1.92261,1.63269 1.92261,4.92859 0,2.15149 -1.00708,3.57056 -0.99182,1.41906 -2.89917,1.96838 z m -7.72095,-9.56726 0,8.08716 3.87573,0 q 2.22779,0 3.35694,-1.02234 1.14441,-1.0376 1.14441,-3.0365 0,-1.9989 -1.14441,-3.00598 -1.12915,-1.02234 -3.35694,-1.02234 l -3.87573,0 z"
       style=""
       id="path4473" />
    <path
       d="m 466.26854,446.98557 -4.18091,11.33728 8.37708,0 -4.19617,-11.33728 z m -1.7395,-3.0365 3.49426,0 8.68225,22.78137 -3.20435,0 -2.07519,-5.84412 -10.26916,0 -2.0752,5.84412 -3.25012,0 8.69751,-22.78137 z"
       style=""
       id="path4475" />
    <path
       d="m 480.01671,443.94907 4.15039,0 10.10132,19.05823 0,-19.05823 2.99072,0 0,22.78137 -4.15039,0 -10.10132,-19.05823 0,19.05823 -2.99072,0 0,-22.78137 z"
       style=""
       id="path4477" />
    <path
       d="m 517.04979,444.69675 0,3.00598 q -1.75476,-0.83923 -3.31116,-1.25122 -1.55639,-0.41199 -3.00598,-0.41199 -2.5177,0 -3.89099,0.97657 -1.35803,0.97656 -1.35803,2.7771 0,1.51062 0.90027,2.28881 0.91552,0.76294 3.44848,1.23597 l 1.86157,0.38147 q 3.44849,0.65612 5.08118,2.31933 1.64795,1.64795 1.64795,4.42505 0,3.31116 -2.22778,5.02014 -2.21253,1.70899 -6.50025,1.70899 -1.61743,0 -3.44848,-0.36622 -1.8158,-0.36621 -3.76892,-1.08337 l 0,-3.17383 q 1.87683,1.05286 3.67736,1.58692 1.80054,0.53405 3.54004,0.53405 2.63977,0 4.0741,-1.03759 1.43433,-1.0376 1.43433,-2.96021 0,-1.67846 -1.0376,-2.62451 -1.02234,-0.94604 -3.37219,-1.41907 l -1.87684,-0.36621 q -3.44848,-0.68664 -4.98962,-2.15149 -1.54114,-1.46484 -1.54114,-4.07409 0,-3.02124 2.12097,-4.76075 2.13624,-1.7395 5.87464,-1.7395 1.60217,0 3.26538,0.28992 1.66321,0.28992 3.40271,0.86975 z"
       style=""
       id="path4479" />
    <path
       d="m 523.2296,443.94907 4.59289,0 5.8136,15.50293 5.84412,-15.50293 4.59289,0 0,22.78137 -3.00598,0 0,-20.00427 -5.87463,15.625 -3.09753,0 -5.87464,-15.625 0,20.00427 -2.99072,0 0,-22.78137 z"
       style=""
       id="path4481" />
    <path
       d="m 550.20714,443.94907 3.08227,0 0,22.78137 -3.08227,0 0,-22.78137 z"
       style=""
       id="path4483" />
    <path
       d="m 556.26488,443.94907 19.27185,0 0,2.59399 -8.08716,0 0,20.18738 -3.09753,0 0,-20.18738 -8.08716,0 0,-2.59399 z"
       style=""
       id="path4485" />
    <path
       d="m 574.81957,443.94907 19.27184,0 0,2.59399 -8.08715,0 0,20.18738 -3.09754,0 0,-20.18738 -8.08715,0 0,-2.59399 z"
       style=""
       id="path4487" />
    <path
       d="m 597.08214,443.94907 14.40429,0 0,2.59399 -11.32202,0 0,6.74439 10.849,0 0,2.59399 -10.849,0 0,8.25501 11.59668,0 0,2.59399 -14.67895,0 0,-22.78137 z"
       style=""
       id="path4489" />
    <path
       d="m 627.66075,456.04929 q 0.99182,0.33569 1.92261,1.43433 0.94604,1.09863 1.89209,3.02124 l 3.12805,6.22558 -3.31116,0 -2.91443,-5.84412 q -1.12915,-2.28881 -2.19726,-3.03649 -1.05286,-0.74768 -2.88391,-0.74768 l -3.35694,0 0,9.62829 -3.08227,0 0,-22.78137 6.95801,0 q 3.90625,0 5.82885,1.63269 1.92261,1.63269 1.92261,4.92859 0,2.15149 -1.00708,3.57056 -0.99182,1.41906 -2.89917,1.96838 z m -7.72095,-9.56726 0,8.08716 3.87574,0 q 2.22778,0 3.35693,-1.02234 1.14441,-1.0376 1.14441,-3.0365 0,-1.9989 -1.14441,-3.00598 -1.12915,-1.02234 -3.35693,-1.02234 l -3.87574,0 z"
       style=""
       id="path4491" />
  </g>
  <path
     inkscape:connector-curvature="0"
     style="opacity:1;fill:none;fill-opacity:1;fill-rule:evenodd;stroke:#ff4141;stroke-width:1.41732287;stroke-linecap:round;stroke-linejoin:miter;stroke-miterlimit:4;stroke-dasharray:none;stroke-opacity:1"
     d="m 60.322266,423.01367 0,8.85547 -10.609668,0 0,53.15039 10.609668,0 0,70.85549 -10.609668,0 0,53.14844 10.609668,0 0,8.85742 70.865234,0 0,-8.85742 10.61565,0 0,-53.14844 -10.61565,0 0,-70.85354 10.61565,0 0,-53.14648 -10.61565,0 0,-8.86133 z"
     id="rect4431-0"
     sodipodi:nodetypes="ccccccccccccccccccccc" />
  <path
     style="fill:#128807"
     d="m 206.58383,200.62918 346.53882,0 0,77.00862 -346.53882,0 z"
     id="rect4339-3" />
  <path
     inkscape:connector-curvature="0"
     style="opacity:1;fill:none;fill-opacity:1;fill-rule:evenodd;stroke:#ff4141;stroke-width:1.41732287;stroke-linecap:round;stroke-linejoin:miter;stroke-miterlimit:4;stroke-dasharray:none;stroke-opacity:1"
     d="m 191.41389,415.36922 0,10.62956 -8.85547,0 0,70.86718 8.85547,0 0,10.62925 53.15039,0 0,-10.62925 53.15429,0 0,10.62925 53.15039,0 0,-10.62925 53.14454,0 0,10.62925 53.14843,0 0,-10.62925 53.1543,0 0,10.62925 53.15039,0 0,-10.62925 8.85547,0 0,-70.86718 -8.85547,0 0,-10.62956 -53.15039,0 0,10.62956 -53.1543,0 0,-10.62956 -53.14843,0 0,10.62956 -53.14454,0 0,-10.62956 -53.15039,0 0,10.62956 -53.15429,0 0,-10.62956 z"
     id="rect4431-02-8-1-9"
     sodipodi:nodetypes="ccccccccccccccccccccccccccccccccccccc" />
  <path
     inkscape:connector-curvature="0"
     id="rect4952-2"
     d="m 208.20066,440.1735 17.71653,0 0,42.51968 -17.71653,0 z"
     style="color:#000000;clip-rule:nonzero;display:inline;overflow:visible;visibility:visible;opacity:0.98999999;isolation:auto;mix-blend-mode:normal;color-interpolation:sRGB;color-interpolation-filters:linearRGB;solid-color:#000000;solid-opacity:1;fill:none;fill-opacity:1;fill-rule:evenodd;stroke:#ff4141;stroke-width:1.41732287;stroke-linecap:round;stroke-linejoin:miter;stroke-miterlimit:4;stroke-dasharray:none;stroke-dashoffset:0;stroke-opacity:1;color-rendering:auto;image-rendering:auto;shape-rendering:auto;text-rendering:auto;enable-background:accumulate" />
  <path
     inkscape:connector-curvature="0"
     id="rect4952-6-6"
     d="m 243.63373,440.1735 17.71654,0 0,42.51968 -17.71654,0 z"
     style="color:#000000;clip-rule:nonzero;display:inline;overflow:visible;visibility:visible;opacity:0.98999999;isolation:auto;mix-blend-mode:normal;color-interpolation:sRGB;color-interpolation-filters:linearRGB;solid-color:#000000;solid-opacity:1;fill:none;fill-opacity:1;fill-rule:evenodd;stroke:#ff4141;stroke-width:1.41732287;stroke-linecap:round;stroke-linejoin:miter;stroke-miterlimit:4;stroke-dasharray:none;stroke-dashoffset:0;stroke-opacity:1;color-rendering:auto;image-rendering:auto;shape-rendering:auto;text-rendering:auto;enable-background:accumulate" />
  <path
     inkscape:connector-curvature="0"
     id="rect4952-9-6"
     d="m 279.0668,440.1735 17.71654,0 0,42.51968 -17.71654,0 z"
     style="color:#000000;clip-rule:nonzero;display:inline;overflow:visible;visibility:visible;opacity:0.98999999;isolation:auto;mix-blend-mode:normal;color-interpolation:sRGB;color-interpolation-filters:linearRGB;solid-color:#000000;solid-opacity:1;fill:none;fill-opacity:1;fill-rule:evenodd;stroke:#ff4141;stroke-width:1.41732287;stroke-linecap:round;stroke-linejoin:miter;stroke-miterlimit:4;stroke-dasharray:none;stroke-dashoffset:0;stroke-opacity:1;color-rendering:auto;image-rendering:auto;shape-rendering:auto;text-rendering:auto;enable-background:accumulate" />
  <path
     inkscape:connector-curvature="0"
     id="rect4952-6-3-49"
     d="m 314.49988,440.1735 17.71653,0 0,42.51968 -17.71653,0 z"
     style="color:#000000;clip-rule:nonzero;display:inline;overflow:visible;visibility:visible;opacity:0.98999999;isolation:auto;mix-blend-mode:normal;color-interpolation:sRGB;color-interpolation-filters:linearRGB;solid-color:#000000;solid-opacity:1;fill:none;fill-opacity:1;fill-rule:evenodd;stroke:#ff4141;stroke-width:1.41732287;stroke-linecap:round;stroke-linejoin:miter;stroke-miterlimit:4;stroke-dasharray:none;stroke-dashoffset:0;stroke-opacity:1;color-rendering:auto;image-rendering:auto;shape-rendering:auto;text-rendering:auto;enable-background:accumulate" />
  <path
     style="color:#000000;clip-rule:nonzero;display:inline;overflow:visible;visibility:visible;opacity:0.98999999;isolation:auto;mix-blend-mode:normal;color-interpolation:sRGB;color-interpolation-filters:linearRGB;solid-color:#000000;solid-opacity:1;fill:none;fill-opacity:1;fill-rule:evenodd;stroke:#ff4141;stroke-width:1.41732287;stroke-linecap:round;stroke-linejoin:miter;stroke-miterlimit:4;stroke-dasharray:none;stroke-dashoffset:0;stroke-opacity:1;color-rendering:auto;image-rendering:auto;shape-rendering:auto;text-rendering:auto;enable-background:accumulate"
     d="M 349.93359 440.17383 L 349.93359 482.69336 L 358.56445 482.69336 L 367.65039 482.69336 L 403.08203 482.69336 L 403.08203 440.17383 L 367.65039 440.17383 L 358.56445 440.17383 L 349.93359 440.17383 z "
     id="rect4952-5-5" />
  <path
     inkscape:connector-curvature="0"
     id="rect4952-9-4-4"
     d="m 420.79908,440.1735 17.71654,0 0,42.51968 -17.71654,0 z"
     style="color:#000000;clip-rule:nonzero;display:inline;overflow:visible;visibility:visible;opacity:0.98999999;isolation:auto;mix-blend-mode:normal;color-interpolation:sRGB;color-interpolation-filters:linearRGB;solid-color:#000000;solid-opacity:1;fill:none;fill-opacity:1;fill-rule:evenodd;stroke:#ff4141;stroke-width:1.41732287;stroke-linecap:round;stroke-linejoin:miter;stroke-miterlimit:4;stroke-dasharray:none;stroke-dashoffset:0;stroke-opacity:1;color-rendering:auto;image-rendering:auto;shape-rendering:auto;text-rendering:auto;enable-background:accumulate" />
  <path
     inkscape:connector-curvature="0"
     id="rect4952-6-3-4-8"
     d="m 456.23216,440.1735 17.71653,0 0,42.51968 -17.71653,0 z"
     style="color:#000000;clip-rule:nonzero;display:inline;overflow:visible;visibility:visible;opacity:0.98999999;isolation:auto;mix-blend-mode:normal;color-interpolation:sRGB;color-interpolation-filters:linearRGB;solid-color:#000000;solid-opacity:1;fill:none;fill-opacity:1;fill-rule:evenodd;stroke:#ff4141;stroke-width:1.41732287;stroke-linecap:round;stroke-linejoin:miter;stroke-miterlimit:4;stroke-dasharray:none;stroke-dashoffset:0;stroke-opacity:1;color-rendering:auto;image-rendering:auto;shape-rendering:auto;text-rendering:auto;enable-background:accumulate" />
  <path
     inkscape:connector-curvature="0"
     id="rect4952-5-7-7"
     d="m 493.53024,440.1735 17.71653,0 0,42.51968 -17.71653,0 z"
     style="color:#000000;clip-rule:nonzero;display:inline;overflow:visible;visibility:visible;opacity:0.98999999;isolation:auto;mix-blend-mode:normal;color-interpolation:sRGB;color-interpolation-filters:linearRGB;solid-color:#000000;solid-opacity:1;fill:none;fill-opacity:1;fill-rule:evenodd;stroke:#ff4141;stroke-width:1.41732287;stroke-linecap:round;stroke-linejoin:miter;stroke-miterlimit:4;stroke-dasharray:none;stroke-dashoffset:0;stroke-opacity:1;color-rendering:auto;image-rendering:auto;shape-rendering:auto;text-rendering:auto;enable-background:accumulate" />
  <path
     inkscape:connector-curvature="0"
     id="rect4952-6-4-8-1"
     d="m 528.96331,440.1735 17.71654,0 0,42.51968 -17.71654,0 z"
     style="color:#000000;clip-rule:nonzero;display:inline;overflow:visible;visibility:visible;opacity:0.98999999;isolation:auto;mix-blend-mode:normal;color-interpolation:sRGB;color-interpolation-filters:linearRGB;solid-color:#000000;solid-opacity:1;fill:none;fill-opacity:1;fill-rule:evenodd;stroke:#ff4141;stroke-width:1.41732287;stroke-linecap:round;stroke-linejoin:miter;stroke-miterlimit:4;stroke-dasharray:none;stroke-dashoffset:0;stroke-opacity:1;color-rendering:auto;image-rendering:auto;shape-rendering:auto;text-rendering:auto;enable-background:accumulate" />
  <path
     inkscape:connector-curvature="0"
     style="opacity:1;fill:none;fill-opacity:1;fill-rule:evenodd;stroke:#ff4141;stroke-width:1.41732287;stroke-linecap:round;stroke-linejoin:miter;stroke-miterlimit:4;stroke-dasharray:none;stroke-opacity:1"
     d="m 193.52848,512.15435 0,10.62956 -8.85547,0 0,70.86718 8.85547,0 0,10.62925 53.15039,0 0,-10.62925 53.15429,0 0,10.62925 53.15039,0 0,-10.62925 53.14454,0 0,10.62925 53.14843,0 0,-10.62925 53.1543,0 0,10.62925 53.15039,0 0,-10.62925 8.85547,0 0,-70.86718 -8.85547,0 0,-10.62956 -53.15039,0 0,10.62956 -53.1543,0 0,-10.62956 -53.14843,0 0,10.62956 -53.14454,0 0,-10.62956 -53.15039,0 0,10.62956 -53.15429,0 0,-10.62956 z"
     id="rect4431-02-8-1-9-3"
     sodipodi:nodetypes="ccccccccccccccccccccccccccccccccccccc" />
  <path
     inkscape:connector-curvature="0"
     id="rect4952-2-6"
     d="m 210.31525,536.95863 17.71653,0 0,42.51968 -17.71653,0 z"
     style="color:#000000;clip-rule:nonzero;display:inline;overflow:visible;visibility:visible;opacity:0.98999999;isolation:auto;mix-blend-mode:normal;color-interpolation:sRGB;color-interpolation-filters:linearRGB;solid-color:#000000;solid-opacity:1;fill:none;fill-opacity:1;fill-rule:evenodd;stroke:#ff4141;stroke-width:1.41732287;stroke-linecap:round;stroke-linejoin:miter;stroke-miterlimit:4;stroke-dasharray:none;stroke-dashoffset:0;stroke-opacity:1;color-rendering:auto;image-rendering:auto;shape-rendering:auto;text-rendering:auto;enable-background:accumulate" />
  <path
     inkscape:connector-curvature="0"
     id="rect4952-6-6-7"
     d="m 245.74832,536.95863 17.71654,0 0,42.51968 -17.71654,0 z"
     style="color:#000000;clip-rule:nonzero;display:inline;overflow:visible;visibility:visible;opacity:0.98999999;isolation:auto;mix-blend-mode:normal;color-interpolation:sRGB;color-interpolation-filters:linearRGB;solid-color:#000000;solid-opacity:1;fill:none;fill-opacity:1;fill-rule:evenodd;stroke:#ff4141;stroke-width:1.41732287;stroke-linecap:round;stroke-linejoin:miter;stroke-miterlimit:4;stroke-dasharray:none;stroke-dashoffset:0;stroke-opacity:1;color-rendering:auto;image-rendering:auto;shape-rendering:auto;text-rendering:auto;enable-background:accumulate" />
  <path
     inkscape:connector-curvature="0"
     id="rect4952-9-6-5"
     d="m 281.18139,536.95863 17.71654,0 0,42.51968 -17.71654,0 z"
     style="color:#000000;clip-rule:nonzero;display:inline;overflow:visible;visibility:visible;opacity:0.98999999;isolation:auto;mix-blend-mode:normal;color-interpolation:sRGB;color-interpolation-filters:linearRGB;solid-color:#000000;solid-opacity:1;fill:none;fill-opacity:1;fill-rule:evenodd;stroke:#ff4141;stroke-width:1.41732287;stroke-linecap:round;stroke-linejoin:miter;stroke-miterlimit:4;stroke-dasharray:none;stroke-dashoffset:0;stroke-opacity:1;color-rendering:auto;image-rendering:auto;shape-rendering:auto;text-rendering:auto;enable-background:accumulate" />
  <path
     inkscape:connector-curvature="0"
     id="rect4952-6-3-49-3"
     d="m 316.61447,536.95863 17.71653,0 0,42.51968 -17.71653,0 z"
     style="color:#000000;clip-rule:nonzero;display:inline;overflow:visible;visibility:visible;opacity:0.98999999;isolation:auto;mix-blend-mode:normal;color-interpolation:sRGB;color-interpolation-filters:linearRGB;solid-color:#000000;solid-opacity:1;fill:none;fill-opacity:1;fill-rule:evenodd;stroke:#ff4141;stroke-width:1.41732287;stroke-linecap:round;stroke-linejoin:miter;stroke-miterlimit:4;stroke-dasharray:none;stroke-dashoffset:0;stroke-opacity:1;color-rendering:auto;image-rendering:auto;shape-rendering:auto;text-rendering:auto;enable-background:accumulate" />
  <path
     inkscape:connector-curvature="0"
     id="rect4952-5-5-5"
     d="m 352.04753,536.95863 17.71653,0 0,42.51968 -17.71653,0 z"
     style="color:#000000;clip-rule:nonzero;display:inline;overflow:visible;visibility:visible;opacity:0.98999999;isolation:auto;mix-blend-mode:normal;color-interpolation:sRGB;color-interpolation-filters:linearRGB;solid-color:#000000;solid-opacity:1;fill:none;fill-opacity:1;fill-rule:evenodd;stroke:#ff4141;stroke-width:1.41732287;stroke-linecap:round;stroke-linejoin:miter;stroke-miterlimit:4;stroke-dasharray:none;stroke-dashoffset:0;stroke-opacity:1;color-rendering:auto;image-rendering:auto;shape-rendering:auto;text-rendering:auto;enable-background:accumulate" />
  <path
     inkscape:connector-curvature="0"
     id="rect4952-6-4-0-6"
     d="m 387.4806,536.95863 17.71654,0 0,42.51968 -17.71654,0 z"
     style="color:#000000;clip-rule:nonzero;display:inline;overflow:visible;visibility:visible;opacity:0.98999999;isolation:auto;mix-blend-mode:normal;color-interpolation:sRGB;color-interpolation-filters:linearRGB;solid-color:#000000;solid-opacity:1;fill:none;fill-opacity:1;fill-rule:evenodd;stroke:#ff4141;stroke-width:1.41732287;stroke-linecap:round;stroke-linejoin:miter;stroke-miterlimit:4;stroke-dasharray:none;stroke-dashoffset:0;stroke-opacity:1;color-rendering:auto;image-rendering:auto;shape-rendering:auto;text-rendering:auto;enable-background:accumulate" />
  <path
     inkscape:connector-curvature="0"
     id="rect4952-9-4-4-2"
     d="m 422.91367,536.95863 17.71654,0 0,42.51968 -17.71654,0 z"
     style="color:#000000;clip-rule:nonzero;display:inline;overflow:visible;visibility:visible;opacity:0.98999999;isolation:auto;mix-blend-mode:normal;color-interpolation:sRGB;color-interpolation-filters:linearRGB;solid-color:#000000;solid-opacity:1;fill:none;fill-opacity:1;fill-rule:evenodd;stroke:#ff4141;stroke-width:1.41732287;stroke-linecap:round;stroke-linejoin:miter;stroke-miterlimit:4;stroke-dasharray:none;stroke-dashoffset:0;stroke-opacity:1;color-rendering:auto;image-rendering:auto;shape-rendering:auto;text-rendering:auto;enable-background:accumulate" />
  <path
     inkscape:connector-curvature="0"
     id="rect4952-6-3-4-8-9"
     d="m 458.34675,536.95863 17.71653,0 0,42.51968 -17.71653,0 z"
     style="color:#000000;clip-rule:nonzero;display:inline;overflow:visible;visibility:visible;opacity:0.98999999;isolation:auto;mix-blend-mode:normal;color-interpolation:sRGB;color-interpolation-filters:linearRGB;solid-color:#000000;solid-opacity:1;fill:none;fill-opacity:1;fill-rule:evenodd;stroke:#ff4141;stroke-width:1.41732287;stroke-linecap:round;stroke-linejoin:miter;stroke-miterlimit:4;stroke-dasharray:none;stroke-dashoffset:0;stroke-opacity:1;color-rendering:auto;image-rendering:auto;shape-rendering:auto;text-rendering:auto;enable-background:accumulate" />
  <path
     inkscape:connector-curvature="0"
     id="rect4952-5-7-7-1"
     d="m 495.64483,536.95863 17.71653,0 0,42.51968 -17.71653,0 z"
     style="color:#000000;clip-rule:nonzero;display:inline;overflow:visible;visibility:visible;opacity:0.98999999;isolation:auto;mix-blend-mode:normal;color-interpolation:sRGB;color-interpolation-filters:linearRGB;solid-color:#000000;solid-opacity:1;fill:none;fill-opacity:1;fill-rule:evenodd;stroke:#ff4141;stroke-width:1.41732287;stroke-linecap:round;stroke-linejoin:miter;stroke-miterlimit:4;stroke-dasharray:none;stroke-dashoffset:0;stroke-opacity:1;color-rendering:auto;image-rendering:auto;shape-rendering:auto;text-rendering:auto;enable-background:accumulate" />
  <path
     inkscape:connector-curvature="0"
     id="rect4952-6-4-8-1-2"
     d="m 531.0779,536.95863 17.71654,0 0,42.51968 -17.71654,0 z"
     style="color:#000000;clip-rule:nonzero;display:inline;overflow:visible;visibility:visible;opacity:0.98999999;isolation:auto;mix-blend-mode:normal;color-interpolation:sRGB;color-interpolation-filters:linearRGB;solid-color:#000000;solid-opacity:1;fill:none;fill-opacity:1;fill-rule:evenodd;stroke:#ff4141;stroke-width:1.41732287;stroke-linecap:round;stroke-linejoin:miter;stroke-miterlimit:4;stroke-dasharray:none;stroke-dashoffset:0;stroke-opacity:1;color-rendering:auto;image-rendering:auto;shape-rendering:auto;text-rendering:auto;enable-background:accumulate" />
  <path
     inkscape:connector-curvature="0"
     style="opacity:1;fill:none;fill-opacity:1;fill-rule:evenodd;stroke:#ff4141;stroke-width:1.41732287;stroke-linecap:round;stroke-linejoin:miter;stroke-miterlimit:4;stroke-dasharray:none;stroke-opacity:1"
     d="m 615.60203,428.12127 0,8.85547 -10.60967,0 0,53.15039 10.60967,0 0,70.88569 -10.60967,0 0,53.14844 10.60967,0 0,8.85742 70.86523,0 0,-8.85742 10.61565,0 0,-53.14844 -10.61565,0 0,-70.88374 10.61565,0 0,-53.14648 -10.61565,0 0,-8.86133 z"
     id="rect4431-0-0"
     sodipodi:nodetypes="ccccccccccccccccccccc" />
  <path
     inkscape:connector-curvature="0"
     style="opacity:1;fill:none;fill-opacity:1;fill-rule:evenodd;stroke:#ff4141;stroke-width:1.41732287;stroke-linecap:round;stroke-linejoin:miter;stroke-miterlimit:4;stroke-dasharray:none;stroke-opacity:1"
     d="m 108.08343,640.08359 c -50.925803,0 -91.92382,40.99799 -91.92382,91.92383 l 0,5.51367 10.637761,0 0,53.15039 -10.637761,0 0,70.88505 10.637761,0 0,53.14844 -10.637761,0 0,5.51562 c 0,50.92587 42.317064,103.43941 91.92382,91.92391 l 76.38087,0 0.007,-10.6144 53.15039,0 -0.008,10.6144 53.1543,0 0.007,-10.6144 53.14844,0 -0.007,10.6144 53.14648,0 0.007,-10.6144 53.14844,0 -0.007,10.6144 53.15429,0 0.007,-10.6144 53.1504,0 -0.008,10.6144 76.38086,0 c 50.92583,0 91.92382,-40.99804 91.92382,-91.92391 l 0,-5.51562 -10.62277,0 0,-53.14844 10.62277,0 0,-70.88505 -10.62277,0 0,-53.15039 10.62277,0 0,-5.51367 c 0,-50.92584 -40.99799,-91.92383 -91.92382,-91.92383 l -76.38086,0 0,10.64484 -53.1504,0 0,-10.64484 -53.15429,0 0,10.64484 -53.14844,0 0,-10.64484 -53.14648,0 0,10.64484 -53.14844,0 0,-10.64484 -53.1543,0 0,10.64484 -53.15039,0 0,-10.64484 z"
     id="rect4141-3"
     sodipodi:nodetypes="ssccccccccssccccccccccccccccssccccccccssccccccccccccccccs" />
</svg>
