  0
SECTION
  2
HEADER
  9
$ACADVER
  1
AC1014
  9
$HANDSEED
  5
FFFF
  9
$MEASUREMENT
 70
     1
  0
ENDSEC
  0
SECTION
  2
TABLES
  0
TABLE
  2
VPORT
  5
8
330
0
100
AcDbSymbolTable
 70
     4
  0
VPORT
  5
2E
330
8
100
AcDbSymbolTableRecord
100
AcDbViewportTableRecord
  2
*ACTIVE
 70
     0
 10
0.0
 20
0.0
 11
1.0
 21
1.0
 12
210.0
 22
148.5
 13
0.0
 23
0.0
 14
10.0
 24
10.0
 15
10.0
 25
10.0
 16
0.0
 26
0.0
 36
1.0
 17
0.0
 27
0.0
 37
0.0
 40
341.0
 41
1.24
 42
50.0
 43
0.0
 44
0.0
 50
0.0
 51
0.0
 71
     0
 72
   100
 73
     1
 74
     3
 75
     0
 76
     0
 77
     0
 78
     0
  0
ENDTAB
  0
TABLE
  2
LTYPE
  5
5
330
0
100
AcDbSymbolTable
 70
     1
  0
LTYPE
  5
14
330
5
100
AcDbSymbolTableRecord
100
AcDbLinetypeTableRecord
  2
BYBLOCK
 70
     0
  3

 72
    65
 73
     0
 40
0.0
  0
LTYPE
  5
15
330
5
100
AcDbSymbolTableRecord
100
AcDbLinetypeTableRecord
  2
BYLAYER
 70
     0
  3

 72
    65
 73
     0
 40
0.0
  0
LTYPE
  5
16
330
5
100
AcDbSymbolTableRecord
100
AcDbLinetypeTableRecord
  2
CONTINUOUS
 70
     0
  3
Solid line
 72
    65
 73
     0
 40
0.0
  0
ENDTAB
  0
TABLE
  2
LAYER
  5
2
100
AcDbSymbolTable
 70
2
  0
LAYER
  5
50
100
AcDbSymbolTableRecord
100
AcDbLayerTableRecord
  2
0
 70
0
  6
CONTINUOUS
  0
LAYER
  5
51
100
AcDbSymbolTableRecord
100
AcDbLayerTableRecord
  2
Layer_1
 70
0
  6
CONTINUOUS
  0
ENDTAB
  0
TABLE
  2
STYLE
  5
3
330
0
100
AcDbSymbolTable
 70
     1
  0
STYLE
  5
11
330
3
100
AcDbSymbolTableRecord
100
AcDbTextStyleTableRecord
  2
STANDARD
 70
     0
 40
0.0
 41
1.0
 50
0.0
 71
     0
 42
2.5
  3
txt
  4

  0
ENDTAB
  0
TABLE
  2
VIEW
  5
6
330
0
100
AcDbSymbolTable
 70
     0
  0
ENDTAB
  0
TABLE
  2
UCS
  5
7
330
0
100
AcDbSymbolTable
 70
     0
  0
ENDTAB
  0
TABLE
  2
APPID
  5
9
330
0
100
AcDbSymbolTable
 70
     2
  0
APPID
  5
12
330
9
100
AcDbSymbolTableRecord
100
AcDbRegAppTableRecord
  2
ACAD
 70
     0
  0
ENDTAB
  0
TABLE
  2
DIMSTYLE
  5
A
330
0
100
AcDbSymbolTable
 70
     1
  0
DIMSTYLE
105
27
330
A
100
AcDbSymbolTableRecord
100
AcDbDimStyleTableRecord
  2
ISO-25
 70
     0
  3

  4

  5

  6

  7

 40
1.0
 41
2.5
 42
0.625
 43
3.75
 44
1.25
 45
0.0
 46
0.0
 47
0.0
 48
0.0
140
2.5
141
2.5
142
0.0
143
0.03937007874016
144
1.0
145
0.0
146
1.0
147
0.625
 71
     0
 72
     0
 73
     0
 74
     0
 75
     0
 76
     0
 77
     1
 78
     8
170
     0
171
     3
172
     1
173
     0
174
     0
175
     0
176
     0
177
     0
178
     0
270
     2
271
     2
272
     2
273
     2
274
     3
340
11
275
     0
280
     0
281
     0
282
     0
283
     0
284
     8
285
     0
286
     0
287
     3
288
     0
  0
ENDTAB
  0
TABLE
  2
BLOCK_RECORD
  5
1
330
0
100
AcDbSymbolTable
 70
     1
  0
BLOCK_RECORD
  5
1F
330
1
100
AcDbSymbolTableRecord
100
AcDbBlockTableRecord
  2
*MODEL_SPACE
  0
BLOCK_RECORD
  5
1B
330
1
100
AcDbSymbolTableRecord
100
AcDbBlockTableRecord
  2
*PAPER_SPACE
  0
ENDTAB
  0
ENDSEC
  0
SECTION
  2
BLOCKS
  0
BLOCK
  5
20
330
1F
100
AcDbEntity
  8
0
100
AcDbBlockBegin
  2
*MODEL_SPACE
 70
     0
 10
0.0
 20
0.0
 30
0.0
  3
*MODEL_SPACE
  1

  0
ENDBLK
  5
21
330
1F
100
AcDbEntity
  8
0
100
AcDbBlockEnd
  0
BLOCK
  5
1C
330
1B
100
AcDbEntity
 67
     1
  8
0
100
AcDbBlockBegin
  2
*PAPER_SPACE
  1

  0
ENDBLK
  5
1D
330
1B
100
AcDbEntity
 67
     1
  8
0
100
AcDbBlockEnd
  0
ENDSEC
  0
SECTION
  2
ENTITIES
  0
LWPOLYLINE
  5
100
100
AcDbEntity
  8
Layer_1
 62
7
100
AcDbPolyline
 90
5
 70
1
 10
0.000000
 20
29.700006
 30
0.0
 10
0.000000
 20
29.700006
 30
0.0
 10
0.000000
 20
29.700006
 30
0.0
 10
0.000000
 20
29.700006
 30
0.0
 10
0.000000
 20
29.700006
 30
0.0
  0
SPLINE
  5
101
100
AcDbEntity
  8
Layer_1
 62
1
100
AcDbSpline
 70
8
 71
3
 72
8
 73
4
 74
0
 40
0
 40
0
 40
0
 40
0
 40
1
 40
1
 40
1
 40
1
 10
38.087730
 20
29.960655
 30
0.0
 10
38.117174
 20
30.608388
 30
0.0
 10
38.628123
 20
31.130399
 30
0.0
 10
39.274494
 20
31.174376
 30
0.0
  0
LWPOLYLINE
  5
102
100
AcDbEntity
  8
Layer_1
 62
1
100
AcDbPolyline
 90
23
 70
1
 10
36.586666
 20
44.424379
 30
0.0
 10
36.586666
 20
43.924371
 30
0.0
 10
36.086657
 20
43.924371
 30
0.0
 10
36.086657
 20
42.174373
 30
0.0
 10
35.586650
 20
42.174373
 30
0.0
 10
35.586650
 20
40.174399
 30
0.0
 10
36.086657
 20
40.174399
 30
0.0
 10
36.086657
 20
34.174365
 30
0.0
 10
35.586650
 20
34.174365
 30
0.0
 10
35.586650
 20
32.174391
 30
0.0
 10
36.086657
 20
32.174391
 30
0.0
 10
36.086657
 20
26.174357
 30
0.0
 10
35.586650
 20
26.174357
 30
0.0
 10
35.586650
 20
24.174383
 30
0.0
 10
36.086657
 20
24.174383
 30
0.0
 10
36.086657
 20
22.424385
 30
0.0
 10
36.586666
 20
22.424385
 30
0.0
 10
36.586666
 20
21.924377
 30
0.0
 10
37.586681
 20
21.924377
 30
0.0
 10
37.586681
 20
22.424385
 30
0.0
 10
38.086686
 20
22.424385
 30
0.0
 10
38.086686
 20
29.960655
 30
0.0
 10
38.087730
 20
29.960655
 30
0.0
  0
SPLINE
  5
103
100
AcDbEntity
  8
Layer_1
 62
1
100
AcDbSpline
 70
8
 71
3
 72
8
 73
4
 74
0
 40
0
 40
0
 40
0
 40
0
 40
1
 40
1
 40
1
 40
1
 10
39.303763
 20
35.175427
 30
0.0
 10
38.654345
 20
35.204950
 30
0.0
 10
38.131198
 20
35.718447
 30
0.0
 10
38.089604
 20
36.367209
 30
0.0
  0
LWPOLYLINE
  5
104
100
AcDbEntity
  8
Layer_1
 62
1
100
AcDbPolyline
 90
5
 70
1
 10
39.274494
 20
31.174376
 30
0.0
 10
40.086656
 20
31.174376
 30
0.0
 10
40.086656
 20
35.174380
 30
0.0
 10
39.303763
 20
35.174380
 30
0.0
 10
39.303763
 20
35.175427
 30
0.0
  0
LWPOLYLINE
  5
105
100
AcDbEntity
  8
Layer_1
 62
1
100
AcDbPolyline
 90
7
 70
1
 10
38.089604
 20
36.367209
 30
0.0
 10
38.086680
 20
36.367209
 30
0.0
 10
38.086680
 20
43.924371
 30
0.0
 10
37.586675
 20
43.924371
 30
0.0
 10
37.586675
 20
44.424378
 30
0.0
 10
36.586660
 20
44.424378
 30
0.0
 10
36.586666
 20
44.424379
 30
0.0
  0
SPLINE
  5
106
100
AcDbEntity
  8
Layer_1
 62
1
100
AcDbSpline
 70
8
 71
3
 72
8
 73
4
 74
0
 40
0
 40
0
 40
0
 40
0
 40
1
 40
1
 40
1
 40
1
 10
7.869700
 20
28.419119
 30
0.0
 10
8.519119
 20
28.389596
 30
0.0
 10
9.042272
 20
27.876087
 30
0.0
 10
9.083865
 20
27.227328
 30
0.0
  0
LWPOLYLINE
  5
107
100
AcDbEntity
  8
Layer_1
 62
1
100
AcDbPolyline
 90
14
 70
0
 10
38.551664
 20
34.423995
 30
0.0
 10
38.551664
 20
34.324390
 30
0.0
 10
38.086658
 20
34.324390
 30
0.0
 10
38.086658
 20
32.024389
 30
0.0
 10
38.551664
 20
32.024389
 30
0.0
 10
38.551664
 20
31.924509
 30
0.0
 10
38.871645
 20
31.924509
 30
0.0
 10
38.871645
 20
32.024389
 30
0.0
 10
39.336651
 20
32.024389
 30
0.0
 10
39.336651
 20
34.324390
 30
0.0
 10
38.871645
 20
34.324390
 30
0.0
 10
38.871645
 20
34.423995
 30
0.0
 10
38.551664
 20
34.423995
 30
0.0
 10
38.551664
 20
34.423995
 30
0.0
  0
SPLINE
  5
108
100
AcDbEntity
  8
Layer_1
 62
1
100
AcDbSpline
 70
8
 71
3
 72
8
 73
4
 74
0
 40
0
 40
0
 40
0
 40
0
 40
1
 40
1
 40
1
 40
1
 10
6.022439
 20
46.350325
 30
0.0
 10
4.917750
 20
46.350324
 30
0.0
 10
4.022227
 20
45.454802
 30
0.0
 10
4.022244
 20
44.350130
 30
0.0
  0
SPLINE
  5
109
100
AcDbEntity
  8
Layer_1
 62
1
100
AcDbSpline
 70
8
 71
3
 72
8
 73
4
 74
0
 40
0
 40
0
 40
0
 40
0
 40
1
 40
1
 40
1
 40
1
 10
4.022244
 20
44.350130
 30
0.0
 10
4.022257
 20
43.245479
 30
0.0
 10
4.917771
 20
42.349990
 30
0.0
 10
6.022439
 20
42.349990
 30
0.0
  0
SPLINE
  5
10a
100
AcDbEntity
  8
Layer_1
 62
1
100
AcDbSpline
 70
8
 71
3
 72
8
 73
4
 74
0
 40
0
 40
0
 40
0
 40
0
 40
1
 40
1
 40
1
 40
1
 10
6.022439
 20
42.349990
 30
0.0
 10
6.736322
 20
42.350746
 30
0.0
 10
7.395687
 20
42.731918
 30
0.0
 10
7.752594
 20
43.350170
 30
0.0
  0
LWPOLYLINE
  5
10b
100
AcDbEntity
  8
Layer_1
 62
1
100
AcDbPolyline
 90
5
 70
1
 10
9.083865
 20
27.227328
 30
0.0
 10
9.366821
 20
27.226341
 30
0.0
 10
9.366821
 20
28.730184
 30
0.0
 10
7.869700
 20
28.730184
 30
0.0
 10
7.869700
 20
28.419119
 30
0.0
  0
SPLINE
  5
10c
100
AcDbEntity
  8
Layer_1
 62
1
100
AcDbSpline
 70
8
 71
3
 72
8
 73
4
 74
0
 40
0
 40
0
 40
0
 40
0
 40
1
 40
1
 40
1
 40
1
 10
11.152434
 20
43.343941
 30
0.0
 10
12.684354
 20
43.274302
 30
0.0
 10
13.918431
 20
42.062995
 30
0.0
 10
14.016549
 20
40.532633
 30
0.0
  0
LWPOLYLINE
  5
10d
100
AcDbEntity
  8
Layer_1
 62
1
100
AcDbPolyline
 90
3
 70
1
 10
7.752594
 20
43.350170
 30
0.0
 10
11.152434
 20
43.350170
 30
0.0
 10
11.152434
 20
43.343941
 30
0.0
  0
SPLINE
  5
10e
100
AcDbEntity
  8
Layer_1
 62
1
100
AcDbSpline
 70
8
 71
3
 72
8
 73
4
 74
0
 40
0
 40
0
 40
0
 40
0
 40
1
 40
1
 40
1
 40
1
 10
14.022447
 20
26.146521
 30
0.0
 10
13.922634
 20
24.656034
 30
0.0
 10
12.740987
 20
23.462318
 30
0.0
 10
11.248125
 20
23.350206
 30
0.0
  0
LWPOLYLINE
  5
10f
100
AcDbEntity
  8
Layer_1
 62
1
100
AcDbPolyline
 90
3
 70
1
 10
14.016549
 20
40.532633
 30
0.0
 10
14.022447
 20
40.532633
 30
0.0
 10
14.022447
 20
26.146521
 30
0.0
  0
SPLINE
  5
110
100
AcDbEntity
  8
Layer_1
 62
1
100
AcDbSpline
 70
8
 71
3
 72
8
 73
4
 74
0
 40
0
 40
0
 40
0
 40
0
 40
1
 40
1
 40
1
 40
1
 10
7.751822
 20
23.350206
 30
0.0
 10
7.395054
 20
23.968219
 30
0.0
 10
6.736046
 20
24.349353
 30
0.0
 10
6.022439
 20
24.350386
 30
0.0
  0
SPLINE
  5
111
100
AcDbEntity
  8
Layer_1
 62
1
100
AcDbSpline
 70
8
 71
3
 72
8
 73
4
 74
0
 40
0
 40
0
 40
0
 40
0
 40
1
 40
1
 40
1
 40
1
 10
6.022439
 20
24.350386
 30
0.0
 10
4.917750
 20
24.350386
 30
0.0
 10
4.022227
 20
23.454863
 30
0.0
 10
4.022244
 20
22.350191
 30
0.0
  0
SPLINE
  5
112
100
AcDbEntity
  8
Layer_1
 62
1
100
AcDbSpline
 70
8
 71
3
 72
8
 73
4
 74
0
 40
0
 40
0
 40
0
 40
0
 40
1
 40
1
 40
1
 40
1
 10
4.022244
 20
22.350191
 30
0.0
 10
4.022257
 20
21.245541
 30
0.0
 10
4.917771
 20
20.350051
 30
0.0
 10
6.022439
 20
20.350051
 30
0.0
  0
SPLINE
  5
113
100
AcDbEntity
  8
Layer_1
 62
1
100
AcDbSpline
 70
8
 71
3
 72
8
 73
4
 74
0
 40
0
 40
0
 40
0
 40
0
 40
1
 40
1
 40
1
 40
1
 10
6.022439
 20
20.350051
 30
0.0
 10
6.736322
 20
20.350813
 30
0.0
 10
7.395688
 20
20.731979
 30
0.0
 10
7.752594
 20
21.350232
 30
0.0
  0
LWPOLYLINE
  5
114
100
AcDbEntity
  8
Layer_1
 62
1
100
AcDbPolyline
 90
2
 70
1
 10
11.248125
 20
23.350206
 30
0.0
 10
7.751822
 20
23.350206
 30
0.0
  0
SPLINE
  5
115
100
AcDbEntity
  8
Layer_1
 62
1
100
AcDbSpline
 70
8
 71
3
 72
8
 73
4
 74
0
 40
0
 40
0
 40
0
 40
0
 40
1
 40
1
 40
1
 40
1
 10
15.455717
 20
21.348744
 30
0.0
 10
15.748496
 20
21.329973
 30
0.0
 10
15.980268
 20
21.093859
 30
0.0
 10
15.993593
 20
20.800781
 30
0.0
  0
LWPOLYLINE
  5
116
100
AcDbEntity
  8
Layer_1
 62
1
100
AcDbPolyline
 90
4
 70
1
 10
7.752594
 20
21.350232
 30
0.0
 10
14.022447
 20
21.350232
 30
0.0
 10
15.455717
 20
21.350232
 30
0.0
 10
15.455717
 20
21.348744
 30
0.0
  0
SPLINE
  5
117
100
AcDbEntity
  8
Layer_1
 62
1
100
AcDbSpline
 70
8
 71
3
 72
8
 73
4
 74
0
 40
0
 40
0
 40
0
 40
0
 40
1
 40
1
 40
1
 40
1
 10
15.995303
 20
20.196440
 30
0.0
 10
15.996771
 20
19.836578
 30
0.0
 10
16.288806
 20
19.547329
 30
0.0
 10
16.651415
 20
19.547329
 30
0.0
  0
LWPOLYLINE
  5
118
100
AcDbEntity
  8
Layer_1
 62
1
100
AcDbPolyline
 90
4
 70
1
 10
15.993593
 20
20.800781
 30
0.0
 10
15.994696
 20
20.800781
 30
0.0
 10
15.994696
 20
20.696326
 30
0.0
 10
15.995303
 20
20.196440
 30
0.0
  0
SPLINE
  5
119
100
AcDbEntity
  8
Layer_1
 62
1
100
AcDbSpline
 70
8
 71
3
 72
8
 73
4
 74
0
 40
0
 40
0
 40
0
 40
0
 40
1
 40
1
 40
1
 40
1
 10
20.392733
 20
19.547329
 30
0.0
 10
20.755339
 20
19.547329
 30
0.0
 10
21.047380
 20
19.836578
 30
0.0
 10
21.048845
 20
20.196440
 30
0.0
  0
LWPOLYLINE
  5
11a
100
AcDbEntity
  8
Layer_1
 62
1
100
AcDbPolyline
 90
2
 70
1
 10
16.651415
 20
19.547329
 30
0.0
 10
20.392733
 20
19.547329
 30
0.0
  0
SPLINE
  5
11b
100
AcDbEntity
  8
Layer_1
 62
1
100
AcDbSpline
 70
8
 71
3
 72
8
 73
4
 74
0
 40
0
 40
0
 40
0
 40
0
 40
1
 40
1
 40
1
 40
1
 10
21.049505
 20
20.820129
 30
0.0
 10
21.071573
 20
21.104524
 30
0.0
 10
21.299068
 20
21.331200
 30
0.0
 10
21.585617
 20
21.349571
 30
0.0
  0
LWPOLYLINE
  5
11c
100
AcDbEntity
  8
Layer_1
 62
1
100
AcDbPolyline
 90
3
 70
1
 10
21.048845
 20
20.196440
 30
0.0
 10
21.049505
 20
20.196440
 30
0.0
 10
21.049505
 20
20.820129
 30
0.0
  0
SPLINE
  5
11d
100
AcDbEntity
  8
Layer_1
 62
1
100
AcDbSpline
 70
8
 71
3
 72
8
 73
4
 74
0
 40
0
 40
0
 40
0
 40
0
 40
1
 40
1
 40
1
 40
1
 10
29.281631
 20
21.350232
 30
0.0
 10
29.635317
 20
20.720975
 30
0.0
 10
30.300625
 20
20.331108
 30
0.0
 10
31.022479
 20
20.330098
 30
0.0
  0
SPLINE
  5
11e
100
AcDbEntity
  8
Layer_1
 62
1
100
AcDbSpline
 70
8
 71
3
 72
8
 73
4
 74
0
 40
0
 40
0
 40
0
 40
0
 40
1
 40
1
 40
1
 40
1
 10
31.022479
 20
20.330098
 30
0.0
 10
32.127145
 20
20.330098
 30
0.0
 10
33.022659
 20
21.225587
 30
0.0
 10
33.022673
 20
22.330237
 30
0.0
  0
SPLINE
  5
11f
100
AcDbEntity
  8
Layer_1
 62
1
100
AcDbSpline
 70
8
 71
3
 72
8
 73
4
 74
0
 40
0
 40
0
 40
0
 40
0
 40
1
 40
1
 40
1
 40
1
 10
33.022673
 20
22.330237
 30
0.0
 10
33.022690
 20
23.434909
 30
0.0
 10
32.127167
 20
24.330431
 30
0.0
 10
31.022479
 20
24.330432
 30
0.0
  0
SPLINE
  5
120
100
AcDbEntity
  8
Layer_1
 62
1
100
AcDbSpline
 70
8
 71
3
 72
8
 73
4
 74
0
 40
0
 40
0
 40
0
 40
0
 40
1
 40
1
 40
1
 40
1
 10
31.022479
 20
24.330432
 30
0.0
 10
30.317048
 20
24.329484
 30
0.0
 10
29.664279
 20
23.957021
 30
0.0
 10
29.304561
 20
23.350206
 30
0.0
  0
LWPOLYLINE
  5
121
100
AcDbEntity
  8
Layer_1
 62
1
100
AcDbPolyline
 90
4
 70
1
 10
21.585617
 20
21.349571
 30
0.0
 10
21.585617
 20
21.350232
 30
0.0
 10
23.022415
 20
21.350232
 30
0.0
 10
29.281631
 20
21.350232
 30
0.0
  0
SPLINE
  5
122
100
AcDbEntity
  8
Layer_1
 62
1
100
AcDbSpline
 70
8
 71
3
 72
8
 73
4
 74
0
 40
0
 40
0
 40
0
 40
0
 40
1
 40
1
 40
1
 40
1
 10
25.884049
 20
23.353954
 30
0.0
 10
24.363128
 20
23.423094
 30
0.0
 10
23.135980
 20
24.617682
 30
0.0
 10
23.022414
 20
26.132465
 30
0.0
  0
LWPOLYLINE
  5
123
100
AcDbEntity
  8
Layer_1
 62
1
100
AcDbPolyline
 90
3
 70
1
 10
29.304561
 20
23.350206
 30
0.0
 10
25.884049
 20
23.350206
 30
0.0
 10
25.884049
 20
23.353954
 30
0.0
  0
SPLINE
  5
124
100
AcDbEntity
  8
Layer_1
 62
1
100
AcDbSpline
 70
8
 71
3
 72
8
 73
4
 74
0
 40
0
 40
0
 40
0
 40
0
 40
1
 40
1
 40
1
 40
1
 10
23.028257
 20
40.480213
 30
0.0
 10
23.097897
 20
42.012133
 30
0.0
 10
24.309204
 20
43.246210
 30
0.0
 10
25.839565
 20
43.344327
 30
0.0
  0
LWPOLYLINE
  5
125
100
AcDbEntity
  8
Layer_1
 62
1
100
AcDbPolyline
 90
3
 70
1
 10
23.022414
 20
26.132465
 30
0.0
 10
23.022414
 20
40.480213
 30
0.0
 10
23.028257
 20
40.480213
 30
0.0
  0
SPLINE
  5
126
100
AcDbEntity
  8
Layer_1
 62
1
100
AcDbSpline
 70
8
 71
3
 72
8
 73
4
 74
0
 40
0
 40
0
 40
0
 40
0
 40
1
 40
1
 40
1
 40
1
 10
29.281628
 20
43.350170
 30
0.0
 10
29.635317
 20
42.720914
 30
0.0
 10
30.300625
 20
42.331045
 30
0.0
 10
31.022476
 20
42.330036
 30
0.0
  0
SPLINE
  5
127
100
AcDbEntity
  8
Layer_1
 62
1
100
AcDbSpline
 70
8
 71
3
 72
8
 73
4
 74
0
 40
0
 40
0
 40
0
 40
0
 40
1
 40
1
 40
1
 40
1
 10
31.022476
 20
42.330036
 30
0.0
 10
32.127145
 20
42.330037
 30
0.0
 10
33.022659
 20
43.225526
 30
0.0
 10
33.022673
 20
44.330176
 30
0.0
  0
SPLINE
  5
128
100
AcDbEntity
  8
Layer_1
 62
1
100
AcDbSpline
 70
8
 71
3
 72
8
 73
4
 74
0
 40
0
 40
0
 40
0
 40
0
 40
1
 40
1
 40
1
 40
1
 10
33.022673
 20
44.330176
 30
0.0
 10
33.022690
 20
45.434848
 30
0.0
 10
32.127167
 20
46.330370
 30
0.0
 10
31.022476
 20
46.330371
 30
0.0
  0
SPLINE
  5
129
100
AcDbEntity
  8
Layer_1
 62
1
100
AcDbSpline
 70
8
 71
3
 72
8
 73
4
 74
0
 40
0
 40
0
 40
0
 40
0
 40
1
 40
1
 40
1
 40
1
 10
31.022476
 20
46.330371
 30
0.0
 10
30.317048
 20
46.329422
 30
0.0
 10
29.664276
 20
45.956959
 30
0.0
 10
29.304559
 20
45.350145
 30
0.0
  0
LWPOLYLINE
  5
12a
100
AcDbEntity
  8
Layer_1
 62
1
100
AcDbPolyline
 90
3
 70
1
 10
25.839565
 20
43.344327
 30
0.0
 10
25.839565
 20
43.350170
 30
0.0
 10
29.281628
 20
43.350170
 30
0.0
  0
SPLINE
  5
12b
100
AcDbEntity
  8
Layer_1
 62
1
100
AcDbSpline
 70
8
 71
3
 72
8
 73
4
 74
0
 40
0
 40
0
 40
0
 40
0
 40
1
 40
1
 40
1
 40
1
 10
7.751822
 20
45.350145
 30
0.0
 10
7.395054
 20
45.968158
 30
0.0
 10
6.736046
 20
46.349292
 30
0.0
 10
6.022439
 20
46.350325
 30
0.0
  0
LWPOLYLINE
  5
12c
100
AcDbEntity
  8
Layer_1
 62
1
100
AcDbPolyline
 90
6
 70
1
 10
29.304559
 20
45.350145
 30
0.0
 10
23.022414
 20
45.350145
 30
0.0
 10
23.022414
 20
45.350201
 30
0.0
 10
14.022447
 20
45.350201
 30
0.0
 10
14.022447
 20
45.350145
 30
0.0
 10
7.751822
 20
45.350145
 30
0.0
  0
LWPOLYLINE
  5
12d
100
AcDbEntity
  8
Layer_1
 62
1
100
AcDbPolyline
 90
2
 70
1
 10
6.022439
 20
46.350325
 30
0.0
 10
6.022439
 20
46.350325
 30
0.0
  0
LWPOLYLINE
  5
12e
100
AcDbEntity
  8
Layer_1
 62
1
100
AcDbPolyline
 90
5
 70
1
 10
8.502402
 20
44.600164
 30
0.0
 10
9.502437
 20
44.600164
 30
0.0
 10
9.502437
 20
44.100129
 30
0.0
 10
8.502402
 20
44.100129
 30
0.0
 10
8.502402
 20
44.600164
 30
0.0
  0
LWPOLYLINE
  5
12f
100
AcDbEntity
  8
Layer_1
 62
1
100
AcDbPolyline
 90
5
 70
1
 10
27.542402
 20
44.600164
 30
0.0
 10
28.542437
 20
44.600164
 30
0.0
 10
28.542437
 20
44.100129
 30
0.0
 10
27.542402
 20
44.100129
 30
0.0
 10
27.542402
 20
44.600164
 30
0.0
  0
LWPOLYLINE
  5
130
100
AcDbEntity
  8
Layer_1
 62
1
100
AcDbPolyline
 90
5
 70
1
 10
14.022403
 20
44.600164
 30
0.0
 10
15.022439
 20
44.600164
 30
0.0
 10
15.022439
 20
44.100129
 30
0.0
 10
14.022403
 20
44.100129
 30
0.0
 10
14.022403
 20
44.600164
 30
0.0
  0
SPLINE
  5
131
100
AcDbEntity
  8
Layer_1
 62
1
100
AcDbSpline
 70
8
 71
3
 72
8
 73
4
 74
0
 40
0
 40
0
 40
0
 40
0
 40
1
 40
1
 40
1
 40
1
 10
5.248139
 20
23.124493
 30
0.0
 10
5.306900
 20
23.183253
 30
0.0
 10
5.401510
 20
23.183254
 30
0.0
 10
5.460271
 20
23.124493
 30
0.0
  0
LWPOLYLINE
  5
132
100
AcDbEntity
  8
Layer_1
 62
1
100
AcDbPolyline
 90
5
 70
1
 10
22.022401
 20
44.600164
 30
0.0
 10
23.022436
 20
44.600164
 30
0.0
 10
23.022436
 20
44.100129
 30
0.0
 10
22.022401
 20
44.100129
 30
0.0
 10
22.022401
 20
44.600164
 30
0.0
  0
SPLINE
  5
133
100
AcDbEntity
  8
Layer_1
 62
1
100
AcDbSpline
 70
8
 71
3
 72
8
 73
4
 74
0
 40
0
 40
0
 40
0
 40
0
 40
1
 40
1
 40
1
 40
1
 10
5.672403
 20
22.912361
 30
0.0
 10
5.731164
 20
22.853600
 30
0.0
 10
5.731164
 20
22.758989
 30
0.0
 10
5.672403
 20
22.700229
 30
0.0
  0
SPLINE
  5
134
100
AcDbEntity
  8
Layer_1
 62
1
100
AcDbSpline
 70
8
 71
3
 72
8
 73
4
 74
0
 40
0
 40
0
 40
0
 40
0
 40
1
 40
1
 40
1
 40
1
 10
5.672403
 20
22.700229
 30
0.0
 10
5.613642
 20
22.641468
 30
0.0
 10
5.519032
 20
22.641468
 30
0.0
 10
5.460271
 20
22.700229
 30
0.0
  0
LWPOLYLINE
  5
135
100
AcDbEntity
  8
Layer_1
 62
1
100
AcDbPolyline
 90
2
 70
1
 10
5.460271
 20
23.124493
 30
0.0
 10
5.672403
 20
22.912361
 30
0.0
  0
SPLINE
  5
136
100
AcDbEntity
  8
Layer_1
 62
1
100
AcDbSpline
 70
8
 71
3
 72
8
 73
4
 74
0
 40
0
 40
0
 40
0
 40
0
 40
1
 40
1
 40
1
 40
1
 10
5.248139
 20
22.912361
 30
0.0
 10
5.189378
 20
22.971121
 30
0.0
 10
5.189378
 20
23.065732
 30
0.0
 10
5.248139
 20
23.124493
 30
0.0
  0
LWPOLYLINE
  5
137
100
AcDbEntity
  8
Layer_1
 62
1
100
AcDbPolyline
 90
2
 70
1
 10
5.460271
 20
22.700229
 30
0.0
 10
5.248139
 20
22.912361
 30
0.0
  0
SPLINE
  5
138
100
AcDbEntity
  8
Layer_1
 62
1
100
AcDbSpline
 70
8
 71
3
 72
8
 73
4
 74
0
 40
0
 40
0
 40
0
 40
0
 40
1
 40
1
 40
1
 40
1
 10
6.372438
 20
22.000194
 30
0.0
 10
6.431199
 20
22.058954
 30
0.0
 10
6.525810
 20
22.058954
 30
0.0
 10
6.584570
 20
22.000194
 30
0.0
  0
LWPOLYLINE
  5
139
100
AcDbEntity
  8
Layer_1
 62
1
100
AcDbPolyline
 90
2
 70
1
 10
5.248139
 20
23.124493
 30
0.0
 10
5.248139
 20
23.124493
 30
0.0
  0
SPLINE
  5
13a
100
AcDbEntity
  8
Layer_1
 62
1
100
AcDbSpline
 70
8
 71
3
 72
8
 73
4
 74
0
 40
0
 40
0
 40
0
 40
0
 40
1
 40
1
 40
1
 40
1
 10
6.796703
 20
21.788061
 30
0.0
 10
6.855463
 20
21.729301
 30
0.0
 10
6.855463
 20
21.634690
 30
0.0
 10
6.796703
 20
21.575929
 30
0.0
  0
SPLINE
  5
13b
100
AcDbEntity
  8
Layer_1
 62
1
100
AcDbSpline
 70
8
 71
3
 72
8
 73
4
 74
0
 40
0
 40
0
 40
0
 40
0
 40
1
 40
1
 40
1
 40
1
 10
6.796703
 20
21.575929
 30
0.0
 10
6.737942
 20
21.517169
 30
0.0
 10
6.643331
 20
21.517169
 30
0.0
 10
6.584570
 20
21.575929
 30
0.0
  0
LWPOLYLINE
  5
13c
100
AcDbEntity
  8
Layer_1
 62
1
100
AcDbPolyline
 90
2
 70
1
 10
6.584570
 20
22.000194
 30
0.0
 10
6.796703
 20
21.788061
 30
0.0
  0
SPLINE
  5
13d
100
AcDbEntity
  8
Layer_1
 62
1
100
AcDbSpline
 70
8
 71
3
 72
8
 73
4
 74
0
 40
0
 40
0
 40
0
 40
0
 40
1
 40
1
 40
1
 40
1
 10
6.372438
 20
21.788062
 30
0.0
 10
6.313678
 20
21.846822
 30
0.0
 10
6.313678
 20
21.941433
 30
0.0
 10
6.372438
 20
22.000194
 30
0.0
  0
LWPOLYLINE
  5
13e
100
AcDbEntity
  8
Layer_1
 62
1
100
AcDbPolyline
 90
2
 70
1
 10
6.584570
 20
21.575929
 30
0.0
 10
6.372438
 20
21.788062
 30
0.0
  0
LWPOLYLINE
  5
13f
100
AcDbEntity
  8
Layer_1
 62
1
100
AcDbPolyline
 90
2
 70
1
 10
6.372438
 20
22.000194
 30
0.0
 10
6.372438
 20
22.000194
 30
0.0
  0
SPLINE
  5
140
100
AcDbEntity
  8
Layer_1
 62
1
100
AcDbSpline
 70
8
 71
3
 72
8
 73
4
 74
0
 40
0
 40
0
 40
0
 40
0
 40
1
 40
1
 40
1
 40
1
 10
6.796702
 20
23.124494
 30
0.0
 10
6.855463
 20
23.065733
 30
0.0
 10
6.855463
 20
22.971122
 30
0.0
 10
6.796702
 20
22.912362
 30
0.0
  0
LWPOLYLINE
  5
141
100
AcDbEntity
  8
Layer_1
 62
1
100
AcDbPolyline
 90
2
 70
1
 10
6.796702
 20
23.124494
 30
0.0
 10
6.796702
 20
23.124494
 30
0.0
  0
SPLINE
  5
142
100
AcDbEntity
  8
Layer_1
 62
1
100
AcDbSpline
 70
8
 71
3
 72
8
 73
4
 74
0
 40
0
 40
0
 40
0
 40
0
 40
1
 40
1
 40
1
 40
1
 10
6.584570
 20
22.700230
 30
0.0
 10
6.525810
 20
22.641469
 30
0.0
 10
6.431199
 20
22.641469
 30
0.0
 10
6.372438
 20
22.700230
 30
0.0
  0
LWPOLYLINE
  5
143
100
AcDbEntity
  8
Layer_1
 62
1
100
AcDbPolyline
 90
2
 70
1
 10
6.796702
 20
22.912362
 30
0.0
 10
6.584570
 20
22.700230
 30
0.0
  0
SPLINE
  5
144
100
AcDbEntity
  8
Layer_1
 62
1
100
AcDbSpline
 70
8
 71
3
 72
8
 73
4
 74
0
 40
0
 40
0
 40
0
 40
0
 40
1
 40
1
 40
1
 40
1
 10
6.372438
 20
22.700230
 30
0.0
 10
6.313678
 20
22.758990
 30
0.0
 10
6.313678
 20
22.853601
 30
0.0
 10
6.372438
 20
22.912362
 30
0.0
  0
LWPOLYLINE
  5
145
100
AcDbEntity
  8
Layer_1
 62
1
100
AcDbPolyline
 90
2
 70
1
 10
6.372438
 20
22.700230
 30
0.0
 10
6.372438
 20
22.700230
 30
0.0
  0
SPLINE
  5
146
100
AcDbEntity
  8
Layer_1
 62
1
100
AcDbSpline
 70
8
 71
3
 72
8
 73
4
 74
0
 40
0
 40
0
 40
0
 40
0
 40
1
 40
1
 40
1
 40
1
 10
6.584570
 20
23.124494
 30
0.0
 10
6.643331
 20
23.183254
 30
0.0
 10
6.737942
 20
23.183254
 30
0.0
 10
6.796702
 20
23.124494
 30
0.0
  0
LWPOLYLINE
  5
147
100
AcDbEntity
  8
Layer_1
 62
1
100
AcDbPolyline
 90
2
 70
1
 10
6.372438
 20
22.912362
 30
0.0
 10
6.584570
 20
23.124494
 30
0.0
  0
LWPOLYLINE
  5
148
100
AcDbEntity
  8
Layer_1
 62
1
100
AcDbPolyline
 90
2
 70
1
 10
6.796702
 20
23.124494
 30
0.0
 10
6.796702
 20
23.124494
 30
0.0
  0
SPLINE
  5
149
100
AcDbEntity
  8
Layer_1
 62
1
100
AcDbSpline
 70
8
 71
3
 72
8
 73
4
 74
0
 40
0
 40
0
 40
0
 40
0
 40
1
 40
1
 40
1
 40
1
 10
5.672402
 20
22.000194
 30
0.0
 10
5.731163
 20
21.941433
 30
0.0
 10
5.731163
 20
21.846822
 30
0.0
 10
5.672403
 20
21.788062
 30
0.0
  0
LWPOLYLINE
  5
14a
100
AcDbEntity
  8
Layer_1
 62
1
100
AcDbPolyline
 90
2
 70
1
 10
5.672402
 20
22.000194
 30
0.0
 10
5.672402
 20
22.000194
 30
0.0
  0
SPLINE
  5
14b
100
AcDbEntity
  8
Layer_1
 62
1
100
AcDbSpline
 70
8
 71
3
 72
8
 73
4
 74
0
 40
0
 40
0
 40
0
 40
0
 40
1
 40
1
 40
1
 40
1
 10
5.460271
 20
21.575929
 30
0.0
 10
5.401510
 20
21.517169
 30
0.0
 10
5.306899
 20
21.517169
 30
0.0
 10
5.248138
 20
21.575930
 30
0.0
  0
LWPOLYLINE
  5
14c
100
AcDbEntity
  8
Layer_1
 62
1
100
AcDbPolyline
 90
2
 70
1
 10
5.672403
 20
21.788062
 30
0.0
 10
5.460271
 20
21.575929
 30
0.0
  0
SPLINE
  5
14d
100
AcDbEntity
  8
Layer_1
 62
1
100
AcDbSpline
 70
8
 71
3
 72
8
 73
4
 74
0
 40
0
 40
0
 40
0
 40
0
 40
1
 40
1
 40
1
 40
1
 10
5.248138
 20
21.575930
 30
0.0
 10
5.189378
 20
21.634690
 30
0.0
 10
5.189378
 20
21.729301
 30
0.0
 10
5.248138
 20
21.788062
 30
0.0
  0
LWPOLYLINE
  5
14e
100
AcDbEntity
  8
Layer_1
 62
1
100
AcDbPolyline
 90
2
 70
1
 10
5.248138
 20
21.575930
 30
0.0
 10
5.248138
 20
21.575930
 30
0.0
  0
SPLINE
  5
14f
100
AcDbEntity
  8
Layer_1
 62
1
100
AcDbSpline
 70
8
 71
3
 72
8
 73
4
 74
0
 40
0
 40
0
 40
0
 40
0
 40
1
 40
1
 40
1
 40
1
 10
5.460270
 20
22.000194
 30
0.0
 10
5.519031
 20
22.058954
 30
0.0
 10
5.613642
 20
22.058954
 30
0.0
 10
5.672402
 20
22.000194
 30
0.0
  0
LWPOLYLINE
  5
150
100
AcDbEntity
  8
Layer_1
 62
1
100
AcDbPolyline
 90
2
 70
1
 10
5.248138
 20
21.788062
 30
0.0
 10
5.460270
 20
22.000194
 30
0.0
  0
LWPOLYLINE
  5
151
100
AcDbEntity
  8
Layer_1
 62
1
100
AcDbPolyline
 90
2
 70
1
 10
5.672402
 20
22.000194
 30
0.0
 10
5.672402
 20
22.000194
 30
0.0
  0
LWPOLYLINE
  5
152
100
AcDbEntity
  8
Layer_1
 62
1
100
AcDbPolyline
 90
5
 70
1
 10
18.767626
 20
42.345388
 30
0.0
 10
18.767626
 20
40.345388
 30
0.0
 10
18.267626
 20
40.345388
 30
0.0
 10
18.267626
 20
42.345388
 30
0.0
 10
18.767626
 20
42.345388
 30
0.0
  0
LWPOLYLINE
  5
153
100
AcDbEntity
  8
Layer_1
 62
1
100
AcDbPolyline
 90
5
 70
1
 10
18.767626
 20
26.345389
 30
0.0
 10
18.767626
 20
24.345389
 30
0.0
 10
18.267626
 20
24.345389
 30
0.0
 10
18.267626
 20
26.345389
 30
0.0
 10
18.767626
 20
26.345389
 30
0.0
  0
LWPOLYLINE
  5
154
100
AcDbEntity
  8
Layer_1
 62
1
100
AcDbPolyline
 90
5
 70
1
 10
15.017628
 20
41.345213
 30
0.0
 10
15.017628
 20
39.345213
 30
0.0
 10
14.517628
 20
39.345213
 30
0.0
 10
14.517628
 20
41.345213
 30
0.0
 10
15.017628
 20
41.345213
 30
0.0
  0
LWPOLYLINE
  5
155
100
AcDbEntity
  8
Layer_1
 62
1
100
AcDbPolyline
 90
5
 70
1
 10
22.517626
 20
41.345213
 30
0.0
 10
22.517626
 20
39.345213
 30
0.0
 10
22.017626
 20
39.345213
 30
0.0
 10
22.017626
 20
41.345213
 30
0.0
 10
22.517626
 20
41.345213
 30
0.0
  0
LWPOLYLINE
  5
156
100
AcDbEntity
  8
Layer_1
 62
1
100
AcDbPolyline
 90
5
 70
1
 10
15.017628
 20
27.345213
 30
0.0
 10
15.017628
 20
25.345213
 30
0.0
 10
14.517628
 20
25.345213
 30
0.0
 10
14.517628
 20
27.345213
 30
0.0
 10
15.017628
 20
27.345213
 30
0.0
  0
LWPOLYLINE
  5
157
100
AcDbEntity
  8
Layer_1
 62
1
100
AcDbPolyline
 90
5
 70
1
 10
22.517626
 20
27.345213
 30
0.0
 10
22.517626
 20
25.345213
 30
0.0
 10
22.017626
 20
25.345213
 30
0.0
 10
22.017626
 20
27.345213
 30
0.0
 10
22.517626
 20
27.345213
 30
0.0
  0
LWPOLYLINE
  5
158
100
AcDbEntity
  8
Layer_1
 62
1
100
AcDbPolyline
 90
5
 70
1
 10
17.517627
 20
31.595213
 30
0.0
 10
19.517627
 20
31.595213
 30
0.0
 10
19.517627
 20
31.095213
 30
0.0
 10
17.517627
 20
31.095213
 30
0.0
 10
17.517627
 20
31.595213
 30
0.0
  0
LWPOLYLINE
  5
159
100
AcDbEntity
  8
Layer_1
 62
1
100
AcDbPolyline
 90
5
 70
1
 10
18.767626
 20
34.350213
 30
0.0
 10
18.767626
 20
32.350213
 30
0.0
 10
18.267626
 20
32.350213
 30
0.0
 10
18.267626
 20
34.350213
 30
0.0
 10
18.767626
 20
34.350213
 30
0.0
  0
LWPOLYLINE
  5
15a
100
AcDbEntity
  8
Layer_1
 62
1
100
AcDbPolyline
 90
5
 70
1
 10
18.272420
 20
22.100196
 30
0.0
 10
18.772420
 20
22.100196
 30
0.0
 10
18.772420
 20
21.700196
 30
0.0
 10
18.272420
 20
21.700196
 30
0.0
 10
18.272420
 20
22.100196
 30
0.0
  0
LWPOLYLINE
  5
15b
100
AcDbEntity
  8
Layer_1
 62
1
100
AcDbPolyline
 90
5
 70
1
 10
21.278071
 20
33.855833
 30
0.0
 10
21.278071
 20
32.844593
 30
0.0
 10
20.766831
 20
32.844593
 30
0.0
 10
20.766831
 20
33.855833
 30
0.0
 10
21.278071
 20
33.855833
 30
0.0
  0
LWPOLYLINE
  5
15c
100
AcDbEntity
  8
Layer_1
 62
1
100
AcDbPolyline
 90
5
 70
1
 10
8.502441
 20
22.599902
 30
0.0
 10
9.502477
 20
22.599902
 30
0.0
 10
9.502477
 20
22.099866
 30
0.0
 10
8.502441
 20
22.099866
 30
0.0
 10
8.502441
 20
22.599902
 30
0.0
  0
LWPOLYLINE
  5
15d
100
AcDbEntity
  8
Layer_1
 62
1
100
AcDbPolyline
 90
5
 70
1
 10
27.542439
 20
22.599902
 30
0.0
 10
28.542474
 20
22.599902
 30
0.0
 10
28.542474
 20
22.099866
 30
0.0
 10
27.542439
 20
22.099866
 30
0.0
 10
27.542439
 20
22.599902
 30
0.0
  0
LWPOLYLINE
  5
15e
100
AcDbEntity
  8
Layer_1
 62
1
100
AcDbPolyline
 90
5
 70
1
 10
14.022443
 20
22.599902
 30
0.0
 10
15.022479
 20
22.599902
 30
0.0
 10
15.022479
 20
22.099866
 30
0.0
 10
14.022443
 20
22.099866
 30
0.0
 10
14.022443
 20
22.599902
 30
0.0
  0
LWPOLYLINE
  5
15f
100
AcDbEntity
  8
Layer_1
 62
1
100
AcDbPolyline
 90
5
 70
1
 10
22.022441
 20
22.599902
 30
0.0
 10
23.022476
 20
22.599902
 30
0.0
 10
23.022476
 20
22.099866
 30
0.0
 10
22.022441
 20
22.099866
 30
0.0
 10
22.022441
 20
22.599902
 30
0.0
  0
SPLINE
  5
160
100
AcDbEntity
  8
Layer_1
 62
1
100
AcDbSpline
 70
8
 71
3
 72
8
 73
4
 74
0
 40
0
 40
0
 40
0
 40
0
 40
1
 40
1
 40
1
 40
1
 10
7.224539
 20
14.739898
 30
0.0
 10
7.229100
 20
14.758824
 30
0.0
 10
7.233937
 20
14.777603
 30
0.0
 10
7.238926
 20
14.796289
 30
0.0
  0
LWPOLYLINE
  5
161
100
AcDbEntity
  8
Layer_1
 62
1
100
AcDbPolyline
 90
9
 70
1
 10
8.918698
 20
18.433594
 30
0.0
 10
8.918698
 20
17.933640
 30
0.0
 10
4.438641
 20
17.933640
 30
0.0
 10
4.438641
 20
15.933501
 30
0.0
 10
4.438697
 20
15.933501
 30
0.0
 10
4.438697
 20
10.933996
 30
0.0
 10
6.438727
 20
10.933996
 30
0.0
 10
7.223106
 20
14.739898
 30
0.0
 10
7.224539
 20
14.739898
 30
0.0
  0
SPLINE
  5
162
100
AcDbEntity
  8
Layer_1
 62
1
100
AcDbSpline
 70
8
 71
3
 72
8
 73
4
 74
0
 40
0
 40
0
 40
0
 40
0
 40
1
 40
1
 40
1
 40
1
 10
7.247856
 20
14.828369
 30
0.0
 10
7.419096
 20
15.434743
 30
0.0
 10
7.819132
 20
15.903571
 30
0.0
 10
8.438701
 20
15.931737
 30
0.0
  0
LWPOLYLINE
  5
163
100
AcDbEntity
  8
Layer_1
 62
1
100
AcDbPolyline
 90
2
 70
1
 10
7.238926
 20
14.796289
 30
0.0
 10
7.247856
 20
14.828369
 30
0.0
  0
SPLINE
  5
164
100
AcDbEntity
  8
Layer_1
 62
1
100
AcDbSpline
 70
8
 71
3
 72
8
 73
4
 74
0
 40
0
 40
0
 40
0
 40
0
 40
1
 40
1
 40
1
 40
1
 10
29.446508
 20
15.931567
 30
0.0
 10
30.008088
 20
15.906035
 30
0.0
 10
30.389294
 20
15.518465
 30
0.0
 10
30.583279
 20
14.994609
 30
0.0
  0
LWPOLYLINE
  5
165
100
AcDbEntity
  8
Layer_1
 62
1
100
AcDbPolyline
 90
4
 70
1
 10
8.438701
 20
15.931737
 30
0.0
 10
8.438701
 20
15.933486
 30
0.0
 10
29.446508
 20
15.933486
 30
0.0
 10
29.446508
 20
15.931567
 30
0.0
  0
LWPOLYLINE
  5
166
100
AcDbEntity
  8
Layer_1
 62
1
100
AcDbPolyline
 90
22
 70
1
 10
30.583279
 20
14.994609
 30
0.0
 10
31.438930
 20
10.933990
 30
0.0
 10
33.438905
 20
10.933990
 30
0.0
 10
33.438905
 20
15.933551
 30
0.0
 10
33.438792
 20
15.933551
 30
0.0
 10
33.438792
 20
17.933635
 30
0.0
 10
28.958735
 20
17.933635
 30
0.0
 10
28.958735
 20
18.433589
 30
0.0
 10
27.958665
 20
18.433589
 30
0.0
 10
27.958665
 20
17.933635
 30
0.0
 10
23.438700
 20
17.933635
 30
0.0
 10
23.438700
 20
18.433589
 30
0.0
 10
22.438685
 20
18.433589
 30
0.0
 10
22.438685
 20
17.933635
 30
0.0
 10
15.438747
 20
17.933635
 30
0.0
 10
15.438747
 20
18.433589
 30
0.0
 10
14.438677
 20
18.433589
 30
0.0
 10
14.438677
 20
17.933635
 30
0.0
 10
9.918712
 20
17.933635
 30
0.0
 10
9.918712
 20
18.433589
 30
0.0
 10
8.918697
 20
18.433589
 30
0.0
 10
8.918698
 20
18.433594
 30
0.0
  0
LWPOLYLINE
  5
167
100
AcDbEntity
  8
Layer_1
 62
1
100
AcDbPolyline
 90
5
 70
1
 10
19.188724
 20
17.433272
 30
0.0
 10
19.188724
 20
16.433237
 30
0.0
 10
18.688689
 20
16.433237
 30
0.0
 10
18.688689
 20
17.433272
 30
0.0
 10
19.188724
 20
17.433272
 30
0.0
  0
LWPOLYLINE
  5
168
100
AcDbEntity
  8
Layer_1
 62
1
100
AcDbPolyline
 90
5
 70
1
 10
27.864530
 20
56.926418
 30
0.0
 10
27.864530
 20
47.926417
 30
0.0
 10
7.864531
 20
47.926417
 30
0.0
 10
7.864531
 20
56.926418
 30
0.0
 10
27.864530
 20
56.926418
 30
0.0
  0
LWPOLYLINE
  5
169
100
AcDbEntity
  8
Layer_1
 62
1
100
AcDbPolyline
 90
5
 70
1
 10
25.864530
 20
55.926418
 30
0.0
 10
23.864530
 20
55.926418
 30
0.0
 10
23.864530
 20
56.426418
 30
0.0
 10
25.864530
 20
56.426418
 30
0.0
 10
25.864530
 20
55.926418
 30
0.0
  0
LWPOLYLINE
  5
16a
100
AcDbEntity
  8
Layer_1
 62
1
100
AcDbPolyline
 90
5
 70
1
 10
25.864530
 20
48.426417
 30
0.0
 10
23.864530
 20
48.426417
 30
0.0
 10
23.864530
 20
48.926417
 30
0.0
 10
25.864530
 20
48.926417
 30
0.0
 10
25.864530
 20
48.426417
 30
0.0
  0
LWPOLYLINE
  5
16b
100
AcDbEntity
  8
Layer_1
 62
1
100
AcDbPolyline
 90
5
 70
1
 10
11.864531
 20
55.926418
 30
0.0
 10
9.864531
 20
55.926418
 30
0.0
 10
9.864531
 20
56.426418
 30
0.0
 10
11.864531
 20
56.426418
 30
0.0
 10
11.864531
 20
55.926418
 30
0.0
  0
LWPOLYLINE
  5
16c
100
AcDbEntity
  8
Layer_1
 62
1
100
AcDbPolyline
 90
5
 70
1
 10
11.864531
 20
48.426417
 30
0.0
 10
9.864531
 20
48.426417
 30
0.0
 10
9.864531
 20
48.926417
 30
0.0
 10
11.864531
 20
48.926417
 30
0.0
 10
11.864531
 20
48.426417
 30
0.0
  0
LWPOLYLINE
  5
16d
100
AcDbEntity
  8
Layer_1
 62
1
100
AcDbPolyline
 90
5
 70
1
 10
16.114531
 20
53.426418
 30
0.0
 10
16.114531
 20
51.426417
 30
0.0
 10
15.614531
 20
51.426417
 30
0.0
 10
15.614531
 20
53.426418
 30
0.0
 10
16.114531
 20
53.426418
 30
0.0
  0
LWPOLYLINE
  5
16e
100
AcDbEntity
  8
Layer_1
 62
1
100
AcDbPolyline
 90
5
 70
1
 10
26.362884
 20
54.594147
 30
0.0
 10
22.737039
 20
52.537609
 30
0.0
 10
26.362884
 20
50.481072
 30
0.0
 10
26.362884
 20
54.594147
 30
0.0
 10
26.362884
 20
54.594147
 30
0.0
  0
LWPOLYLINE
  5
16f
100
AcDbEntity
  8
Layer_1
 62
1
100
AcDbPolyline
 90
5
 70
1
 10
25.646440
 20
50.037294
 30
0.0
 10
21.987581
 20
52.112520
 30
0.0
 10
18.328775
 20
50.037294
 30
0.0
 10
25.646440
 20
50.037294
 30
0.0
 10
25.646440
 20
50.037294
 30
0.0
  0
LWPOLYLINE
  5
170
100
AcDbEntity
  8
Layer_1
 62
1
100
AcDbPolyline
 90
5
 70
1
 10
25.646327
 20
55.037869
 30
0.0
 10
18.328877
 20
55.037869
 30
0.0
 10
21.987575
 20
52.962699
 30
0.0
 10
25.646327
 20
55.037869
 30
0.0
 10
25.646327
 20
55.037869
 30
0.0
  0
LWPOLYLINE
  5
171
100
AcDbEntity
  8
Layer_1
 62
1
100
AcDbPolyline
 90
5
 70
1
 10
21.238171
 20
52.537609
 30
0.0
 10
17.612325
 20
54.594147
 30
0.0
 10
17.612325
 20
50.481072
 30
0.0
 10
21.238171
 20
52.537609
 30
0.0
 10
21.238171
 20
52.537609
 30
0.0
  0
LWPOLYLINE
  5
172
100
AcDbEntity
  8
Layer_1
 62
1
100
AcDbPolyline
 90
5
 70
1
 10
14.116668
 20
54.486507
 30
0.0
 10
12.148409
 20
52.430152
 30
0.0
 10
14.116668
 20
50.373797
 30
0.0
 10
14.116668
 20
54.486507
 30
0.0
 10
14.116668
 20
54.486507
 30
0.0
  0
LWPOLYLINE
  5
173
100
AcDbEntity
  8
Layer_1
 62
1
100
AcDbPolyline
 90
5
 70
1
 10
13.727753
 20
49.930060
 30
0.0
 10
11.741572
 20
52.005100
 30
0.0
 10
9.755421
 20
49.930060
 30
0.0
 10
13.727753
 20
49.930060
 30
0.0
 10
13.727753
 20
49.930060
 30
0.0
  0
LWPOLYLINE
  5
174
100
AcDbEntity
  8
Layer_1
 62
1
100
AcDbPolyline
 90
5
 70
1
 10
13.727727
 20
54.930189
 30
0.0
 10
9.755512
 20
54.930189
 30
0.0
 10
11.741605
 20
52.855204
 30
0.0
 10
13.727727
 20
54.930189
 30
0.0
 10
13.727727
 20
54.930189
 30
0.0
  0
LWPOLYLINE
  5
175
100
AcDbEntity
  8
Layer_1
 62
1
100
AcDbPolyline
 90
5
 70
1
 10
11.334798
 20
52.430152
 30
0.0
 10
9.366539
 20
54.486507
 30
0.0
 10
9.366539
 20
50.373797
 30
0.0
 10
11.334798
 20
52.430152
 30
0.0
 10
11.334798
 20
52.430152
 30
0.0
  0
LWPOLYLINE
  5
176
100
AcDbEntity
  8
Layer_1
 62
1
100
AcDbPolyline
 90
13
 70
1
 10
25.303965
 20
36.739845
 30
0.0
 10
25.303965
 20
36.240720
 30
0.0
 10
24.303124
 20
36.240720
 30
0.0
 10
24.303124
 20
32.239010
 30
0.0
 10
25.303965
 20
32.239010
 30
0.0
 10
25.303965
 20
31.739885
 30
0.0
 10
27.303996
 20
31.739885
 30
0.0
 10
27.303996
 20
32.239010
 30
0.0
 10
28.304891
 20
32.239010
 30
0.0
 10
28.304891
 20
36.240720
 30
0.0
 10
27.303996
 20
36.240720
 30
0.0
 10
27.303996
 20
36.739845
 30
0.0
 10
25.303965
 20
36.739845
 30
0.0
  0
LWPOLYLINE
  5
177
100
AcDbEntity
  8
Layer_1
 62
1
100
AcDbPolyline
 90
4
 70
1
 10
25.084303
 20
35.739084
 30
0.0
 10
27.804017
 20
33.208508
 30
0.0
 10
27.804017
 20
35.739084
 30
0.0
 10
25.084303
 20
35.739084
 30
0.0
  0
LWPOLYLINE
  5
178
100
AcDbEntity
  8
Layer_1
 62
1
100
AcDbPolyline
 90
4
 70
1
 10
24.803997
 20
35.269583
 30
0.0
 10
24.803997
 20
32.739062
 30
0.0
 10
27.523654
 20
32.739062
 30
0.0
 10
24.803997
 20
35.269583
 30
0.0
  0
LWPOLYLINE
  5
179
100
AcDbEntity
  8
Layer_1
 62
1
100
AcDbPolyline
 90
13
 70
1
 10
25.303965
 20
42.065305
 30
0.0
 10
25.303965
 20
41.566179
 30
0.0
 10
24.303123
 20
41.566179
 30
0.0
 10
24.303123
 20
37.564470
 30
0.0
 10
25.303965
 20
37.564470
 30
0.0
 10
25.303965
 20
37.065345
 30
0.0
 10
27.303995
 20
37.065345
 30
0.0
 10
27.303995
 20
37.564470
 30
0.0
 10
28.304891
 20
37.564470
 30
0.0
 10
28.304891
 20
41.566179
 30
0.0
 10
27.303995
 20
41.566179
 30
0.0
 10
27.303995
 20
42.065305
 30
0.0
 10
25.303965
 20
42.065305
 30
0.0
  0
LWPOLYLINE
  5
17a
100
AcDbEntity
  8
Layer_1
 62
1
100
AcDbPolyline
 90
4
 70
1
 10
25.084303
 20
41.064543
 30
0.0
 10
27.804017
 20
38.533968
 30
0.0
 10
27.804017
 20
41.064543
 30
0.0
 10
25.084303
 20
41.064543
 30
0.0
  0
LWPOLYLINE
  5
17b
100
AcDbEntity
  8
Layer_1
 62
1
100
AcDbPolyline
 90
4
 70
1
 10
24.803997
 20
40.595042
 30
0.0
 10
24.803997
 20
38.064522
 30
0.0
 10
27.523654
 20
38.064522
 30
0.0
 10
24.803997
 20
40.595042
 30
0.0
  0
LWPOLYLINE
  5
17c
100
AcDbEntity
  8
Layer_1
 62
1
100
AcDbPolyline
 90
13
 70
1
 10
25.303965
 20
31.397305
 30
0.0
 10
25.303965
 20
30.898179
 30
0.0
 10
24.303123
 20
30.898179
 30
0.0
 10
24.303123
 20
26.896470
 30
0.0
 10
25.303965
 20
26.896470
 30
0.0
 10
25.303965
 20
26.397345
 30
0.0
 10
27.303995
 20
26.397345
 30
0.0
 10
27.303995
 20
26.896470
 30
0.0
 10
28.304891
 20
26.896470
 30
0.0
 10
28.304891
 20
30.898179
 30
0.0
 10
27.303995
 20
30.898179
 30
0.0
 10
27.303995
 20
31.397305
 30
0.0
 10
25.303965
 20
31.397305
 30
0.0
  0
LWPOLYLINE
  5
17d
100
AcDbEntity
  8
Layer_1
 62
1
100
AcDbPolyline
 90
4
 70
1
 10
25.084303
 20
30.396543
 30
0.0
 10
27.804017
 20
27.865968
 30
0.0
 10
27.804017
 20
30.396543
 30
0.0
 10
25.084303
 20
30.396543
 30
0.0
  0
LWPOLYLINE
  5
17e
100
AcDbEntity
  8
Layer_1
 62
1
100
AcDbPolyline
 90
4
 70
1
 10
24.803997
 20
29.927042
 30
0.0
 10
24.803997
 20
27.396522
 30
0.0
 10
27.523654
 20
27.396522
 30
0.0
 10
24.803997
 20
29.927042
 30
0.0
  0
LWPOLYLINE
  5
17f
100
AcDbEntity
  8
Layer_1
 62
1
100
AcDbPolyline
 90
13
 70
1
 10
29.560187
 20
33.880860
 30
0.0
 10
29.560187
 20
33.381734
 30
0.0
 10
28.559345
 20
33.381734
 30
0.0
 10
28.559345
 20
29.380025
 30
0.0
 10
29.560187
 20
29.380025
 30
0.0
 10
29.560187
 20
28.880900
 30
0.0
 10
31.560217
 20
28.880900
 30
0.0
 10
31.560217
 20
29.380025
 30
0.0
 10
32.561112
 20
29.380025
 30
0.0
 10
32.561112
 20
33.381734
 30
0.0
 10
31.560217
 20
33.381734
 30
0.0
 10
31.560217
 20
33.880860
 30
0.0
 10
29.560187
 20
33.880860
 30
0.0
  0
LWPOLYLINE
  5
180
100
AcDbEntity
  8
Layer_1
 62
1
100
AcDbPolyline
 90
4
 70
1
 10
29.340525
 20
32.880098
 30
0.0
 10
32.060238
 20
30.349523
 30
0.0
 10
32.060238
 20
32.880098
 30
0.0
 10
29.340525
 20
32.880098
 30
0.0
  0
LWPOLYLINE
  5
181
100
AcDbEntity
  8
Layer_1
 62
1
100
AcDbPolyline
 90
4
 70
1
 10
29.060219
 20
32.410597
 30
0.0
 10
29.060219
 20
29.880077
 30
0.0
 10
31.779876
 20
29.880077
 30
0.0
 10
29.060219
 20
32.410597
 30
0.0
  0
LWPOLYLINE
  5
182
100
AcDbEntity
  8
Layer_1
 62
1
100
AcDbPolyline
 90
13
 70
1
 10
29.560187
 20
39.525305
 30
0.0
 10
29.560187
 20
39.026179
 30
0.0
 10
28.559345
 20
39.026179
 30
0.0
 10
28.559345
 20
35.024470
 30
0.0
 10
29.560187
 20
35.024470
 30
0.0
 10
29.560187
 20
34.525345
 30
0.0
 10
31.560217
 20
34.525345
 30
0.0
 10
31.560217
 20
35.024470
 30
0.0
 10
32.561112
 20
35.024470
 30
0.0
 10
32.561112
 20
39.026179
 30
0.0
 10
31.560217
 20
39.026179
 30
0.0
 10
31.560217
 20
39.525305
 30
0.0
 10
29.560187
 20
39.525305
 30
0.0
  0
LWPOLYLINE
  5
183
100
AcDbEntity
  8
Layer_1
 62
1
100
AcDbPolyline
 90
4
 70
1
 10
29.340525
 20
38.524543
 30
0.0
 10
32.060238
 20
35.993968
 30
0.0
 10
32.060238
 20
38.524543
 30
0.0
 10
29.340525
 20
38.524543
 30
0.0
  0
LWPOLYLINE
  5
184
100
AcDbEntity
  8
Layer_1
 62
1
100
AcDbPolyline
 90
4
 70
1
 10
29.060219
 20
38.055042
 30
0.0
 10
29.060219
 20
35.524522
 30
0.0
 10
31.779876
 20
35.524522
 30
0.0
 10
29.060219
 20
38.055042
 30
0.0
  0
SPLINE
  5
185
100
AcDbEntity
  8
Layer_1
 62
1
100
AcDbSpline
 70
8
 71
3
 72
8
 73
4
 74
0
 40
0
 40
0
 40
0
 40
0
 40
1
 40
1
 40
1
 40
1
 10
7.166433
 20
6.293214
 30
0.0
 10
7.170994
 20
6.312139
 30
0.0
 10
7.175830
 20
6.330918
 30
0.0
 10
7.180819
 20
6.349604
 30
0.0
  0
LWPOLYLINE
  5
186
100
AcDbEntity
  8
Layer_1
 62
1
100
AcDbPolyline
 90
9
 70
1
 10
8.860591
 20
9.986910
 30
0.0
 10
8.860591
 20
9.486956
 30
0.0
 10
4.380534
 20
9.486956
 30
0.0
 10
4.380534
 20
7.486816
 30
0.0
 10
4.380591
 20
7.486816
 30
0.0
 10
4.380591
 20
2.487311
 30
0.0
 10
6.380620
 20
2.487311
 30
0.0
 10
7.165000
 20
6.293214
 30
0.0
 10
7.166433
 20
6.293214
 30
0.0
  0
SPLINE
  5
187
100
AcDbEntity
  8
Layer_1
 62
1
100
AcDbSpline
 70
8
 71
3
 72
8
 73
4
 74
0
 40
0
 40
0
 40
0
 40
0
 40
1
 40
1
 40
1
 40
1
 10
7.189749
 20
6.381685
 30
0.0
 10
7.360989
 20
6.988059
 30
0.0
 10
7.761026
 20
7.456886
 30
0.0
 10
8.380595
 20
7.485052
 30
0.0
  0
LWPOLYLINE
  5
188
100
AcDbEntity
  8
Layer_1
 62
1
100
AcDbPolyline
 90
2
 70
1
 10
7.180819
 20
6.349604
 30
0.0
 10
7.189749
 20
6.381685
 30
0.0
  0
SPLINE
  5
189
100
AcDbEntity
  8
Layer_1
 62
1
100
AcDbSpline
 70
8
 71
3
 72
8
 73
4
 74
0
 40
0
 40
0
 40
0
 40
0
 40
1
 40
1
 40
1
 40
1
 10
29.388401
 20
7.484883
 30
0.0
 10
29.949981
 20
7.459350
 30
0.0
 10
30.331188
 20
7.071780
 30
0.0
 10
30.525172
 20
6.547925
 30
0.0
  0
LWPOLYLINE
  5
18a
100
AcDbEntity
  8
Layer_1
 62
1
100
AcDbPolyline
 90
4
 70
1
 10
8.380595
 20
7.485052
 30
0.0
 10
8.380595
 20
7.486802
 30
0.0
 10
29.388401
 20
7.486802
 30
0.0
 10
29.388401
 20
7.484883
 30
0.0
  0
LWPOLYLINE
  5
18b
100
AcDbEntity
  8
Layer_1
 62
1
100
AcDbPolyline
 90
22
 70
1
 10
30.525172
 20
6.547925
 30
0.0
 10
31.380824
 20
2.487306
 30
0.0
 10
33.380798
 20
2.487306
 30
0.0
 10
33.380798
 20
7.486867
 30
0.0
 10
33.380685
 20
7.486867
 30
0.0
 10
33.380685
 20
9.486950
 30
0.0
 10
28.900628
 20
9.486950
 30
0.0
 10
28.900628
 20
9.986904
 30
0.0
 10
27.900558
 20
9.986904
 30
0.0
 10
27.900558
 20
9.486950
 30
0.0
 10
23.380593
 20
9.486950
 30
0.0
 10
23.380593
 20
9.986904
 30
0.0
 10
22.380578
 20
9.986904
 30
0.0
 10
22.380578
 20
9.486950
 30
0.0
 10
15.380640
 20
9.486950
 30
0.0
 10
15.380640
 20
9.986904
 30
0.0
 10
14.380570
 20
9.986904
 30
0.0
 10
14.380570
 20
9.486950
 30
0.0
 10
9.860605
 20
9.486950
 30
0.0
 10
9.860605
 20
9.986904
 30
0.0
 10
8.860590
 20
9.986904
 30
0.0
 10
8.860591
 20
9.986910
 30
0.0
  0
SPLINE
  5
18c
100
AcDbEntity
  8
Layer_1
 62
1
100
AcDbSpline
 70
8
 71
3
 72
8
 73
4
 74
0
 40
0
 40
0
 40
0
 40
0
 40
1
 40
1
 40
1
 40
1
 10
30.248201
 20
23.104527
 30
0.0
 10
30.306962
 20
23.163288
 30
0.0
 10
30.401573
 20
23.163288
 30
0.0
 10
30.460333
 20
23.104527
 30
0.0
  0
LWPOLYLINE
  5
18d
100
AcDbEntity
  8
Layer_1
 62
1
100
AcDbPolyline
 90
5
 70
1
 10
19.130617
 20
8.986588
 30
0.0
 10
19.130617
 20
7.986552
 30
0.0
 10
18.630582
 20
7.986552
 30
0.0
 10
18.630582
 20
8.986588
 30
0.0
 10
19.130617
 20
8.986588
 30
0.0
  0
SPLINE
  5
18e
100
AcDbEntity
  8
Layer_1
 62
1
100
AcDbSpline
 70
8
 71
3
 72
8
 73
4
 74
0
 40
0
 40
0
 40
0
 40
0
 40
1
 40
1
 40
1
 40
1
 10
30.672465
 20
22.892395
 30
0.0
 10
30.731226
 20
22.833634
 30
0.0
 10
30.731226
 20
22.739024
 30
0.0
 10
30.672465
 20
22.680263
 30
0.0
  0
SPLINE
  5
18f
100
AcDbEntity
  8
Layer_1
 62
1
100
AcDbSpline
 70
8
 71
3
 72
8
 73
4
 74
0
 40
0
 40
0
 40
0
 40
0
 40
1
 40
1
 40
1
 40
1
 10
30.672465
 20
22.680263
 30
0.0
 10
30.613705
 20
22.621502
 30
0.0
 10
30.519094
 20
22.621502
 30
0.0
 10
30.460333
 20
22.680263
 30
0.0
  0
LWPOLYLINE
  5
190
100
AcDbEntity
  8
Layer_1
 62
1
100
AcDbPolyline
 90
2
 70
1
 10
30.460333
 20
23.104527
 30
0.0
 10
30.672465
 20
22.892395
 30
0.0
  0
SPLINE
  5
191
100
AcDbEntity
  8
Layer_1
 62
1
100
AcDbSpline
 70
8
 71
3
 72
8
 73
4
 74
0
 40
0
 40
0
 40
0
 40
0
 40
1
 40
1
 40
1
 40
1
 10
30.248201
 20
22.892395
 30
0.0
 10
30.189441
 20
22.951156
 30
0.0
 10
30.189441
 20
23.045766
 30
0.0
 10
30.248201
 20
23.104527
 30
0.0
  0
LWPOLYLINE
  5
192
100
AcDbEntity
  8
Layer_1
 62
1
100
AcDbPolyline
 90
2
 70
1
 10
30.460333
 20
22.680263
 30
0.0
 10
30.248201
 20
22.892395
 30
0.0
  0
SPLINE
  5
193
100
AcDbEntity
  8
Layer_1
 62
1
100
AcDbSpline
 70
8
 71
3
 72
8
 73
4
 74
0
 40
0
 40
0
 40
0
 40
0
 40
1
 40
1
 40
1
 40
1
 10
31.372501
 20
21.980227
 30
0.0
 10
31.431262
 20
22.038988
 30
0.0
 10
31.525873
 20
22.038988
 30
0.0
 10
31.584633
 20
21.980227
 30
0.0
  0
LWPOLYLINE
  5
194
100
AcDbEntity
  8
Layer_1
 62
1
100
AcDbPolyline
 90
2
 70
1
 10
30.248201
 20
23.104527
 30
0.0
 10
30.248201
 20
23.104527
 30
0.0
  0
SPLINE
  5
195
100
AcDbEntity
  8
Layer_1
 62
1
100
AcDbSpline
 70
8
 71
3
 72
8
 73
4
 74
0
 40
0
 40
0
 40
0
 40
0
 40
1
 40
1
 40
1
 40
1
 10
31.796765
 20
21.768095
 30
0.0
 10
31.855526
 20
21.709335
 30
0.0
 10
31.855526
 20
21.614724
 30
0.0
 10
31.796765
 20
21.555963
 30
0.0
  0
SPLINE
  5
196
100
AcDbEntity
  8
Layer_1
 62
1
100
AcDbSpline
 70
8
 71
3
 72
8
 73
4
 74
0
 40
0
 40
0
 40
0
 40
0
 40
1
 40
1
 40
1
 40
1
 10
31.796765
 20
21.555963
 30
0.0
 10
31.738005
 20
21.497202
 30
0.0
 10
31.643394
 20
21.497202
 30
0.0
 10
31.584633
 20
21.555963
 30
0.0
  0
LWPOLYLINE
  5
197
100
AcDbEntity
  8
Layer_1
 62
1
100
AcDbPolyline
 90
2
 70
1
 10
31.584633
 20
21.980227
 30
0.0
 10
31.796765
 20
21.768095
 30
0.0
  0
SPLINE
  5
198
100
AcDbEntity
  8
Layer_1
 62
1
100
AcDbSpline
 70
8
 71
3
 72
8
 73
4
 74
0
 40
0
 40
0
 40
0
 40
0
 40
1
 40
1
 40
1
 40
1
 10
31.372501
 20
21.768095
 30
0.0
 10
31.313741
 20
21.826856
 30
0.0
 10
31.313741
 20
21.921467
 30
0.0
 10
31.372501
 20
21.980227
 30
0.0
  0
LWPOLYLINE
  5
199
100
AcDbEntity
  8
Layer_1
 62
1
100
AcDbPolyline
 90
2
 70
1
 10
31.584633
 20
21.555963
 30
0.0
 10
31.372501
 20
21.768095
 30
0.0
  0
SPLINE
  5
19a
100
AcDbEntity
  8
Layer_1
 62
1
100
AcDbSpline
 70
8
 71
3
 72
8
 73
4
 74
0
 40
0
 40
0
 40
0
 40
0
 40
1
 40
1
 40
1
 40
1
 10
31.796765
 20
23.104527
 30
0.0
 10
31.855526
 20
23.045767
 30
0.0
 10
31.855526
 20
22.951156
 30
0.0
 10
31.796765
 20
22.892395
 30
0.0
  0
LWPOLYLINE
  5
19b
100
AcDbEntity
  8
Layer_1
 62
1
100
AcDbPolyline
 90
2
 70
1
 10
31.372501
 20
21.980227
 30
0.0
 10
31.372501
 20
21.980227
 30
0.0
  0
SPLINE
  5
19c
100
AcDbEntity
  8
Layer_1
 62
1
100
AcDbSpline
 70
8
 71
3
 72
8
 73
4
 74
0
 40
0
 40
0
 40
0
 40
0
 40
1
 40
1
 40
1
 40
1
 10
31.584633
 20
22.680263
 30
0.0
 10
31.525872
 20
22.621503
 30
0.0
 10
31.431262
 20
22.621503
 30
0.0
 10
31.372501
 20
22.680263
 30
0.0
  0
SPLINE
  5
19d
100
AcDbEntity
  8
Layer_1
 62
1
100
AcDbSpline
 70
8
 71
3
 72
8
 73
4
 74
0
 40
0
 40
0
 40
0
 40
0
 40
1
 40
1
 40
1
 40
1
 10
31.372501
 20
22.680263
 30
0.0
 10
31.313740
 20
22.739024
 30
0.0
 10
31.313740
 20
22.833635
 30
0.0
 10
31.372501
 20
22.892395
 30
0.0
  0
LWPOLYLINE
  5
19e
100
AcDbEntity
  8
Layer_1
 62
1
100
AcDbPolyline
 90
2
 70
1
 10
31.796765
 20
22.892395
 30
0.0
 10
31.584633
 20
22.680263
 30
0.0
  0
SPLINE
  5
19f
100
AcDbEntity
  8
Layer_1
 62
1
100
AcDbSpline
 70
8
 71
3
 72
8
 73
4
 74
0
 40
0
 40
0
 40
0
 40
0
 40
1
 40
1
 40
1
 40
1
 10
31.584633
 20
23.104527
 30
0.0
 10
31.643394
 20
23.163288
 30
0.0
 10
31.738004
 20
23.163288
 30
0.0
 10
31.796765
 20
23.104527
 30
0.0
  0
LWPOLYLINE
  5
1a0
100
AcDbEntity
  8
Layer_1
 62
1
100
AcDbPolyline
 90
2
 70
1
 10
31.372501
 20
22.892395
 30
0.0
 10
31.584633
 20
23.104527
 30
0.0
  0
SPLINE
  5
1a1
100
AcDbEntity
  8
Layer_1
 62
1
100
AcDbSpline
 70
8
 71
3
 72
8
 73
4
 74
0
 40
0
 40
0
 40
0
 40
0
 40
1
 40
1
 40
1
 40
1
 10
30.672465
 20
21.980227
 30
0.0
 10
30.731226
 20
21.921467
 30
0.0
 10
30.731226
 20
21.826856
 30
0.0
 10
30.672465
 20
21.768095
 30
0.0
  0
LWPOLYLINE
  5
1a2
100
AcDbEntity
  8
Layer_1
 62
1
100
AcDbPolyline
 90
2
 70
1
 10
31.796765
 20
23.104527
 30
0.0
 10
31.796765
 20
23.104527
 30
0.0
  0
SPLINE
  5
1a3
100
AcDbEntity
  8
Layer_1
 62
1
100
AcDbSpline
 70
8
 71
3
 72
8
 73
4
 74
0
 40
0
 40
0
 40
0
 40
0
 40
1
 40
1
 40
1
 40
1
 10
30.460333
 20
21.555963
 30
0.0
 10
30.401573
 20
21.497203
 30
0.0
 10
30.306962
 20
21.497203
 30
0.0
 10
30.248201
 20
21.555963
 30
0.0
  0
SPLINE
  5
1a4
100
AcDbEntity
  8
Layer_1
 62
1
100
AcDbSpline
 70
8
 71
3
 72
8
 73
4
 74
0
 40
0
 40
0
 40
0
 40
0
 40
1
 40
1
 40
1
 40
1
 10
30.248201
 20
21.555963
 30
0.0
 10
30.189441
 20
21.614724
 30
0.0
 10
30.189441
 20
21.709335
 30
0.0
 10
30.248201
 20
21.768095
 30
0.0
  0
LWPOLYLINE
  5
1a5
100
AcDbEntity
  8
Layer_1
 62
1
100
AcDbPolyline
 90
2
 70
1
 10
30.672465
 20
21.768095
 30
0.0
 10
30.460333
 20
21.555963
 30
0.0
  0
SPLINE
  5
1a6
100
AcDbEntity
  8
Layer_1
 62
1
100
AcDbSpline
 70
8
 71
3
 72
8
 73
4
 74
0
 40
0
 40
0
 40
0
 40
0
 40
1
 40
1
 40
1
 40
1
 10
30.460333
 20
21.980227
 30
0.0
 10
30.519094
 20
22.038988
 30
0.0
 10
30.613705
 20
22.038988
 30
0.0
 10
30.672465
 20
21.980227
 30
0.0
  0
LWPOLYLINE
  5
1a7
100
AcDbEntity
  8
Layer_1
 62
1
100
AcDbPolyline
 90
2
 70
1
 10
30.248201
 20
21.768095
 30
0.0
 10
30.460333
 20
21.980227
 30
0.0
  0
SPLINE
  5
1a8
100
AcDbEntity
  8
Layer_1
 62
1
100
AcDbSpline
 70
8
 71
3
 72
8
 73
4
 74
0
 40
0
 40
0
 40
0
 40
0
 40
1
 40
1
 40
1
 40
1
 10
30.248201
 20
45.104462
 30
0.0
 10
30.306962
 20
45.163223
 30
0.0
 10
30.401573
 20
45.163223
 30
0.0
 10
30.460333
 20
45.104462
 30
0.0
  0
LWPOLYLINE
  5
1a9
100
AcDbEntity
  8
Layer_1
 62
1
100
AcDbPolyline
 90
2
 70
1
 10
30.672465
 20
21.980227
 30
0.0
 10
30.672465
 20
21.980227
 30
0.0
  0
SPLINE
  5
1aa
100
AcDbEntity
  8
Layer_1
 62
1
100
AcDbSpline
 70
8
 71
3
 72
8
 73
4
 74
0
 40
0
 40
0
 40
0
 40
0
 40
1
 40
1
 40
1
 40
1
 10
30.672465
 20
44.892330
 30
0.0
 10
30.731226
 20
44.833570
 30
0.0
 10
30.731226
 20
44.738959
 30
0.0
 10
30.672465
 20
44.680198
 30
0.0
  0
SPLINE
  5
1ab
100
AcDbEntity
  8
Layer_1
 62
1
100
AcDbSpline
 70
8
 71
3
 72
8
 73
4
 74
0
 40
0
 40
0
 40
0
 40
0
 40
1
 40
1
 40
1
 40
1
 10
30.672465
 20
44.680198
 30
0.0
 10
30.613705
 20
44.621438
 30
0.0
 10
30.519094
 20
44.621438
 30
0.0
 10
30.460333
 20
44.680198
 30
0.0
  0
LWPOLYLINE
  5
1ac
100
AcDbEntity
  8
Layer_1
 62
1
100
AcDbPolyline
 90
2
 70
1
 10
30.460333
 20
45.104462
 30
0.0
 10
30.672465
 20
44.892330
 30
0.0
  0
SPLINE
  5
1ad
100
AcDbEntity
  8
Layer_1
 62
1
100
AcDbSpline
 70
8
 71
3
 72
8
 73
4
 74
0
 40
0
 40
0
 40
0
 40
0
 40
1
 40
1
 40
1
 40
1
 10
30.248201
 20
44.892330
 30
0.0
 10
30.189441
 20
44.951091
 30
0.0
 10
30.189441
 20
45.045702
 30
0.0
 10
30.248201
 20
45.104462
 30
0.0
  0
LWPOLYLINE
  5
1ae
100
AcDbEntity
  8
Layer_1
 62
1
100
AcDbPolyline
 90
2
 70
1
 10
30.460333
 20
44.680198
 30
0.0
 10
30.248201
 20
44.892330
 30
0.0
  0
SPLINE
  5
1af
100
AcDbEntity
  8
Layer_1
 62
1
100
AcDbSpline
 70
8
 71
3
 72
8
 73
4
 74
0
 40
0
 40
0
 40
0
 40
0
 40
1
 40
1
 40
1
 40
1
 10
31.372501
 20
43.980162
 30
0.0
 10
31.431262
 20
44.038923
 30
0.0
 10
31.525873
 20
44.038923
 30
0.0
 10
31.584633
 20
43.980162
 30
0.0
  0
LWPOLYLINE
  5
1b0
100
AcDbEntity
  8
Layer_1
 62
1
100
AcDbPolyline
 90
2
 70
1
 10
30.248201
 20
45.104462
 30
0.0
 10
30.248201
 20
45.104462
 30
0.0
  0
SPLINE
  5
1b1
100
AcDbEntity
  8
Layer_1
 62
1
100
AcDbSpline
 70
8
 71
3
 72
8
 73
4
 74
0
 40
0
 40
0
 40
0
 40
0
 40
1
 40
1
 40
1
 40
1
 10
31.796765
 20
43.768030
 30
0.0
 10
31.855526
 20
43.709270
 30
0.0
 10
31.855526
 20
43.614659
 30
0.0
 10
31.796765
 20
43.555898
 30
0.0
  0
SPLINE
  5
1b2
100
AcDbEntity
  8
Layer_1
 62
1
100
AcDbSpline
 70
8
 71
3
 72
8
 73
4
 74
0
 40
0
 40
0
 40
0
 40
0
 40
1
 40
1
 40
1
 40
1
 10
31.796765
 20
43.555898
 30
0.0
 10
31.738005
 20
43.497138
 30
0.0
 10
31.643394
 20
43.497138
 30
0.0
 10
31.584633
 20
43.555898
 30
0.0
  0
LWPOLYLINE
  5
1b3
100
AcDbEntity
  8
Layer_1
 62
1
100
AcDbPolyline
 90
2
 70
1
 10
31.584633
 20
43.980162
 30
0.0
 10
31.796765
 20
43.768030
 30
0.0
  0
SPLINE
  5
1b4
100
AcDbEntity
  8
Layer_1
 62
1
100
AcDbSpline
 70
8
 71
3
 72
8
 73
4
 74
0
 40
0
 40
0
 40
0
 40
0
 40
1
 40
1
 40
1
 40
1
 10
31.372501
 20
43.768030
 30
0.0
 10
31.313741
 20
43.826791
 30
0.0
 10
31.313741
 20
43.921402
 30
0.0
 10
31.372501
 20
43.980162
 30
0.0
  0
LWPOLYLINE
  5
1b5
100
AcDbEntity
  8
Layer_1
 62
1
100
AcDbPolyline
 90
2
 70
1
 10
31.584633
 20
43.555898
 30
0.0
 10
31.372501
 20
43.768030
 30
0.0
  0
SPLINE
  5
1b6
100
AcDbEntity
  8
Layer_1
 62
1
100
AcDbSpline
 70
8
 71
3
 72
8
 73
4
 74
0
 40
0
 40
0
 40
0
 40
0
 40
1
 40
1
 40
1
 40
1
 10
31.796765
 20
45.104463
 30
0.0
 10
31.855526
 20
45.045702
 30
0.0
 10
31.855526
 20
44.951091
 30
0.0
 10
31.796765
 20
44.892331
 30
0.0
  0
LWPOLYLINE
  5
1b7
100
AcDbEntity
  8
Layer_1
 62
1
100
AcDbPolyline
 90
2
 70
1
 10
31.372501
 20
43.980162
 30
0.0
 10
31.372501
 20
43.980162
 30
0.0
  0
SPLINE
  5
1b8
100
AcDbEntity
  8
Layer_1
 62
1
100
AcDbSpline
 70
8
 71
3
 72
8
 73
4
 74
0
 40
0
 40
0
 40
0
 40
0
 40
1
 40
1
 40
1
 40
1
 10
31.584633
 20
44.680199
 30
0.0
 10
31.525872
 20
44.621438
 30
0.0
 10
31.431262
 20
44.621438
 30
0.0
 10
31.372501
 20
44.680199
 30
0.0
  0
SPLINE
  5
1b9
100
AcDbEntity
  8
Layer_1
 62
1
100
AcDbSpline
 70
8
 71
3
 72
8
 73
4
 74
0
 40
0
 40
0
 40
0
 40
0
 40
1
 40
1
 40
1
 40
1
 10
31.372501
 20
44.680199
 30
0.0
 10
31.313740
 20
44.738959
 30
0.0
 10
31.313740
 20
44.833570
 30
0.0
 10
31.372501
 20
44.892331
 30
0.0
  0
LWPOLYLINE
  5
1ba
100
AcDbEntity
  8
Layer_1
 62
1
100
AcDbPolyline
 90
2
 70
1
 10
31.796765
 20
44.892331
 30
0.0
 10
31.584633
 20
44.680199
 30
0.0
  0
SPLINE
  5
1bb
100
AcDbEntity
  8
Layer_1
 62
1
100
AcDbSpline
 70
8
 71
3
 72
8
 73
4
 74
0
 40
0
 40
0
 40
0
 40
0
 40
1
 40
1
 40
1
 40
1
 10
31.584633
 20
45.104463
 30
0.0
 10
31.643394
 20
45.163223
 30
0.0
 10
31.738004
 20
45.163223
 30
0.0
 10
31.796765
 20
45.104463
 30
0.0
  0
LWPOLYLINE
  5
1bc
100
AcDbEntity
  8
Layer_1
 62
1
100
AcDbPolyline
 90
2
 70
1
 10
31.372501
 20
44.892331
 30
0.0
 10
31.584633
 20
45.104463
 30
0.0
  0
SPLINE
  5
1bd
100
AcDbEntity
  8
Layer_1
 62
1
100
AcDbSpline
 70
8
 71
3
 72
8
 73
4
 74
0
 40
0
 40
0
 40
0
 40
0
 40
1
 40
1
 40
1
 40
1
 10
30.672465
 20
43.980163
 30
0.0
 10
30.731226
 20
43.921402
 30
0.0
 10
30.731226
 20
43.826791
 30
0.0
 10
30.672465
 20
43.768031
 30
0.0
  0
LWPOLYLINE
  5
1be
100
AcDbEntity
  8
Layer_1
 62
1
100
AcDbPolyline
 90
2
 70
1
 10
31.796765
 20
45.104463
 30
0.0
 10
31.796765
 20
45.104463
 30
0.0
  0
SPLINE
  5
1bf
100
AcDbEntity
  8
Layer_1
 62
1
100
AcDbSpline
 70
8
 71
3
 72
8
 73
4
 74
0
 40
0
 40
0
 40
0
 40
0
 40
1
 40
1
 40
1
 40
1
 10
30.460333
 20
43.555899
 30
0.0
 10
30.401573
 20
43.497138
 30
0.0
 10
30.306962
 20
43.497138
 30
0.0
 10
30.248201
 20
43.555899
 30
0.0
  0
SPLINE
  5
1c0
100
AcDbEntity
  8
Layer_1
 62
1
100
AcDbSpline
 70
8
 71
3
 72
8
 73
4
 74
0
 40
0
 40
0
 40
0
 40
0
 40
1
 40
1
 40
1
 40
1
 10
30.248201
 20
43.555899
 30
0.0
 10
30.189441
 20
43.614659
 30
0.0
 10
30.189441
 20
43.709270
 30
0.0
 10
30.248201
 20
43.768031
 30
0.0
  0
LWPOLYLINE
  5
1c1
100
AcDbEntity
  8
Layer_1
 62
1
100
AcDbPolyline
 90
2
 70
1
 10
30.672465
 20
43.768031
 30
0.0
 10
30.460333
 20
43.555899
 30
0.0
  0
SPLINE
  5
1c2
100
AcDbEntity
  8
Layer_1
 62
1
100
AcDbSpline
 70
8
 71
3
 72
8
 73
4
 74
0
 40
0
 40
0
 40
0
 40
0
 40
1
 40
1
 40
1
 40
1
 10
30.460333
 20
43.980163
 30
0.0
 10
30.519094
 20
44.038923
 30
0.0
 10
30.613705
 20
44.038923
 30
0.0
 10
30.672465
 20
43.980163
 30
0.0
  0
LWPOLYLINE
  5
1c3
100
AcDbEntity
  8
Layer_1
 62
1
100
AcDbPolyline
 90
2
 70
1
 10
30.248201
 20
43.768031
 30
0.0
 10
30.460333
 20
43.980163
 30
0.0
  0
SPLINE
  5
1c4
100
AcDbEntity
  8
Layer_1
 62
1
100
AcDbSpline
 70
8
 71
3
 72
8
 73
4
 74
0
 40
0
 40
0
 40
0
 40
0
 40
1
 40
1
 40
1
 40
1
 10
5.248139
 20
45.124428
 30
0.0
 10
5.306899
 20
45.183189
 30
0.0
 10
5.401510
 20
45.183189
 30
0.0
 10
5.460271
 20
45.124428
 30
0.0
  0
LWPOLYLINE
  5
1c5
100
AcDbEntity
  8
Layer_1
 62
1
100
AcDbPolyline
 90
2
 70
1
 10
30.672465
 20
43.980163
 30
0.0
 10
30.672465
 20
43.980163
 30
0.0
  0
SPLINE
  5
1c6
100
AcDbEntity
  8
Layer_1
 62
1
100
AcDbSpline
 70
8
 71
3
 72
8
 73
4
 74
0
 40
0
 40
0
 40
0
 40
0
 40
1
 40
1
 40
1
 40
1
 10
5.672403
 20
44.912296
 30
0.0
 10
5.731163
 20
44.853536
 30
0.0
 10
5.731163
 20
44.758925
 30
0.0
 10
5.672403
 20
44.700164
 30
0.0
  0
SPLINE
  5
1c7
100
AcDbEntity
  8
Layer_1
 62
1
100
AcDbSpline
 70
8
 71
3
 72
8
 73
4
 74
0
 40
0
 40
0
 40
0
 40
0
 40
1
 40
1
 40
1
 40
1
 10
5.672403
 20
44.700164
 30
0.0
 10
5.613642
 20
44.641404
 30
0.0
 10
5.519031
 20
44.641404
 30
0.0
 10
5.460271
 20
44.700164
 30
0.0
  0
LWPOLYLINE
  5
1c8
100
AcDbEntity
  8
Layer_1
 62
1
100
AcDbPolyline
 90
2
 70
1
 10
5.460271
 20
45.124428
 30
0.0
 10
5.672403
 20
44.912296
 30
0.0
  0
SPLINE
  5
1c9
100
AcDbEntity
  8
Layer_1
 62
1
100
AcDbSpline
 70
8
 71
3
 72
8
 73
4
 74
0
 40
0
 40
0
 40
0
 40
0
 40
1
 40
1
 40
1
 40
1
 10
5.248139
 20
44.912296
 30
0.0
 10
5.189378
 20
44.971057
 30
0.0
 10
5.189378
 20
45.065668
 30
0.0
 10
5.248139
 20
45.124428
 30
0.0
  0
LWPOLYLINE
  5
1ca
100
AcDbEntity
  8
Layer_1
 62
1
100
AcDbPolyline
 90
2
 70
1
 10
5.460271
 20
44.700164
 30
0.0
 10
5.248139
 20
44.912296
 30
0.0
  0
SPLINE
  5
1cb
100
AcDbEntity
  8
Layer_1
 62
1
100
AcDbSpline
 70
8
 71
3
 72
8
 73
4
 74
0
 40
0
 40
0
 40
0
 40
0
 40
1
 40
1
 40
1
 40
1
 10
6.372439
 20
44.000129
 30
0.0
 10
6.431199
 20
44.058889
 30
0.0
 10
6.525810
 20
44.058889
 30
0.0
 10
6.584571
 20
44.000129
 30
0.0
  0
LWPOLYLINE
  5
1cc
100
AcDbEntity
  8
Layer_1
 62
1
100
AcDbPolyline
 90
2
 70
1
 10
5.248139
 20
45.124428
 30
0.0
 10
5.248139
 20
45.124428
 30
0.0
  0
SPLINE
  5
1cd
100
AcDbEntity
  8
Layer_1
 62
1
100
AcDbSpline
 70
8
 71
3
 72
8
 73
4
 74
0
 40
0
 40
0
 40
0
 40
0
 40
1
 40
1
 40
1
 40
1
 10
6.796703
 20
43.787996
 30
0.0
 10
6.855463
 20
43.729236
 30
0.0
 10
6.855463
 20
43.634625
 30
0.0
 10
6.796703
 20
43.575864
 30
0.0
  0
SPLINE
  5
1ce
100
AcDbEntity
  8
Layer_1
 62
1
100
AcDbSpline
 70
8
 71
3
 72
8
 73
4
 74
0
 40
0
 40
0
 40
0
 40
0
 40
1
 40
1
 40
1
 40
1
 10
6.796703
 20
43.575864
 30
0.0
 10
6.737942
 20
43.517104
 30
0.0
 10
6.643331
 20
43.517104
 30
0.0
 10
6.584571
 20
43.575864
 30
0.0
  0
LWPOLYLINE
  5
1cf
100
AcDbEntity
  8
Layer_1
 62
1
100
AcDbPolyline
 90
2
 70
1
 10
6.584571
 20
44.000129
 30
0.0
 10
6.796703
 20
43.787996
 30
0.0
  0
SPLINE
  5
1d0
100
AcDbEntity
  8
Layer_1
 62
1
100
AcDbSpline
 70
8
 71
3
 72
8
 73
4
 74
0
 40
0
 40
0
 40
0
 40
0
 40
1
 40
1
 40
1
 40
1
 10
6.372439
 20
43.787997
 30
0.0
 10
6.313678
 20
43.846757
 30
0.0
 10
6.313678
 20
43.941368
 30
0.0
 10
6.372439
 20
44.000129
 30
0.0
  0
LWPOLYLINE
  5
1d1
100
AcDbEntity
  8
Layer_1
 62
1
100
AcDbPolyline
 90
2
 70
1
 10
6.584571
 20
43.575864
 30
0.0
 10
6.372439
 20
43.787997
 30
0.0
  0
SPLINE
  5
1d2
100
AcDbEntity
  8
Layer_1
 62
1
100
AcDbSpline
 70
8
 71
3
 72
8
 73
4
 74
0
 40
0
 40
0
 40
0
 40
0
 40
1
 40
1
 40
1
 40
1
 10
6.796702
 20
45.124429
 30
0.0
 10
6.855463
 20
45.065668
 30
0.0
 10
6.855463
 20
44.971057
 30
0.0
 10
6.796702
 20
44.912297
 30
0.0
  0
LWPOLYLINE
  5
1d3
100
AcDbEntity
  8
Layer_1
 62
1
100
AcDbPolyline
 90
2
 70
1
 10
6.372439
 20
44.000129
 30
0.0
 10
6.372439
 20
44.000129
 30
0.0
  0
SPLINE
  5
1d4
100
AcDbEntity
  8
Layer_1
 62
1
100
AcDbSpline
 70
8
 71
3
 72
8
 73
4
 74
0
 40
0
 40
0
 40
0
 40
0
 40
1
 40
1
 40
1
 40
1
 10
6.584570
 20
44.700165
 30
0.0
 10
6.525810
 20
44.641404
 30
0.0
 10
6.431199
 20
44.641404
 30
0.0
 10
6.372438
 20
44.700165
 30
0.0
  0
SPLINE
  5
1d5
100
AcDbEntity
  8
Layer_1
 62
1
100
AcDbSpline
 70
8
 71
3
 72
8
 73
4
 74
0
 40
0
 40
0
 40
0
 40
0
 40
1
 40
1
 40
1
 40
1
 10
6.372438
 20
44.700165
 30
0.0
 10
6.313678
 20
44.758925
 30
0.0
 10
6.313678
 20
44.853536
 30
0.0
 10
6.372438
 20
44.912297
 30
0.0
  0
LWPOLYLINE
  5
1d6
100
AcDbEntity
  8
Layer_1
 62
1
100
AcDbPolyline
 90
2
 70
1
 10
6.796702
 20
44.912297
 30
0.0
 10
6.584570
 20
44.700165
 30
0.0
  0
SPLINE
  5
1d7
100
AcDbEntity
  8
Layer_1
 62
1
100
AcDbSpline
 70
8
 71
3
 72
8
 73
4
 74
0
 40
0
 40
0
 40
0
 40
0
 40
1
 40
1
 40
1
 40
1
 10
6.584570
 20
45.124429
 30
0.0
 10
6.643331
 20
45.183189
 30
0.0
 10
6.737942
 20
45.183189
 30
0.0
 10
6.796702
 20
45.124429
 30
0.0
  0
LWPOLYLINE
  5
1d8
100
AcDbEntity
  8
Layer_1
 62
1
100
AcDbPolyline
 90
2
 70
1
 10
6.372438
 20
44.912297
 30
0.0
 10
6.584570
 20
45.124429
 30
0.0
  0
SPLINE
  5
1d9
100
AcDbEntity
  8
Layer_1
 62
1
100
AcDbSpline
 70
8
 71
3
 72
8
 73
4
 74
0
 40
0
 40
0
 40
0
 40
0
 40
1
 40
1
 40
1
 40
1
 10
5.672403
 20
44.000129
 30
0.0
 10
5.731163
 20
43.941368
 30
0.0
 10
5.731163
 20
43.846757
 30
0.0
 10
5.672403
 20
43.787997
 30
0.0
  0
LWPOLYLINE
  5
1da
100
AcDbEntity
  8
Layer_1
 62
1
100
AcDbPolyline
 90
2
 70
1
 10
6.796702
 20
45.124429
 30
0.0
 10
6.796702
 20
45.124429
 30
0.0
  0
SPLINE
  5
1db
100
AcDbEntity
  8
Layer_1
 62
1
100
AcDbSpline
 70
8
 71
3
 72
8
 73
4
 74
0
 40
0
 40
0
 40
0
 40
0
 40
1
 40
1
 40
1
 40
1
 10
5.460271
 20
43.575865
 30
0.0
 10
5.401510
 20
43.517104
 30
0.0
 10
5.306899
 20
43.517104
 30
0.0
 10
5.248139
 20
43.575865
 30
0.0
  0
SPLINE
  5
1dc
100
AcDbEntity
  8
Layer_1
 62
1
100
AcDbSpline
 70
8
 71
3
 72
8
 73
4
 74
0
 40
0
 40
0
 40
0
 40
0
 40
1
 40
1
 40
1
 40
1
 10
5.248139
 20
43.575865
 30
0.0
 10
5.189378
 20
43.634625
 30
0.0
 10
5.189378
 20
43.729236
 30
0.0
 10
5.248139
 20
43.787997
 30
0.0
  0
LWPOLYLINE
  5
1dd
100
AcDbEntity
  8
Layer_1
 62
1
100
AcDbPolyline
 90
2
 70
1
 10
5.672403
 20
43.787997
 30
0.0
 10
5.460271
 20
43.575865
 30
0.0
  0
SPLINE
  5
1de
100
AcDbEntity
  8
Layer_1
 62
1
100
AcDbSpline
 70
8
 71
3
 72
8
 73
4
 74
0
 40
0
 40
0
 40
0
 40
0
 40
1
 40
1
 40
1
 40
1
 10
5.460271
 20
44.000129
 30
0.0
 10
5.519031
 20
44.058889
 30
0.0
 10
5.613642
 20
44.058889
 30
0.0
 10
5.672403
 20
44.000129
 30
0.0
  0
LWPOLYLINE
  5
1df
100
AcDbEntity
  8
Layer_1
 62
1
100
AcDbPolyline
 90
2
 70
1
 10
5.248139
 20
43.787997
 30
0.0
 10
5.460271
 20
44.000129
 30
0.0
  0
LWPOLYLINE
  5
1e0
100
AcDbEntity
  8
Layer_1
 62
1
100
AcDbPolyline
 90
2
 70
1
 10
5.672403
 20
44.000129
 30
0.0
 10
5.672403
 20
44.000129
 30
0.0
  0
LWPOLYLINE
  5
1e1
100
AcDbEntity
  8
Layer_1
 62
1
100
AcDbPolyline
 90
5
 70
1
 10
17.517627
 20
35.599997
 30
0.0
 10
19.517627
 20
35.599997
 30
0.0
 10
19.517627
 20
35.099997
 30
0.0
 10
17.517627
 20
35.099997
 30
0.0
 10
17.517627
 20
35.599997
 30
0.0
  0
ENDSEC
  0
SECTION
  2
OBJECTS
  0
DICTIONARY
  5
C
330
0
100
AcDbDictionary
  3
ACAD_GROUP
350
D
  3
ACAD_MLINESTYLE
350
17
  0
DICTIONARY
  5
D
330
C
100
AcDbDictionary
  0
DICTIONARY
  5
1A
330
C
100
AcDbDictionary
  0
DICTIONARY
  5
17
330
C
100
AcDbDictionary
  3
STANDARD
350
18
  0
DICTIONARY
  5
19
330
C
100
AcDbDictionary
  0
ENDSEC
  0
EOF
