<?xml version="1.0" encoding="UTF-8" standalone="no"?>
<!-- Created with Inkscape (http://www.inkscape.org/) -->

<svg
   xmlns:dc="http://purl.org/dc/elements/1.1/"
   xmlns:cc="http://creativecommons.org/ns#"
   xmlns:rdf="http://www.w3.org/1999/02/22-rdf-syntax-ns#"
   xmlns:svg="http://www.w3.org/2000/svg"
   xmlns="http://www.w3.org/2000/svg"
   xmlns:sodipodi="http://sodipodi.sourceforge.net/DTD/sodipodi-0.dtd"
   xmlns:inkscape="http://www.inkscape.org/namespaces/inkscape"
   width="25cm"
   height="32.700001cm"
   viewBox="0 0 885.82677 1158.6615"
   id="svg2"
   version="1.1"
   inkscape:version="0.91 r13725"
   sodipodi:docname="Laser_cutting_design_2.svg">
  <defs
     id="defs4" />
  <sodipodi:namedview
     id="base"
     pagecolor="#ffffff"
     bordercolor="#666666"
     borderopacity="1.0"
     inkscape:pageopacity="0.0"
     inkscape:pageshadow="2"
     inkscape:zoom="0.7"
     inkscape:cx="247.09778"
     inkscape:cy="435.49337"
     inkscape:document-units="cm"
     inkscape:current-layer="layer1"
     showgrid="false"
     units="cm"
     inkscape:window-width="3381"
     inkscape:window-height="1416"
     inkscape:window-x="59"
     inkscape:window-y="24"
     inkscape:window-maximized="1"
     showborder="false"
     showguides="false" />
  <metadata
     id="metadata7">
    <rdf:RDF>
      <cc:Work
         rdf:about="">
        <dc:format>image/svg+xml</dc:format>
        <dc:type
           rdf:resource="http://purl.org/dc/dcmitype/StillImage" />
        <dc:title />
      </cc:Work>
    </rdf:RDF>
  </metadata>
  <g
     inkscape:label="Layer 1"
     inkscape:groupmode="layer"
     id="layer1"
     transform="translate(0,106.29901)">
    <rect
       style="opacity:1;fill:#ffffff;fill-opacity:1;stroke:#ff0000;stroke-width:1.41732287;stroke-miterlimit:4;stroke-dasharray:none;stroke-opacity:1"
       id="rect4140"
       width="248.03149"
       height="708.66144"
       x="248.74016"
       y="165.82698" />
    <g
       id="g4304"
       transform="matrix(0,-1,1,0,-164.40158,1110.7904)">
      <rect
         y="94.960846"
         x="126.77124"
         height="885.82678"
         width="70.866142"
         id="rect4142"
         style="opacity:1;fill:#ffffff;fill-opacity:1;stroke:#ff0000;stroke-width:1.41732287;stroke-miterlimit:4;stroke-dasharray:none;stroke-opacity:1" />
      <ellipse
         ry="53.866058"
         rx="53.857971"
         cy="94.24411"
         cx="162.20432"
         id="path4146"
         style="opacity:1;fill:#ffffff;fill-opacity:1;stroke:#ff0000;stroke-width:1.41791391;stroke-miterlimit:4;stroke-dasharray:none;stroke-opacity:1" />
      <ellipse
         ry="53.866058"
         rx="53.857971"
         cy="980.07086"
         cx="162.20432"
         id="path4146-7"
         style="opacity:1;fill:#ffffff;fill-opacity:1;stroke:#ff0000;stroke-width:1.41791391;stroke-miterlimit:4;stroke-dasharray:none;stroke-opacity:1" />
    </g>
    <path
       style="opacity:1;fill:#ffffff;fill-opacity:1;stroke:#ff0000;stroke-width:3;stroke-miterlimit:4;stroke-dasharray:none;stroke-opacity:1"
       d="m -797.1429,132.36237 70.86614,0 0,885.82673 -70.86614,0 -133.2059,-1.5409 0,-70.85264 133.19293,-35.43307 0.013,-673.12213 -133.2059,-35.43308 0,-70.87346 z"
       id="rect4215"
       inkscape:connector-curvature="0"
       sodipodi:nodetypes="ccccccccccc" />
    <path
       style="opacity:1;fill:#ffffff;fill-opacity:1;stroke:#ff0000;stroke-width:3;stroke-miterlimit:4;stroke-dasharray:none;stroke-opacity:1"
       d="m -415.97308,118.74286 70.86614,0 0,885.82684 -70.86614,0 -133.20592,-1.5409 0,-70.85265 133.19295,-35.43308 0.013,-673.12221 -133.20592,-35.43308 0,-70.87347 z"
       id="rect4215-2"
       inkscape:connector-curvature="0"
       sodipodi:nodetypes="ccccccccccc" />
    <path
       style="opacity:1;fill:#ffffff;fill-opacity:1;stroke:#ff0000;stroke-width:1.41732287;stroke-miterlimit:4;stroke-dasharray:none;stroke-opacity:1"
       d="m 1679.099,2.8151314 0,17.7265596 -17.7051,0 0,70.86719 -17.6406,0 0,70.865239 17.6406,0 0,354.33007 -17.6406,0 0,70.86719 17.6406,0 0,70.86524 17.7051,0 0,17.72851 35.455,0 0,-17.72851 17.7051,0 0,-637.794929 -17.7051,0 0,-17.7265596 -35.455,0 z"
       id="rect4233"
       inkscape:connector-curvature="0" />
    <rect
       style="opacity:1;fill:none;fill-opacity:0;fill-rule:evenodd;stroke:#ff4141;stroke-width:1.41732287;stroke-linecap:round;stroke-linejoin:round;stroke-miterlimit:4;stroke-dasharray:none;stroke-opacity:1"
       id="rect4145"
       width="70.866142"
       height="17.716536"
       x="272.12622"
       y="-381.61417"
       transform="matrix(0,1,-1,0,0,0)" />
    <rect
       style="opacity:1;fill:none;fill-opacity:0;fill-rule:evenodd;stroke:#ff4141;stroke-width:1.41732287;stroke-linecap:round;stroke-linejoin:round;stroke-miterlimit:4;stroke-dasharray:none;stroke-opacity:1"
       id="rect4145-6"
       width="70.866142"
       height="17.716536"
       x="697.32306"
       y="-381.61417"
       transform="matrix(0,1,-1,0,0,0)" />
    <g
       id="g4299"
       transform="translate(-455.81549,-172.85714)">
      <rect
         transform="matrix(0,-1,1,0,0,0)"
         y="386.37479"
         x="-277.79547"
         height="885.82678"
         width="70.866142"
         id="rect4142-2"
         style="opacity:1;fill:#ffffff;fill-opacity:1;stroke:#ff0000;stroke-width:1.41732287;stroke-miterlimit:4;stroke-dasharray:none;stroke-opacity:1" />
      <ellipse
         transform="matrix(0,-1,1,0,0,0)"
         ry="53.866058"
         rx="53.857971"
         cy="385.65805"
         cx="-242.36244"
         id="path4146-70"
         style="opacity:1;fill:#ffffff;fill-opacity:1;stroke:#ff0000;stroke-width:1.41791391;stroke-miterlimit:4;stroke-dasharray:none;stroke-opacity:1" />
      <ellipse
         transform="matrix(0,-1,1,0,0,0)"
         ry="53.866058"
         rx="53.857971"
         cy="1271.4847"
         cx="-242.36244"
         id="path4146-7-9"
         style="opacity:1;fill:#ffffff;fill-opacity:1;stroke:#ff0000;stroke-width:1.41791391;stroke-miterlimit:4;stroke-dasharray:none;stroke-opacity:1" />
    </g>
  </g>
</svg>
