  0
SECTION
  2
HEADER
  9
$ACADVER
  1
AC1014
  9
$HANDSEED
  5
FFFF
  9
$MEASUREMENT
 70
     1
  0
ENDSEC
  0
SECTION
  2
TABLES
  0
TABLE
  2
VPORT
  5
8
330
0
100
AcDbSymbolTable
 70
     4
  0
VPORT
  5
2E
330
8
100
AcDbSymbolTableRecord
100
AcDbViewportTableRecord
  2
*ACTIVE
 70
     0
 10
0.0
 20
0.0
 11
1.0
 21
1.0
 12
210.0
 22
148.5
 13
0.0
 23
0.0
 14
10.0
 24
10.0
 15
10.0
 25
10.0
 16
0.0
 26
0.0
 36
1.0
 17
0.0
 27
0.0
 37
0.0
 40
341.0
 41
1.24
 42
50.0
 43
0.0
 44
0.0
 50
0.0
 51
0.0
 71
     0
 72
   100
 73
     1
 74
     3
 75
     0
 76
     0
 77
     0
 78
     0
  0
ENDTAB
  0
TABLE
  2
LTYPE
  5
5
330
0
100
AcDbSymbolTable
 70
     1
  0
LTYPE
  5
14
330
5
100
AcDbSymbolTableRecord
100
AcDbLinetypeTableRecord
  2
BYBLOCK
 70
     0
  3

 72
    65
 73
     0
 40
0.0
  0
LTYPE
  5
15
330
5
100
AcDbSymbolTableRecord
100
AcDbLinetypeTableRecord
  2
BYLAYER
 70
     0
  3

 72
    65
 73
     0
 40
0.0
  0
LTYPE
  5
16
330
5
100
AcDbSymbolTableRecord
100
AcDbLinetypeTableRecord
  2
CONTINUOUS
 70
     0
  3
Solid line
 72
    65
 73
     0
 40
0.0
  0
ENDTAB
  0
TABLE
  2
LAYER
  5
2
100
AcDbSymbolTable
 70
2
  0
LAYER
  5
50
100
AcDbSymbolTableRecord
100
AcDbLayerTableRecord
  2
0
 70
0
  6
CONTINUOUS
  0
LAYER
  5
51
100
AcDbSymbolTableRecord
100
AcDbLayerTableRecord
  2
Layer_1
 70
0
  6
CONTINUOUS
  0
ENDTAB
  0
TABLE
  2
STYLE
  5
3
330
0
100
AcDbSymbolTable
 70
     1
  0
STYLE
  5
11
330
3
100
AcDbSymbolTableRecord
100
AcDbTextStyleTableRecord
  2
STANDARD
 70
     0
 40
0.0
 41
1.0
 50
0.0
 71
     0
 42
2.5
  3
txt
  4

  0
ENDTAB
  0
TABLE
  2
VIEW
  5
6
330
0
100
AcDbSymbolTable
 70
     0
  0
ENDTAB
  0
TABLE
  2
UCS
  5
7
330
0
100
AcDbSymbolTable
 70
     0
  0
ENDTAB
  0
TABLE
  2
APPID
  5
9
330
0
100
AcDbSymbolTable
 70
     2
  0
APPID
  5
12
330
9
100
AcDbSymbolTableRecord
100
AcDbRegAppTableRecord
  2
ACAD
 70
     0
  0
ENDTAB
  0
TABLE
  2
DIMSTYLE
  5
A
330
0
100
AcDbSymbolTable
 70
     1
  0
DIMSTYLE
105
27
330
A
100
AcDbSymbolTableRecord
100
AcDbDimStyleTableRecord
  2
ISO-25
 70
     0
  3

  4

  5

  6

  7

 40
1.0
 41
2.5
 42
0.625
 43
3.75
 44
1.25
 45
0.0
 46
0.0
 47
0.0
 48
0.0
140
2.5
141
2.5
142
0.0
143
0.03937007874016
144
1.0
145
0.0
146
1.0
147
0.625
 71
     0
 72
     0
 73
     0
 74
     0
 75
     0
 76
     0
 77
     1
 78
     8
170
     0
171
     3
172
     1
173
     0
174
     0
175
     0
176
     0
177
     0
178
     0
270
     2
271
     2
272
     2
273
     2
274
     3
340
11
275
     0
280
     0
281
     0
282
     0
283
     0
284
     8
285
     0
286
     0
287
     3
288
     0
  0
ENDTAB
  0
TABLE
  2
BLOCK_RECORD
  5
1
330
0
100
AcDbSymbolTable
 70
     1
  0
BLOCK_RECORD
  5
1F
330
1
100
AcDbSymbolTableRecord
100
AcDbBlockTableRecord
  2
*MODEL_SPACE
  0
BLOCK_RECORD
  5
1B
330
1
100
AcDbSymbolTableRecord
100
AcDbBlockTableRecord
  2
*PAPER_SPACE
  0
ENDTAB
  0
ENDSEC
  0
SECTION
  2
BLOCKS
  0
BLOCK
  5
20
330
1F
100
AcDbEntity
  8
0
100
AcDbBlockBegin
  2
*MODEL_SPACE
 70
     0
 10
0.0
 20
0.0
 30
0.0
  3
*MODEL_SPACE
  1

  0
ENDBLK
  5
21
330
1F
100
AcDbEntity
  8
0
100
AcDbBlockEnd
  0
BLOCK
  5
1C
330
1B
100
AcDbEntity
 67
     1
  8
0
100
AcDbBlockBegin
  2
*PAPER_SPACE
  1

  0
ENDBLK
  5
1D
330
1B
100
AcDbEntity
 67
     1
  8
0
100
AcDbBlockEnd
  0
ENDSEC
  0
SECTION
  2
ENTITIES
  0
LINE
  5
100
100
AcDbEntity
  8
Layer_1
 62
7
100
AcDbLine
 10
0.000000
 20
841.889928
 30
0.0
 11
0.000000
 21
841.889928
 31
0.0
  0
LINE
  5
101
100
AcDbEntity
  8
Layer_1
 62
7
100
AcDbLine
 10
0.000000
 20
841.889928
 30
0.0
 11
0.000000
 21
841.889928
 31
0.0
  0
LINE
  5
102
100
AcDbEntity
  8
Layer_1
 62
7
100
AcDbLine
 10
0.000000
 20
841.889928
 30
0.0
 11
0.000000
 21
841.889928
 31
0.0
  0
LINE
  5
103
100
AcDbEntity
  8
Layer_1
 62
7
100
AcDbLine
 10
0.000000
 20
841.889928
 30
0.0
 11
0.000000
 21
841.889928
 31
0.0
  0
LINE
  5
104
100
AcDbEntity
  8
Layer_1
 62
1
100
AcDbLine
 10
1037.102344
 20
1259.273728
 30
0.0
 11
1037.102344
 21
1245.100288
 31
0.0
  0
LINE
  5
105
100
AcDbEntity
  8
Layer_1
 62
1
100
AcDbLine
 10
1037.102344
 20
1245.100288
 30
0.0
 11
1022.928872
 21
1245.100288
 31
0.0
  0
LINE
  5
106
100
AcDbEntity
  8
Layer_1
 62
1
100
AcDbLine
 10
1022.928872
 20
1245.100288
 30
0.0
 11
1022.928872
 21
1195.494040
 31
0.0
  0
LINE
  5
107
100
AcDbEntity
  8
Layer_1
 62
1
100
AcDbLine
 10
1022.928872
 20
1195.494040
 30
0.0
 11
1008.755432
 21
1195.494040
 31
0.0
  0
LINE
  5
108
100
AcDbEntity
  8
Layer_1
 62
1
100
AcDbLine
 10
1008.755432
 20
1195.494040
 30
0.0
 11
1008.755432
 21
1138.801848
 31
0.0
  0
LINE
  5
109
100
AcDbEntity
  8
Layer_1
 62
1
100
AcDbLine
 10
1008.755432
 20
1138.801848
 30
0.0
 11
1022.928872
 21
1138.801848
 31
0.0
  0
LINE
  5
10a
100
AcDbEntity
  8
Layer_1
 62
1
100
AcDbLine
 10
1022.928872
 20
1138.801848
 30
0.0
 11
1022.928872
 21
968.722160
 31
0.0
  0
LINE
  5
10b
100
AcDbEntity
  8
Layer_1
 62
1
100
AcDbLine
 10
1022.928872
 20
968.722160
 30
0.0
 11
1008.755432
 21
968.722160
 31
0.0
  0
LINE
  5
10c
100
AcDbEntity
  8
Layer_1
 62
1
100
AcDbLine
 10
1008.755432
 20
968.722160
 30
0.0
 11
1008.755432
 21
912.029976
 31
0.0
  0
LINE
  5
10d
100
AcDbEntity
  8
Layer_1
 62
1
100
AcDbLine
 10
1008.755432
 20
912.029976
 30
0.0
 11
1022.928872
 21
912.029976
 31
0.0
  0
LINE
  5
10e
100
AcDbEntity
  8
Layer_1
 62
1
100
AcDbLine
 10
1022.928872
 20
912.029976
 30
0.0
 11
1022.928872
 21
741.950288
 31
0.0
  0
LINE
  5
10f
100
AcDbEntity
  8
Layer_1
 62
1
100
AcDbLine
 10
1022.928872
 20
741.950288
 30
0.0
 11
1008.755432
 21
741.950288
 31
0.0
  0
LINE
  5
110
100
AcDbEntity
  8
Layer_1
 62
1
100
AcDbLine
 10
1008.755432
 20
741.950288
 30
0.0
 11
1008.755432
 21
685.258096
 31
0.0
  0
LINE
  5
111
100
AcDbEntity
  8
Layer_1
 62
1
100
AcDbLine
 10
1008.755432
 20
685.258096
 30
0.0
 11
1022.928872
 21
685.258096
 31
0.0
  0
LINE
  5
112
100
AcDbEntity
  8
Layer_1
 62
1
100
AcDbLine
 10
1022.928872
 20
685.258096
 30
0.0
 11
1022.928872
 21
635.651848
 31
0.0
  0
LINE
  5
113
100
AcDbEntity
  8
Layer_1
 62
1
100
AcDbLine
 10
1022.928872
 20
635.651848
 30
0.0
 11
1037.102344
 21
635.651848
 31
0.0
  0
LINE
  5
114
100
AcDbEntity
  8
Layer_1
 62
1
100
AcDbLine
 10
1037.102344
 20
635.651848
 30
0.0
 11
1037.102344
 21
621.478408
 31
0.0
  0
LINE
  5
115
100
AcDbEntity
  8
Layer_1
 62
1
100
AcDbLine
 10
1037.102344
 20
621.478408
 30
0.0
 11
1065.449224
 21
621.478408
 31
0.0
  0
LINE
  5
116
100
AcDbEntity
  8
Layer_1
 62
1
100
AcDbLine
 10
1065.449224
 20
621.478408
 30
0.0
 11
1065.449224
 21
635.651848
 31
0.0
  0
LINE
  5
117
100
AcDbEntity
  8
Layer_1
 62
1
100
AcDbLine
 10
1065.449224
 20
635.651848
 30
0.0
 11
1079.622584
 21
635.651848
 31
0.0
  0
LINE
  5
118
100
AcDbEntity
  8
Layer_1
 62
1
100
AcDbLine
 10
1079.622584
 20
635.651848
 30
0.0
 11
1079.622584
 21
849.278408
 31
0.0
  0
LINE
  5
119
100
AcDbEntity
  8
Layer_1
 62
1
100
AcDbLine
 10
1079.622584
 20
849.278408
 30
0.0
 11
1079.652184
 21
849.278408
 31
0.0
  0
SPLINE
  5
11a
100
AcDbEntity
  8
Layer_1
 62
1
100
AcDbSpline
 70
8
 71
3
 72
8
 73
4
 74
0
 40
0
 40
0
 40
0
 40
0
 40
1
 40
1
 40
1
 40
1
 10
1079.652184
 20
849.278408
 30
0.0
 10
1080.486824
 20
867.639344
 30
0.0
 10
1094.970424
 20
882.436512
 30
0.0
 10
1113.292744
 20
883.683096
 30
0.0
  0
LINE
  5
11b
100
AcDbEntity
  8
Layer_1
 62
1
100
AcDbLine
 10
1113.292744
 20
883.683096
 30
0.0
 11
1136.314664
 21
883.683096
 31
0.0
  0
LINE
  5
11c
100
AcDbEntity
  8
Layer_1
 62
1
100
AcDbLine
 10
1136.314664
 20
883.683096
 30
0.0
 11
1136.314664
 21
997.069040
 31
0.0
  0
LINE
  5
11d
100
AcDbEntity
  8
Layer_1
 62
1
100
AcDbLine
 10
1136.314664
 20
997.069040
 30
0.0
 11
1114.122424
 21
997.069040
 31
0.0
  0
LINE
  5
11e
100
AcDbEntity
  8
Layer_1
 62
1
100
AcDbLine
 10
1114.122424
 20
997.069040
 30
0.0
 11
1114.122424
 21
997.098720
 31
0.0
  0
SPLINE
  5
11f
100
AcDbEntity
  8
Layer_1
 62
1
100
AcDbSpline
 70
8
 71
3
 72
8
 73
4
 74
0
 40
0
 40
0
 40
0
 40
0
 40
1
 40
1
 40
1
 40
1
 10
1114.122424
 20
997.098720
 30
0.0
 10
1095.713704
 20
997.935600
 30
0.0
 10
1080.884344
 20
1012.491408
 30
0.0
 10
1079.705304
 20
1030.881528
 30
0.0
  0
LINE
  5
120
100
AcDbEntity
  8
Layer_1
 62
1
100
AcDbLine
 10
1079.705304
 20
1030.881528
 30
0.0
 11
1079.622424
 21
1030.881528
 31
0.0
  0
LINE
  5
121
100
AcDbEntity
  8
Layer_1
 62
1
100
AcDbLine
 10
1079.622424
 20
1030.881528
 30
0.0
 11
1079.622424
 21
1245.100280
 31
0.0
  0
LINE
  5
122
100
AcDbEntity
  8
Layer_1
 62
1
100
AcDbLine
 10
1079.622424
 20
1245.100280
 30
0.0
 11
1065.449064
 21
1245.100280
 31
0.0
  0
LINE
  5
123
100
AcDbEntity
  8
Layer_1
 62
1
100
AcDbLine
 10
1065.449064
 20
1245.100280
 30
0.0
 11
1065.449064
 21
1259.273720
 31
0.0
  0
LINE
  5
124
100
AcDbEntity
  8
Layer_1
 62
1
100
AcDbLine
 10
1065.449064
 20
1259.273720
 30
0.0
 11
1037.102184
 21
1259.273720
 31
0.0
  0
LINE
  5
125
100
AcDbEntity
  8
Layer_1
 62
1
100
AcDbLine
 10
1037.102184
 20
1259.273720
 30
0.0
 11
1037.102344
 21
1259.273728
 31
0.0
  0
LINE
  5
126
100
AcDbEntity
  8
Layer_1
 62
1
100
AcDbLine
 10
1092.803072
 20
975.798280
 30
0.0
 11
1092.803072
 21
972.974840
 31
0.0
  0
LINE
  5
127
100
AcDbEntity
  8
Layer_1
 62
1
100
AcDbLine
 10
1092.803072
 20
972.974840
 30
0.0
 11
1079.621792
 21
972.974840
 31
0.0
  0
LINE
  5
128
100
AcDbEntity
  8
Layer_1
 62
1
100
AcDbLine
 10
1079.621792
 20
972.974840
 30
0.0
 11
1079.621792
 21
907.777968
 31
0.0
  0
LINE
  5
129
100
AcDbEntity
  8
Layer_1
 62
1
100
AcDbLine
 10
1079.621792
 20
907.777968
 30
0.0
 11
1092.803072
 21
907.777968
 31
0.0
  0
LINE
  5
12a
100
AcDbEntity
  8
Layer_1
 62
1
100
AcDbLine
 10
1092.803072
 20
907.777968
 30
0.0
 11
1092.803072
 21
904.946712
 31
0.0
  0
LINE
  5
12b
100
AcDbEntity
  8
Layer_1
 62
1
100
AcDbLine
 10
1092.803072
 20
904.946712
 30
0.0
 11
1101.873392
 21
904.946712
 31
0.0
  0
LINE
  5
12c
100
AcDbEntity
  8
Layer_1
 62
1
100
AcDbLine
 10
1101.873392
 20
904.946712
 30
0.0
 11
1101.873392
 21
907.777968
 31
0.0
  0
LINE
  5
12d
100
AcDbEntity
  8
Layer_1
 62
1
100
AcDbLine
 10
1101.873392
 20
907.777968
 30
0.0
 11
1115.054672
 21
907.777968
 31
0.0
  0
LINE
  5
12e
100
AcDbEntity
  8
Layer_1
 62
1
100
AcDbLine
 10
1115.054672
 20
907.777968
 30
0.0
 11
1115.054672
 21
972.974840
 31
0.0
  0
LINE
  5
12f
100
AcDbEntity
  8
Layer_1
 62
1
100
AcDbLine
 10
1115.054672
 20
972.974840
 30
0.0
 11
1101.873392
 21
972.974840
 31
0.0
  0
LINE
  5
130
100
AcDbEntity
  8
Layer_1
 62
1
100
AcDbLine
 10
1101.873392
 20
972.974840
 30
0.0
 11
1101.873392
 21
975.798280
 31
0.0
  0
LINE
  5
131
100
AcDbEntity
  8
Layer_1
 62
1
100
AcDbLine
 10
1101.873392
 20
975.798280
 30
0.0
 11
1092.803072
 21
975.798280
 31
0.0
  0
LINE
  5
132
100
AcDbEntity
  8
Layer_1
 62
1
100
AcDbLine
 10
1092.803072
 20
975.798280
 30
0.0
 11
1092.803072
 21
975.798280
 31
0.0
  0
SPLINE
  5
133
100
AcDbEntity
  8
Layer_1
 62
1
100
AcDbSpline
 70
8
 71
3
 72
8
 73
4
 74
0
 40
0
 40
0
 40
0
 40
0
 40
1
 40
1
 40
1
 40
1
 10
223.078120
 20
805.581328
 30
0.0
 10
241.486840
 20
804.744448
 30
0.0
 10
256.316360
 20
790.188288
 30
0.0
 10
257.495400
 20
771.798288
 30
0.0
  0
LINE
  5
134
100
AcDbEntity
  8
Layer_1
 62
1
100
AcDbLine
 10
257.495400
 20
771.798288
 30
0.0
 11
265.516200
 21
771.770288
 31
0.0
  0
LINE
  5
135
100
AcDbEntity
  8
Layer_1
 62
1
100
AcDbLine
 10
265.516200
 20
771.770288
 30
0.0
 11
265.516200
 21
814.398904
 31
0.0
  0
LINE
  5
136
100
AcDbEntity
  8
Layer_1
 62
1
100
AcDbLine
 10
265.516200
 20
814.398904
 30
0.0
 11
223.078120
 21
814.398904
 31
0.0
  0
LINE
  5
137
100
AcDbEntity
  8
Layer_1
 62
1
100
AcDbLine
 10
223.078120
 20
814.398904
 30
0.0
 11
223.078120
 21
805.581328
 31
0.0
  0
SPLINE
  5
138
100
AcDbEntity
  8
Layer_1
 62
1
100
AcDbSpline
 70
8
 71
3
 72
8
 73
4
 74
0
 40
0
 40
0
 40
0
 40
0
 40
1
 40
1
 40
1
 40
1
 10
170.714808
 20
1313.867472
 30
0.0
 10
139.400776
 20
1313.867464
 30
0.0
 10
114.015880
 20
1288.482568
 30
0.0
 10
114.016368
 20
1257.169040
 30
0.0
  0
SPLINE
  5
139
100
AcDbEntity
  8
Layer_1
 62
1
100
AcDbSpline
 70
8
 71
3
 72
8
 73
4
 74
0
 40
0
 40
0
 40
0
 40
0
 40
1
 40
1
 40
1
 40
1
 10
114.016368
 20
1257.169040
 30
0.0
 10
114.016736
 20
1225.856112
 30
0.0
 10
139.401384
 20
1200.472168
 30
0.0
 10
170.714808
 20
1200.472160
 30
0.0
  0
SPLINE
  5
13a
100
AcDbEntity
  8
Layer_1
 62
1
100
AcDbSpline
 70
8
 71
3
 72
8
 73
4
 74
0
 40
0
 40
0
 40
0
 40
0
 40
1
 40
1
 40
1
 40
1
 10
170.714808
 20
1200.472160
 30
0.0
 10
190.950872
 20
1200.493600
 30
0.0
 10
209.641528
 20
1211.298472
 30
0.0
 10
219.758560
 20
1228.823728
 30
0.0
  0
LINE
  5
13b
100
AcDbEntity
  8
Layer_1
 62
1
100
AcDbLine
 10
219.758560
 20
1228.823728
 30
0.0
 11
316.132000
 21
1228.823728
 31
0.0
  0
LINE
  5
13c
100
AcDbEntity
  8
Layer_1
 62
1
100
AcDbLine
 10
316.132000
 20
1228.823728
 30
0.0
 11
316.132000
 21
1228.647160
 31
0.0
  0
SPLINE
  5
13d
100
AcDbEntity
  8
Layer_1
 62
1
100
AcDbSpline
 70
8
 71
3
 72
8
 73
4
 74
0
 40
0
 40
0
 40
0
 40
0
 40
1
 40
1
 40
1
 40
1
 10
316.132000
 20
1228.647160
 30
0.0
 10
359.556504
 20
1226.673120
 30
0.0
 10
394.538208
 20
1192.336856
 30
0.0
 10
397.319496
 20
1148.956536
 30
0.0
  0
LINE
  5
13e
100
AcDbEntity
  8
Layer_1
 62
1
100
AcDbLine
 10
397.319496
 20
1148.956536
 30
0.0
 11
397.486680
 21
1148.956536
 31
0.0
  0
LINE
  5
13f
100
AcDbEntity
  8
Layer_1
 62
1
100
AcDbLine
 10
397.486680
 20
1148.956536
 30
0.0
 11
397.486680
 21
741.161224
 31
0.0
  0
SPLINE
  5
140
100
AcDbEntity
  8
Layer_1
 62
1
100
AcDbSpline
 70
8
 71
3
 72
8
 73
4
 74
0
 40
0
 40
0
 40
0
 40
0
 40
1
 40
1
 40
1
 40
1
 10
397.486680
 20
741.161224
 30
0.0
 10
394.657336
 20
698.911192
 30
0.0
 10
361.161840
 20
665.073592
 30
0.0
 10
318.844496
 20
661.895600
 30
0.0
  0
LINE
  5
141
100
AcDbEntity
  8
Layer_1
 62
1
100
AcDbLine
 10
318.844496
 20
661.895600
 30
0.0
 11
219.736688
 21
661.895600
 31
0.0
  0
SPLINE
  5
142
100
AcDbEntity
  8
Layer_1
 62
1
100
AcDbSpline
 70
8
 71
3
 72
8
 73
4
 74
0
 40
0
 40
0
 40
0
 40
0
 40
1
 40
1
 40
1
 40
1
 10
219.736688
 20
661.895600
 30
0.0
 10
209.623568
 20
679.414096
 30
0.0
 10
190.943048
 20
690.217880
 30
0.0
 10
170.714808
 20
690.247160
 30
0.0
  0
SPLINE
  5
143
100
AcDbEntity
  8
Layer_1
 62
1
100
AcDbSpline
 70
8
 71
3
 72
8
 73
4
 74
0
 40
0
 40
0
 40
0
 40
0
 40
1
 40
1
 40
1
 40
1
 10
170.714808
 20
690.247160
 30
0.0
 10
139.400776
 20
690.247152
 30
0.0
 10
114.015880
 20
664.862256
 30
0.0
 10
114.016368
 20
633.548728
 30
0.0
  0
SPLINE
  5
144
100
AcDbEntity
  8
Layer_1
 62
1
100
AcDbSpline
 70
8
 71
3
 72
8
 73
4
 74
0
 40
0
 40
0
 40
0
 40
0
 40
1
 40
1
 40
1
 40
1
 10
114.016368
 20
633.548728
 30
0.0
 10
114.016728
 20
602.235800
 30
0.0
 10
139.401376
 20
576.851832
 30
0.0
 10
170.714808
 20
576.851832
 30
0.0
  0
SPLINE
  5
145
100
AcDbEntity
  8
Layer_1
 62
1
100
AcDbSpline
 70
8
 71
3
 72
8
 73
4
 74
0
 40
0
 40
0
 40
0
 40
0
 40
1
 40
1
 40
1
 40
1
 10
170.714808
 20
576.851832
 30
0.0
 10
190.950872
 20
576.873432
 30
0.0
 10
209.641536
 20
587.678152
 30
0.0
 10
219.758560
 20
605.203416
 30
0.0
  0
LINE
  5
146
100
AcDbEntity
  8
Layer_1
 62
1
100
AcDbLine
 10
219.758560
 20
605.203416
 30
0.0
 11
397.486680
 21
605.203416
 31
0.0
  0
LINE
  5
147
100
AcDbEntity
  8
Layer_1
 62
1
100
AcDbLine
 10
397.486680
 20
605.203416
 30
0.0
 11
438.114808
 21
605.203416
 31
0.0
  0
LINE
  5
148
100
AcDbEntity
  8
Layer_1
 62
1
100
AcDbLine
 10
438.114808
 20
605.203416
 30
0.0
 11
438.114808
 21
605.161256
 31
0.0
  0
SPLINE
  5
149
100
AcDbEntity
  8
Layer_1
 62
1
100
AcDbSpline
 70
8
 71
3
 72
8
 73
4
 74
0
 40
0
 40
0
 40
0
 40
0
 40
1
 40
1
 40
1
 40
1
 10
438.114808
 20
605.161256
 30
0.0
 10
446.414048
 20
604.629168
 30
0.0
 10
452.983968
 20
597.936152
 30
0.0
 10
453.361688
 20
589.628440
 30
0.0
  0
LINE
  5
14a
100
AcDbEntity
  8
Layer_1
 62
1
100
AcDbLine
 10
453.361688
 20
589.628440
 30
0.0
 11
453.392968
 21
589.628440
 31
0.0
  0
LINE
  5
14b
100
AcDbEntity
  8
Layer_1
 62
1
100
AcDbLine
 10
453.392968
 20
589.628440
 30
0.0
 11
453.392968
 21
586.667512
 31
0.0
  0
LINE
  5
14c
100
AcDbEntity
  8
Layer_1
 62
1
100
AcDbLine
 10
453.392968
 20
586.667512
 30
0.0
 11
453.410168
 21
572.497512
 31
0.0
  0
SPLINE
  5
14d
100
AcDbEntity
  8
Layer_1
 62
1
100
AcDbSpline
 70
8
 71
3
 72
8
 73
4
 74
0
 40
0
 40
0
 40
0
 40
0
 40
1
 40
1
 40
1
 40
1
 10
453.410168
 20
572.497512
 30
0.0
 10
453.451768
 20
562.296712
 30
0.0
 10
461.729936
 20
554.097512
 30
0.0
 10
472.008608
 20
554.097512
 30
0.0
  0
LINE
  5
14e
100
AcDbEntity
  8
Layer_1
 62
1
100
AcDbLine
 10
472.008608
 20
554.097512
 30
0.0
 11
578.061736
 21
554.097512
 31
0.0
  0
SPLINE
  5
14f
100
AcDbEntity
  8
Layer_1
 62
1
100
AcDbSpline
 70
8
 71
3
 72
8
 73
4
 74
0
 40
0
 40
0
 40
0
 40
0
 40
1
 40
1
 40
1
 40
1
 10
578.061736
 20
554.097512
 30
0.0
 10
588.340320
 20
554.097512
 30
0.0
 10
596.618648
 20
562.296712
 30
0.0
 10
596.660168
 20
572.497512
 30
0.0
  0
LINE
  5
150
100
AcDbEntity
  8
Layer_1
 62
1
100
AcDbLine
 10
596.660168
 20
572.497512
 30
0.0
 11
596.678888
 21
572.497512
 31
0.0
  0
LINE
  5
151
100
AcDbEntity
  8
Layer_1
 62
1
100
AcDbLine
 10
596.678888
 20
572.497512
 30
0.0
 11
596.678888
 21
590.176880
 31
0.0
  0
SPLINE
  5
152
100
AcDbEntity
  8
Layer_1
 62
1
100
AcDbSpline
 70
8
 71
3
 72
8
 73
4
 74
0
 40
0
 40
0
 40
0
 40
0
 40
1
 40
1
 40
1
 40
1
 10
596.678888
 20
590.176880
 30
0.0
 10
597.304424
 20
598.238488
 30
0.0
 10
603.753112
 20
604.663928
 30
0.0
 10
611.875760
 20
605.184696
 30
0.0
  0
LINE
  5
153
100
AcDbEntity
  8
Layer_1
 62
1
100
AcDbLine
 10
611.875760
 20
605.184696
 30
0.0
 11
611.875760
 21
605.203416
 31
0.0
  0
LINE
  5
154
100
AcDbEntity
  8
Layer_1
 62
1
100
AcDbLine
 10
611.875760
 20
605.203416
 30
0.0
 11
652.603888
 21
605.203416
 31
0.0
  0
LINE
  5
155
100
AcDbEntity
  8
Layer_1
 62
1
100
AcDbLine
 10
652.603888
 20
605.203416
 30
0.0
 11
830.030480
 21
605.203416
 31
0.0
  0
SPLINE
  5
156
100
AcDbEntity
  8
Layer_1
 62
1
100
AcDbSpline
 70
8
 71
3
 72
8
 73
4
 74
0
 40
0
 40
0
 40
0
 40
0
 40
1
 40
1
 40
1
 40
1
 10
830.030480
 20
605.203416
 30
0.0
 10
840.056240
 20
587.366232
 30
0.0
 10
858.915360
 20
576.314872
 30
0.0
 10
879.377360
 20
576.286232
 30
0.0
  0
SPLINE
  5
157
100
AcDbEntity
  8
Layer_1
 62
1
100
AcDbSpline
 70
8
 71
3
 72
8
 73
4
 74
0
 40
0
 40
0
 40
0
 40
0
 40
1
 40
1
 40
1
 40
1
 10
879.377360
 20
576.286232
 30
0.0
 10
910.690720
 20
576.286232
 30
0.0
 10
936.075360
 20
601.670184
 30
0.0
 10
936.075760
 20
632.983096
 30
0.0
  0
SPLINE
  5
158
100
AcDbEntity
  8
Layer_1
 62
1
100
AcDbSpline
 70
8
 71
3
 72
8
 73
4
 74
0
 40
0
 40
0
 40
0
 40
0
 40
1
 40
1
 40
1
 40
1
 10
936.075760
 20
632.983096
 30
0.0
 10
936.076240
 20
664.296624
 30
0.0
 10
910.691360
 20
689.681520
 30
0.0
 10
879.377360
 20
689.681536
 30
0.0
  0
SPLINE
  5
159
100
AcDbEntity
  8
Layer_1
 62
1
100
AcDbSpline
 70
8
 71
3
 72
8
 73
4
 74
0
 40
0
 40
0
 40
0
 40
0
 40
1
 40
1
 40
1
 40
1
 10
879.377360
 20
689.681536
 30
0.0
 10
859.380880
 20
689.654656
 30
0.0
 10
840.877200
 20
679.096648
 30
0.0
 10
830.680480
 20
661.895600
 30
0.0
  0
LINE
  5
15a
100
AcDbEntity
  8
Layer_1
 62
1
100
AcDbLine
 10
830.680480
 20
661.895600
 30
0.0
 11
733.721072
 21
661.895600
 31
0.0
  0
LINE
  5
15b
100
AcDbEntity
  8
Layer_1
 62
1
100
AcDbLine
 10
733.721072
 20
661.895600
 30
0.0
 11
733.721072
 21
662.001848
 31
0.0
  0
SPLINE
  5
15c
100
AcDbEntity
  8
Layer_1
 62
1
100
AcDbSpline
 70
8
 71
3
 72
8
 73
4
 74
0
 40
0
 40
0
 40
0
 40
0
 40
1
 40
1
 40
1
 40
1
 10
733.721072
 20
662.001848
 30
0.0
 10
690.608344
 20
663.961712
 30
0.0
 10
655.823048
 20
697.824048
 30
0.0
 10
652.603872
 20
740.762784
 30
0.0
  0
LINE
  5
15d
100
AcDbEntity
  8
Layer_1
 62
1
100
AcDbLine
 10
652.603872
 20
740.762784
 30
0.0
 11
652.603872
 21
1147.470600
 31
0.0
  0
LINE
  5
15e
100
AcDbEntity
  8
Layer_1
 62
1
100
AcDbLine
 10
652.603872
 20
1147.470600
 30
0.0
 11
652.769496
 21
1147.470600
 31
0.0
  0
SPLINE
  5
15f
100
AcDbEntity
  8
Layer_1
 62
1
100
AcDbSpline
 70
8
 71
3
 72
8
 73
4
 74
0
 40
0
 40
0
 40
0
 40
0
 40
1
 40
1
 40
1
 40
1
 10
652.769496
 20
1147.470600
 30
0.0
 10
654.743536
 20
1190.895104
 30
0.0
 10
689.079800
 20
1225.876808
 30
0.0
 10
732.460120
 20
1228.658096
 30
0.0
  0
LINE
  5
160
100
AcDbEntity
  8
Layer_1
 62
1
100
AcDbLine
 10
732.460120
 20
1228.658096
 30
0.0
 11
732.460120
 21
1228.823728
 31
0.0
  0
LINE
  5
161
100
AcDbEntity
  8
Layer_1
 62
1
100
AcDbLine
 10
732.460120
 20
1228.823728
 30
0.0
 11
830.030400
 21
1228.823728
 31
0.0
  0
SPLINE
  5
162
100
AcDbEntity
  8
Layer_1
 62
1
100
AcDbSpline
 70
8
 71
3
 72
8
 73
4
 74
0
 40
0
 40
0
 40
0
 40
0
 40
1
 40
1
 40
1
 40
1
 10
830.030400
 20
1228.823728
 30
0.0
 10
840.056240
 20
1210.986552
 30
0.0
 10
858.915360
 20
1199.935144
 30
0.0
 10
879.377280
 20
1199.906536
 30
0.0
  0
SPLINE
  5
163
100
AcDbEntity
  8
Layer_1
 62
1
100
AcDbSpline
 70
8
 71
3
 72
8
 73
4
 74
0
 40
0
 40
0
 40
0
 40
0
 40
1
 40
1
 40
1
 40
1
 10
879.377280
 20
1199.906536
 30
0.0
 10
910.690720
 20
1199.906552
 30
0.0
 10
936.075360
 20
1225.290496
 30
0.0
 10
936.075760
 20
1256.603416
 30
0.0
  0
SPLINE
  5
164
100
AcDbEntity
  8
Layer_1
 62
1
100
AcDbSpline
 70
8
 71
3
 72
8
 73
4
 74
0
 40
0
 40
0
 40
0
 40
0
 40
1
 40
1
 40
1
 40
1
 10
936.075760
 20
1256.603416
 30
0.0
 10
936.076240
 20
1287.916944
 30
0.0
 10
910.691360
 20
1313.301832
 30
0.0
 10
879.377280
 20
1313.301848
 30
0.0
  0
SPLINE
  5
165
100
AcDbEntity
  8
Layer_1
 62
1
100
AcDbSpline
 70
8
 71
3
 72
8
 73
4
 74
0
 40
0
 40
0
 40
0
 40
0
 40
1
 40
1
 40
1
 40
1
 10
879.377280
 20
1313.301848
 30
0.0
 10
859.380880
 20
1313.274968
 30
0.0
 10
840.877120
 20
1302.716960
 30
0.0
 10
830.680400
 20
1285.515912
 30
0.0
  0
LINE
  5
166
100
AcDbEntity
  8
Layer_1
 62
1
100
AcDbLine
 10
830.680400
 20
1285.515912
 30
0.0
 11
652.603872
 21
1285.515912
 31
0.0
  0
LINE
  5
167
100
AcDbEntity
  8
Layer_1
 62
1
100
AcDbLine
 10
652.603872
 20
1285.515912
 30
0.0
 11
652.603872
 21
1285.517512
 31
0.0
  0
LINE
  5
168
100
AcDbEntity
  8
Layer_1
 62
1
100
AcDbLine
 10
652.603872
 20
1285.517512
 30
0.0
 11
397.486680
 21
1285.517512
 31
0.0
  0
LINE
  5
169
100
AcDbEntity
  8
Layer_1
 62
1
100
AcDbLine
 10
397.486680
 20
1285.517512
 30
0.0
 11
397.486680
 21
1285.515912
 31
0.0
  0
LINE
  5
16a
100
AcDbEntity
  8
Layer_1
 62
1
100
AcDbLine
 10
397.486680
 20
1285.515912
 30
0.0
 11
219.736688
 21
1285.515912
 31
0.0
  0
SPLINE
  5
16b
100
AcDbEntity
  8
Layer_1
 62
1
100
AcDbSpline
 70
8
 71
3
 72
8
 73
4
 74
0
 40
0
 40
0
 40
0
 40
0
 40
1
 40
1
 40
1
 40
1
 10
219.736688
 20
1285.515912
 30
0.0
 10
209.623568
 20
1303.034408
 30
0.0
 10
190.943048
 20
1313.838192
 30
0.0
 10
170.714808
 20
1313.867472
 30
0.0
  0
LINE
  5
16c
100
AcDbEntity
  8
Layer_1
 62
1
100
AcDbLine
 10
170.714808
 20
1313.867472
 30
0.0
 11
170.714808
 21
1313.867472
 31
0.0
  0
LINE
  5
16d
100
AcDbEntity
  8
Layer_1
 62
1
100
AcDbLine
 10
241.012960
 20
1264.256624
 30
0.0
 11
269.360421
 21
1264.256624
 31
0.0
  0
LINE
  5
16e
100
AcDbEntity
  8
Layer_1
 62
1
100
AcDbLine
 10
269.360421
 20
1264.256624
 30
0.0
 11
269.360421
 21
1250.082392
 31
0.0
  0
LINE
  5
16f
100
AcDbEntity
  8
Layer_1
 62
1
100
AcDbLine
 10
269.360421
 20
1250.082392
 30
0.0
 11
241.012960
 21
1250.082392
 31
0.0
  0
LINE
  5
170
100
AcDbEntity
  8
Layer_1
 62
1
100
AcDbLine
 10
241.012960
 20
1250.082392
 30
0.0
 11
241.012960
 21
1264.256624
 31
0.0
  0
LINE
  5
171
100
AcDbEntity
  8
Layer_1
 62
1
100
AcDbLine
 10
780.729496
 20
1264.256624
 30
0.0
 11
809.076957
 21
1264.256624
 31
0.0
  0
LINE
  5
172
100
AcDbEntity
  8
Layer_1
 62
1
100
AcDbLine
 10
809.076957
 20
1264.256624
 30
0.0
 11
809.076957
 21
1250.082392
 31
0.0
  0
LINE
  5
173
100
AcDbEntity
  8
Layer_1
 62
1
100
AcDbLine
 10
809.076957
 20
1250.082392
 30
0.0
 11
780.729496
 21
1250.082392
 31
0.0
  0
LINE
  5
174
100
AcDbEntity
  8
Layer_1
 62
1
100
AcDbLine
 10
780.729496
 20
1250.082392
 30
0.0
 11
780.729496
 21
1264.256624
 31
0.0
  0
LINE
  5
175
100
AcDbEntity
  8
Layer_1
 62
1
100
AcDbLine
 10
397.485448
 20
1264.256624
 30
0.0
 11
425.832909
 21
1264.256624
 31
0.0
  0
LINE
  5
176
100
AcDbEntity
  8
Layer_1
 62
1
100
AcDbLine
 10
425.832909
 20
1264.256624
 30
0.0
 11
425.832909
 21
1250.082392
 31
0.0
  0
LINE
  5
177
100
AcDbEntity
  8
Layer_1
 62
1
100
AcDbLine
 10
425.832909
 20
1250.082392
 30
0.0
 11
397.485448
 21
1250.082392
 31
0.0
  0
LINE
  5
178
100
AcDbEntity
  8
Layer_1
 62
1
100
AcDbLine
 10
397.485448
 20
1250.082392
 30
0.0
 11
397.485448
 21
1264.256624
 31
0.0
  0
LINE
  5
179
100
AcDbEntity
  8
Layer_1
 62
1
100
AcDbLine
 10
624.257032
 20
1264.256624
 30
0.0
 11
652.604493
 21
1264.256624
 31
0.0
  0
LINE
  5
17a
100
AcDbEntity
  8
Layer_1
 62
1
100
AcDbLine
 10
652.604493
 20
1264.256624
 30
0.0
 11
652.604493
 21
1250.082392
 31
0.0
  0
LINE
  5
17b
100
AcDbEntity
  8
Layer_1
 62
1
100
AcDbLine
 10
652.604493
 20
1250.082392
 30
0.0
 11
624.257032
 21
1250.082392
 31
0.0
  0
LINE
  5
17c
100
AcDbEntity
  8
Layer_1
 62
1
100
AcDbLine
 10
624.257032
 20
1250.082392
 30
0.0
 11
624.257032
 21
1264.256624
 31
0.0
  0
LINE
  5
17d
100
AcDbEntity
  8
Layer_1
 62
1
100
AcDbLine
 10
145.759549
 20
652.490841
 30
0.0
 11
151.772740
 21
658.504032
 31
0.0
  0
LINE
  5
17e
100
AcDbEntity
  8
Layer_1
 62
1
100
AcDbLine
 10
151.772740
 20
658.504032
 30
0.0
 11
163.799123
 21
646.477649
 31
0.0
  0
LINE
  5
17f
100
AcDbEntity
  8
Layer_1
 62
1
100
AcDbLine
 10
163.799123
 20
646.477649
 30
0.0
 11
157.785932
 21
640.464457
 31
0.0
  0
LINE
  5
180
100
AcDbEntity
  8
Layer_1
 62
1
100
AcDbLine
 10
157.785932
 20
640.464457
 30
0.0
 11
145.759549
 21
652.490841
 31
0.0
  0
LINE
  5
181
100
AcDbEntity
  8
Layer_1
 62
1
100
AcDbLine
 10
177.629451
 20
620.620937
 30
0.0
 11
183.642642
 21
626.634130
 31
0.0
  0
LINE
  5
182
100
AcDbEntity
  8
Layer_1
 62
1
100
AcDbLine
 10
183.642642
 20
626.634130
 30
0.0
 11
195.669026
 21
614.607745
 31
0.0
  0
LINE
  5
183
100
AcDbEntity
  8
Layer_1
 62
1
100
AcDbLine
 10
195.669026
 20
614.607745
 30
0.0
 11
189.655834
 21
608.594553
 31
0.0
  0
LINE
  5
184
100
AcDbEntity
  8
Layer_1
 62
1
100
AcDbLine
 10
189.655834
 20
608.594553
 30
0.0
 11
177.629451
 21
620.620937
 31
0.0
  0
LINE
  5
185
100
AcDbEntity
  8
Layer_1
 62
1
100
AcDbLine
 10
189.655831
 20
658.504053
 30
0.0
 11
195.669023
 21
652.490861
 31
0.0
  0
LINE
  5
186
100
AcDbEntity
  8
Layer_1
 62
1
100
AcDbLine
 10
195.669023
 20
652.490861
 30
0.0
 11
183.642640
 21
640.464478
 31
0.0
  0
LINE
  5
187
100
AcDbEntity
  8
Layer_1
 62
1
100
AcDbLine
 10
183.642640
 20
640.464478
 30
0.0
 11
177.629449
 21
646.477670
 31
0.0
  0
LINE
  5
188
100
AcDbEntity
  8
Layer_1
 62
1
100
AcDbLine
 10
177.629449
 20
646.477670
 30
0.0
 11
189.655831
 21
658.504053
 31
0.0
  0
LINE
  5
189
100
AcDbEntity
  8
Layer_1
 62
1
100
AcDbLine
 10
157.785915
 20
626.634136
 30
0.0
 11
163.799108
 21
620.620943
 31
0.0
  0
LINE
  5
18a
100
AcDbEntity
  8
Layer_1
 62
1
100
AcDbLine
 10
163.799108
 20
620.620943
 30
0.0
 11
151.772724
 21
608.594559
 31
0.0
  0
LINE
  5
18b
100
AcDbEntity
  8
Layer_1
 62
1
100
AcDbLine
 10
151.772724
 20
608.594559
 30
0.0
 11
145.759532
 21
614.607752
 31
0.0
  0
LINE
  5
18c
100
AcDbEntity
  8
Layer_1
 62
1
100
AcDbLine
 10
145.759532
 20
614.607752
 30
0.0
 11
157.785915
 21
626.634136
 31
0.0
  0
LINE
  5
18d
100
AcDbEntity
  8
Layer_1
 62
1
100
AcDbLine
 10
531.995704
 20
1200.341712
 30
0.0
 11
531.995704
 21
1143.648798
 31
0.0
  0
LINE
  5
18e
100
AcDbEntity
  8
Layer_1
 62
1
100
AcDbLine
 10
531.995704
 20
1143.648798
 30
0.0
 11
517.822475
 21
1143.648798
 31
0.0
  0
LINE
  5
18f
100
AcDbEntity
  8
Layer_1
 62
1
100
AcDbLine
 10
517.822475
 20
1143.648798
 30
0.0
 11
517.822475
 21
1200.341712
 31
0.0
  0
LINE
  5
190
100
AcDbEntity
  8
Layer_1
 62
1
100
AcDbLine
 10
517.822475
 20
1200.341712
 30
0.0
 11
531.995704
 21
1200.341712
 31
0.0
  0
LINE
  5
191
100
AcDbEntity
  8
Layer_1
 62
1
100
AcDbLine
 10
531.995704
 20
746.798432
 30
0.0
 11
531.995704
 21
690.105518
 31
0.0
  0
LINE
  5
192
100
AcDbEntity
  8
Layer_1
 62
1
100
AcDbLine
 10
531.995704
 20
690.105518
 30
0.0
 11
517.822475
 21
690.105518
 31
0.0
  0
LINE
  5
193
100
AcDbEntity
  8
Layer_1
 62
1
100
AcDbLine
 10
517.822475
 20
690.105518
 30
0.0
 11
517.822475
 21
746.798432
 31
0.0
  0
LINE
  5
194
100
AcDbEntity
  8
Layer_1
 62
1
100
AcDbLine
 10
517.822475
 20
746.798432
 30
0.0
 11
531.995704
 21
746.798432
 31
0.0
  0
LINE
  5
195
100
AcDbEntity
  8
Layer_1
 62
1
100
AcDbLine
 10
425.696536
 20
1171.990296
 30
0.0
 11
425.696536
 21
1115.297382
 31
0.0
  0
LINE
  5
196
100
AcDbEntity
  8
Layer_1
 62
1
100
AcDbLine
 10
425.696536
 20
1115.297382
 30
0.0
 11
411.523307
 21
1115.297382
 31
0.0
  0
LINE
  5
197
100
AcDbEntity
  8
Layer_1
 62
1
100
AcDbLine
 10
411.523307
 20
1115.297382
 30
0.0
 11
411.523307
 21
1171.990296
 31
0.0
  0
LINE
  5
198
100
AcDbEntity
  8
Layer_1
 62
1
100
AcDbLine
 10
411.523307
 20
1171.990296
 30
0.0
 11
425.696536
 21
1171.990296
 31
0.0
  0
LINE
  5
199
100
AcDbEntity
  8
Layer_1
 62
1
100
AcDbLine
 10
638.294920
 20
1171.990296
 30
0.0
 11
638.294920
 21
1115.297382
 31
0.0
  0
LINE
  5
19a
100
AcDbEntity
  8
Layer_1
 62
1
100
AcDbLine
 10
638.294920
 20
1115.297382
 30
0.0
 11
624.121691
 21
1115.297382
 31
0.0
  0
LINE
  5
19b
100
AcDbEntity
  8
Layer_1
 62
1
100
AcDbLine
 10
624.121691
 20
1115.297382
 30
0.0
 11
624.121691
 21
1171.990296
 31
0.0
  0
LINE
  5
19c
100
AcDbEntity
  8
Layer_1
 62
1
100
AcDbLine
 10
624.121691
 20
1171.990296
 30
0.0
 11
638.294920
 21
1171.990296
 31
0.0
  0
LINE
  5
19d
100
AcDbEntity
  8
Layer_1
 62
1
100
AcDbLine
 10
425.696536
 20
775.139885
 30
0.0
 11
425.696536
 21
718.446972
 31
0.0
  0
LINE
  5
19e
100
AcDbEntity
  8
Layer_1
 62
1
100
AcDbLine
 10
425.696536
 20
718.446972
 30
0.0
 11
411.523306
 21
718.446972
 31
0.0
  0
LINE
  5
19f
100
AcDbEntity
  8
Layer_1
 62
1
100
AcDbLine
 10
411.523306
 20
718.446972
 30
0.0
 11
411.523306
 21
775.139885
 31
0.0
  0
LINE
  5
1a0
100
AcDbEntity
  8
Layer_1
 62
1
100
AcDbLine
 10
411.523306
 20
775.139885
 30
0.0
 11
425.696536
 21
775.139885
 31
0.0
  0
LINE
  5
1a1
100
AcDbEntity
  8
Layer_1
 62
1
100
AcDbLine
 10
638.294920
 20
775.139885
 30
0.0
 11
638.294920
 21
718.446972
 31
0.0
  0
LINE
  5
1a2
100
AcDbEntity
  8
Layer_1
 62
1
100
AcDbLine
 10
638.294920
 20
718.446972
 30
0.0
 11
624.121690
 21
718.446972
 31
0.0
  0
LINE
  5
1a3
100
AcDbEntity
  8
Layer_1
 62
1
100
AcDbLine
 10
624.121690
 20
718.446972
 30
0.0
 11
624.121690
 21
775.139885
 31
0.0
  0
LINE
  5
1a4
100
AcDbEntity
  8
Layer_1
 62
1
100
AcDbLine
 10
624.121690
 20
775.139885
 30
0.0
 11
638.294920
 21
775.139885
 31
0.0
  0
LINE
  5
1a5
100
AcDbEntity
  8
Layer_1
 62
1
100
AcDbLine
 10
496.562648
 20
895.612346
 30
0.0
 11
553.255562
 21
895.612346
 31
0.0
  0
LINE
  5
1a6
100
AcDbEntity
  8
Layer_1
 62
1
100
AcDbLine
 10
553.255562
 20
895.612346
 30
0.0
 11
553.255562
 21
881.439117
 31
0.0
  0
LINE
  5
1a7
100
AcDbEntity
  8
Layer_1
 62
1
100
AcDbLine
 10
553.255562
 20
881.439117
 30
0.0
 11
496.562648
 21
881.439117
 31
0.0
  0
LINE
  5
1a8
100
AcDbEntity
  8
Layer_1
 62
1
100
AcDbLine
 10
496.562648
 20
881.439117
 30
0.0
 11
496.562648
 21
895.612346
 31
0.0
  0
LINE
  5
1a9
100
AcDbEntity
  8
Layer_1
 62
1
100
AcDbLine
 10
531.995704
 20
973.706832
 30
0.0
 11
531.995704
 21
917.013918
 31
0.0
  0
LINE
  5
1aa
100
AcDbEntity
  8
Layer_1
 62
1
100
AcDbLine
 10
531.995704
 20
917.013918
 30
0.0
 11
517.822475
 21
917.013918
 31
0.0
  0
LINE
  5
1ab
100
AcDbEntity
  8
Layer_1
 62
1
100
AcDbLine
 10
517.822475
 20
917.013918
 30
0.0
 11
517.822475
 21
973.706832
 31
0.0
  0
LINE
  5
1ac
100
AcDbEntity
  8
Layer_1
 62
1
100
AcDbLine
 10
517.822475
 20
973.706832
 30
0.0
 11
531.995704
 21
973.706832
 31
0.0
  0
LINE
  5
1ad
100
AcDbEntity
  8
Layer_1
 62
1
100
AcDbLine
 10
517.958352
 20
626.462240
 30
0.0
 11
532.131581
 21
626.462240
 31
0.0
  0
LINE
  5
1ae
100
AcDbEntity
  8
Layer_1
 62
1
100
AcDbLine
 10
532.131581
 20
626.462240
 30
0.0
 11
532.131581
 21
615.123657
 31
0.0
  0
LINE
  5
1af
100
AcDbEntity
  8
Layer_1
 62
1
100
AcDbLine
 10
532.131581
 20
615.123657
 30
0.0
 11
517.958352
 21
615.123657
 31
0.0
  0
LINE
  5
1b0
100
AcDbEntity
  8
Layer_1
 62
1
100
AcDbLine
 10
517.958352
 20
615.123657
 30
0.0
 11
517.958352
 21
626.462240
 31
0.0
  0
LINE
  5
1b1
100
AcDbEntity
  8
Layer_1
 62
1
100
AcDbLine
 10
603.157912
 20
959.692896
 30
0.0
 11
603.157912
 21
931.027844
 31
0.0
  0
LINE
  5
1b2
100
AcDbEntity
  8
Layer_1
 62
1
100
AcDbLine
 10
603.157912
 20
931.027844
 30
0.0
 11
588.666089
 21
931.027844
 31
0.0
  0
LINE
  5
1b3
100
AcDbEntity
  8
Layer_1
 62
1
100
AcDbLine
 10
588.666089
 20
931.027844
 30
0.0
 11
588.666089
 21
959.692896
 31
0.0
  0
LINE
  5
1b4
100
AcDbEntity
  8
Layer_1
 62
1
100
AcDbLine
 10
588.666089
 20
959.692896
 30
0.0
 11
603.157912
 21
959.692896
 31
0.0
  0
LINE
  5
1b5
100
AcDbEntity
  8
Layer_1
 62
1
100
AcDbLine
 10
241.014080
 20
640.627136
 30
0.0
 11
269.361544
 21
640.627136
 31
0.0
  0
LINE
  5
1b6
100
AcDbEntity
  8
Layer_1
 62
1
100
AcDbLine
 10
269.361544
 20
640.627136
 30
0.0
 11
269.361544
 21
626.452903
 31
0.0
  0
LINE
  5
1b7
100
AcDbEntity
  8
Layer_1
 62
1
100
AcDbLine
 10
269.361544
 20
626.452903
 30
0.0
 11
241.014080
 21
626.452903
 31
0.0
  0
LINE
  5
1b8
100
AcDbEntity
  8
Layer_1
 62
1
100
AcDbLine
 10
241.014080
 20
626.452903
 30
0.0
 11
241.014080
 21
640.627136
 31
0.0
  0
LINE
  5
1b9
100
AcDbEntity
  8
Layer_1
 62
1
100
AcDbLine
 10
780.730552
 20
640.627136
 30
0.0
 11
809.078016
 21
640.627136
 31
0.0
  0
LINE
  5
1ba
100
AcDbEntity
  8
Layer_1
 62
1
100
AcDbLine
 10
809.078016
 20
640.627136
 30
0.0
 11
809.078016
 21
626.452903
 31
0.0
  0
LINE
  5
1bb
100
AcDbEntity
  8
Layer_1
 62
1
100
AcDbLine
 10
809.078016
 20
626.452903
 30
0.0
 11
780.730552
 21
626.452903
 31
0.0
  0
LINE
  5
1bc
100
AcDbEntity
  8
Layer_1
 62
1
100
AcDbLine
 10
780.730552
 20
626.452903
 30
0.0
 11
780.730552
 21
640.627136
 31
0.0
  0
LINE
  5
1bd
100
AcDbEntity
  8
Layer_1
 62
1
100
AcDbLine
 10
397.486576
 20
640.627136
 30
0.0
 11
425.834040
 21
640.627136
 31
0.0
  0
LINE
  5
1be
100
AcDbEntity
  8
Layer_1
 62
1
100
AcDbLine
 10
425.834040
 20
640.627136
 30
0.0
 11
425.834040
 21
626.452903
 31
0.0
  0
LINE
  5
1bf
100
AcDbEntity
  8
Layer_1
 62
1
100
AcDbLine
 10
425.834040
 20
626.452903
 30
0.0
 11
397.486576
 21
626.452903
 31
0.0
  0
LINE
  5
1c0
100
AcDbEntity
  8
Layer_1
 62
1
100
AcDbLine
 10
397.486576
 20
626.452903
 30
0.0
 11
397.486576
 21
640.627136
 31
0.0
  0
LINE
  5
1c1
100
AcDbEntity
  8
Layer_1
 62
1
100
AcDbLine
 10
624.258160
 20
640.627136
 30
0.0
 11
652.605624
 21
640.627136
 31
0.0
  0
LINE
  5
1c2
100
AcDbEntity
  8
Layer_1
 62
1
100
AcDbLine
 10
652.605624
 20
640.627136
 30
0.0
 11
652.605624
 21
626.452903
 31
0.0
  0
LINE
  5
1c3
100
AcDbEntity
  8
Layer_1
 62
1
100
AcDbLine
 10
652.605624
 20
626.452903
 30
0.0
 11
624.258160
 21
626.452903
 31
0.0
  0
LINE
  5
1c4
100
AcDbEntity
  8
Layer_1
 62
1
100
AcDbLine
 10
624.258160
 20
626.452903
 30
0.0
 11
624.258160
 21
640.627136
 31
0.0
  0
LINE
  5
1c5
100
AcDbEntity
  8
Layer_1
 62
1
100
AcDbLine
 10
252.813492
 20
522.527082
 30
0.0
 11
252.813492
 21
508.355162
 31
0.0
  0
LINE
  5
1c6
100
AcDbEntity
  8
Layer_1
 62
1
100
AcDbLine
 10
252.813492
 20
508.355162
 30
0.0
 11
125.819746
 21
508.355162
 31
0.0
  0
LINE
  5
1c7
100
AcDbEntity
  8
Layer_1
 62
1
100
AcDbLine
 10
125.819746
 20
508.355162
 30
0.0
 11
125.819746
 21
451.658282
 31
0.0
  0
LINE
  5
1c8
100
AcDbEntity
  8
Layer_1
 62
1
100
AcDbLine
 10
125.819746
 20
451.658282
 30
0.0
 11
125.821346
 21
451.658282
 31
0.0
  0
LINE
  5
1c9
100
AcDbEntity
  8
Layer_1
 62
1
100
AcDbLine
 10
125.821346
 20
451.658282
 30
0.0
 11
125.821346
 21
309.940042
 31
0.0
  0
LINE
  5
1ca
100
AcDbEntity
  8
Layer_1
 62
1
100
AcDbLine
 10
125.821346
 20
309.940042
 30
0.0
 11
182.515094
 21
309.940042
 31
0.0
  0
LINE
  5
1cb
100
AcDbEntity
  8
Layer_1
 62
1
100
AcDbLine
 10
182.515094
 20
309.940042
 30
0.0
 11
204.749470
 21
417.823882
 31
0.0
  0
LINE
  5
1cc
100
AcDbEntity
  8
Layer_1
 62
1
100
AcDbLine
 10
204.749470
 20
417.823882
 30
0.0
 11
204.790094
 21
417.823882
 31
0.0
  0
SPLINE
  5
1cd
100
AcDbEntity
  8
Layer_1
 62
1
100
AcDbSpline
 70
8
 71
3
 72
8
 73
4
 74
0
 40
0
 40
0
 40
0
 40
0
 40
1
 40
1
 40
1
 40
1
 10
204.790094
 20
417.823882
 30
0.0
 10
204.919378
 20
418.360362
 30
0.0
 10
205.056468
 20
418.892682
 30
0.0
 10
205.197906
 20
419.422362
 30
0.0
  0
LINE
  5
1ce
100
AcDbEntity
  8
Layer_1
 62
1
100
AcDbLine
 10
205.197906
 20
419.422362
 30
0.0
 11
205.451031
 21
420.331722
 31
0.0
  0
SPLINE
  5
1cf
100
AcDbEntity
  8
Layer_1
 62
1
100
AcDbSpline
 70
8
 71
3
 72
8
 73
4
 74
0
 40
0
 40
0
 40
0
 40
0
 40
1
 40
1
 40
1
 40
1
 10
205.451031
 20
420.331722
 30
0.0
 10
210.305071
 20
437.520282
 30
0.0
 10
221.644695
 20
450.809882
 30
0.0
 10
239.207282
 20
451.608282
 30
0.0
  0
LINE
  5
1d0
100
AcDbEntity
  8
Layer_1
 62
1
100
AcDbLine
 10
239.207282
 20
451.608282
 30
0.0
 11
239.207282
 21
451.657882
 31
0.0
  0
LINE
  5
1d1
100
AcDbEntity
  8
Layer_1
 62
1
100
AcDbLine
 10
239.207282
 20
451.657882
 30
0.0
 11
834.704154
 21
451.657882
 31
0.0
  0
LINE
  5
1d2
100
AcDbEntity
  8
Layer_1
 62
1
100
AcDbLine
 10
834.704154
 20
451.657882
 30
0.0
 11
834.704154
 21
451.603482
 31
0.0
  0
SPLINE
  5
1d3
100
AcDbEntity
  8
Layer_1
 62
1
100
AcDbSpline
 70
8
 71
3
 72
8
 73
4
 74
0
 40
0
 40
0
 40
0
 40
0
 40
1
 40
1
 40
1
 40
1
 10
834.704154
 20
451.603482
 30
0.0
 10
850.622954
 20
450.879722
 30
0.0
 10
861.428818
 20
439.893482
 30
0.0
 10
866.927594
 20
425.044042
 30
0.0
  0
LINE
  5
1d4
100
AcDbEntity
  8
Layer_1
 62
1
100
AcDbLine
 10
866.927594
 20
425.044042
 30
0.0
 11
891.182282
 21
309.939882
 31
0.0
  0
LINE
  5
1d5
100
AcDbEntity
  8
Layer_1
 62
1
100
AcDbLine
 10
891.182282
 20
309.939882
 30
0.0
 11
947.874474
 21
309.939882
 31
0.0
  0
LINE
  5
1d6
100
AcDbEntity
  8
Layer_1
 62
1
100
AcDbLine
 10
947.874474
 20
309.939882
 30
0.0
 11
947.874474
 21
451.659722
 31
0.0
  0
LINE
  5
1d7
100
AcDbEntity
  8
Layer_1
 62
1
100
AcDbLine
 10
947.874474
 20
451.659722
 30
0.0
 11
947.871274
 21
451.659722
 31
0.0
  0
LINE
  5
1d8
100
AcDbEntity
  8
Layer_1
 62
1
100
AcDbLine
 10
947.871274
 20
451.659722
 30
0.0
 11
947.871274
 21
508.355002
 31
0.0
  0
LINE
  5
1d9
100
AcDbEntity
  8
Layer_1
 62
1
100
AcDbLine
 10
947.871274
 20
508.355002
 30
0.0
 11
820.877522
 21
508.355002
 31
0.0
  0
LINE
  5
1da
100
AcDbEntity
  8
Layer_1
 62
1
100
AcDbLine
 10
820.877522
 20
508.355002
 30
0.0
 11
820.877522
 21
522.526922
 31
0.0
  0
LINE
  5
1db
100
AcDbEntity
  8
Layer_1
 62
1
100
AcDbLine
 10
820.877522
 20
522.526922
 30
0.0
 11
792.529082
 21
522.526922
 31
0.0
  0
LINE
  5
1dc
100
AcDbEntity
  8
Layer_1
 62
1
100
AcDbLine
 10
792.529082
 20
522.526922
 30
0.0
 11
792.529082
 21
508.355002
 31
0.0
  0
LINE
  5
1dd
100
AcDbEntity
  8
Layer_1
 62
1
100
AcDbLine
 10
792.529082
 20
508.355002
 30
0.0
 11
664.404082
 21
508.355002
 31
0.0
  0
LINE
  5
1de
100
AcDbEntity
  8
Layer_1
 62
1
100
AcDbLine
 10
664.404082
 20
508.355002
 30
0.0
 11
664.404082
 21
522.526922
 31
0.0
  0
LINE
  5
1df
100
AcDbEntity
  8
Layer_1
 62
1
100
AcDbLine
 10
664.404082
 20
522.526922
 30
0.0
 11
636.057210
 21
522.526922
 31
0.0
  0
LINE
  5
1e0
100
AcDbEntity
  8
Layer_1
 62
1
100
AcDbLine
 10
636.057210
 20
522.526922
 30
0.0
 11
636.057210
 21
508.355002
 31
0.0
  0
LINE
  5
1e1
100
AcDbEntity
  8
Layer_1
 62
1
100
AcDbLine
 10
636.057210
 20
508.355002
 30
0.0
 11
437.633770
 21
508.355002
 31
0.0
  0
LINE
  5
1e2
100
AcDbEntity
  8
Layer_1
 62
1
100
AcDbLine
 10
437.633770
 20
508.355002
 30
0.0
 11
437.633770
 21
522.526922
 31
0.0
  0
LINE
  5
1e3
100
AcDbEntity
  8
Layer_1
 62
1
100
AcDbLine
 10
437.633770
 20
522.526922
 30
0.0
 11
409.285338
 21
522.526922
 31
0.0
  0
LINE
  5
1e4
100
AcDbEntity
  8
Layer_1
 62
1
100
AcDbLine
 10
409.285338
 20
522.526922
 30
0.0
 11
409.285338
 21
508.355002
 31
0.0
  0
LINE
  5
1e5
100
AcDbEntity
  8
Layer_1
 62
1
100
AcDbLine
 10
409.285338
 20
508.355002
 30
0.0
 11
281.160334
 21
508.355002
 31
0.0
  0
LINE
  5
1e6
100
AcDbEntity
  8
Layer_1
 62
1
100
AcDbLine
 10
281.160334
 20
508.355002
 30
0.0
 11
281.160334
 21
522.526922
 31
0.0
  0
LINE
  5
1e7
100
AcDbEntity
  8
Layer_1
 62
1
100
AcDbLine
 10
281.160334
 20
522.526922
 30
0.0
 11
252.813459
 21
522.526922
 31
0.0
  0
LINE
  5
1e8
100
AcDbEntity
  8
Layer_1
 62
1
100
AcDbLine
 10
252.813459
 20
522.526922
 30
0.0
 11
252.813492
 21
522.527082
 31
0.0
  0
LINE
  5
1e9
100
AcDbEntity
  8
Layer_1
 62
1
100
AcDbLine
 10
543.932331
 20
494.171490
 30
0.0
 11
543.932331
 21
465.824029
 31
0.0
  0
LINE
  5
1ea
100
AcDbEntity
  8
Layer_1
 62
1
100
AcDbLine
 10
543.932331
 20
465.824029
 30
0.0
 11
529.758100
 21
465.824029
 31
0.0
  0
LINE
  5
1eb
100
AcDbEntity
  8
Layer_1
 62
1
100
AcDbLine
 10
529.758100
 20
465.824029
 30
0.0
 11
529.758100
 21
494.171490
 31
0.0
  0
LINE
  5
1ec
100
AcDbEntity
  8
Layer_1
 62
1
100
AcDbLine
 10
529.758100
 20
494.171490
 30
0.0
 11
543.932331
 21
494.171490
 31
0.0
  0
LINE
  5
1ed
100
AcDbEntity
  8
Layer_1
 62
1
100
AcDbLine
 10
789.860703
 20
1613.662242
 30
0.0
 11
789.860703
 21
1358.544104
 31
0.0
  0
LINE
  5
1ee
100
AcDbEntity
  8
Layer_1
 62
1
100
AcDbLine
 10
789.860703
 20
1358.544104
 30
0.0
 11
222.931585
 21
1358.544104
 31
0.0
  0
LINE
  5
1ef
100
AcDbEntity
  8
Layer_1
 62
1
100
AcDbLine
 10
222.931585
 20
1358.544104
 30
0.0
 11
222.931585
 21
1613.662242
 31
0.0
  0
LINE
  5
1f0
100
AcDbEntity
  8
Layer_1
 62
1
100
AcDbLine
 10
222.931585
 20
1613.662242
 30
0.0
 11
789.860703
 21
1613.662242
 31
0.0
  0
LINE
  5
1f1
100
AcDbEntity
  8
Layer_1
 62
1
100
AcDbLine
 10
733.167775
 20
1585.315775
 30
0.0
 11
676.474865
 21
1585.315775
 31
0.0
  0
LINE
  5
1f2
100
AcDbEntity
  8
Layer_1
 62
1
100
AcDbLine
 10
676.474865
 20
1585.315775
 30
0.0
 11
676.474865
 21
1599.489005
 31
0.0
  0
LINE
  5
1f3
100
AcDbEntity
  8
Layer_1
 62
1
100
AcDbLine
 10
676.474865
 20
1599.489005
 30
0.0
 11
733.167775
 21
1599.489005
 31
0.0
  0
LINE
  5
1f4
100
AcDbEntity
  8
Layer_1
 62
1
100
AcDbLine
 10
733.167775
 20
1599.489005
 30
0.0
 11
733.167775
 21
1585.315775
 31
0.0
  0
LINE
  5
1f5
100
AcDbEntity
  8
Layer_1
 62
1
100
AcDbLine
 10
733.167775
 20
1372.717329
 30
0.0
 11
676.474865
 21
1372.717329
 31
0.0
  0
LINE
  5
1f6
100
AcDbEntity
  8
Layer_1
 62
1
100
AcDbLine
 10
676.474865
 20
1372.717329
 30
0.0
 11
676.474865
 21
1386.890560
 31
0.0
  0
LINE
  5
1f7
100
AcDbEntity
  8
Layer_1
 62
1
100
AcDbLine
 10
676.474865
 20
1386.890560
 30
0.0
 11
733.167775
 21
1386.890560
 31
0.0
  0
LINE
  5
1f8
100
AcDbEntity
  8
Layer_1
 62
1
100
AcDbLine
 10
733.167775
 20
1386.890560
 30
0.0
 11
733.167775
 21
1372.717329
 31
0.0
  0
LINE
  5
1f9
100
AcDbEntity
  8
Layer_1
 62
1
100
AcDbLine
 10
336.317407
 20
1585.315775
 30
0.0
 11
279.624496
 21
1585.315775
 31
0.0
  0
LINE
  5
1fa
100
AcDbEntity
  8
Layer_1
 62
1
100
AcDbLine
 10
279.624496
 20
1585.315775
 30
0.0
 11
279.624496
 21
1599.489006
 31
0.0
  0
LINE
  5
1fb
100
AcDbEntity
  8
Layer_1
 62
1
100
AcDbLine
 10
279.624496
 20
1599.489006
 30
0.0
 11
336.317407
 21
1599.489006
 31
0.0
  0
LINE
  5
1fc
100
AcDbEntity
  8
Layer_1
 62
1
100
AcDbLine
 10
336.317407
 20
1599.489006
 30
0.0
 11
336.317407
 21
1585.315775
 31
0.0
  0
LINE
  5
1fd
100
AcDbEntity
  8
Layer_1
 62
1
100
AcDbLine
 10
336.317407
 20
1372.717329
 30
0.0
 11
279.624496
 21
1372.717329
 31
0.0
  0
LINE
  5
1fe
100
AcDbEntity
  8
Layer_1
 62
1
100
AcDbLine
 10
279.624496
 20
1372.717329
 30
0.0
 11
279.624496
 21
1386.890560
 31
0.0
  0
LINE
  5
1ff
100
AcDbEntity
  8
Layer_1
 62
1
100
AcDbLine
 10
279.624496
 20
1386.890560
 30
0.0
 11
336.317407
 21
1386.890560
 31
0.0
  0
LINE
  5
200
100
AcDbEntity
  8
Layer_1
 62
1
100
AcDbLine
 10
336.317407
 20
1386.890560
 30
0.0
 11
336.317407
 21
1372.717329
 31
0.0
  0
LINE
  5
201
100
AcDbEntity
  8
Layer_1
 62
1
100
AcDbLine
 10
456.789863
 20
1514.449632
 30
0.0
 11
456.789863
 21
1457.756712
 31
0.0
  0
LINE
  5
202
100
AcDbEntity
  8
Layer_1
 62
1
100
AcDbLine
 10
456.789863
 20
1457.756712
 30
0.0
 11
442.616636
 21
1457.756712
 31
0.0
  0
LINE
  5
203
100
AcDbEntity
  8
Layer_1
 62
1
100
AcDbLine
 10
442.616636
 20
1457.756712
 30
0.0
 11
442.616636
 21
1514.449632
 31
0.0
  0
LINE
  5
204
100
AcDbEntity
  8
Layer_1
 62
1
100
AcDbLine
 10
442.616636
 20
1514.449632
 30
0.0
 11
456.789863
 21
1514.449632
 31
0.0
  0
LINE
  5
205
100
AcDbEntity
  8
Layer_1
 62
1
100
AcDbLine
 10
747.294350
 20
1547.550619
 30
0.0
 11
644.514484
 21
1489.255069
 31
0.0
  0
LINE
  5
206
100
AcDbEntity
  8
Layer_1
 62
1
100
AcDbLine
 10
644.514484
 20
1489.255069
 30
0.0
 11
747.294350
 21
1430.959519
 31
0.0
  0
LINE
  5
207
100
AcDbEntity
  8
Layer_1
 62
1
100
AcDbLine
 10
747.294350
 20
1430.959519
 30
0.0
 11
747.294350
 21
1547.550619
 31
0.0
  0
LINE
  5
208
100
AcDbEntity
  8
Layer_1
 62
1
100
AcDbLine
 10
747.294350
 20
1547.550619
 30
0.0
 11
747.294350
 21
1547.550619
 31
0.0
  0
LINE
  5
209
100
AcDbEntity
  8
Layer_1
 62
1
100
AcDbLine
 10
726.985695
 20
1418.379998
 30
0.0
 11
623.270005
 21
1477.205292
 31
0.0
  0
LINE
  5
20a
100
AcDbEntity
  8
Layer_1
 62
1
100
AcDbLine
 10
623.270005
 20
1477.205292
 30
0.0
 11
519.555828
 21
1418.379998
 31
0.0
  0
LINE
  5
20b
100
AcDbEntity
  8
Layer_1
 62
1
100
AcDbLine
 10
519.555828
 20
1418.379998
 30
0.0
 11
726.985695
 21
1418.379998
 31
0.0
  0
LINE
  5
20c
100
AcDbEntity
  8
Layer_1
 62
1
100
AcDbLine
 10
726.985695
 20
1418.379998
 30
0.0
 11
726.985695
 21
1418.379998
 31
0.0
  0
LINE
  5
20d
100
AcDbEntity
  8
Layer_1
 62
1
100
AcDbLine
 10
726.982495
 20
1560.128580
 30
0.0
 11
519.558708
 21
1560.128580
 31
0.0
  0
LINE
  5
20e
100
AcDbEntity
  8
Layer_1
 62
1
100
AcDbLine
 10
519.558708
 20
1560.128580
 30
0.0
 11
623.269845
 21
1501.304846
 31
0.0
  0
LINE
  5
20f
100
AcDbEntity
  8
Layer_1
 62
1
100
AcDbLine
 10
623.269845
 20
1501.304846
 30
0.0
 11
726.982495
 21
1560.128580
 31
0.0
  0
LINE
  5
210
100
AcDbEntity
  8
Layer_1
 62
1
100
AcDbLine
 10
726.982495
 20
1560.128580
 30
0.0
 11
726.982495
 21
1560.128580
 31
0.0
  0
LINE
  5
211
100
AcDbEntity
  8
Layer_1
 62
1
100
AcDbLine
 10
602.026887
 20
1489.255069
 30
0.0
 11
499.247021
 21
1547.550619
 31
0.0
  0
LINE
  5
212
100
AcDbEntity
  8
Layer_1
 62
1
100
AcDbLine
 10
499.247021
 20
1547.550619
 30
0.0
 11
499.247021
 21
1430.959519
 31
0.0
  0
LINE
  5
213
100
AcDbEntity
  8
Layer_1
 62
1
100
AcDbLine
 10
499.247021
 20
1430.959519
 30
0.0
 11
602.026887
 21
1489.255069
 31
0.0
  0
LINE
  5
214
100
AcDbEntity
  8
Layer_1
 62
1
100
AcDbLine
 10
602.026887
 20
1489.255069
 30
0.0
 11
602.026887
 21
1489.255069
 31
0.0
  0
LINE
  5
215
100
AcDbEntity
  8
Layer_1
 62
1
100
AcDbLine
 10
400.157531
 20
1544.499403
 30
0.0
 11
344.364350
 21
1486.209037
 31
0.0
  0
LINE
  5
216
100
AcDbEntity
  8
Layer_1
 62
1
100
AcDbLine
 10
344.364350
 20
1486.209037
 30
0.0
 11
400.157531
 21
1427.918663
 31
0.0
  0
LINE
  5
217
100
AcDbEntity
  8
Layer_1
 62
1
100
AcDbLine
 10
400.157531
 20
1427.918663
 30
0.0
 11
400.157531
 21
1544.499403
 31
0.0
  0
LINE
  5
218
100
AcDbEntity
  8
Layer_1
 62
1
100
AcDbLine
 10
400.157531
 20
1544.499403
 30
0.0
 11
400.157531
 21
1544.499403
 31
0.0
  0
LINE
  5
219
100
AcDbEntity
  8
Layer_1
 62
1
100
AcDbLine
 10
389.133164
 20
1415.340270
 30
0.0
 11
332.831975
 21
1474.160324
 31
0.0
  0
LINE
  5
21a
100
AcDbEntity
  8
Layer_1
 62
1
100
AcDbLine
 10
332.831975
 20
1474.160324
 30
0.0
 11
276.531610
 21
1415.340270
 31
0.0
  0
LINE
  5
21b
100
AcDbEntity
  8
Layer_1
 62
1
100
AcDbLine
 10
276.531610
 20
1415.340270
 30
0.0
 11
389.133164
 21
1415.340270
 31
0.0
  0
LINE
  5
21c
100
AcDbEntity
  8
Layer_1
 62
1
100
AcDbLine
 10
389.133164
 20
1415.340270
 30
0.0
 11
389.133164
 21
1415.340270
 31
0.0
  0
LINE
  5
21d
100
AcDbEntity
  8
Layer_1
 62
1
100
AcDbLine
 10
389.132428
 20
1557.076236
 30
0.0
 11
276.534202
 21
1557.076236
 31
0.0
  0
LINE
  5
21e
100
AcDbEntity
  8
Layer_1
 62
1
100
AcDbLine
 10
276.534202
 20
1557.076236
 30
0.0
 11
332.832903
 21
1498.257758
 31
0.0
  0
LINE
  5
21f
100
AcDbEntity
  8
Layer_1
 62
1
100
AcDbLine
 10
332.832903
 20
1498.257758
 30
0.0
 11
389.132428
 21
1557.076236
 31
0.0
  0
LINE
  5
220
100
AcDbEntity
  8
Layer_1
 62
1
100
AcDbLine
 10
389.132428
 20
1557.076236
 30
0.0
 11
389.132428
 21
1557.076236
 31
0.0
  0
LINE
  5
221
100
AcDbEntity
  8
Layer_1
 62
1
100
AcDbLine
 10
321.301352
 20
1486.209037
 30
0.0
 11
265.508195
 21
1544.499403
 31
0.0
  0
LINE
  5
222
100
AcDbEntity
  8
Layer_1
 62
1
100
AcDbLine
 10
265.508195
 20
1544.499403
 30
0.0
 11
265.508195
 21
1427.918663
 31
0.0
  0
LINE
  5
223
100
AcDbEntity
  8
Layer_1
 62
1
100
AcDbLine
 10
265.508195
 20
1427.918663
 30
0.0
 11
321.301352
 21
1486.209037
 31
0.0
  0
LINE
  5
224
100
AcDbEntity
  8
Layer_1
 62
1
100
AcDbLine
 10
321.301352
 20
1486.209037
 30
0.0
 11
321.301352
 21
1486.209037
 31
0.0
  0
LINE
  5
225
100
AcDbEntity
  8
Layer_1
 62
1
100
AcDbLine
 10
717.277752
 20
1041.444432
 30
0.0
 11
717.277752
 21
1027.295992
 31
0.0
  0
LINE
  5
226
100
AcDbEntity
  8
Layer_1
 62
1
100
AcDbLine
 10
717.277752
 20
1027.295992
 30
0.0
 11
688.907440
 21
1027.295992
 31
0.0
  0
LINE
  5
227
100
AcDbEntity
  8
Layer_1
 62
1
100
AcDbLine
 10
688.907440
 20
1027.295992
 30
0.0
 11
688.907440
 21
913.861713
 31
0.0
  0
LINE
  5
228
100
AcDbEntity
  8
Layer_1
 62
1
100
AcDbLine
 10
688.907440
 20
913.861713
 30
0.0
 11
717.277752
 21
913.861713
 31
0.0
  0
LINE
  5
229
100
AcDbEntity
  8
Layer_1
 62
1
100
AcDbLine
 10
717.277752
 20
913.861713
 30
0.0
 11
717.277752
 21
899.713281
 31
0.0
  0
LINE
  5
22a
100
AcDbEntity
  8
Layer_1
 62
1
100
AcDbLine
 10
717.277752
 20
899.713281
 30
0.0
 11
773.971528
 21
899.713281
 31
0.0
  0
LINE
  5
22b
100
AcDbEntity
  8
Layer_1
 62
1
100
AcDbLine
 10
773.971528
 20
899.713281
 30
0.0
 11
773.971528
 21
913.861713
 31
0.0
  0
LINE
  5
22c
100
AcDbEntity
  8
Layer_1
 62
1
100
AcDbLine
 10
773.971528
 20
913.861713
 30
0.0
 11
802.343360
 21
913.861713
 31
0.0
  0
LINE
  5
22d
100
AcDbEntity
  8
Layer_1
 62
1
100
AcDbLine
 10
802.343360
 20
913.861713
 30
0.0
 11
802.343360
 21
1027.295992
 31
0.0
  0
LINE
  5
22e
100
AcDbEntity
  8
Layer_1
 62
1
100
AcDbLine
 10
802.343360
 20
1027.295992
 30
0.0
 11
773.971528
 21
1027.295992
 31
0.0
  0
LINE
  5
22f
100
AcDbEntity
  8
Layer_1
 62
1
100
AcDbLine
 10
773.971528
 20
1027.295992
 30
0.0
 11
773.971528
 21
1041.444432
 31
0.0
  0
LINE
  5
230
100
AcDbEntity
  8
Layer_1
 62
1
100
AcDbLine
 10
773.971528
 20
1041.444432
 30
0.0
 11
717.277752
 21
1041.444432
 31
0.0
  0
LINE
  5
231
100
AcDbEntity
  8
Layer_1
 62
1
100
AcDbLine
 10
711.051112
 20
1013.076384
 30
0.0
 11
788.145376
 21
941.343544
 31
0.0
  0
LINE
  5
232
100
AcDbEntity
  8
Layer_1
 62
1
100
AcDbLine
 10
788.145376
 20
941.343544
 30
0.0
 11
788.145376
 21
1013.076384
 31
0.0
  0
LINE
  5
233
100
AcDbEntity
  8
Layer_1
 62
1
100
AcDbLine
 10
788.145376
 20
1013.076384
 30
0.0
 11
711.051112
 21
1013.076384
 31
0.0
  0
LINE
  5
234
100
AcDbEntity
  8
Layer_1
 62
1
100
AcDbLine
 10
703.105416
 20
999.767696
 30
0.0
 11
703.105416
 21
928.036416
 31
0.0
  0
LINE
  5
235
100
AcDbEntity
  8
Layer_1
 62
1
100
AcDbLine
 10
703.105416
 20
928.036416
 30
0.0
 11
780.198080
 21
928.036416
 31
0.0
  0
LINE
  5
236
100
AcDbEntity
  8
Layer_1
 62
1
100
AcDbLine
 10
780.198080
 20
928.036416
 30
0.0
 11
703.105416
 21
999.767696
 31
0.0
  0
LINE
  5
237
100
AcDbEntity
  8
Layer_1
 62
1
100
AcDbLine
 10
717.277736
 20
1192.402336
 30
0.0
 11
717.277736
 21
1178.253888
 31
0.0
  0
LINE
  5
238
100
AcDbEntity
  8
Layer_1
 62
1
100
AcDbLine
 10
717.277736
 20
1178.253888
 30
0.0
 11
688.907432
 21
1178.253888
 31
0.0
  0
LINE
  5
239
100
AcDbEntity
  8
Layer_1
 62
1
100
AcDbLine
 10
688.907432
 20
1178.253888
 30
0.0
 11
688.907432
 21
1064.819616
 31
0.0
  0
LINE
  5
23a
100
AcDbEntity
  8
Layer_1
 62
1
100
AcDbLine
 10
688.907432
 20
1064.819616
 30
0.0
 11
717.277736
 21
1064.819616
 31
0.0
  0
LINE
  5
23b
100
AcDbEntity
  8
Layer_1
 62
1
100
AcDbLine
 10
717.277736
 20
1064.819616
 30
0.0
 11
717.277736
 21
1050.671184
 31
0.0
  0
LINE
  5
23c
100
AcDbEntity
  8
Layer_1
 62
1
100
AcDbLine
 10
717.277736
 20
1050.671184
 30
0.0
 11
773.971512
 21
1050.671184
 31
0.0
  0
LINE
  5
23d
100
AcDbEntity
  8
Layer_1
 62
1
100
AcDbLine
 10
773.971512
 20
1050.671184
 30
0.0
 11
773.971512
 21
1064.819616
 31
0.0
  0
LINE
  5
23e
100
AcDbEntity
  8
Layer_1
 62
1
100
AcDbLine
 10
773.971512
 20
1064.819616
 30
0.0
 11
802.343360
 21
1064.819616
 31
0.0
  0
LINE
  5
23f
100
AcDbEntity
  8
Layer_1
 62
1
100
AcDbLine
 10
802.343360
 20
1064.819616
 30
0.0
 11
802.343360
 21
1178.253888
 31
0.0
  0
LINE
  5
240
100
AcDbEntity
  8
Layer_1
 62
1
100
AcDbLine
 10
802.343360
 20
1178.253888
 30
0.0
 11
773.971512
 21
1178.253888
 31
0.0
  0
LINE
  5
241
100
AcDbEntity
  8
Layer_1
 62
1
100
AcDbLine
 10
773.971512
 20
1178.253888
 30
0.0
 11
773.971512
 21
1192.402336
 31
0.0
  0
LINE
  5
242
100
AcDbEntity
  8
Layer_1
 62
1
100
AcDbLine
 10
773.971512
 20
1192.402336
 30
0.0
 11
717.277736
 21
1192.402336
 31
0.0
  0
LINE
  5
243
100
AcDbEntity
  8
Layer_1
 62
1
100
AcDbLine
 10
711.051112
 20
1164.034280
 30
0.0
 11
788.145376
 21
1092.301448
 31
0.0
  0
LINE
  5
244
100
AcDbEntity
  8
Layer_1
 62
1
100
AcDbLine
 10
788.145376
 20
1092.301448
 30
0.0
 11
788.145376
 21
1164.034280
 31
0.0
  0
LINE
  5
245
100
AcDbEntity
  8
Layer_1
 62
1
100
AcDbLine
 10
788.145376
 20
1164.034280
 30
0.0
 11
711.051112
 21
1164.034280
 31
0.0
  0
LINE
  5
246
100
AcDbEntity
  8
Layer_1
 62
1
100
AcDbLine
 10
703.105416
 20
1150.725592
 30
0.0
 11
703.105416
 21
1078.994320
 31
0.0
  0
LINE
  5
247
100
AcDbEntity
  8
Layer_1
 62
1
100
AcDbLine
 10
703.105416
 20
1078.994320
 30
0.0
 11
780.198080
 21
1078.994320
 31
0.0
  0
LINE
  5
248
100
AcDbEntity
  8
Layer_1
 62
1
100
AcDbLine
 10
780.198080
 20
1078.994320
 30
0.0
 11
703.105416
 21
1150.725592
 31
0.0
  0
LINE
  5
249
100
AcDbEntity
  8
Layer_1
 62
1
100
AcDbLine
 10
717.277736
 20
890.002337
 30
0.0
 11
717.277736
 21
875.853889
 31
0.0
  0
LINE
  5
24a
100
AcDbEntity
  8
Layer_1
 62
1
100
AcDbLine
 10
717.277736
 20
875.853889
 30
0.0
 11
688.907432
 21
875.853889
 31
0.0
  0
LINE
  5
24b
100
AcDbEntity
  8
Layer_1
 62
1
100
AcDbLine
 10
688.907432
 20
875.853889
 30
0.0
 11
688.907432
 21
762.419616
 31
0.0
  0
LINE
  5
24c
100
AcDbEntity
  8
Layer_1
 62
1
100
AcDbLine
 10
688.907432
 20
762.419616
 30
0.0
 11
717.277736
 21
762.419616
 31
0.0
  0
LINE
  5
24d
100
AcDbEntity
  8
Layer_1
 62
1
100
AcDbLine
 10
717.277736
 20
762.419616
 30
0.0
 11
717.277736
 21
748.271184
 31
0.0
  0
LINE
  5
24e
100
AcDbEntity
  8
Layer_1
 62
1
100
AcDbLine
 10
717.277736
 20
748.271184
 30
0.0
 11
773.971512
 21
748.271184
 31
0.0
  0
LINE
  5
24f
100
AcDbEntity
  8
Layer_1
 62
1
100
AcDbLine
 10
773.971512
 20
748.271184
 30
0.0
 11
773.971512
 21
762.419616
 31
0.0
  0
LINE
  5
250
100
AcDbEntity
  8
Layer_1
 62
1
100
AcDbLine
 10
773.971512
 20
762.419616
 30
0.0
 11
802.343360
 21
762.419616
 31
0.0
  0
LINE
  5
251
100
AcDbEntity
  8
Layer_1
 62
1
100
AcDbLine
 10
802.343360
 20
762.419616
 30
0.0
 11
802.343360
 21
875.853889
 31
0.0
  0
LINE
  5
252
100
AcDbEntity
  8
Layer_1
 62
1
100
AcDbLine
 10
802.343360
 20
875.853889
 30
0.0
 11
773.971512
 21
875.853889
 31
0.0
  0
LINE
  5
253
100
AcDbEntity
  8
Layer_1
 62
1
100
AcDbLine
 10
773.971512
 20
875.853889
 30
0.0
 11
773.971512
 21
890.002337
 31
0.0
  0
LINE
  5
254
100
AcDbEntity
  8
Layer_1
 62
1
100
AcDbLine
 10
773.971512
 20
890.002337
 30
0.0
 11
717.277736
 21
890.002337
 31
0.0
  0
LINE
  5
255
100
AcDbEntity
  8
Layer_1
 62
1
100
AcDbLine
 10
711.051112
 20
861.634281
 30
0.0
 11
788.145376
 21
789.901448
 31
0.0
  0
LINE
  5
256
100
AcDbEntity
  8
Layer_1
 62
1
100
AcDbLine
 10
788.145376
 20
789.901448
 30
0.0
 11
788.145376
 21
861.634281
 31
0.0
  0
LINE
  5
257
100
AcDbEntity
  8
Layer_1
 62
1
100
AcDbLine
 10
788.145376
 20
861.634281
 30
0.0
 11
711.051112
 21
861.634281
 31
0.0
  0
LINE
  5
258
100
AcDbEntity
  8
Layer_1
 62
1
100
AcDbLine
 10
703.105416
 20
848.325593
 30
0.0
 11
703.105416
 21
776.594320
 31
0.0
  0
LINE
  5
259
100
AcDbEntity
  8
Layer_1
 62
1
100
AcDbLine
 10
703.105416
 20
776.594320
 30
0.0
 11
780.198080
 21
776.594320
 31
0.0
  0
LINE
  5
25a
100
AcDbEntity
  8
Layer_1
 62
1
100
AcDbLine
 10
780.198080
 20
776.594320
 30
0.0
 11
703.105416
 21
848.325593
 31
0.0
  0
LINE
  5
25b
100
AcDbEntity
  8
Layer_1
 62
1
100
AcDbLine
 10
837.926560
 20
960.402336
 30
0.0
 11
837.926560
 21
946.253888
 31
0.0
  0
LINE
  5
25c
100
AcDbEntity
  8
Layer_1
 62
1
100
AcDbLine
 10
837.926560
 20
946.253888
 30
0.0
 11
809.556240
 21
946.253888
 31
0.0
  0
LINE
  5
25d
100
AcDbEntity
  8
Layer_1
 62
1
100
AcDbLine
 10
809.556240
 20
946.253888
 30
0.0
 11
809.556240
 21
832.819616
 31
0.0
  0
LINE
  5
25e
100
AcDbEntity
  8
Layer_1
 62
1
100
AcDbLine
 10
809.556240
 20
832.819616
 30
0.0
 11
837.926560
 21
832.819616
 31
0.0
  0
LINE
  5
25f
100
AcDbEntity
  8
Layer_1
 62
1
100
AcDbLine
 10
837.926560
 20
832.819616
 30
0.0
 11
837.926560
 21
818.671184
 31
0.0
  0
LINE
  5
260
100
AcDbEntity
  8
Layer_1
 62
1
100
AcDbLine
 10
837.926560
 20
818.671184
 30
0.0
 11
894.620320
 21
818.671184
 31
0.0
  0
LINE
  5
261
100
AcDbEntity
  8
Layer_1
 62
1
100
AcDbLine
 10
894.620320
 20
818.671184
 30
0.0
 11
894.620320
 21
832.819616
 31
0.0
  0
LINE
  5
262
100
AcDbEntity
  8
Layer_1
 62
1
100
AcDbLine
 10
894.620320
 20
832.819616
 30
0.0
 11
922.992160
 21
832.819616
 31
0.0
  0
LINE
  5
263
100
AcDbEntity
  8
Layer_1
 62
1
100
AcDbLine
 10
922.992160
 20
832.819616
 30
0.0
 11
922.992160
 21
946.253888
 31
0.0
  0
LINE
  5
264
100
AcDbEntity
  8
Layer_1
 62
1
100
AcDbLine
 10
922.992160
 20
946.253888
 30
0.0
 11
894.620320
 21
946.253888
 31
0.0
  0
LINE
  5
265
100
AcDbEntity
  8
Layer_1
 62
1
100
AcDbLine
 10
894.620320
 20
946.253888
 30
0.0
 11
894.620320
 21
960.402336
 31
0.0
  0
LINE
  5
266
100
AcDbEntity
  8
Layer_1
 62
1
100
AcDbLine
 10
894.620320
 20
960.402336
 30
0.0
 11
837.926560
 21
960.402336
 31
0.0
  0
LINE
  5
267
100
AcDbEntity
  8
Layer_1
 62
1
100
AcDbLine
 10
831.699920
 20
932.034280
 30
0.0
 11
908.794160
 21
860.301449
 31
0.0
  0
LINE
  5
268
100
AcDbEntity
  8
Layer_1
 62
1
100
AcDbLine
 10
908.794160
 20
860.301449
 30
0.0
 11
908.794160
 21
932.034280
 31
0.0
  0
LINE
  5
269
100
AcDbEntity
  8
Layer_1
 62
1
100
AcDbLine
 10
908.794160
 20
932.034280
 30
0.0
 11
831.699920
 21
932.034280
 31
0.0
  0
LINE
  5
26a
100
AcDbEntity
  8
Layer_1
 62
1
100
AcDbLine
 10
823.754240
 20
918.725593
 30
0.0
 11
823.754240
 21
846.994321
 31
0.0
  0
LINE
  5
26b
100
AcDbEntity
  8
Layer_1
 62
1
100
AcDbLine
 10
823.754240
 20
846.994321
 30
0.0
 11
900.846880
 21
846.994321
 31
0.0
  0
LINE
  5
26c
100
AcDbEntity
  8
Layer_1
 62
1
100
AcDbLine
 10
900.846880
 20
846.994321
 30
0.0
 11
823.754240
 21
918.725593
 31
0.0
  0
LINE
  5
26d
100
AcDbEntity
  8
Layer_1
 62
1
100
AcDbLine
 10
837.926560
 20
1120.402336
 30
0.0
 11
837.926560
 21
1106.253888
 31
0.0
  0
LINE
  5
26e
100
AcDbEntity
  8
Layer_1
 62
1
100
AcDbLine
 10
837.926560
 20
1106.253888
 30
0.0
 11
809.556240
 21
1106.253888
 31
0.0
  0
LINE
  5
26f
100
AcDbEntity
  8
Layer_1
 62
1
100
AcDbLine
 10
809.556240
 20
1106.253888
 30
0.0
 11
809.556240
 21
992.819616
 31
0.0
  0
LINE
  5
270
100
AcDbEntity
  8
Layer_1
 62
1
100
AcDbLine
 10
809.556240
 20
992.819616
 30
0.0
 11
837.926560
 21
992.819616
 31
0.0
  0
LINE
  5
271
100
AcDbEntity
  8
Layer_1
 62
1
100
AcDbLine
 10
837.926560
 20
992.819616
 30
0.0
 11
837.926560
 21
978.671184
 31
0.0
  0
LINE
  5
272
100
AcDbEntity
  8
Layer_1
 62
1
100
AcDbLine
 10
837.926560
 20
978.671184
 30
0.0
 11
894.620320
 21
978.671184
 31
0.0
  0
LINE
  5
273
100
AcDbEntity
  8
Layer_1
 62
1
100
AcDbLine
 10
894.620320
 20
978.671184
 30
0.0
 11
894.620320
 21
992.819616
 31
0.0
  0
LINE
  5
274
100
AcDbEntity
  8
Layer_1
 62
1
100
AcDbLine
 10
894.620320
 20
992.819616
 30
0.0
 11
922.992160
 21
992.819616
 31
0.0
  0
LINE
  5
275
100
AcDbEntity
  8
Layer_1
 62
1
100
AcDbLine
 10
922.992160
 20
992.819616
 30
0.0
 11
922.992160
 21
1106.253888
 31
0.0
  0
LINE
  5
276
100
AcDbEntity
  8
Layer_1
 62
1
100
AcDbLine
 10
922.992160
 20
1106.253888
 30
0.0
 11
894.620320
 21
1106.253888
 31
0.0
  0
LINE
  5
277
100
AcDbEntity
  8
Layer_1
 62
1
100
AcDbLine
 10
894.620320
 20
1106.253888
 30
0.0
 11
894.620320
 21
1120.402336
 31
0.0
  0
LINE
  5
278
100
AcDbEntity
  8
Layer_1
 62
1
100
AcDbLine
 10
894.620320
 20
1120.402336
 30
0.0
 11
837.926560
 21
1120.402336
 31
0.0
  0
LINE
  5
279
100
AcDbEntity
  8
Layer_1
 62
1
100
AcDbLine
 10
831.699920
 20
1092.034280
 30
0.0
 11
908.794160
 21
1020.301448
 31
0.0
  0
LINE
  5
27a
100
AcDbEntity
  8
Layer_1
 62
1
100
AcDbLine
 10
908.794160
 20
1020.301448
 30
0.0
 11
908.794160
 21
1092.034280
 31
0.0
  0
LINE
  5
27b
100
AcDbEntity
  8
Layer_1
 62
1
100
AcDbLine
 10
908.794160
 20
1092.034280
 30
0.0
 11
831.699920
 21
1092.034280
 31
0.0
  0
LINE
  5
27c
100
AcDbEntity
  8
Layer_1
 62
1
100
AcDbLine
 10
823.754240
 20
1078.725592
 30
0.0
 11
823.754240
 21
1006.994320
 31
0.0
  0
LINE
  5
27d
100
AcDbEntity
  8
Layer_1
 62
1
100
AcDbLine
 10
823.754240
 20
1006.994320
 30
0.0
 11
900.846880
 21
1006.994320
 31
0.0
  0
LINE
  5
27e
100
AcDbEntity
  8
Layer_1
 62
1
100
AcDbLine
 10
900.846880
 20
1006.994320
 30
0.0
 11
823.754240
 21
1078.725592
 31
0.0
  0
LINE
  5
27f
100
AcDbEntity
  8
Layer_1
 62
1
100
AcDbLine
 10
251.166372
 20
283.093506
 30
0.0
 11
251.166372
 21
268.921586
 31
0.0
  0
LINE
  5
280
100
AcDbEntity
  8
Layer_1
 62
1
100
AcDbLine
 10
251.166372
 20
268.921586
 30
0.0
 11
124.172626
 21
268.921586
 31
0.0
  0
LINE
  5
281
100
AcDbEntity
  8
Layer_1
 62
1
100
AcDbLine
 10
124.172626
 20
268.921586
 30
0.0
 11
124.172626
 21
212.224706
 31
0.0
  0
LINE
  5
282
100
AcDbEntity
  8
Layer_1
 62
1
100
AcDbLine
 10
124.172626
 20
212.224706
 30
0.0
 11
124.174226
 21
212.224706
 31
0.0
  0
LINE
  5
283
100
AcDbEntity
  8
Layer_1
 62
1
100
AcDbLine
 10
124.174226
 20
212.224706
 30
0.0
 11
124.174226
 21
70.506466
 31
0.0
  0
LINE
  5
284
100
AcDbEntity
  8
Layer_1
 62
1
100
AcDbLine
 10
124.174226
 20
70.506466
 30
0.0
 11
180.867974
 21
70.506466
 31
0.0
  0
LINE
  5
285
100
AcDbEntity
  8
Layer_1
 62
1
100
AcDbLine
 10
180.867974
 20
70.506466
 30
0.0
 11
203.102350
 21
178.390306
 31
0.0
  0
LINE
  5
286
100
AcDbEntity
  8
Layer_1
 62
1
100
AcDbLine
 10
203.102350
 20
178.390306
 30
0.0
 11
203.142974
 21
178.390306
 31
0.0
  0
SPLINE
  5
287
100
AcDbEntity
  8
Layer_1
 62
1
100
AcDbSpline
 70
8
 71
3
 72
8
 73
4
 74
0
 40
0
 40
0
 40
0
 40
0
 40
1
 40
1
 40
1
 40
1
 10
203.142974
 20
178.390306
 30
0.0
 10
203.272258
 20
178.926786
 30
0.0
 10
203.409348
 20
179.459106
 30
0.0
 10
203.550786
 20
179.988786
 30
0.0
  0
LINE
  5
288
100
AcDbEntity
  8
Layer_1
 62
1
100
AcDbLine
 10
203.550786
 20
179.988786
 30
0.0
 11
203.803911
 21
180.898146
 31
0.0
  0
SPLINE
  5
289
100
AcDbEntity
  8
Layer_1
 62
1
100
AcDbSpline
 70
8
 71
3
 72
8
 73
4
 74
0
 40
0
 40
0
 40
0
 40
0
 40
1
 40
1
 40
1
 40
1
 10
203.803911
 20
180.898146
 30
0.0
 10
208.657951
 20
198.086706
 30
0.0
 10
219.997575
 20
211.376306
 30
0.0
 10
237.560162
 20
212.174706
 30
0.0
  0
LINE
  5
28a
100
AcDbEntity
  8
Layer_1
 62
1
100
AcDbLine
 10
237.560162
 20
212.174706
 30
0.0
 11
237.560162
 21
212.224306
 31
0.0
  0
LINE
  5
28b
100
AcDbEntity
  8
Layer_1
 62
1
100
AcDbLine
 10
237.560162
 20
212.224306
 30
0.0
 11
833.057034
 21
212.224306
 31
0.0
  0
LINE
  5
28c
100
AcDbEntity
  8
Layer_1
 62
1
100
AcDbLine
 10
833.057034
 20
212.224306
 30
0.0
 11
833.057034
 21
212.169906
 31
0.0
  0
SPLINE
  5
28d
100
AcDbEntity
  8
Layer_1
 62
1
100
AcDbSpline
 70
8
 71
3
 72
8
 73
4
 74
0
 40
0
 40
0
 40
0
 40
0
 40
1
 40
1
 40
1
 40
1
 10
833.057034
 20
212.169906
 30
0.0
 10
848.975834
 20
211.446146
 30
0.0
 10
859.781698
 20
200.459906
 30
0.0
 10
865.280474
 20
185.610466
 30
0.0
  0
LINE
  5
28e
100
AcDbEntity
  8
Layer_1
 62
1
100
AcDbLine
 10
865.280474
 20
185.610466
 30
0.0
 11
889.535162
 21
70.506306
 31
0.0
  0
LINE
  5
28f
100
AcDbEntity
  8
Layer_1
 62
1
100
AcDbLine
 10
889.535162
 20
70.506306
 30
0.0
 11
946.227354
 21
70.506306
 31
0.0
  0
LINE
  5
290
100
AcDbEntity
  8
Layer_1
 62
1
100
AcDbLine
 10
946.227354
 20
70.506306
 30
0.0
 11
946.227354
 21
212.226146
 31
0.0
  0
LINE
  5
291
100
AcDbEntity
  8
Layer_1
 62
1
100
AcDbLine
 10
946.227354
 20
212.226146
 30
0.0
 11
946.224154
 21
212.226146
 31
0.0
  0
LINE
  5
292
100
AcDbEntity
  8
Layer_1
 62
1
100
AcDbLine
 10
946.224154
 20
212.226146
 30
0.0
 11
946.224154
 21
268.921426
 31
0.0
  0
LINE
  5
293
100
AcDbEntity
  8
Layer_1
 62
1
100
AcDbLine
 10
946.224154
 20
268.921426
 30
0.0
 11
819.230402
 21
268.921426
 31
0.0
  0
LINE
  5
294
100
AcDbEntity
  8
Layer_1
 62
1
100
AcDbLine
 10
819.230402
 20
268.921426
 30
0.0
 11
819.230402
 21
283.093346
 31
0.0
  0
LINE
  5
295
100
AcDbEntity
  8
Layer_1
 62
1
100
AcDbLine
 10
819.230402
 20
283.093346
 30
0.0
 11
790.881962
 21
283.093346
 31
0.0
  0
LINE
  5
296
100
AcDbEntity
  8
Layer_1
 62
1
100
AcDbLine
 10
790.881962
 20
283.093346
 30
0.0
 11
790.881962
 21
268.921426
 31
0.0
  0
LINE
  5
297
100
AcDbEntity
  8
Layer_1
 62
1
100
AcDbLine
 10
790.881962
 20
268.921426
 30
0.0
 11
662.756962
 21
268.921426
 31
0.0
  0
LINE
  5
298
100
AcDbEntity
  8
Layer_1
 62
1
100
AcDbLine
 10
662.756962
 20
268.921426
 30
0.0
 11
662.756962
 21
283.093346
 31
0.0
  0
LINE
  5
299
100
AcDbEntity
  8
Layer_1
 62
1
100
AcDbLine
 10
662.756962
 20
283.093346
 30
0.0
 11
634.410090
 21
283.093346
 31
0.0
  0
LINE
  5
29a
100
AcDbEntity
  8
Layer_1
 62
1
100
AcDbLine
 10
634.410090
 20
283.093346
 30
0.0
 11
634.410090
 21
268.921426
 31
0.0
  0
LINE
  5
29b
100
AcDbEntity
  8
Layer_1
 62
1
100
AcDbLine
 10
634.410090
 20
268.921426
 30
0.0
 11
435.986650
 21
268.921426
 31
0.0
  0
LINE
  5
29c
100
AcDbEntity
  8
Layer_1
 62
1
100
AcDbLine
 10
435.986650
 20
268.921426
 30
0.0
 11
435.986650
 21
283.093346
 31
0.0
  0
LINE
  5
29d
100
AcDbEntity
  8
Layer_1
 62
1
100
AcDbLine
 10
435.986650
 20
283.093346
 30
0.0
 11
407.638218
 21
283.093346
 31
0.0
  0
LINE
  5
29e
100
AcDbEntity
  8
Layer_1
 62
1
100
AcDbLine
 10
407.638218
 20
283.093346
 30
0.0
 11
407.638218
 21
268.921426
 31
0.0
  0
LINE
  5
29f
100
AcDbEntity
  8
Layer_1
 62
1
100
AcDbLine
 10
407.638218
 20
268.921426
 30
0.0
 11
279.513214
 21
268.921426
 31
0.0
  0
LINE
  5
2a0
100
AcDbEntity
  8
Layer_1
 62
1
100
AcDbLine
 10
279.513214
 20
268.921426
 30
0.0
 11
279.513214
 21
283.093346
 31
0.0
  0
LINE
  5
2a1
100
AcDbEntity
  8
Layer_1
 62
1
100
AcDbLine
 10
279.513214
 20
283.093346
 30
0.0
 11
251.166339
 21
283.093346
 31
0.0
  0
LINE
  5
2a2
100
AcDbEntity
  8
Layer_1
 62
1
100
AcDbLine
 10
251.166339
 20
283.093346
 30
0.0
 11
251.166372
 21
283.093506
 31
0.0
  0
LINE
  5
2a3
100
AcDbEntity
  8
Layer_1
 62
1
100
AcDbLine
 10
542.285211
 20
254.737914
 30
0.0
 11
542.285211
 21
226.390453
 31
0.0
  0
LINE
  5
2a4
100
AcDbEntity
  8
Layer_1
 62
1
100
AcDbLine
 10
542.285211
 20
226.390453
 30
0.0
 11
528.110980
 21
226.390453
 31
0.0
  0
LINE
  5
2a5
100
AcDbEntity
  8
Layer_1
 62
1
100
AcDbLine
 10
528.110980
 20
226.390453
 30
0.0
 11
528.110980
 21
254.737914
 31
0.0
  0
LINE
  5
2a6
100
AcDbEntity
  8
Layer_1
 62
1
100
AcDbLine
 10
528.110980
 20
254.737914
 30
0.0
 11
542.285211
 21
254.737914
 31
0.0
  0
LINE
  5
2a7
100
AcDbEntity
  8
Layer_1
 62
1
100
AcDbLine
 10
854.422735
 20
651.924879
 30
0.0
 11
860.435926
 21
657.938071
 31
0.0
  0
LINE
  5
2a8
100
AcDbEntity
  8
Layer_1
 62
1
100
AcDbLine
 10
860.435926
 20
657.938071
 30
0.0
 11
872.462308
 21
645.911688
 31
0.0
  0
LINE
  5
2a9
100
AcDbEntity
  8
Layer_1
 62
1
100
AcDbLine
 10
872.462308
 20
645.911688
 30
0.0
 11
866.449117
 21
639.898496
 31
0.0
  0
LINE
  5
2aa
100
AcDbEntity
  8
Layer_1
 62
1
100
AcDbLine
 10
866.449117
 20
639.898496
 30
0.0
 11
854.422735
 21
651.924879
 31
0.0
  0
LINE
  5
2ab
100
AcDbEntity
  8
Layer_1
 62
1
100
AcDbLine
 10
886.292651
 20
620.054961
 30
0.0
 11
892.305843
 21
626.068154
 31
0.0
  0
LINE
  5
2ac
100
AcDbEntity
  8
Layer_1
 62
1
100
AcDbLine
 10
892.305843
 20
626.068154
 30
0.0
 11
904.332226
 21
614.041770
 31
0.0
  0
LINE
  5
2ad
100
AcDbEntity
  8
Layer_1
 62
1
100
AcDbLine
 10
904.332226
 20
614.041770
 30
0.0
 11
898.319034
 21
608.028578
 31
0.0
  0
LINE
  5
2ae
100
AcDbEntity
  8
Layer_1
 62
1
100
AcDbLine
 10
898.319034
 20
608.028578
 30
0.0
 11
886.292651
 21
620.054961
 31
0.0
  0
LINE
  5
2af
100
AcDbEntity
  8
Layer_1
 62
1
100
AcDbLine
 10
898.319026
 20
657.938078
 30
0.0
 11
904.332218
 21
651.924886
 31
0.0
  0
LINE
  5
2b0
100
AcDbEntity
  8
Layer_1
 62
1
100
AcDbLine
 10
904.332218
 20
651.924886
 30
0.0
 11
892.305836
 21
639.898503
 31
0.0
  0
LINE
  5
2b1
100
AcDbEntity
  8
Layer_1
 62
1
100
AcDbLine
 10
892.305836
 20
639.898503
 30
0.0
 11
886.292644
 21
645.911695
 31
0.0
  0
LINE
  5
2b2
100
AcDbEntity
  8
Layer_1
 62
1
100
AcDbLine
 10
886.292644
 20
645.911695
 30
0.0
 11
898.319026
 21
657.938078
 31
0.0
  0
LINE
  5
2b3
100
AcDbEntity
  8
Layer_1
 62
1
100
AcDbLine
 10
866.449111
 20
626.068160
 30
0.0
 11
872.462303
 21
620.054968
 31
0.0
  0
LINE
  5
2b4
100
AcDbEntity
  8
Layer_1
 62
1
100
AcDbLine
 10
872.462303
 20
620.054968
 30
0.0
 11
860.435920
 21
608.028584
 31
0.0
  0
LINE
  5
2b5
100
AcDbEntity
  8
Layer_1
 62
1
100
AcDbLine
 10
860.435920
 20
608.028584
 30
0.0
 11
854.422727
 21
614.041776
 31
0.0
  0
LINE
  5
2b6
100
AcDbEntity
  8
Layer_1
 62
1
100
AcDbLine
 10
854.422727
 20
614.041776
 30
0.0
 11
866.449111
 21
626.068160
 31
0.0
  0
LINE
  5
2b7
100
AcDbEntity
  8
Layer_1
 62
1
100
AcDbLine
 10
854.422735
 20
1275.545092
 30
0.0
 11
860.435926
 21
1281.558284
 31
0.0
  0
LINE
  5
2b8
100
AcDbEntity
  8
Layer_1
 62
1
100
AcDbLine
 10
860.435926
 20
1281.558284
 30
0.0
 11
872.462308
 21
1269.531901
 31
0.0
  0
LINE
  5
2b9
100
AcDbEntity
  8
Layer_1
 62
1
100
AcDbLine
 10
872.462308
 20
1269.531901
 30
0.0
 11
866.449117
 21
1263.518710
 31
0.0
  0
LINE
  5
2ba
100
AcDbEntity
  8
Layer_1
 62
1
100
AcDbLine
 10
866.449117
 20
1263.518710
 30
0.0
 11
854.422735
 21
1275.545092
 31
0.0
  0
LINE
  5
2bb
100
AcDbEntity
  8
Layer_1
 62
1
100
AcDbLine
 10
886.292651
 20
1243.675175
 30
0.0
 11
892.305843
 21
1249.688367
 31
0.0
  0
LINE
  5
2bc
100
AcDbEntity
  8
Layer_1
 62
1
100
AcDbLine
 10
892.305843
 20
1249.688367
 30
0.0
 11
904.332226
 21
1237.661983
 31
0.0
  0
LINE
  5
2bd
100
AcDbEntity
  8
Layer_1
 62
1
100
AcDbLine
 10
904.332226
 20
1237.661983
 30
0.0
 11
898.319034
 21
1231.648791
 31
0.0
  0
LINE
  5
2be
100
AcDbEntity
  8
Layer_1
 62
1
100
AcDbLine
 10
898.319034
 20
1231.648791
 30
0.0
 11
886.292651
 21
1243.675175
 31
0.0
  0
LINE
  5
2bf
100
AcDbEntity
  8
Layer_1
 62
1
100
AcDbLine
 10
898.319026
 20
1281.558291
 30
0.0
 11
904.332218
 21
1275.545099
 31
0.0
  0
LINE
  5
2c0
100
AcDbEntity
  8
Layer_1
 62
1
100
AcDbLine
 10
904.332218
 20
1275.545099
 30
0.0
 11
892.305836
 21
1263.518716
 31
0.0
  0
LINE
  5
2c1
100
AcDbEntity
  8
Layer_1
 62
1
100
AcDbLine
 10
892.305836
 20
1263.518716
 30
0.0
 11
886.292644
 21
1269.531908
 31
0.0
  0
LINE
  5
2c2
100
AcDbEntity
  8
Layer_1
 62
1
100
AcDbLine
 10
886.292644
 20
1269.531908
 30
0.0
 11
898.319026
 21
1281.558291
 31
0.0
  0
LINE
  5
2c3
100
AcDbEntity
  8
Layer_1
 62
1
100
AcDbLine
 10
866.449111
 20
1249.688374
 30
0.0
 11
872.462303
 21
1243.675181
 31
0.0
  0
LINE
  5
2c4
100
AcDbEntity
  8
Layer_1
 62
1
100
AcDbLine
 10
872.462303
 20
1243.675181
 30
0.0
 11
860.435920
 21
1231.648797
 31
0.0
  0
LINE
  5
2c5
100
AcDbEntity
  8
Layer_1
 62
1
100
AcDbLine
 10
860.435920
 20
1231.648797
 30
0.0
 11
854.422727
 21
1237.661990
 31
0.0
  0
LINE
  5
2c6
100
AcDbEntity
  8
Layer_1
 62
1
100
AcDbLine
 10
854.422727
 20
1237.661990
 30
0.0
 11
866.449111
 21
1249.688374
 31
0.0
  0
LINE
  5
2c7
100
AcDbEntity
  8
Layer_1
 62
1
100
AcDbLine
 10
145.759543
 20
1276.111060
 30
0.0
 11
151.772734
 21
1282.124252
 31
0.0
  0
LINE
  5
2c8
100
AcDbEntity
  8
Layer_1
 62
1
100
AcDbLine
 10
151.772734
 20
1282.124252
 30
0.0
 11
163.799116
 21
1270.097869
 31
0.0
  0
LINE
  5
2c9
100
AcDbEntity
  8
Layer_1
 62
1
100
AcDbLine
 10
163.799116
 20
1270.097869
 30
0.0
 11
157.785925
 21
1264.084678
 31
0.0
  0
LINE
  5
2ca
100
AcDbEntity
  8
Layer_1
 62
1
100
AcDbLine
 10
157.785925
 20
1264.084678
 30
0.0
 11
145.759543
 21
1276.111060
 31
0.0
  0
LINE
  5
2cb
100
AcDbEntity
  8
Layer_1
 62
1
100
AcDbLine
 10
177.629459
 20
1244.241143
 30
0.0
 11
183.642651
 21
1250.254335
 31
0.0
  0
LINE
  5
2cc
100
AcDbEntity
  8
Layer_1
 62
1
100
AcDbLine
 10
183.642651
 20
1250.254335
 30
0.0
 11
195.669034
 21
1238.227951
 31
0.0
  0
LINE
  5
2cd
100
AcDbEntity
  8
Layer_1
 62
1
100
AcDbLine
 10
195.669034
 20
1238.227951
 30
0.0
 11
189.655842
 21
1232.214759
 31
0.0
  0
LINE
  5
2ce
100
AcDbEntity
  8
Layer_1
 62
1
100
AcDbLine
 10
189.655842
 20
1232.214759
 30
0.0
 11
177.629459
 21
1244.241143
 31
0.0
  0
LINE
  5
2cf
100
AcDbEntity
  8
Layer_1
 62
1
100
AcDbLine
 10
189.655834
 20
1282.124259
 30
0.0
 11
195.669026
 21
1276.111067
 31
0.0
  0
LINE
  5
2d0
100
AcDbEntity
  8
Layer_1
 62
1
100
AcDbLine
 10
195.669026
 20
1276.111067
 30
0.0
 11
183.642644
 21
1264.084684
 31
0.0
  0
LINE
  5
2d1
100
AcDbEntity
  8
Layer_1
 62
1
100
AcDbLine
 10
183.642644
 20
1264.084684
 30
0.0
 11
177.629452
 21
1270.097876
 31
0.0
  0
LINE
  5
2d2
100
AcDbEntity
  8
Layer_1
 62
1
100
AcDbLine
 10
177.629452
 20
1270.097876
 30
0.0
 11
189.655834
 21
1282.124259
 31
0.0
  0
LINE
  5
2d3
100
AcDbEntity
  8
Layer_1
 62
1
100
AcDbLine
 10
157.785919
 20
1250.254342
 30
0.0
 11
163.799111
 21
1244.241149
 31
0.0
  0
LINE
  5
2d4
100
AcDbEntity
  8
Layer_1
 62
1
100
AcDbLine
 10
163.799111
 20
1244.241149
 30
0.0
 11
151.772728
 21
1232.214765
 31
0.0
  0
LINE
  5
2d5
100
AcDbEntity
  8
Layer_1
 62
1
100
AcDbLine
 10
151.772728
 20
1232.214765
 30
0.0
 11
145.759535
 21
1238.227958
 31
0.0
  0
LINE
  5
2d6
100
AcDbEntity
  8
Layer_1
 62
1
100
AcDbLine
 10
145.759535
 20
1238.227958
 30
0.0
 11
157.785919
 21
1250.254342
 31
0.0
  0
LINE
  5
2d7
100
AcDbEntity
  8
Layer_1
 62
1
100
AcDbLine
 10
496.562648
 20
1009.133776
 30
0.0
 11
553.255568
 21
1009.133776
 31
0.0
  0
LINE
  5
2d8
100
AcDbEntity
  8
Layer_1
 62
1
100
AcDbLine
 10
553.255568
 20
1009.133776
 30
0.0
 11
553.255568
 21
994.960546
 31
0.0
  0
LINE
  5
2d9
100
AcDbEntity
  8
Layer_1
 62
1
100
AcDbLine
 10
553.255568
 20
994.960546
 30
0.0
 11
496.562648
 21
994.960546
 31
0.0
  0
LINE
  5
2da
100
AcDbEntity
  8
Layer_1
 62
1
100
AcDbLine
 10
496.562648
 20
994.960546
 30
0.0
 11
496.562648
 21
1009.133776
 31
0.0
  0
ENDSEC
  0
SECTION
  2
OBJECTS
  0
DICTIONARY
  5
C
330
0
100
AcDbDictionary
  3
ACAD_GROUP
350
D
  3
ACAD_MLINESTYLE
350
17
  0
DICTIONARY
  5
D
330
C
100
AcDbDictionary
  0
DICTIONARY
  5
1A
330
C
100
AcDbDictionary
  0
DICTIONARY
  5
17
330
C
100
AcDbDictionary
  3
STANDARD
350
18
  0
DICTIONARY
  5
19
330
C
100
AcDbDictionary
  0
ENDSEC
  0
EOF
