  0
SECTION
  2
HEADER
  9
$ACADVER
  1
AC1014
  9
$HANDSEED
  5
FFFF
  9
$MEASUREMENT
 70
     1
  0
ENDSEC
  0
SECTION
  2
TABLES
  0
TABLE
  2
VPORT
  5
8
330
0
100
AcDbSymbolTable
 70
     4
  0
VPORT
  5
2E
330
8
100
AcDbSymbolTableRecord
100
AcDbViewportTableRecord
  2
*ACTIVE
 70
     0
 10
0.0
 20
0.0
 11
1.0
 21
1.0
 12
210.0
 22
148.5
 13
0.0
 23
0.0
 14
10.0
 24
10.0
 15
10.0
 25
10.0
 16
0.0
 26
0.0
 36
1.0
 17
0.0
 27
0.0
 37
0.0
 40
341.0
 41
1.24
 42
50.0
 43
0.0
 44
0.0
 50
0.0
 51
0.0
 71
     0
 72
   100
 73
     1
 74
     3
 75
     0
 76
     0
 77
     0
 78
     0
  0
ENDTAB
  0
TABLE
  2
LTYPE
  5
5
330
0
100
AcDbSymbolTable
 70
     1
  0
LTYPE
  5
14
330
5
100
AcDbSymbolTableRecord
100
AcDbLinetypeTableRecord
  2
BYBLOCK
 70
     0
  3

 72
    65
 73
     0
 40
0.0
  0
LTYPE
  5
15
330
5
100
AcDbSymbolTableRecord
100
AcDbLinetypeTableRecord
  2
BYLAYER
 70
     0
  3

 72
    65
 73
     0
 40
0.0
  0
LTYPE
  5
16
330
5
100
AcDbSymbolTableRecord
100
AcDbLinetypeTableRecord
  2
CONTINUOUS
 70
     0
  3
Solid line
 72
    65
 73
     0
 40
0.0
  0
ENDTAB
  0
TABLE
  2
LAYER
  5
2
100
AcDbSymbolTable
 70
2
  0
LAYER
  5
50
100
AcDbSymbolTableRecord
100
AcDbLayerTableRecord
  2
0
 70
0
  6
CONTINUOUS
  0
LAYER
  5
51
100
AcDbSymbolTableRecord
100
AcDbLayerTableRecord
  2
Layer_1
 70
0
  6
CONTINUOUS
  0
ENDTAB
  0
TABLE
  2
STYLE
  5
3
330
0
100
AcDbSymbolTable
 70
     1
  0
STYLE
  5
11
330
3
100
AcDbSymbolTableRecord
100
AcDbTextStyleTableRecord
  2
STANDARD
 70
     0
 40
0.0
 41
1.0
 50
0.0
 71
     0
 42
2.5
  3
txt
  4

  0
ENDTAB
  0
TABLE
  2
VIEW
  5
6
330
0
100
AcDbSymbolTable
 70
     0
  0
ENDTAB
  0
TABLE
  2
UCS
  5
7
330
0
100
AcDbSymbolTable
 70
     0
  0
ENDTAB
  0
TABLE
  2
APPID
  5
9
330
0
100
AcDbSymbolTable
 70
     2
  0
APPID
  5
12
330
9
100
AcDbSymbolTableRecord
100
AcDbRegAppTableRecord
  2
ACAD
 70
     0
  0
ENDTAB
  0
TABLE
  2
DIMSTYLE
  5
A
330
0
100
AcDbSymbolTable
 70
     1
  0
DIMSTYLE
105
27
330
A
100
AcDbSymbolTableRecord
100
AcDbDimStyleTableRecord
  2
ISO-25
 70
     0
  3

  4

  5

  6

  7

 40
1.0
 41
2.5
 42
0.625
 43
3.75
 44
1.25
 45
0.0
 46
0.0
 47
0.0
 48
0.0
140
2.5
141
2.5
142
0.0
143
0.03937007874016
144
1.0
145
0.0
146
1.0
147
0.625
 71
     0
 72
     0
 73
     0
 74
     0
 75
     0
 76
     0
 77
     1
 78
     8
170
     0
171
     3
172
     1
173
     0
174
     0
175
     0
176
     0
177
     0
178
     0
270
     2
271
     2
272
     2
273
     2
274
     3
340
11
275
     0
280
     0
281
     0
282
     0
283
     0
284
     8
285
     0
286
     0
287
     3
288
     0
  0
ENDTAB
  0
TABLE
  2
BLOCK_RECORD
  5
1
330
0
100
AcDbSymbolTable
 70
     1
  0
BLOCK_RECORD
  5
1F
330
1
100
AcDbSymbolTableRecord
100
AcDbBlockTableRecord
  2
*MODEL_SPACE
  0
BLOCK_RECORD
  5
1B
330
1
100
AcDbSymbolTableRecord
100
AcDbBlockTableRecord
  2
*PAPER_SPACE
  0
ENDTAB
  0
ENDSEC
  0
SECTION
  2
BLOCKS
  0
BLOCK
  5
20
330
1F
100
AcDbEntity
  8
0
100
AcDbBlockBegin
  2
*MODEL_SPACE
 70
     0
 10
0.0
 20
0.0
 30
0.0
  3
*MODEL_SPACE
  1

  0
ENDBLK
  5
21
330
1F
100
AcDbEntity
  8
0
100
AcDbBlockEnd
  0
BLOCK
  5
1C
330
1B
100
AcDbEntity
 67
     1
  8
0
100
AcDbBlockBegin
  2
*PAPER_SPACE
  1

  0
ENDBLK
  5
1D
330
1B
100
AcDbEntity
 67
     1
  8
0
100
AcDbBlockEnd
  0
ENDSEC
  0
SECTION
  2
ENTITIES
  0
LINE
  5
100
100
AcDbEntity
  8
Layer_1
 62
7
100
AcDbLine
 10
0.000000
 20
841.889928
 30
0.0
 11
0.000000
 21
841.889928
 31
0.0
  0
LINE
  5
101
100
AcDbEntity
  8
Layer_1
 62
7
100
AcDbLine
 10
0.000000
 20
841.889928
 30
0.0
 11
0.000000
 21
841.889928
 31
0.0
  0
LINE
  5
102
100
AcDbEntity
  8
Layer_1
 62
7
100
AcDbLine
 10
0.000000
 20
841.889928
 30
0.0
 11
0.000000
 21
841.889928
 31
0.0
  0
LINE
  5
103
100
AcDbEntity
  8
Layer_1
 62
7
100
AcDbLine
 10
0.000000
 20
841.889928
 30
0.0
 11
0.000000
 21
841.889928
 31
0.0
  0
LINE
  5
104
100
AcDbEntity
  8
Layer_1
 62
1
100
AcDbLine
 10
1037.102344
 20
1140.873728
 30
0.0
 11
1037.102344
 21
1126.700288
 31
0.0
  0
LINE
  5
105
100
AcDbEntity
  8
Layer_1
 62
1
100
AcDbLine
 10
1037.102344
 20
1126.700288
 30
0.0
 11
1022.928872
 21
1126.700288
 31
0.0
  0
LINE
  5
106
100
AcDbEntity
  8
Layer_1
 62
1
100
AcDbLine
 10
1022.928872
 20
1126.700288
 30
0.0
 11
1022.928872
 21
1077.094040
 31
0.0
  0
LINE
  5
107
100
AcDbEntity
  8
Layer_1
 62
1
100
AcDbLine
 10
1022.928872
 20
1077.094040
 30
0.0
 11
1008.755432
 21
1077.094040
 31
0.0
  0
LINE
  5
108
100
AcDbEntity
  8
Layer_1
 62
1
100
AcDbLine
 10
1008.755432
 20
1077.094040
 30
0.0
 11
1008.755432
 21
1020.401848
 31
0.0
  0
LINE
  5
109
100
AcDbEntity
  8
Layer_1
 62
1
100
AcDbLine
 10
1008.755432
 20
1020.401848
 30
0.0
 11
1022.928872
 21
1020.401848
 31
0.0
  0
LINE
  5
10a
100
AcDbEntity
  8
Layer_1
 62
1
100
AcDbLine
 10
1022.928872
 20
1020.401848
 30
0.0
 11
1022.928872
 21
850.322160
 31
0.0
  0
LINE
  5
10b
100
AcDbEntity
  8
Layer_1
 62
1
100
AcDbLine
 10
1022.928872
 20
850.322160
 30
0.0
 11
1008.755432
 21
850.322160
 31
0.0
  0
LINE
  5
10c
100
AcDbEntity
  8
Layer_1
 62
1
100
AcDbLine
 10
1008.755432
 20
850.322160
 30
0.0
 11
1008.755432
 21
793.629976
 31
0.0
  0
LINE
  5
10d
100
AcDbEntity
  8
Layer_1
 62
1
100
AcDbLine
 10
1008.755432
 20
793.629976
 30
0.0
 11
1022.928872
 21
793.629976
 31
0.0
  0
LINE
  5
10e
100
AcDbEntity
  8
Layer_1
 62
1
100
AcDbLine
 10
1022.928872
 20
793.629976
 30
0.0
 11
1022.928872
 21
623.550288
 31
0.0
  0
LINE
  5
10f
100
AcDbEntity
  8
Layer_1
 62
1
100
AcDbLine
 10
1022.928872
 20
623.550288
 30
0.0
 11
1008.755432
 21
623.550288
 31
0.0
  0
LINE
  5
110
100
AcDbEntity
  8
Layer_1
 62
1
100
AcDbLine
 10
1008.755432
 20
623.550288
 30
0.0
 11
1008.755432
 21
566.858096
 31
0.0
  0
LINE
  5
111
100
AcDbEntity
  8
Layer_1
 62
1
100
AcDbLine
 10
1008.755432
 20
566.858096
 30
0.0
 11
1022.928872
 21
566.858096
 31
0.0
  0
LINE
  5
112
100
AcDbEntity
  8
Layer_1
 62
1
100
AcDbLine
 10
1022.928872
 20
566.858096
 30
0.0
 11
1022.928872
 21
517.251848
 31
0.0
  0
LINE
  5
113
100
AcDbEntity
  8
Layer_1
 62
1
100
AcDbLine
 10
1022.928872
 20
517.251848
 30
0.0
 11
1037.102344
 21
517.251848
 31
0.0
  0
LINE
  5
114
100
AcDbEntity
  8
Layer_1
 62
1
100
AcDbLine
 10
1037.102344
 20
517.251848
 30
0.0
 11
1037.102344
 21
503.078408
 31
0.0
  0
LINE
  5
115
100
AcDbEntity
  8
Layer_1
 62
1
100
AcDbLine
 10
1037.102344
 20
503.078408
 30
0.0
 11
1065.449224
 21
503.078408
 31
0.0
  0
LINE
  5
116
100
AcDbEntity
  8
Layer_1
 62
1
100
AcDbLine
 10
1065.449224
 20
503.078408
 30
0.0
 11
1065.449224
 21
517.251848
 31
0.0
  0
LINE
  5
117
100
AcDbEntity
  8
Layer_1
 62
1
100
AcDbLine
 10
1065.449224
 20
517.251848
 30
0.0
 11
1079.622584
 21
517.251848
 31
0.0
  0
LINE
  5
118
100
AcDbEntity
  8
Layer_1
 62
1
100
AcDbLine
 10
1079.622584
 20
517.251848
 30
0.0
 11
1079.622584
 21
730.878408
 31
0.0
  0
LINE
  5
119
100
AcDbEntity
  8
Layer_1
 62
1
100
AcDbLine
 10
1079.622584
 20
730.878408
 30
0.0
 11
1079.652184
 21
730.878408
 31
0.0
  0
SPLINE
  5
11a
100
AcDbEntity
  8
Layer_1
 62
1
100
AcDbSpline
 70
8
 71
3
 72
8
 73
4
 74
0
 40
0
 40
0
 40
0
 40
0
 40
1
 40
1
 40
1
 40
1
 10
1079.652184
 20
730.878408
 30
0.0
 10
1080.486824
 20
749.239344
 30
0.0
 10
1094.970424
 20
764.036512
 30
0.0
 10
1113.292744
 20
765.283096
 30
0.0
  0
LINE
  5
11b
100
AcDbEntity
  8
Layer_1
 62
1
100
AcDbLine
 10
1113.292744
 20
765.283096
 30
0.0
 11
1136.314664
 21
765.283096
 31
0.0
  0
LINE
  5
11c
100
AcDbEntity
  8
Layer_1
 62
1
100
AcDbLine
 10
1136.314664
 20
765.283096
 30
0.0
 11
1136.314664
 21
878.669040
 31
0.0
  0
LINE
  5
11d
100
AcDbEntity
  8
Layer_1
 62
1
100
AcDbLine
 10
1136.314664
 20
878.669040
 30
0.0
 11
1114.122424
 21
878.669040
 31
0.0
  0
LINE
  5
11e
100
AcDbEntity
  8
Layer_1
 62
1
100
AcDbLine
 10
1114.122424
 20
878.669040
 30
0.0
 11
1114.122424
 21
878.698720
 31
0.0
  0
SPLINE
  5
11f
100
AcDbEntity
  8
Layer_1
 62
1
100
AcDbSpline
 70
8
 71
3
 72
8
 73
4
 74
0
 40
0
 40
0
 40
0
 40
0
 40
1
 40
1
 40
1
 40
1
 10
1114.122424
 20
878.698720
 30
0.0
 10
1095.713704
 20
879.535600
 30
0.0
 10
1080.884344
 20
894.091408
 30
0.0
 10
1079.705304
 20
912.481528
 30
0.0
  0
LINE
  5
120
100
AcDbEntity
  8
Layer_1
 62
1
100
AcDbLine
 10
1079.705304
 20
912.481528
 30
0.0
 11
1079.622424
 21
912.481528
 31
0.0
  0
LINE
  5
121
100
AcDbEntity
  8
Layer_1
 62
1
100
AcDbLine
 10
1079.622424
 20
912.481528
 30
0.0
 11
1079.622424
 21
1126.700280
 31
0.0
  0
LINE
  5
122
100
AcDbEntity
  8
Layer_1
 62
1
100
AcDbLine
 10
1079.622424
 20
1126.700280
 30
0.0
 11
1065.449064
 21
1126.700280
 31
0.0
  0
LINE
  5
123
100
AcDbEntity
  8
Layer_1
 62
1
100
AcDbLine
 10
1065.449064
 20
1126.700280
 30
0.0
 11
1065.449064
 21
1140.873720
 31
0.0
  0
LINE
  5
124
100
AcDbEntity
  8
Layer_1
 62
1
100
AcDbLine
 10
1065.449064
 20
1140.873720
 30
0.0
 11
1037.102184
 21
1140.873720
 31
0.0
  0
LINE
  5
125
100
AcDbEntity
  8
Layer_1
 62
1
100
AcDbLine
 10
1037.102184
 20
1140.873720
 30
0.0
 11
1037.102344
 21
1140.873728
 31
0.0
  0
LINE
  5
126
100
AcDbEntity
  8
Layer_1
 62
1
100
AcDbLine
 10
1079.621944
 20
854.574456
 30
0.0
 11
1115.055016
 21
854.574456
 31
0.0
  0
LINE
  5
127
100
AcDbEntity
  8
Layer_1
 62
1
100
AcDbLine
 10
1115.055016
 20
854.574456
 30
0.0
 11
1115.055016
 21
789.377605
 31
0.0
  0
LINE
  5
128
100
AcDbEntity
  8
Layer_1
 62
1
100
AcDbLine
 10
1115.055016
 20
789.377605
 30
0.0
 11
1079.621944
 21
789.377605
 31
0.0
  0
LINE
  5
129
100
AcDbEntity
  8
Layer_1
 62
1
100
AcDbLine
 10
1079.621944
 20
789.377605
 30
0.0
 11
1079.621944
 21
854.574456
 31
0.0
  0
SPLINE
  5
12a
100
AcDbEntity
  8
Layer_1
 62
1
100
AcDbSpline
 70
8
 71
3
 72
8
 73
4
 74
0
 40
0
 40
0
 40
0
 40
0
 40
1
 40
1
 40
1
 40
1
 10
840.678160
 20
658.381328
 30
0.0
 10
859.086880
 20
657.544448
 30
0.0
 10
873.916400
 20
642.988288
 30
0.0
 10
875.095440
 20
624.598288
 30
0.0
  0
LINE
  5
12b
100
AcDbEntity
  8
Layer_1
 62
1
100
AcDbLine
 10
875.095440
 20
624.598288
 30
0.0
 11
883.116240
 21
624.570288
 31
0.0
  0
LINE
  5
12c
100
AcDbEntity
  8
Layer_1
 62
1
100
AcDbLine
 10
883.116240
 20
624.570288
 30
0.0
 11
883.116240
 21
667.198904
 31
0.0
  0
LINE
  5
12d
100
AcDbEntity
  8
Layer_1
 62
1
100
AcDbLine
 10
883.116240
 20
667.198904
 30
0.0
 11
840.678160
 21
667.198904
 31
0.0
  0
LINE
  5
12e
100
AcDbEntity
  8
Layer_1
 62
1
100
AcDbLine
 10
840.678160
 20
667.198904
 30
0.0
 11
840.678160
 21
658.381328
 31
0.0
  0
LINE
  5
12f
100
AcDbEntity
  8
Layer_1
 62
1
100
AcDbLine
 10
250.246059
 20
236.942474
 30
0.0
 11
250.246059
 21
222.770634
 31
0.0
  0
LINE
  5
130
100
AcDbEntity
  8
Layer_1
 62
1
100
AcDbLine
 10
250.246059
 20
222.770634
 30
0.0
 11
123.253872
 21
222.770634
 31
0.0
  0
LINE
  5
131
100
AcDbEntity
  8
Layer_1
 62
1
100
AcDbLine
 10
123.253872
 20
222.770634
 30
0.0
 11
123.253872
 21
166.073754
 31
0.0
  0
LINE
  5
132
100
AcDbEntity
  8
Layer_1
 62
1
100
AcDbLine
 10
123.253872
 20
166.073754
 30
0.0
 11
123.255472
 21
166.073754
 31
0.0
  0
LINE
  5
133
100
AcDbEntity
  8
Layer_1
 62
1
100
AcDbLine
 10
123.255472
 20
166.073754
 30
0.0
 11
123.255472
 21
52.689354
 31
0.0
  0
LINE
  5
134
100
AcDbEntity
  8
Layer_1
 62
1
100
AcDbLine
 10
123.255472
 20
52.689354
 30
0.0
 11
179.947662
 21
52.689354
 31
0.0
  0
LINE
  5
135
100
AcDbEntity
  8
Layer_1
 62
1
100
AcDbLine
 10
179.947662
 20
52.689354
 30
0.0
 11
202.183599
 21
132.239354
 31
0.0
  0
LINE
  5
136
100
AcDbEntity
  8
Layer_1
 62
1
100
AcDbLine
 10
202.183599
 20
132.239354
 30
0.0
 11
202.222663
 21
132.239354
 31
0.0
  0
SPLINE
  5
137
100
AcDbEntity
  8
Layer_1
 62
1
100
AcDbSpline
 70
8
 71
3
 72
8
 73
4
 74
0
 40
0
 40
0
 40
0
 40
0
 40
1
 40
1
 40
1
 40
1
 10
202.222663
 20
132.239354
 30
0.0
 10
202.354206
 20
132.785194
 30
0.0
 10
202.494163
 20
133.327034
 30
0.0
 10
202.638288
 20
133.865914
 30
0.0
  0
LINE
  5
138
100
AcDbEntity
  8
Layer_1
 62
1
100
AcDbLine
 10
202.638288
 20
133.865914
 30
0.0
 11
202.825788
 21
134.536234
 31
0.0
  0
SPLINE
  5
139
100
AcDbEntity
  8
Layer_1
 62
1
100
AcDbSpline
 70
8
 71
3
 72
8
 73
4
 74
0
 40
0
 40
0
 40
0
 40
0
 40
1
 40
1
 40
1
 40
1
 10
202.825788
 20
134.536234
 30
0.0
 10
207.646378
 20
151.826954
 30
0.0
 10
219.007014
 20
165.220474
 30
0.0
 10
236.641413
 20
166.022154
 30
0.0
  0
LINE
  5
13a
100
AcDbEntity
  8
Layer_1
 62
1
100
AcDbLine
 10
236.641413
 20
166.022154
 30
0.0
 11
236.641413
 21
166.073354
 31
0.0
  0
LINE
  5
13b
100
AcDbEntity
  8
Layer_1
 62
1
100
AcDbLine
 10
236.641413
 20
166.073354
 30
0.0
 11
832.138288
 21
166.073354
 31
0.0
  0
LINE
  5
13c
100
AcDbEntity
  8
Layer_1
 62
1
100
AcDbLine
 10
832.138288
 20
166.073354
 30
0.0
 11
832.138288
 21
166.018954
 31
0.0
  0
SPLINE
  5
13d
100
AcDbEntity
  8
Layer_1
 62
1
100
AcDbSpline
 70
8
 71
3
 72
8
 73
4
 74
0
 40
0
 40
0
 40
0
 40
0
 40
1
 40
1
 40
1
 40
1
 10
832.138288
 20
166.018954
 30
0.0
 10
848.061568
 20
165.295034
 30
0.0
 10
858.867520
 20
154.302794
 30
0.0
 10
864.364848
 20
139.447114
 30
0.0
  0
LINE
  5
13e
100
AcDbEntity
  8
Layer_1
 62
1
100
AcDbLine
 10
864.364848
 20
139.447114
 30
0.0
 11
888.614848
 21
52.689274
 31
0.0
  0
LINE
  5
13f
100
AcDbEntity
  8
Layer_1
 62
1
100
AcDbLine
 10
888.614848
 20
52.689274
 30
0.0
 11
945.308600
 21
52.689274
 31
0.0
  0
LINE
  5
140
100
AcDbEntity
  8
Layer_1
 62
1
100
AcDbLine
 10
945.308600
 20
52.689274
 30
0.0
 11
945.308600
 21
166.075194
 31
0.0
  0
LINE
  5
141
100
AcDbEntity
  8
Layer_1
 62
1
100
AcDbLine
 10
945.308600
 20
166.075194
 30
0.0
 11
945.303800
 21
166.075194
 31
0.0
  0
LINE
  5
142
100
AcDbEntity
  8
Layer_1
 62
1
100
AcDbLine
 10
945.303800
 20
166.075194
 30
0.0
 11
945.303800
 21
222.770554
 31
0.0
  0
LINE
  5
143
100
AcDbEntity
  8
Layer_1
 62
1
100
AcDbLine
 10
945.303800
 20
222.770554
 30
0.0
 11
818.310048
 21
222.770554
 31
0.0
  0
LINE
  5
144
100
AcDbEntity
  8
Layer_1
 62
1
100
AcDbLine
 10
818.310048
 20
222.770554
 30
0.0
 11
818.310048
 21
236.942394
 31
0.0
  0
LINE
  5
145
100
AcDbEntity
  8
Layer_1
 62
1
100
AcDbLine
 10
818.310048
 20
236.942394
 30
0.0
 11
789.963176
 21
236.942394
 31
0.0
  0
LINE
  5
146
100
AcDbEntity
  8
Layer_1
 62
1
100
AcDbLine
 10
789.963176
 20
236.942394
 30
0.0
 11
789.963176
 21
222.770554
 31
0.0
  0
LINE
  5
147
100
AcDbEntity
  8
Layer_1
 62
1
100
AcDbLine
 10
789.963176
 20
222.770554
 30
0.0
 11
661.838176
 21
222.770554
 31
0.0
  0
LINE
  5
148
100
AcDbEntity
  8
Layer_1
 62
1
100
AcDbLine
 10
661.838176
 20
222.770554
 30
0.0
 11
661.838176
 21
236.942394
 31
0.0
  0
LINE
  5
149
100
AcDbEntity
  8
Layer_1
 62
1
100
AcDbLine
 10
661.838176
 20
236.942394
 30
0.0
 11
633.491296
 21
236.942394
 31
0.0
  0
LINE
  5
14a
100
AcDbEntity
  8
Layer_1
 62
1
100
AcDbLine
 10
633.491296
 20
236.942394
 30
0.0
 11
633.491296
 21
222.770554
 31
0.0
  0
LINE
  5
14b
100
AcDbEntity
  8
Layer_1
 62
1
100
AcDbLine
 10
633.491296
 20
222.770554
 30
0.0
 11
435.066296
 21
222.770554
 31
0.0
  0
LINE
  5
14c
100
AcDbEntity
  8
Layer_1
 62
1
100
AcDbLine
 10
435.066296
 20
222.770554
 30
0.0
 11
435.066296
 21
236.942394
 31
0.0
  0
LINE
  5
14d
100
AcDbEntity
  8
Layer_1
 62
1
100
AcDbLine
 10
435.066296
 20
236.942394
 30
0.0
 11
406.719424
 21
236.942394
 31
0.0
  0
LINE
  5
14e
100
AcDbEntity
  8
Layer_1
 62
1
100
AcDbLine
 10
406.719424
 20
236.942394
 30
0.0
 11
406.719424
 21
222.770554
 31
0.0
  0
LINE
  5
14f
100
AcDbEntity
  8
Layer_1
 62
1
100
AcDbLine
 10
406.719424
 20
222.770554
 30
0.0
 11
278.594426
 21
222.770554
 31
0.0
  0
LINE
  5
150
100
AcDbEntity
  8
Layer_1
 62
1
100
AcDbLine
 10
278.594426
 20
222.770554
 30
0.0
 11
278.594426
 21
236.942394
 31
0.0
  0
LINE
  5
151
100
AcDbEntity
  8
Layer_1
 62
1
100
AcDbLine
 10
278.594426
 20
236.942394
 30
0.0
 11
250.245989
 21
236.942394
 31
0.0
  0
LINE
  5
152
100
AcDbEntity
  8
Layer_1
 62
1
100
AcDbLine
 10
250.245989
 20
236.942394
 30
0.0
 11
250.246059
 21
236.942474
 31
0.0
  0
LINE
  5
153
100
AcDbEntity
  8
Layer_1
 62
1
100
AcDbLine
 10
541.365894
 20
208.586642
 30
0.0
 11
541.365894
 21
180.239181
 31
0.0
  0
LINE
  5
154
100
AcDbEntity
  8
Layer_1
 62
1
100
AcDbLine
 10
541.365894
 20
180.239181
 30
0.0
 11
527.191663
 21
180.239181
 31
0.0
  0
LINE
  5
155
100
AcDbEntity
  8
Layer_1
 62
1
100
AcDbLine
 10
527.191663
 20
180.239181
 30
0.0
 11
527.191663
 21
208.586642
 31
0.0
  0
LINE
  5
156
100
AcDbEntity
  8
Layer_1
 62
1
100
AcDbLine
 10
527.191663
 20
208.586642
 30
0.0
 11
541.365894
 21
208.586642
 31
0.0
  0
SPLINE
  5
157
100
AcDbEntity
  8
Layer_1
 62
1
100
AcDbSpline
 70
8
 71
3
 72
8
 73
4
 74
0
 40
0
 40
0
 40
0
 40
0
 40
1
 40
1
 40
1
 40
1
 10
170.714809
 20
1195.467474
 30
0.0
 10
155.677292
 20
1195.467470
 30
0.0
 10
141.255687
 20
1189.493872
 30
0.0
 10
130.622642
 20
1178.860828
 30
0.0
  0
SPLINE
  5
158
100
AcDbEntity
  8
Layer_1
 62
1
100
AcDbSpline
 70
8
 71
3
 72
8
 73
4
 74
0
 40
0
 40
0
 40
0
 40
0
 40
1
 40
1
 40
1
 40
1
 10
130.622642
 20
1178.860828
 30
0.0
 10
119.989597
 20
1168.227784
 30
0.0
 10
114.016132
 20
1153.806315
 30
0.0
 10
114.016368
 20
1138.769040
 30
0.0
  0
SPLINE
  5
159
100
AcDbEntity
  8
Layer_1
 62
1
100
AcDbSpline
 70
8
 71
3
 72
8
 73
4
 74
0
 40
0
 40
0
 40
0
 40
0
 40
1
 40
1
 40
1
 40
1
 10
114.016368
 20
1138.769040
 30
0.0
 10
114.016736
 20
1107.456116
 30
0.0
 10
139.401382
 20
1082.072168
 30
0.0
 10
170.714809
 20
1082.072160
 30
0.0
  0
SPLINE
  5
15a
100
AcDbEntity
  8
Layer_1
 62
1
100
AcDbSpline
 70
8
 71
3
 72
8
 73
4
 74
0
 40
0
 40
0
 40
0
 40
0
 40
1
 40
1
 40
1
 40
1
 10
170.714809
 20
1082.072160
 30
0.0
 10
190.950870
 20
1082.093640
 30
0.0
 10
209.641532
 20
1092.898473
 30
0.0
 10
219.758559
 20
1110.423728
 30
0.0
  0
LINE
  5
15b
100
AcDbEntity
  8
Layer_1
 62
1
100
AcDbLine
 10
219.758559
 20
1110.423728
 30
0.0
 11
316.132000
 21
1110.423728
 31
0.0
  0
LINE
  5
15c
100
AcDbEntity
  8
Layer_1
 62
1
100
AcDbLine
 10
316.132000
 20
1110.423728
 30
0.0
 11
316.132000
 21
1110.247160
 31
0.0
  0
SPLINE
  5
15d
100
AcDbEntity
  8
Layer_1
 62
1
100
AcDbSpline
 70
8
 71
3
 72
8
 73
4
 74
0
 40
0
 40
0
 40
0
 40
0
 40
1
 40
1
 40
1
 40
1
 10
316.132000
 20
1110.247160
 30
0.0
 10
359.556504
 20
1108.273120
 30
0.0
 10
394.538208
 20
1073.936856
 30
0.0
 10
397.319496
 20
1030.556536
 30
0.0
  0
LINE
  5
15e
100
AcDbEntity
  8
Layer_1
 62
1
100
AcDbLine
 10
397.319496
 20
1030.556536
 30
0.0
 11
397.486680
 21
1030.556536
 31
0.0
  0
LINE
  5
15f
100
AcDbEntity
  8
Layer_1
 62
1
100
AcDbLine
 10
397.486680
 20
1030.556536
 30
0.0
 11
397.486680
 21
622.761224
 31
0.0
  0
SPLINE
  5
160
100
AcDbEntity
  8
Layer_1
 62
1
100
AcDbSpline
 70
8
 71
3
 72
8
 73
4
 74
0
 40
0
 40
0
 40
0
 40
0
 40
1
 40
1
 40
1
 40
1
 10
397.486680
 20
622.761224
 30
0.0
 10
394.657336
 20
580.511192
 30
0.0
 10
361.161840
 20
546.673592
 30
0.0
 10
318.844496
 20
543.495600
 30
0.0
  0
LINE
  5
161
100
AcDbEntity
  8
Layer_1
 62
1
100
AcDbLine
 10
318.844496
 20
543.495600
 30
0.0
 11
219.736684
 21
543.495600
 31
0.0
  0
SPLINE
  5
162
100
AcDbEntity
  8
Layer_1
 62
1
100
AcDbSpline
 70
8
 71
3
 72
8
 73
4
 74
0
 40
0
 40
0
 40
0
 40
0
 40
1
 40
1
 40
1
 40
1
 10
219.736684
 20
543.495600
 30
0.0
 10
209.623568
 20
561.014094
 30
0.0
 10
190.943050
 20
571.817880
 30
0.0
 10
170.714809
 20
571.847160
 30
0.0
  0
SPLINE
  5
163
100
AcDbEntity
  8
Layer_1
 62
1
100
AcDbSpline
 70
8
 71
3
 72
8
 73
4
 74
0
 40
0
 40
0
 40
0
 40
0
 40
1
 40
1
 40
1
 40
1
 10
170.714809
 20
571.847160
 30
0.0
 10
155.677293
 20
571.847156
 30
0.0
 10
141.255688
 20
565.873558
 30
0.0
 10
130.622643
 20
555.240514
 30
0.0
  0
SPLINE
  5
164
100
AcDbEntity
  8
Layer_1
 62
1
100
AcDbSpline
 70
8
 71
3
 72
8
 73
4
 74
0
 40
0
 40
0
 40
0
 40
0
 40
1
 40
1
 40
1
 40
1
 10
130.622643
 20
555.240514
 30
0.0
 10
119.989598
 20
544.607471
 30
0.0
 10
114.016133
 20
530.186003
 30
0.0
 10
114.016368
 20
515.148728
 30
0.0
  0
SPLINE
  5
165
100
AcDbEntity
  8
Layer_1
 62
1
100
AcDbSpline
 70
8
 71
3
 72
8
 73
4
 74
0
 40
0
 40
0
 40
0
 40
0
 40
1
 40
1
 40
1
 40
1
 10
114.016368
 20
515.148728
 30
0.0
 10
114.016727
 20
483.835797
 30
0.0
 10
139.401376
 20
458.451840
 30
0.0
 10
170.714809
 20
458.451832
 30
0.0
  0
SPLINE
  5
166
100
AcDbEntity
  8
Layer_1
 62
1
100
AcDbSpline
 70
8
 71
3
 72
8
 73
4
 74
0
 40
0
 40
0
 40
0
 40
0
 40
1
 40
1
 40
1
 40
1
 10
170.714809
 20
458.451832
 30
0.0
 10
190.950874
 20
458.473315
 30
0.0
 10
209.641536
 20
469.278155
 30
0.0
 10
219.758559
 20
486.803416
 30
0.0
  0
LINE
  5
167
100
AcDbEntity
  8
Layer_1
 62
1
100
AcDbLine
 10
219.758559
 20
486.803416
 30
0.0
 11
397.486680
 21
486.803416
 31
0.0
  0
LINE
  5
168
100
AcDbEntity
  8
Layer_1
 62
1
100
AcDbLine
 10
397.486680
 20
486.803416
 30
0.0
 11
438.114808
 21
486.803416
 31
0.0
  0
LINE
  5
169
100
AcDbEntity
  8
Layer_1
 62
1
100
AcDbLine
 10
438.114808
 20
486.803416
 30
0.0
 11
438.114808
 21
486.761256
 31
0.0
  0
SPLINE
  5
16a
100
AcDbEntity
  8
Layer_1
 62
1
100
AcDbSpline
 70
8
 71
3
 72
8
 73
4
 74
0
 40
0
 40
0
 40
0
 40
0
 40
1
 40
1
 40
1
 40
1
 10
438.114808
 20
486.761256
 30
0.0
 10
446.414048
 20
486.229168
 30
0.0
 10
452.983968
 20
479.536152
 30
0.0
 10
453.361688
 20
471.228440
 30
0.0
  0
LINE
  5
16b
100
AcDbEntity
  8
Layer_1
 62
1
100
AcDbLine
 10
453.361688
 20
471.228440
 30
0.0
 11
453.392968
 21
471.228440
 31
0.0
  0
LINE
  5
16c
100
AcDbEntity
  8
Layer_1
 62
1
100
AcDbLine
 10
453.392968
 20
471.228440
 30
0.0
 11
453.392968
 21
468.267512
 31
0.0
  0
LINE
  5
16d
100
AcDbEntity
  8
Layer_1
 62
1
100
AcDbLine
 10
453.392968
 20
468.267512
 30
0.0
 11
453.410168
 21
468.267512
 31
0.0
  0
SPLINE
  5
16e
100
AcDbEntity
  8
Layer_1
 62
1
100
AcDbSpline
 70
8
 71
3
 72
8
 73
4
 74
0
 40
0
 40
0
 40
0
 40
0
 40
1
 40
1
 40
1
 40
1
 10
453.410168
 20
468.267512
 30
0.0
 10
453.451768
 20
458.066712
 30
0.0
 10
461.729936
 20
449.867512
 30
0.0
 10
472.008608
 20
449.867512
 30
0.0
  0
LINE
  5
16f
100
AcDbEntity
  8
Layer_1
 62
1
100
AcDbLine
 10
472.008608
 20
449.867512
 30
0.0
 11
578.061736
 21
449.867512
 31
0.0
  0
SPLINE
  5
170
100
AcDbEntity
  8
Layer_1
 62
1
100
AcDbSpline
 70
8
 71
3
 72
8
 73
4
 74
0
 40
0
 40
0
 40
0
 40
0
 40
1
 40
1
 40
1
 40
1
 10
578.061736
 20
449.867512
 30
0.0
 10
588.340320
 20
449.867512
 30
0.0
 10
596.618648
 20
458.066712
 30
0.0
 10
596.660168
 20
468.267512
 30
0.0
  0
LINE
  5
171
100
AcDbEntity
  8
Layer_1
 62
1
100
AcDbLine
 10
596.660168
 20
468.267512
 30
0.0
 11
596.678888
 21
468.267512
 31
0.0
  0
LINE
  5
172
100
AcDbEntity
  8
Layer_1
 62
1
100
AcDbLine
 10
596.678888
 20
468.267512
 30
0.0
 11
596.678888
 21
471.776880
 31
0.0
  0
SPLINE
  5
173
100
AcDbEntity
  8
Layer_1
 62
1
100
AcDbSpline
 70
8
 71
3
 72
8
 73
4
 74
0
 40
0
 40
0
 40
0
 40
0
 40
1
 40
1
 40
1
 40
1
 10
596.678888
 20
471.776880
 30
0.0
 10
597.304424
 20
479.838488
 30
0.0
 10
603.753112
 20
486.263928
 30
0.0
 10
611.875760
 20
486.784696
 30
0.0
  0
LINE
  5
174
100
AcDbEntity
  8
Layer_1
 62
1
100
AcDbLine
 10
611.875760
 20
486.784696
 30
0.0
 11
611.875760
 21
486.803416
 31
0.0
  0
LINE
  5
175
100
AcDbEntity
  8
Layer_1
 62
1
100
AcDbLine
 10
611.875760
 20
486.803416
 30
0.0
 11
652.603888
 21
486.803416
 31
0.0
  0
LINE
  5
176
100
AcDbEntity
  8
Layer_1
 62
1
100
AcDbLine
 10
652.603888
 20
486.803416
 30
0.0
 11
830.030448
 21
486.803416
 31
0.0
  0
SPLINE
  5
177
100
AcDbEntity
  8
Layer_1
 62
1
100
AcDbSpline
 70
8
 71
3
 72
8
 73
4
 74
0
 40
0
 40
0
 40
0
 40
0
 40
1
 40
1
 40
1
 40
1
 10
830.030448
 20
486.803416
 30
0.0
 10
840.056274
 20
468.966243
 30
0.0
 10
858.915380
 20
457.914840
 30
0.0
 10
879.377328
 20
457.886232
 30
0.0
  0
SPLINE
  5
178
100
AcDbEntity
  8
Layer_1
 62
1
100
AcDbSpline
 70
8
 71
3
 72
8
 73
4
 74
0
 40
0
 40
0
 40
0
 40
0
 40
1
 40
1
 40
1
 40
1
 10
879.377328
 20
457.886232
 30
0.0
 10
910.690745
 20
457.886245
 30
0.0
 10
936.075383
 20
483.270181
 30
0.0
 10
936.075760
 20
514.583096
 30
0.0
  0
SPLINE
  5
179
100
AcDbEntity
  8
Layer_1
 62
1
100
AcDbSpline
 70
8
 71
3
 72
8
 73
4
 74
0
 40
0
 40
0
 40
0
 40
0
 40
1
 40
1
 40
1
 40
1
 10
936.075760
 20
514.583096
 30
0.0
 10
936.075997
 20
529.620370
 30
0.0
 10
930.102535
 20
544.041839
 30
0.0
 10
919.469491
 20
554.674884
 30
0.0
  0
SPLINE
  5
17a
100
AcDbEntity
  8
Layer_1
 62
1
100
AcDbSpline
 70
8
 71
3
 72
8
 73
4
 74
0
 40
0
 40
0
 40
0
 40
0
 40
1
 40
1
 40
1
 40
1
 10
919.469491
 20
554.674884
 30
0.0
 10
908.836448
 20
565.307929
 30
0.0
 10
894.414844
 20
571.281529
 30
0.0
 10
879.377328
 20
571.281536
 30
0.0
  0
SPLINE
  5
17b
100
AcDbEntity
  8
Layer_1
 62
1
100
AcDbSpline
 70
8
 71
3
 72
8
 73
4
 74
0
 40
0
 40
0
 40
0
 40
0
 40
1
 40
1
 40
1
 40
1
 10
879.377328
 20
571.281536
 30
0.0
 10
859.380878
 20
571.254674
 30
0.0
 10
840.877169
 20
560.696650
 30
0.0
 10
830.680448
 20
543.495600
 30
0.0
  0
LINE
  5
17c
100
AcDbEntity
  8
Layer_1
 62
1
100
AcDbLine
 10
830.680448
 20
543.495600
 30
0.0
 11
733.721072
 21
543.495600
 31
0.0
  0
LINE
  5
17d
100
AcDbEntity
  8
Layer_1
 62
1
100
AcDbLine
 10
733.721072
 20
543.495600
 30
0.0
 11
733.721072
 21
543.601848
 31
0.0
  0
SPLINE
  5
17e
100
AcDbEntity
  8
Layer_1
 62
1
100
AcDbSpline
 70
8
 71
3
 72
8
 73
4
 74
0
 40
0
 40
0
 40
0
 40
0
 40
1
 40
1
 40
1
 40
1
 10
733.721072
 20
543.601848
 30
0.0
 10
690.608344
 20
545.561712
 30
0.0
 10
655.823048
 20
579.424048
 30
0.0
 10
652.603872
 20
622.362784
 30
0.0
  0
LINE
  5
17f
100
AcDbEntity
  8
Layer_1
 62
1
100
AcDbLine
 10
652.603872
 20
622.362784
 30
0.0
 11
652.603872
 21
1029.070600
 31
0.0
  0
LINE
  5
180
100
AcDbEntity
  8
Layer_1
 62
1
100
AcDbLine
 10
652.603872
 20
1029.070600
 30
0.0
 11
652.769496
 21
1029.070600
 31
0.0
  0
SPLINE
  5
181
100
AcDbEntity
  8
Layer_1
 62
1
100
AcDbSpline
 70
8
 71
3
 72
8
 73
4
 74
0
 40
0
 40
0
 40
0
 40
0
 40
1
 40
1
 40
1
 40
1
 10
652.769496
 20
1029.070600
 30
0.0
 10
654.743536
 20
1072.495104
 30
0.0
 10
689.079800
 20
1107.476808
 30
0.0
 10
732.460120
 20
1110.258096
 30
0.0
  0
LINE
  5
182
100
AcDbEntity
  8
Layer_1
 62
1
100
AcDbLine
 10
732.460120
 20
1110.258096
 30
0.0
 11
732.460120
 21
1110.423728
 31
0.0
  0
SPLINE
  5
183
100
AcDbEntity
  8
Layer_1
 62
1
100
AcDbSpline
 70
8
 71
3
 72
8
 73
4
 74
0
 40
0
 40
0
 40
0
 40
0
 40
1
 40
1
 40
1
 40
1
 10
732.460120
 20
1110.423728
 30
0.0
 10
732.460120
 20
1110.423728
 30
0.0
 10
830.030432
 20
1110.423728
 30
0.0
 10
830.030432
 20
1110.423728
 30
0.0
  0
SPLINE
  5
184
100
AcDbEntity
  8
Layer_1
 62
1
100
AcDbSpline
 70
8
 71
3
 72
8
 73
4
 74
0
 40
0
 40
0
 40
0
 40
0
 40
1
 40
1
 40
1
 40
1
 10
830.030432
 20
1110.423728
 30
0.0
 10
840.056256
 20
1092.586552
 30
0.0
 10
858.915362
 20
1081.535146
 30
0.0
 10
879.377312
 20
1081.506536
 30
0.0
  0
SPLINE
  5
185
100
AcDbEntity
  8
Layer_1
 62
1
100
AcDbSpline
 70
8
 71
3
 72
8
 73
4
 74
0
 40
0
 40
0
 40
0
 40
0
 40
1
 40
1
 40
1
 40
1
 10
879.377312
 20
1081.506536
 30
0.0
 10
910.690735
 20
1081.506549
 30
0.0
 10
936.075376
 20
1106.890495
 30
0.0
 10
936.075744
 20
1138.203416
 30
0.0
  0
SPLINE
  5
186
100
AcDbEntity
  8
Layer_1
 62
1
100
AcDbSpline
 70
8
 71
3
 72
8
 73
4
 74
0
 40
0
 40
0
 40
0
 40
0
 40
1
 40
1
 40
1
 40
1
 10
936.075744
 20
1138.203416
 30
0.0
 10
936.075979
 20
1153.240689
 30
0.0
 10
930.102516
 20
1167.662156
 30
0.0
 10
919.469473
 20
1178.295200
 30
0.0
  0
SPLINE
  5
187
100
AcDbEntity
  8
Layer_1
 62
1
100
AcDbSpline
 70
8
 71
3
 72
8
 73
4
 74
0
 40
0
 40
0
 40
0
 40
0
 40
1
 40
1
 40
1
 40
1
 10
919.469473
 20
1178.295200
 30
0.0
 10
908.836429
 20
1188.928244
 30
0.0
 10
894.414827
 20
1194.901843
 30
0.0
 10
879.377312
 20
1194.901849
 30
0.0
  0
SPLINE
  5
188
100
AcDbEntity
  8
Layer_1
 62
1
100
AcDbSpline
 70
8
 71
3
 72
8
 73
4
 74
0
 40
0
 40
0
 40
0
 40
0
 40
1
 40
1
 40
1
 40
1
 10
879.377312
 20
1194.901849
 30
0.0
 10
859.380861
 20
1194.874988
 30
0.0
 10
840.877153
 20
1184.316962
 30
0.0
 10
830.680432
 20
1167.115912
 30
0.0
  0
LINE
  5
189
100
AcDbEntity
  8
Layer_1
 62
1
100
AcDbLine
 10
830.680432
 20
1167.115912
 30
0.0
 11
652.603872
 21
1167.115912
 31
0.0
  0
LINE
  5
18a
100
AcDbEntity
  8
Layer_1
 62
1
100
AcDbLine
 10
652.603872
 20
1167.115912
 30
0.0
 11
652.603872
 21
1167.117512
 31
0.0
  0
LINE
  5
18b
100
AcDbEntity
  8
Layer_1
 62
1
100
AcDbLine
 10
652.603872
 20
1167.117512
 30
0.0
 11
397.486680
 21
1167.117512
 31
0.0
  0
LINE
  5
18c
100
AcDbEntity
  8
Layer_1
 62
1
100
AcDbLine
 10
397.486680
 20
1167.117512
 30
0.0
 11
397.486680
 21
1167.115912
 31
0.0
  0
LINE
  5
18d
100
AcDbEntity
  8
Layer_1
 62
1
100
AcDbLine
 10
397.486680
 20
1167.115912
 30
0.0
 11
219.736684
 21
1167.115912
 31
0.0
  0
SPLINE
  5
18e
100
AcDbEntity
  8
Layer_1
 62
1
100
AcDbSpline
 70
8
 71
3
 72
8
 73
4
 74
0
 40
0
 40
0
 40
0
 40
0
 40
1
 40
1
 40
1
 40
1
 10
219.736684
 20
1167.115912
 30
0.0
 10
209.623569
 20
1184.634407
 30
0.0
 10
190.943051
 20
1195.438193
 30
0.0
 10
170.714809
 20
1195.467474
 30
0.0
  0
LINE
  5
18f
100
AcDbEntity
  8
Layer_1
 62
1
100
AcDbLine
 10
170.714809
 20
1195.467474
 30
0.0
 11
170.714809
 21
1195.467474
 31
0.0
  0
SPLINE
  5
190
100
AcDbEntity
  8
Layer_1
 62
1
100
AcDbSpline
 70
8
 71
3
 72
8
 73
4
 74
0
 40
0
 40
0
 40
0
 40
0
 40
1
 40
1
 40
1
 40
1
 10
889.233216
 20
1138.203584
 30
0.0
 10
889.234635
 20
1141.725581
 30
0.0
 10
887.356457
 20
1144.980649
 30
0.0
 10
884.306505
 20
1146.742057
 30
0.0
  0
SPLINE
  5
191
100
AcDbEntity
  8
Layer_1
 62
1
100
AcDbSpline
 70
8
 71
3
 72
8
 73
4
 74
0
 40
0
 40
0
 40
0
 40
0
 40
1
 40
1
 40
1
 40
1
 10
884.306505
 20
1146.742057
 30
0.0
 10
881.256553
 20
1148.503466
 30
0.0
 10
877.498447
 20
1148.503466
 30
0.0
 10
874.448495
 20
1146.742057
 30
0.0
  0
SPLINE
  5
192
100
AcDbEntity
  8
Layer_1
 62
1
100
AcDbSpline
 70
8
 71
3
 72
8
 73
4
 74
0
 40
0
 40
0
 40
0
 40
0
 40
1
 40
1
 40
1
 40
1
 10
874.448495
 20
1146.742057
 30
0.0
 10
871.398543
 20
1144.980649
 30
0.0
 10
869.520365
 20
1141.725581
 30
0.0
 10
869.521784
 20
1138.203584
 30
0.0
  0
SPLINE
  5
193
100
AcDbEntity
  8
Layer_1
 62
1
100
AcDbSpline
 70
8
 71
3
 72
8
 73
4
 74
0
 40
0
 40
0
 40
0
 40
0
 40
1
 40
1
 40
1
 40
1
 10
869.521784
 20
1138.203584
 30
0.0
 10
869.520365
 20
1134.681586
 30
0.0
 10
871.398543
 20
1131.426518
 30
0.0
 10
874.448495
 20
1129.665110
 30
0.0
  0
SPLINE
  5
194
100
AcDbEntity
  8
Layer_1
 62
1
100
AcDbSpline
 70
8
 71
3
 72
8
 73
4
 74
0
 40
0
 40
0
 40
0
 40
0
 40
1
 40
1
 40
1
 40
1
 10
874.448495
 20
1129.665110
 30
0.0
 10
877.498447
 20
1127.903701
 30
0.0
 10
881.256553
 20
1127.903701
 30
0.0
 10
884.306505
 20
1129.665110
 30
0.0
  0
SPLINE
  5
195
100
AcDbEntity
  8
Layer_1
 62
1
100
AcDbSpline
 70
8
 71
3
 72
8
 73
4
 74
0
 40
0
 40
0
 40
0
 40
0
 40
1
 40
1
 40
1
 40
1
 10
884.306505
 20
1129.665110
 30
0.0
 10
887.356457
 20
1131.426518
 30
0.0
 10
889.234635
 20
1134.681586
 30
0.0
 10
889.233216
 20
1138.203584
 30
0.0
  0
LINE
  5
196
100
AcDbEntity
  8
Layer_1
 62
1
100
AcDbLine
 10
889.233216
 20
1138.203584
 30
0.0
 11
889.233216
 21
1138.203584
 31
0.0
  0
SPLINE
  5
197
100
AcDbEntity
  8
Layer_1
 62
1
100
AcDbSpline
 70
8
 71
3
 72
8
 73
4
 74
0
 40
0
 40
0
 40
0
 40
0
 40
1
 40
1
 40
1
 40
1
 10
869.330320
 20
1123.991208
 30
0.0
 10
870.187176
 20
1124.709726
 30
0.0
 10
870.565351
 20
1125.850168
 30
0.0
 10
870.307581
 20
1126.938288
 30
0.0
  0
SPLINE
  5
198
100
AcDbEntity
  8
Layer_1
 62
1
100
AcDbSpline
 70
8
 71
3
 72
8
 73
4
 74
0
 40
0
 40
0
 40
0
 40
0
 40
1
 40
1
 40
1
 40
1
 10
870.307581
 20
1126.938288
 30
0.0
 10
870.049811
 20
1128.026408
 30
0.0
 10
869.200207
 20
1128.876006
 30
0.0
 10
868.112072
 20
1129.133780
 30
0.0
  0
SPLINE
  5
199
100
AcDbEntity
  8
Layer_1
 62
1
100
AcDbSpline
 70
8
 71
3
 72
8
 73
4
 74
0
 40
0
 40
0
 40
0
 40
0
 40
1
 40
1
 40
1
 40
1
 10
868.112072
 20
1129.133780
 30
0.0
 10
867.023937
 20
1129.391555
 30
0.0
 10
865.883473
 20
1129.013396
 30
0.0
 10
865.164936
 20
1128.156560
 30
0.0
  0
SPLINE
  5
19a
100
AcDbEntity
  8
Layer_1
 62
1
100
AcDbSpline
 70
8
 71
3
 72
8
 73
4
 74
0
 40
0
 40
0
 40
0
 40
0
 40
1
 40
1
 40
1
 40
1
 10
860.656448
 20
1123.648136
 30
0.0
 10
858.857351
 20
1123.728563
 30
0.0
 10
857.193567
 20
1122.695777
 30
0.0
 10
856.467402
 20
1121.047804
 30
0.0
  0
SPLINE
  5
19b
100
AcDbEntity
  8
Layer_1
 62
1
100
AcDbSpline
 70
8
 71
3
 72
8
 73
4
 74
0
 40
0
 40
0
 40
0
 40
0
 40
1
 40
1
 40
1
 40
1
 10
856.467402
 20
1121.047804
 30
0.0
 10
855.741237
 20
1119.399831
 30
0.0
 10
856.101799
 20
1117.475061
 30
0.0
 10
857.375219
 20
1116.201654
 30
0.0
  0
SPLINE
  5
19c
100
AcDbEntity
  8
Layer_1
 62
1
100
AcDbSpline
 70
8
 71
3
 72
8
 73
4
 74
0
 40
0
 40
0
 40
0
 40
0
 40
1
 40
1
 40
1
 40
1
 10
857.375219
 20
1116.201654
 30
0.0
 10
858.648639
 20
1114.928246
 30
0.0
 10
860.573436
 20
1114.567677
 30
0.0
 10
862.221440
 20
1115.293821
 30
0.0
  0
SPLINE
  5
19d
100
AcDbEntity
  8
Layer_1
 62
1
100
AcDbSpline
 70
8
 71
3
 72
8
 73
4
 74
0
 40
0
 40
0
 40
0
 40
0
 40
1
 40
1
 40
1
 40
1
 10
862.221440
 20
1115.293821
 30
0.0
 10
863.869444
 20
1116.019964
 30
0.0
 10
864.902257
 20
1117.683715
 30
0.0
 10
864.821840
 20
1119.482784
 30
0.0
  0
LINE
  5
19e
100
AcDbEntity
  8
Layer_1
 62
1
100
AcDbLine
 10
865.530800
 20
1128.522440
 30
0.0
 11
860.656448
 21
1123.648136
 31
0.0
  0
LINE
  5
19f
100
AcDbEntity
  8
Layer_1
 62
1
100
AcDbLine
 10
869.696200
 20
1124.357088
 30
0.0
 11
864.821840
 21
1119.482784
 31
0.0
  0
SPLINE
  5
1a0
100
AcDbEntity
  8
Layer_1
 62
1
100
AcDbSpline
 70
8
 71
3
 72
8
 73
4
 74
0
 40
0
 40
0
 40
0
 40
0
 40
1
 40
1
 40
1
 40
1
 10
893.590056
 20
1128.156560
 30
0.0
 10
892.871519
 20
1129.013396
 30
0.0
 10
891.731055
 20
1129.391555
 30
0.0
 10
890.642920
 20
1129.133780
 30
0.0
  0
SPLINE
  5
1a1
100
AcDbEntity
  8
Layer_1
 62
1
100
AcDbSpline
 70
8
 71
3
 72
8
 73
4
 74
0
 40
0
 40
0
 40
0
 40
0
 40
1
 40
1
 40
1
 40
1
 10
890.642920
 20
1129.133780
 30
0.0
 10
889.554785
 20
1128.876006
 30
0.0
 10
888.705181
 20
1128.026408
 30
0.0
 10
888.447411
 20
1126.938288
 30
0.0
  0
SPLINE
  5
1a2
100
AcDbEntity
  8
Layer_1
 62
1
100
AcDbSpline
 70
8
 71
3
 72
8
 73
4
 74
0
 40
0
 40
0
 40
0
 40
0
 40
1
 40
1
 40
1
 40
1
 10
888.447411
 20
1126.938288
 30
0.0
 10
888.189641
 20
1125.850168
 30
0.0
 10
888.567816
 20
1124.709726
 30
0.0
 10
889.424672
 20
1123.991208
 30
0.0
  0
SPLINE
  5
1a3
100
AcDbEntity
  8
Layer_1
 62
1
100
AcDbSpline
 70
8
 71
3
 72
8
 73
4
 74
0
 40
0
 40
0
 40
0
 40
0
 40
1
 40
1
 40
1
 40
1
 10
893.933152
 20
1119.482784
 30
0.0
 10
893.852735
 20
1117.683714
 30
0.0
 10
894.885549
 20
1116.019963
 30
0.0
 10
896.533554
 20
1115.293820
 30
0.0
  0
SPLINE
  5
1a4
100
AcDbEntity
  8
Layer_1
 62
1
100
AcDbSpline
 70
8
 71
3
 72
8
 73
4
 74
0
 40
0
 40
0
 40
0
 40
0
 40
1
 40
1
 40
1
 40
1
 10
896.533554
 20
1115.293820
 30
0.0
 10
898.181559
 20
1114.567677
 30
0.0
 10
900.106357
 20
1114.928247
 30
0.0
 10
901.379776
 20
1116.201657
 30
0.0
  0
SPLINE
  5
1a5
100
AcDbEntity
  8
Layer_1
 62
1
100
AcDbSpline
 70
8
 71
3
 72
8
 73
4
 74
0
 40
0
 40
0
 40
0
 40
0
 40
1
 40
1
 40
1
 40
1
 10
901.379776
 20
1116.201657
 30
0.0
 10
902.653196
 20
1117.475066
 30
0.0
 10
903.013756
 20
1119.399837
 30
0.0
 10
902.287588
 20
1121.047810
 30
0.0
  0
SPLINE
  5
1a6
100
AcDbEntity
  8
Layer_1
 62
1
100
AcDbSpline
 70
8
 71
3
 72
8
 73
4
 74
0
 40
0
 40
0
 40
0
 40
0
 40
1
 40
1
 40
1
 40
1
 10
902.287588
 20
1121.047810
 30
0.0
 10
901.561420
 20
1122.695782
 30
0.0
 10
899.897633
 20
1123.728566
 30
0.0
 10
898.098536
 20
1123.648136
 30
0.0
  0
LINE
  5
1a7
100
AcDbEntity
  8
Layer_1
 62
1
100
AcDbLine
 10
893.224184
 20
1128.522440
 30
0.0
 11
898.098536
 21
1123.648136
 31
0.0
  0
LINE
  5
1a8
100
AcDbEntity
  8
Layer_1
 62
1
100
AcDbLine
 10
889.058800
 20
1124.357088
 30
0.0
 11
893.933152
 21
1119.482784
 31
0.0
  0
SPLINE
  5
1a9
100
AcDbEntity
  8
Layer_1
 62
1
100
AcDbSpline
 70
8
 71
3
 72
8
 73
4
 74
0
 40
0
 40
0
 40
0
 40
0
 40
1
 40
1
 40
1
 40
1
 10
865.164936
 20
1148.250608
 30
0.0
 10
865.883421
 20
1147.393626
 30
0.0
 10
867.023943
 20
1147.015343
 30
0.0
 10
868.112165
 20
1147.273086
 30
0.0
  0
SPLINE
  5
1aa
100
AcDbEntity
  8
Layer_1
 62
1
100
AcDbSpline
 70
8
 71
3
 72
8
 73
4
 74
0
 40
0
 40
0
 40
0
 40
0
 40
1
 40
1
 40
1
 40
1
 10
868.112165
 20
1147.273086
 30
0.0
 10
869.200388
 20
1147.530828
 30
0.0
 10
870.050067
 20
1148.380485
 30
0.0
 10
870.307825
 20
1149.468687
 30
0.0
  0
SPLINE
  5
1ab
100
AcDbEntity
  8
Layer_1
 62
1
100
AcDbSpline
 70
8
 71
3
 72
8
 73
4
 74
0
 40
0
 40
0
 40
0
 40
0
 40
1
 40
1
 40
1
 40
1
 10
870.307825
 20
1149.468687
 30
0.0
 10
870.565584
 20
1150.556889
 30
0.0
 10
870.187308
 20
1151.697397
 30
0.0
 10
869.330320
 20
1152.415880
 30
0.0
  0
SPLINE
  5
1ac
100
AcDbEntity
  8
Layer_1
 62
1
100
AcDbSpline
 70
8
 71
3
 72
8
 73
4
 74
0
 40
0
 40
0
 40
0
 40
0
 40
1
 40
1
 40
1
 40
1
 10
864.821840
 20
1156.924304
 30
0.0
 10
864.902257
 20
1158.723372
 30
0.0
 10
863.869444
 20
1160.387123
 30
0.0
 10
862.221440
 20
1161.113266
 30
0.0
  0
SPLINE
  5
1ad
100
AcDbEntity
  8
Layer_1
 62
1
100
AcDbSpline
 70
8
 71
3
 72
8
 73
4
 74
0
 40
0
 40
0
 40
0
 40
0
 40
1
 40
1
 40
1
 40
1
 10
862.221440
 20
1161.113266
 30
0.0
 10
860.573436
 20
1161.839410
 30
0.0
 10
858.648639
 20
1161.478841
 30
0.0
 10
857.375219
 20
1160.205433
 30
0.0
  0
SPLINE
  5
1ae
100
AcDbEntity
  8
Layer_1
 62
1
100
AcDbSpline
 70
8
 71
3
 72
8
 73
4
 74
0
 40
0
 40
0
 40
0
 40
0
 40
1
 40
1
 40
1
 40
1
 10
857.375219
 20
1160.205433
 30
0.0
 10
856.101799
 20
1158.932026
 30
0.0
 10
855.741237
 20
1157.007256
 30
0.0
 10
856.467402
 20
1155.359284
 30
0.0
  0
SPLINE
  5
1af
100
AcDbEntity
  8
Layer_1
 62
1
100
AcDbSpline
 70
8
 71
3
 72
8
 73
4
 74
0
 40
0
 40
0
 40
0
 40
0
 40
1
 40
1
 40
1
 40
1
 10
856.467402
 20
1155.359284
 30
0.0
 10
857.193567
 20
1153.711311
 30
0.0
 10
858.857351
 20
1152.678524
 30
0.0
 10
860.656448
 20
1152.758952
 30
0.0
  0
LINE
  5
1b0
100
AcDbEntity
  8
Layer_1
 62
1
100
AcDbLine
 10
865.530800
 20
1147.884728
 30
0.0
 11
860.656448
 21
1152.758952
 31
0.0
  0
LINE
  5
1b1
100
AcDbEntity
  8
Layer_1
 62
1
100
AcDbLine
 10
869.696200
 20
1152.050000
 30
0.0
 11
864.821840
 21
1156.924304
 31
0.0
  0
SPLINE
  5
1b2
100
AcDbEntity
  8
Layer_1
 62
1
100
AcDbSpline
 70
8
 71
3
 72
8
 73
4
 74
0
 40
0
 40
0
 40
0
 40
0
 40
1
 40
1
 40
1
 40
1
 10
889.424672
 20
1152.415880
 30
0.0
 10
888.567684
 20
1151.697397
 30
0.0
 10
888.189408
 20
1150.556889
 30
0.0
 10
888.447167
 20
1149.468687
 30
0.0
  0
SPLINE
  5
1b3
100
AcDbEntity
  8
Layer_1
 62
1
100
AcDbSpline
 70
8
 71
3
 72
8
 73
4
 74
0
 40
0
 40
0
 40
0
 40
0
 40
1
 40
1
 40
1
 40
1
 10
888.447167
 20
1149.468687
 30
0.0
 10
888.704925
 20
1148.380485
 30
0.0
 10
889.554604
 20
1147.530828
 30
0.0
 10
890.642827
 20
1147.273086
 30
0.0
  0
SPLINE
  5
1b4
100
AcDbEntity
  8
Layer_1
 62
1
100
AcDbSpline
 70
8
 71
3
 72
8
 73
4
 74
0
 40
0
 40
0
 40
0
 40
0
 40
1
 40
1
 40
1
 40
1
 10
890.642827
 20
1147.273086
 30
0.0
 10
891.731049
 20
1147.015343
 30
0.0
 10
892.871571
 20
1147.393626
 30
0.0
 10
893.590056
 20
1148.250608
 30
0.0
  0
SPLINE
  5
1b5
100
AcDbEntity
  8
Layer_1
 62
1
100
AcDbSpline
 70
8
 71
3
 72
8
 73
4
 74
0
 40
0
 40
0
 40
0
 40
0
 40
1
 40
1
 40
1
 40
1
 10
898.098536
 20
1152.758952
 30
0.0
 10
899.897633
 20
1152.678521
 30
0.0
 10
901.561420
 20
1153.711305
 30
0.0
 10
902.287588
 20
1155.359278
 30
0.0
  0
SPLINE
  5
1b6
100
AcDbEntity
  8
Layer_1
 62
1
100
AcDbSpline
 70
8
 71
3
 72
8
 73
4
 74
0
 40
0
 40
0
 40
0
 40
0
 40
1
 40
1
 40
1
 40
1
 10
902.287588
 20
1155.359278
 30
0.0
 10
903.013756
 20
1157.007250
 30
0.0
 10
902.653196
 20
1158.932021
 30
0.0
 10
901.379776
 20
1160.205430
 30
0.0
  0
SPLINE
  5
1b7
100
AcDbEntity
  8
Layer_1
 62
1
100
AcDbSpline
 70
8
 71
3
 72
8
 73
4
 74
0
 40
0
 40
0
 40
0
 40
0
 40
1
 40
1
 40
1
 40
1
 10
901.379776
 20
1160.205430
 30
0.0
 10
900.106357
 20
1161.478840
 30
0.0
 10
898.181559
 20
1161.839410
 30
0.0
 10
896.533554
 20
1161.113267
 30
0.0
  0
SPLINE
  5
1b8
100
AcDbEntity
  8
Layer_1
 62
1
100
AcDbSpline
 70
8
 71
3
 72
8
 73
4
 74
0
 40
0
 40
0
 40
0
 40
0
 40
1
 40
1
 40
1
 40
1
 10
896.533554
 20
1161.113267
 30
0.0
 10
894.885549
 20
1160.387124
 30
0.0
 10
893.852735
 20
1158.723373
 30
0.0
 10
893.933152
 20
1156.924304
 30
0.0
  0
LINE
  5
1b9
100
AcDbEntity
  8
Layer_1
 62
1
100
AcDbLine
 10
893.224184
 20
1147.884728
 30
0.0
 11
898.098536
 21
1152.758952
 31
0.0
  0
LINE
  5
1ba
100
AcDbEntity
  8
Layer_1
 62
1
100
AcDbLine
 10
889.058800
 20
1152.050000
 30
0.0
 11
893.933152
 21
1156.924304
 31
0.0
  0
LINE
  5
1bb
100
AcDbEntity
  8
Layer_1
 62
1
100
AcDbLine
 10
241.012964
 20
1145.856636
 30
0.0
 11
269.360425
 21
1145.856636
 31
0.0
  0
LINE
  5
1bc
100
AcDbEntity
  8
Layer_1
 62
1
100
AcDbLine
 10
269.360425
 20
1145.856636
 30
0.0
 11
269.360425
 21
1131.682404
 31
0.0
  0
LINE
  5
1bd
100
AcDbEntity
  8
Layer_1
 62
1
100
AcDbLine
 10
269.360425
 20
1131.682404
 30
0.0
 11
241.012964
 21
1131.682404
 31
0.0
  0
LINE
  5
1be
100
AcDbEntity
  8
Layer_1
 62
1
100
AcDbLine
 10
241.012964
 20
1131.682404
 30
0.0
 11
241.012964
 21
1145.856636
 31
0.0
  0
LINE
  5
1bf
100
AcDbEntity
  8
Layer_1
 62
1
100
AcDbLine
 10
780.729504
 20
1145.856636
 30
0.0
 11
809.076965
 21
1145.856636
 31
0.0
  0
LINE
  5
1c0
100
AcDbEntity
  8
Layer_1
 62
1
100
AcDbLine
 10
809.076965
 20
1145.856636
 30
0.0
 11
809.076965
 21
1131.682404
 31
0.0
  0
LINE
  5
1c1
100
AcDbEntity
  8
Layer_1
 62
1
100
AcDbLine
 10
809.076965
 20
1131.682404
 30
0.0
 11
780.729504
 21
1131.682404
 31
0.0
  0
LINE
  5
1c2
100
AcDbEntity
  8
Layer_1
 62
1
100
AcDbLine
 10
780.729504
 20
1131.682404
 30
0.0
 11
780.729504
 21
1145.856636
 31
0.0
  0
LINE
  5
1c3
100
AcDbEntity
  8
Layer_1
 62
1
100
AcDbLine
 10
397.485440
 20
1145.856636
 30
0.0
 11
425.832901
 21
1145.856636
 31
0.0
  0
LINE
  5
1c4
100
AcDbEntity
  8
Layer_1
 62
1
100
AcDbLine
 10
425.832901
 20
1145.856636
 30
0.0
 11
425.832901
 21
1131.682404
 31
0.0
  0
LINE
  5
1c5
100
AcDbEntity
  8
Layer_1
 62
1
100
AcDbLine
 10
425.832901
 20
1131.682404
 30
0.0
 11
397.485440
 21
1131.682404
 31
0.0
  0
LINE
  5
1c6
100
AcDbEntity
  8
Layer_1
 62
1
100
AcDbLine
 10
397.485440
 20
1131.682404
 30
0.0
 11
397.485440
 21
1145.856636
 31
0.0
  0
LINE
  5
1c7
100
AcDbEntity
  8
Layer_1
 62
1
100
AcDbLine
 10
624.257048
 20
1145.856636
 30
0.0
 11
652.604509
 21
1145.856636
 31
0.0
  0
LINE
  5
1c8
100
AcDbEntity
  8
Layer_1
 62
1
100
AcDbLine
 10
652.604509
 20
1145.856636
 30
0.0
 11
652.604509
 21
1131.682404
 31
0.0
  0
LINE
  5
1c9
100
AcDbEntity
  8
Layer_1
 62
1
100
AcDbLine
 10
652.604509
 20
1131.682404
 30
0.0
 11
624.257048
 21
1131.682404
 31
0.0
  0
LINE
  5
1ca
100
AcDbEntity
  8
Layer_1
 62
1
100
AcDbLine
 10
624.257048
 20
1131.682404
 30
0.0
 11
624.257048
 21
1145.856636
 31
0.0
  0
SPLINE
  5
1cb
100
AcDbEntity
  8
Layer_1
 62
1
100
AcDbSpline
 70
8
 71
3
 72
8
 73
4
 74
0
 40
0
 40
0
 40
0
 40
0
 40
1
 40
1
 40
1
 40
1
 10
180.570009
 20
1138.769552
 30
0.0
 10
180.570009
 20
1142.290604
 30
0.0
 10
178.691520
 20
1145.544190
 30
0.0
 10
175.642151
 20
1147.304716
 30
0.0
  0
SPLINE
  5
1cc
100
AcDbEntity
  8
Layer_1
 62
1
100
AcDbSpline
 70
8
 71
3
 72
8
 73
4
 74
0
 40
0
 40
0
 40
0
 40
0
 40
1
 40
1
 40
1
 40
1
 10
175.642151
 20
1147.304716
 30
0.0
 10
172.592781
 20
1149.065242
 30
0.0
 10
168.835803
 20
1149.065242
 30
0.0
 10
165.786434
 20
1147.304716
 30
0.0
  0
SPLINE
  5
1cd
100
AcDbEntity
  8
Layer_1
 62
1
100
AcDbSpline
 70
8
 71
3
 72
8
 73
4
 74
0
 40
0
 40
0
 40
0
 40
0
 40
1
 40
1
 40
1
 40
1
 10
165.786434
 20
1147.304716
 30
0.0
 10
162.737065
 20
1145.544190
 30
0.0
 10
160.858576
 20
1142.290604
 30
0.0
 10
160.858576
 20
1138.769552
 30
0.0
  0
SPLINE
  5
1ce
100
AcDbEntity
  8
Layer_1
 62
1
100
AcDbSpline
 70
8
 71
3
 72
8
 73
4
 74
0
 40
0
 40
0
 40
0
 40
0
 40
1
 40
1
 40
1
 40
1
 10
160.858576
 20
1138.769552
 30
0.0
 10
160.858576
 20
1135.248499
 30
0.0
 10
162.737065
 20
1131.994913
 30
0.0
 10
165.786434
 20
1130.234387
 30
0.0
  0
SPLINE
  5
1cf
100
AcDbEntity
  8
Layer_1
 62
1
100
AcDbSpline
 70
8
 71
3
 72
8
 73
4
 74
0
 40
0
 40
0
 40
0
 40
0
 40
1
 40
1
 40
1
 40
1
 10
165.786434
 20
1130.234387
 30
0.0
 10
168.835804
 20
1128.473861
 30
0.0
 10
172.592782
 20
1128.473861
 30
0.0
 10
175.642151
 20
1130.234387
 30
0.0
  0
SPLINE
  5
1d0
100
AcDbEntity
  8
Layer_1
 62
1
100
AcDbSpline
 70
8
 71
3
 72
8
 73
4
 74
0
 40
0
 40
0
 40
0
 40
0
 40
1
 40
1
 40
1
 40
1
 10
175.642151
 20
1130.234387
 30
0.0
 10
178.691520
 20
1131.994913
 30
0.0
 10
180.570009
 20
1135.248499
 30
0.0
 10
180.570009
 20
1138.769552
 30
0.0
  0
LINE
  5
1d1
100
AcDbEntity
  8
Layer_1
 62
1
100
AcDbLine
 10
180.570009
 20
1138.769552
 30
0.0
 11
180.570010
 21
1138.769552
 31
0.0
  0
SPLINE
  5
1d2
100
AcDbEntity
  8
Layer_1
 62
1
100
AcDbSpline
 70
8
 71
3
 72
8
 73
4
 74
0
 40
0
 40
0
 40
0
 40
0
 40
1
 40
1
 40
1
 40
1
 10
160.667111
 20
1124.557176
 30
0.0
 10
161.523968
 20
1125.275694
 30
0.0
 10
161.902142
 20
1126.416136
 30
0.0
 10
161.644372
 20
1127.504256
 30
0.0
  0
SPLINE
  5
1d3
100
AcDbEntity
  8
Layer_1
 62
1
100
AcDbSpline
 70
8
 71
3
 72
8
 73
4
 74
0
 40
0
 40
0
 40
0
 40
0
 40
1
 40
1
 40
1
 40
1
 10
161.644372
 20
1127.504256
 30
0.0
 10
161.386602
 20
1128.592376
 30
0.0
 10
160.536998
 20
1129.441974
 30
0.0
 10
159.448863
 20
1129.699748
 30
0.0
  0
SPLINE
  5
1d4
100
AcDbEntity
  8
Layer_1
 62
1
100
AcDbSpline
 70
8
 71
3
 72
8
 73
4
 74
0
 40
0
 40
0
 40
0
 40
0
 40
1
 40
1
 40
1
 40
1
 10
159.448863
 20
1129.699748
 30
0.0
 10
158.360728
 20
1129.957523
 30
0.0
 10
157.220264
 20
1129.579364
 30
0.0
 10
156.501727
 20
1128.722528
 30
0.0
  0
SPLINE
  5
1d5
100
AcDbEntity
  8
Layer_1
 62
1
100
AcDbSpline
 70
8
 71
3
 72
8
 73
4
 74
0
 40
0
 40
0
 40
0
 40
0
 40
1
 40
1
 40
1
 40
1
 10
151.993239
 20
1124.214104
 30
0.0
 10
150.194143
 20
1124.294531
 30
0.0
 10
148.530359
 20
1123.261745
 30
0.0
 10
147.804193
 20
1121.613772
 30
0.0
  0
SPLINE
  5
1d6
100
AcDbEntity
  8
Layer_1
 62
1
100
AcDbSpline
 70
8
 71
3
 72
8
 73
4
 74
0
 40
0
 40
0
 40
0
 40
0
 40
1
 40
1
 40
1
 40
1
 10
147.804193
 20
1121.613772
 30
0.0
 10
147.078028
 20
1119.965799
 30
0.0
 10
147.438590
 20
1118.041029
 30
0.0
 10
148.712010
 20
1116.767622
 30
0.0
  0
SPLINE
  5
1d7
100
AcDbEntity
  8
Layer_1
 62
1
100
AcDbSpline
 70
8
 71
3
 72
8
 73
4
 74
0
 40
0
 40
0
 40
0
 40
0
 40
1
 40
1
 40
1
 40
1
 10
148.712010
 20
1116.767622
 30
0.0
 10
149.985430
 20
1115.494214
 30
0.0
 10
151.910227
 20
1115.133645
 30
0.0
 10
153.558231
 20
1115.859789
 30
0.0
  0
SPLINE
  5
1d8
100
AcDbEntity
  8
Layer_1
 62
1
100
AcDbSpline
 70
8
 71
3
 72
8
 73
4
 74
0
 40
0
 40
0
 40
0
 40
0
 40
1
 40
1
 40
1
 40
1
 10
153.558231
 20
1115.859789
 30
0.0
 10
155.206235
 20
1116.585932
 30
0.0
 10
156.239049
 20
1118.249683
 30
0.0
 10
156.158631
 20
1120.048752
 30
0.0
  0
LINE
  5
1d9
100
AcDbEntity
  8
Layer_1
 62
1
100
AcDbLine
 10
156.867591
 20
1129.088408
 30
0.0
 11
151.993239
 21
1124.214104
 31
0.0
  0
LINE
  5
1da
100
AcDbEntity
  8
Layer_1
 62
1
100
AcDbLine
 10
161.032991
 20
1124.923056
 30
0.0
 11
156.158631
 21
1120.048752
 31
0.0
  0
SPLINE
  5
1db
100
AcDbEntity
  8
Layer_1
 62
1
100
AcDbSpline
 70
8
 71
3
 72
8
 73
4
 74
0
 40
0
 40
0
 40
0
 40
0
 40
1
 40
1
 40
1
 40
1
 10
184.926850
 20
1128.722528
 30
0.0
 10
184.208313
 20
1129.579364
 30
0.0
 10
183.067849
 20
1129.957523
 30
0.0
 10
181.979714
 20
1129.699748
 30
0.0
  0
SPLINE
  5
1dc
100
AcDbEntity
  8
Layer_1
 62
1
100
AcDbSpline
 70
8
 71
3
 72
8
 73
4
 74
0
 40
0
 40
0
 40
0
 40
0
 40
1
 40
1
 40
1
 40
1
 10
181.979714
 20
1129.699748
 30
0.0
 10
180.891579
 20
1129.441974
 30
0.0
 10
180.041974
 20
1128.592376
 30
0.0
 10
179.784205
 20
1127.504256
 30
0.0
  0
SPLINE
  5
1dd
100
AcDbEntity
  8
Layer_1
 62
1
100
AcDbSpline
 70
8
 71
3
 72
8
 73
4
 74
0
 40
0
 40
0
 40
0
 40
0
 40
1
 40
1
 40
1
 40
1
 10
179.784205
 20
1127.504256
 30
0.0
 10
179.526435
 20
1126.416136
 30
0.0
 10
179.904609
 20
1125.275694
 30
0.0
 10
180.761466
 20
1124.557176
 30
0.0
  0
SPLINE
  5
1de
100
AcDbEntity
  8
Layer_1
 62
1
100
AcDbSpline
 70
8
 71
3
 72
8
 73
4
 74
0
 40
0
 40
0
 40
0
 40
0
 40
1
 40
1
 40
1
 40
1
 10
185.269946
 20
1120.048752
 30
0.0
 10
185.189528
 20
1118.249682
 30
0.0
 10
186.222343
 20
1116.585931
 30
0.0
 10
187.870348
 20
1115.859788
 30
0.0
  0
SPLINE
  5
1df
100
AcDbEntity
  8
Layer_1
 62
1
100
AcDbSpline
 70
8
 71
3
 72
8
 73
4
 74
0
 40
0
 40
0
 40
0
 40
0
 40
1
 40
1
 40
1
 40
1
 10
187.870348
 20
1115.859788
 30
0.0
 10
189.518353
 20
1115.133645
 30
0.0
 10
191.443151
 20
1115.494215
 30
0.0
 10
192.716570
 20
1116.767625
 30
0.0
  0
SPLINE
  5
1e0
100
AcDbEntity
  8
Layer_1
 62
1
100
AcDbSpline
 70
8
 71
3
 72
8
 73
4
 74
0
 40
0
 40
0
 40
0
 40
0
 40
1
 40
1
 40
1
 40
1
 10
192.716570
 20
1116.767625
 30
0.0
 10
193.989989
 20
1118.041034
 30
0.0
 10
194.350549
 20
1119.965805
 30
0.0
 10
193.624381
 20
1121.613778
 30
0.0
  0
SPLINE
  5
1e1
100
AcDbEntity
  8
Layer_1
 62
1
100
AcDbSpline
 70
8
 71
3
 72
8
 73
4
 74
0
 40
0
 40
0
 40
0
 40
0
 40
1
 40
1
 40
1
 40
1
 10
193.624381
 20
1121.613778
 30
0.0
 10
192.898213
 20
1123.261750
 30
0.0
 10
191.234427
 20
1124.294534
 30
0.0
 10
189.435330
 20
1124.214104
 30
0.0
  0
LINE
  5
1e2
100
AcDbEntity
  8
Layer_1
 62
1
100
AcDbLine
 10
184.560978
 20
1129.088408
 30
0.0
 11
189.435330
 21
1124.214104
 31
0.0
  0
LINE
  5
1e3
100
AcDbEntity
  8
Layer_1
 62
1
100
AcDbLine
 10
180.395594
 20
1124.923056
 30
0.0
 11
185.269946
 21
1120.048752
 31
0.0
  0
SPLINE
  5
1e4
100
AcDbEntity
  8
Layer_1
 62
1
100
AcDbSpline
 70
8
 71
3
 72
8
 73
4
 74
0
 40
0
 40
0
 40
0
 40
0
 40
1
 40
1
 40
1
 40
1
 10
156.501727
 20
1148.816576
 30
0.0
 10
157.220212
 20
1147.959594
 30
0.0
 10
158.360734
 20
1147.581311
 30
0.0
 10
159.448956
 20
1147.839054
 30
0.0
  0
SPLINE
  5
1e5
100
AcDbEntity
  8
Layer_1
 62
1
100
AcDbSpline
 70
8
 71
3
 72
8
 73
4
 74
0
 40
0
 40
0
 40
0
 40
0
 40
1
 40
1
 40
1
 40
1
 10
159.448956
 20
1147.839054
 30
0.0
 10
160.537179
 20
1148.096796
 30
0.0
 10
161.386858
 20
1148.946453
 30
0.0
 10
161.644616
 20
1150.034655
 30
0.0
  0
SPLINE
  5
1e6
100
AcDbEntity
  8
Layer_1
 62
1
100
AcDbSpline
 70
8
 71
3
 72
8
 73
4
 74
0
 40
0
 40
0
 40
0
 40
0
 40
1
 40
1
 40
1
 40
1
 10
161.644616
 20
1150.034655
 30
0.0
 10
161.902375
 20
1151.122857
 30
0.0
 10
161.524099
 20
1152.263365
 30
0.0
 10
160.667111
 20
1152.981848
 30
0.0
  0
SPLINE
  5
1e7
100
AcDbEntity
  8
Layer_1
 62
1
100
AcDbSpline
 70
8
 71
3
 72
8
 73
4
 74
0
 40
0
 40
0
 40
0
 40
0
 40
1
 40
1
 40
1
 40
1
 10
156.158631
 20
1157.490272
 30
0.0
 10
156.239049
 20
1159.289340
 30
0.0
 10
155.206235
 20
1160.953091
 30
0.0
 10
153.558231
 20
1161.679234
 30
0.0
  0
SPLINE
  5
1e8
100
AcDbEntity
  8
Layer_1
 62
1
100
AcDbSpline
 70
8
 71
3
 72
8
 73
4
 74
0
 40
0
 40
0
 40
0
 40
0
 40
1
 40
1
 40
1
 40
1
 10
153.558231
 20
1161.679234
 30
0.0
 10
151.910227
 20
1162.405378
 30
0.0
 10
149.985430
 20
1162.044809
 30
0.0
 10
148.712010
 20
1160.771401
 30
0.0
  0
SPLINE
  5
1e9
100
AcDbEntity
  8
Layer_1
 62
1
100
AcDbSpline
 70
8
 71
3
 72
8
 73
4
 74
0
 40
0
 40
0
 40
0
 40
0
 40
1
 40
1
 40
1
 40
1
 10
148.712010
 20
1160.771401
 30
0.0
 10
147.438590
 20
1159.497994
 30
0.0
 10
147.078028
 20
1157.573224
 30
0.0
 10
147.804193
 20
1155.925252
 30
0.0
  0
SPLINE
  5
1ea
100
AcDbEntity
  8
Layer_1
 62
1
100
AcDbSpline
 70
8
 71
3
 72
8
 73
4
 74
0
 40
0
 40
0
 40
0
 40
0
 40
1
 40
1
 40
1
 40
1
 10
147.804193
 20
1155.925252
 30
0.0
 10
148.530359
 20
1154.277279
 30
0.0
 10
150.194143
 20
1153.244492
 30
0.0
 10
151.993239
 20
1153.324920
 30
0.0
  0
LINE
  5
1eb
100
AcDbEntity
  8
Layer_1
 62
1
100
AcDbLine
 10
156.867591
 20
1148.450696
 30
0.0
 11
151.993239
 21
1153.324920
 31
0.0
  0
LINE
  5
1ec
100
AcDbEntity
  8
Layer_1
 62
1
100
AcDbLine
 10
161.032991
 20
1152.615968
 30
0.0
 11
156.158631
 21
1157.490272
 31
0.0
  0
SPLINE
  5
1ed
100
AcDbEntity
  8
Layer_1
 62
1
100
AcDbSpline
 70
8
 71
3
 72
8
 73
4
 74
0
 40
0
 40
0
 40
0
 40
0
 40
1
 40
1
 40
1
 40
1
 10
180.761466
 20
1152.981848
 30
0.0
 10
179.904478
 20
1152.263365
 30
0.0
 10
179.526202
 20
1151.122857
 30
0.0
 10
179.783961
 20
1150.034655
 30
0.0
  0
SPLINE
  5
1ee
100
AcDbEntity
  8
Layer_1
 62
1
100
AcDbSpline
 70
8
 71
3
 72
8
 73
4
 74
0
 40
0
 40
0
 40
0
 40
0
 40
1
 40
1
 40
1
 40
1
 10
179.783961
 20
1150.034655
 30
0.0
 10
180.041719
 20
1148.946453
 30
0.0
 10
180.891398
 20
1148.096796
 30
0.0
 10
181.979620
 20
1147.839054
 30
0.0
  0
SPLINE
  5
1ef
100
AcDbEntity
  8
Layer_1
 62
1
100
AcDbSpline
 70
8
 71
3
 72
8
 73
4
 74
0
 40
0
 40
0
 40
0
 40
0
 40
1
 40
1
 40
1
 40
1
 10
181.979620
 20
1147.839054
 30
0.0
 10
183.067843
 20
1147.581311
 30
0.0
 10
184.208365
 20
1147.959594
 30
0.0
 10
184.926850
 20
1148.816576
 30
0.0
  0
SPLINE
  5
1f0
100
AcDbEntity
  8
Layer_1
 62
1
100
AcDbSpline
 70
8
 71
3
 72
8
 73
4
 74
0
 40
0
 40
0
 40
0
 40
0
 40
1
 40
1
 40
1
 40
1
 10
189.435330
 20
1153.324920
 30
0.0
 10
191.234427
 20
1153.244489
 30
0.0
 10
192.898213
 20
1154.277273
 30
0.0
 10
193.624381
 20
1155.925246
 30
0.0
  0
SPLINE
  5
1f1
100
AcDbEntity
  8
Layer_1
 62
1
100
AcDbSpline
 70
8
 71
3
 72
8
 73
4
 74
0
 40
0
 40
0
 40
0
 40
0
 40
1
 40
1
 40
1
 40
1
 10
193.624381
 20
1155.925246
 30
0.0
 10
194.350549
 20
1157.573218
 30
0.0
 10
193.989989
 20
1159.497989
 30
0.0
 10
192.716570
 20
1160.771398
 30
0.0
  0
SPLINE
  5
1f2
100
AcDbEntity
  8
Layer_1
 62
1
100
AcDbSpline
 70
8
 71
3
 72
8
 73
4
 74
0
 40
0
 40
0
 40
0
 40
0
 40
1
 40
1
 40
1
 40
1
 10
192.716570
 20
1160.771398
 30
0.0
 10
191.443151
 20
1162.044808
 30
0.0
 10
189.518353
 20
1162.405378
 30
0.0
 10
187.870348
 20
1161.679235
 30
0.0
  0
SPLINE
  5
1f3
100
AcDbEntity
  8
Layer_1
 62
1
100
AcDbSpline
 70
8
 71
3
 72
8
 73
4
 74
0
 40
0
 40
0
 40
0
 40
0
 40
1
 40
1
 40
1
 40
1
 10
187.870348
 20
1161.679235
 30
0.0
 10
186.222343
 20
1160.953092
 30
0.0
 10
185.189528
 20
1159.289341
 30
0.0
 10
185.269946
 20
1157.490272
 30
0.0
  0
LINE
  5
1f4
100
AcDbEntity
  8
Layer_1
 62
1
100
AcDbLine
 10
184.560978
 20
1148.450696
 30
0.0
 11
189.435330
 21
1153.324920
 31
0.0
  0
LINE
  5
1f5
100
AcDbEntity
  8
Layer_1
 62
1
100
AcDbLine
 10
180.395594
 20
1152.615968
 30
0.0
 11
185.269946
 21
1157.490272
 31
0.0
  0
SPLINE
  5
1f6
100
AcDbEntity
  8
Layer_1
 62
1
100
AcDbSpline
 70
8
 71
3
 72
8
 73
4
 74
0
 40
0
 40
0
 40
0
 40
0
 40
1
 40
1
 40
1
 40
1
 10
889.233216
 20
514.583368
 30
0.0
 10
889.234635
 20
518.105365
 30
0.0
 10
887.356457
 20
521.360433
 30
0.0
 10
884.306505
 20
523.121841
 30
0.0
  0
SPLINE
  5
1f7
100
AcDbEntity
  8
Layer_1
 62
1
100
AcDbSpline
 70
8
 71
3
 72
8
 73
4
 74
0
 40
0
 40
0
 40
0
 40
0
 40
1
 40
1
 40
1
 40
1
 10
884.306505
 20
523.121841
 30
0.0
 10
881.256553
 20
524.883250
 30
0.0
 10
877.498447
 20
524.883250
 30
0.0
 10
874.448495
 20
523.121841
 30
0.0
  0
SPLINE
  5
1f8
100
AcDbEntity
  8
Layer_1
 62
1
100
AcDbSpline
 70
8
 71
3
 72
8
 73
4
 74
0
 40
0
 40
0
 40
0
 40
0
 40
1
 40
1
 40
1
 40
1
 10
874.448495
 20
523.121841
 30
0.0
 10
871.398543
 20
521.360433
 30
0.0
 10
869.520365
 20
518.105365
 30
0.0
 10
869.521784
 20
514.583368
 30
0.0
  0
SPLINE
  5
1f9
100
AcDbEntity
  8
Layer_1
 62
1
100
AcDbSpline
 70
8
 71
3
 72
8
 73
4
 74
0
 40
0
 40
0
 40
0
 40
0
 40
1
 40
1
 40
1
 40
1
 10
869.521784
 20
514.583368
 30
0.0
 10
869.520365
 20
511.061370
 30
0.0
 10
871.398543
 20
507.806302
 30
0.0
 10
874.448495
 20
506.044894
 30
0.0
  0
SPLINE
  5
1fa
100
AcDbEntity
  8
Layer_1
 62
1
100
AcDbSpline
 70
8
 71
3
 72
8
 73
4
 74
0
 40
0
 40
0
 40
0
 40
0
 40
1
 40
1
 40
1
 40
1
 10
874.448495
 20
506.044894
 30
0.0
 10
877.498447
 20
504.283485
 30
0.0
 10
881.256553
 20
504.283485
 30
0.0
 10
884.306505
 20
506.044894
 30
0.0
  0
SPLINE
  5
1fb
100
AcDbEntity
  8
Layer_1
 62
1
100
AcDbSpline
 70
8
 71
3
 72
8
 73
4
 74
0
 40
0
 40
0
 40
0
 40
0
 40
1
 40
1
 40
1
 40
1
 10
884.306505
 20
506.044894
 30
0.0
 10
887.356457
 20
507.806302
 30
0.0
 10
889.234635
 20
511.061370
 30
0.0
 10
889.233216
 20
514.583368
 30
0.0
  0
LINE
  5
1fc
100
AcDbEntity
  8
Layer_1
 62
1
100
AcDbLine
 10
889.233216
 20
514.583368
 30
0.0
 11
889.233216
 21
514.583368
 31
0.0
  0
SPLINE
  5
1fd
100
AcDbEntity
  8
Layer_1
 62
1
100
AcDbSpline
 70
8
 71
3
 72
8
 73
4
 74
0
 40
0
 40
0
 40
0
 40
0
 40
1
 40
1
 40
1
 40
1
 10
869.330320
 20
500.370992
 30
0.0
 10
870.187176
 20
501.089510
 30
0.0
 10
870.565351
 20
502.229952
 30
0.0
 10
870.307581
 20
503.318072
 30
0.0
  0
SPLINE
  5
1fe
100
AcDbEntity
  8
Layer_1
 62
1
100
AcDbSpline
 70
8
 71
3
 72
8
 73
4
 74
0
 40
0
 40
0
 40
0
 40
0
 40
1
 40
1
 40
1
 40
1
 10
870.307581
 20
503.318072
 30
0.0
 10
870.049811
 20
504.406192
 30
0.0
 10
869.200207
 20
505.255790
 30
0.0
 10
868.112072
 20
505.513564
 30
0.0
  0
SPLINE
  5
1ff
100
AcDbEntity
  8
Layer_1
 62
1
100
AcDbSpline
 70
8
 71
3
 72
8
 73
4
 74
0
 40
0
 40
0
 40
0
 40
0
 40
1
 40
1
 40
1
 40
1
 10
868.112072
 20
505.513564
 30
0.0
 10
867.023937
 20
505.771339
 30
0.0
 10
865.883473
 20
505.393180
 30
0.0
 10
865.164936
 20
504.536344
 30
0.0
  0
SPLINE
  5
200
100
AcDbEntity
  8
Layer_1
 62
1
100
AcDbSpline
 70
8
 71
3
 72
8
 73
4
 74
0
 40
0
 40
0
 40
0
 40
0
 40
1
 40
1
 40
1
 40
1
 10
860.656448
 20
500.027920
 30
0.0
 10
858.857351
 20
500.108347
 30
0.0
 10
857.193567
 20
499.075561
 30
0.0
 10
856.467402
 20
497.427588
 30
0.0
  0
SPLINE
  5
201
100
AcDbEntity
  8
Layer_1
 62
1
100
AcDbSpline
 70
8
 71
3
 72
8
 73
4
 74
0
 40
0
 40
0
 40
0
 40
0
 40
1
 40
1
 40
1
 40
1
 10
856.467402
 20
497.427588
 30
0.0
 10
855.741237
 20
495.779615
 30
0.0
 10
856.101799
 20
493.854845
 30
0.0
 10
857.375219
 20
492.581438
 30
0.0
  0
SPLINE
  5
202
100
AcDbEntity
  8
Layer_1
 62
1
100
AcDbSpline
 70
8
 71
3
 72
8
 73
4
 74
0
 40
0
 40
0
 40
0
 40
0
 40
1
 40
1
 40
1
 40
1
 10
857.375219
 20
492.581438
 30
0.0
 10
858.648639
 20
491.308030
 30
0.0
 10
860.573436
 20
490.947461
 30
0.0
 10
862.221440
 20
491.673605
 30
0.0
  0
SPLINE
  5
203
100
AcDbEntity
  8
Layer_1
 62
1
100
AcDbSpline
 70
8
 71
3
 72
8
 73
4
 74
0
 40
0
 40
0
 40
0
 40
0
 40
1
 40
1
 40
1
 40
1
 10
862.221440
 20
491.673605
 30
0.0
 10
863.869444
 20
492.399748
 30
0.0
 10
864.902257
 20
494.063499
 30
0.0
 10
864.821840
 20
495.862568
 30
0.0
  0
LINE
  5
204
100
AcDbEntity
  8
Layer_1
 62
1
100
AcDbLine
 10
865.530800
 20
504.902224
 30
0.0
 11
860.656448
 21
500.027920
 31
0.0
  0
LINE
  5
205
100
AcDbEntity
  8
Layer_1
 62
1
100
AcDbLine
 10
869.696200
 20
500.736872
 30
0.0
 11
864.821840
 21
495.862568
 31
0.0
  0
SPLINE
  5
206
100
AcDbEntity
  8
Layer_1
 62
1
100
AcDbSpline
 70
8
 71
3
 72
8
 73
4
 74
0
 40
0
 40
0
 40
0
 40
0
 40
1
 40
1
 40
1
 40
1
 10
893.590056
 20
504.536344
 30
0.0
 10
892.871519
 20
505.393180
 30
0.0
 10
891.731055
 20
505.771339
 30
0.0
 10
890.642920
 20
505.513564
 30
0.0
  0
SPLINE
  5
207
100
AcDbEntity
  8
Layer_1
 62
1
100
AcDbSpline
 70
8
 71
3
 72
8
 73
4
 74
0
 40
0
 40
0
 40
0
 40
0
 40
1
 40
1
 40
1
 40
1
 10
890.642920
 20
505.513564
 30
0.0
 10
889.554785
 20
505.255790
 30
0.0
 10
888.705181
 20
504.406192
 30
0.0
 10
888.447411
 20
503.318072
 30
0.0
  0
SPLINE
  5
208
100
AcDbEntity
  8
Layer_1
 62
1
100
AcDbSpline
 70
8
 71
3
 72
8
 73
4
 74
0
 40
0
 40
0
 40
0
 40
0
 40
1
 40
1
 40
1
 40
1
 10
888.447411
 20
503.318072
 30
0.0
 10
888.189641
 20
502.229952
 30
0.0
 10
888.567816
 20
501.089510
 30
0.0
 10
889.424672
 20
500.370992
 30
0.0
  0
SPLINE
  5
209
100
AcDbEntity
  8
Layer_1
 62
1
100
AcDbSpline
 70
8
 71
3
 72
8
 73
4
 74
0
 40
0
 40
0
 40
0
 40
0
 40
1
 40
1
 40
1
 40
1
 10
893.933152
 20
495.862568
 30
0.0
 10
893.852735
 20
494.063498
 30
0.0
 10
894.885549
 20
492.399747
 30
0.0
 10
896.533554
 20
491.673604
 30
0.0
  0
SPLINE
  5
20a
100
AcDbEntity
  8
Layer_1
 62
1
100
AcDbSpline
 70
8
 71
3
 72
8
 73
4
 74
0
 40
0
 40
0
 40
0
 40
0
 40
1
 40
1
 40
1
 40
1
 10
896.533554
 20
491.673604
 30
0.0
 10
898.181559
 20
490.947461
 30
0.0
 10
900.106357
 20
491.308031
 30
0.0
 10
901.379776
 20
492.581441
 30
0.0
  0
SPLINE
  5
20b
100
AcDbEntity
  8
Layer_1
 62
1
100
AcDbSpline
 70
8
 71
3
 72
8
 73
4
 74
0
 40
0
 40
0
 40
0
 40
0
 40
1
 40
1
 40
1
 40
1
 10
901.379776
 20
492.581441
 30
0.0
 10
902.653196
 20
493.854850
 30
0.0
 10
903.013756
 20
495.779621
 30
0.0
 10
902.287588
 20
497.427594
 30
0.0
  0
SPLINE
  5
20c
100
AcDbEntity
  8
Layer_1
 62
1
100
AcDbSpline
 70
8
 71
3
 72
8
 73
4
 74
0
 40
0
 40
0
 40
0
 40
0
 40
1
 40
1
 40
1
 40
1
 10
902.287588
 20
497.427594
 30
0.0
 10
901.561420
 20
499.075566
 30
0.0
 10
899.897633
 20
500.108350
 30
0.0
 10
898.098536
 20
500.027920
 30
0.0
  0
LINE
  5
20d
100
AcDbEntity
  8
Layer_1
 62
1
100
AcDbLine
 10
893.224184
 20
504.902224
 30
0.0
 11
898.098536
 21
500.027920
 31
0.0
  0
LINE
  5
20e
100
AcDbEntity
  8
Layer_1
 62
1
100
AcDbLine
 10
889.058800
 20
500.736872
 30
0.0
 11
893.933152
 21
495.862568
 31
0.0
  0
SPLINE
  5
20f
100
AcDbEntity
  8
Layer_1
 62
1
100
AcDbSpline
 70
8
 71
3
 72
8
 73
4
 74
0
 40
0
 40
0
 40
0
 40
0
 40
1
 40
1
 40
1
 40
1
 10
865.164936
 20
524.630392
 30
0.0
 10
865.883421
 20
523.773410
 30
0.0
 10
867.023943
 20
523.395127
 30
0.0
 10
868.112165
 20
523.652870
 30
0.0
  0
SPLINE
  5
210
100
AcDbEntity
  8
Layer_1
 62
1
100
AcDbSpline
 70
8
 71
3
 72
8
 73
4
 74
0
 40
0
 40
0
 40
0
 40
0
 40
1
 40
1
 40
1
 40
1
 10
868.112165
 20
523.652870
 30
0.0
 10
869.200388
 20
523.910612
 30
0.0
 10
870.050067
 20
524.760269
 30
0.0
 10
870.307825
 20
525.848471
 30
0.0
  0
SPLINE
  5
211
100
AcDbEntity
  8
Layer_1
 62
1
100
AcDbSpline
 70
8
 71
3
 72
8
 73
4
 74
0
 40
0
 40
0
 40
0
 40
0
 40
1
 40
1
 40
1
 40
1
 10
870.307825
 20
525.848471
 30
0.0
 10
870.565584
 20
526.936673
 30
0.0
 10
870.187308
 20
528.077181
 30
0.0
 10
869.330320
 20
528.795664
 30
0.0
  0
SPLINE
  5
212
100
AcDbEntity
  8
Layer_1
 62
1
100
AcDbSpline
 70
8
 71
3
 72
8
 73
4
 74
0
 40
0
 40
0
 40
0
 40
0
 40
1
 40
1
 40
1
 40
1
 10
864.821840
 20
533.304088
 30
0.0
 10
864.902257
 20
535.103156
 30
0.0
 10
863.869444
 20
536.766907
 30
0.0
 10
862.221440
 20
537.493050
 30
0.0
  0
SPLINE
  5
213
100
AcDbEntity
  8
Layer_1
 62
1
100
AcDbSpline
 70
8
 71
3
 72
8
 73
4
 74
0
 40
0
 40
0
 40
0
 40
0
 40
1
 40
1
 40
1
 40
1
 10
862.221440
 20
537.493050
 30
0.0
 10
860.573436
 20
538.219194
 30
0.0
 10
858.648639
 20
537.858625
 30
0.0
 10
857.375219
 20
536.585217
 30
0.0
  0
SPLINE
  5
214
100
AcDbEntity
  8
Layer_1
 62
1
100
AcDbSpline
 70
8
 71
3
 72
8
 73
4
 74
0
 40
0
 40
0
 40
0
 40
0
 40
1
 40
1
 40
1
 40
1
 10
857.375219
 20
536.585217
 30
0.0
 10
856.101799
 20
535.311810
 30
0.0
 10
855.741237
 20
533.387040
 30
0.0
 10
856.467402
 20
531.739068
 30
0.0
  0
SPLINE
  5
215
100
AcDbEntity
  8
Layer_1
 62
1
100
AcDbSpline
 70
8
 71
3
 72
8
 73
4
 74
0
 40
0
 40
0
 40
0
 40
0
 40
1
 40
1
 40
1
 40
1
 10
856.467402
 20
531.739068
 30
0.0
 10
857.193567
 20
530.091095
 30
0.0
 10
858.857351
 20
529.058308
 30
0.0
 10
860.656448
 20
529.138736
 30
0.0
  0
LINE
  5
216
100
AcDbEntity
  8
Layer_1
 62
1
100
AcDbLine
 10
865.530800
 20
524.264512
 30
0.0
 11
860.656448
 21
529.138736
 31
0.0
  0
LINE
  5
217
100
AcDbEntity
  8
Layer_1
 62
1
100
AcDbLine
 10
869.696200
 20
528.429784
 30
0.0
 11
864.821840
 21
533.304088
 31
0.0
  0
SPLINE
  5
218
100
AcDbEntity
  8
Layer_1
 62
1
100
AcDbSpline
 70
8
 71
3
 72
8
 73
4
 74
0
 40
0
 40
0
 40
0
 40
0
 40
1
 40
1
 40
1
 40
1
 10
889.424672
 20
528.795664
 30
0.0
 10
888.567684
 20
528.077181
 30
0.0
 10
888.189408
 20
526.936673
 30
0.0
 10
888.447167
 20
525.848471
 30
0.0
  0
SPLINE
  5
219
100
AcDbEntity
  8
Layer_1
 62
1
100
AcDbSpline
 70
8
 71
3
 72
8
 73
4
 74
0
 40
0
 40
0
 40
0
 40
0
 40
1
 40
1
 40
1
 40
1
 10
888.447167
 20
525.848471
 30
0.0
 10
888.704925
 20
524.760269
 30
0.0
 10
889.554604
 20
523.910612
 30
0.0
 10
890.642827
 20
523.652870
 30
0.0
  0
SPLINE
  5
21a
100
AcDbEntity
  8
Layer_1
 62
1
100
AcDbSpline
 70
8
 71
3
 72
8
 73
4
 74
0
 40
0
 40
0
 40
0
 40
0
 40
1
 40
1
 40
1
 40
1
 10
890.642827
 20
523.652870
 30
0.0
 10
891.731049
 20
523.395127
 30
0.0
 10
892.871571
 20
523.773410
 30
0.0
 10
893.590056
 20
524.630392
 30
0.0
  0
SPLINE
  5
21b
100
AcDbEntity
  8
Layer_1
 62
1
100
AcDbSpline
 70
8
 71
3
 72
8
 73
4
 74
0
 40
0
 40
0
 40
0
 40
0
 40
1
 40
1
 40
1
 40
1
 10
898.098536
 20
529.138736
 30
0.0
 10
899.897633
 20
529.058305
 30
0.0
 10
901.561420
 20
530.091089
 30
0.0
 10
902.287588
 20
531.739062
 30
0.0
  0
SPLINE
  5
21c
100
AcDbEntity
  8
Layer_1
 62
1
100
AcDbSpline
 70
8
 71
3
 72
8
 73
4
 74
0
 40
0
 40
0
 40
0
 40
0
 40
1
 40
1
 40
1
 40
1
 10
902.287588
 20
531.739062
 30
0.0
 10
903.013756
 20
533.387034
 30
0.0
 10
902.653196
 20
535.311805
 30
0.0
 10
901.379776
 20
536.585214
 30
0.0
  0
SPLINE
  5
21d
100
AcDbEntity
  8
Layer_1
 62
1
100
AcDbSpline
 70
8
 71
3
 72
8
 73
4
 74
0
 40
0
 40
0
 40
0
 40
0
 40
1
 40
1
 40
1
 40
1
 10
901.379776
 20
536.585214
 30
0.0
 10
900.106357
 20
537.858624
 30
0.0
 10
898.181559
 20
538.219194
 30
0.0
 10
896.533554
 20
537.493051
 30
0.0
  0
SPLINE
  5
21e
100
AcDbEntity
  8
Layer_1
 62
1
100
AcDbSpline
 70
8
 71
3
 72
8
 73
4
 74
0
 40
0
 40
0
 40
0
 40
0
 40
1
 40
1
 40
1
 40
1
 10
896.533554
 20
537.493051
 30
0.0
 10
894.885549
 20
536.766908
 30
0.0
 10
893.852735
 20
535.103157
 30
0.0
 10
893.933152
 20
533.304088
 30
0.0
  0
LINE
  5
21f
100
AcDbEntity
  8
Layer_1
 62
1
100
AcDbLine
 10
893.224184
 20
524.264512
 30
0.0
 11
898.098536
 21
529.138736
 31
0.0
  0
LINE
  5
220
100
AcDbEntity
  8
Layer_1
 62
1
100
AcDbLine
 10
889.058800
 20
528.429784
 30
0.0
 11
893.933152
 21
533.304088
 31
0.0
  0
SPLINE
  5
221
100
AcDbEntity
  8
Layer_1
 62
1
100
AcDbSpline
 70
8
 71
3
 72
8
 73
4
 74
0
 40
0
 40
0
 40
0
 40
0
 40
1
 40
1
 40
1
 40
1
 10
180.570005
 20
515.149336
 30
0.0
 10
180.570005
 20
518.670388
 30
0.0
 10
178.691516
 20
521.923974
 30
0.0
 10
175.642147
 20
523.684500
 30
0.0
  0
SPLINE
  5
222
100
AcDbEntity
  8
Layer_1
 62
1
100
AcDbSpline
 70
8
 71
3
 72
8
 73
4
 74
0
 40
0
 40
0
 40
0
 40
0
 40
1
 40
1
 40
1
 40
1
 10
175.642147
 20
523.684500
 30
0.0
 10
172.592777
 20
525.445026
 30
0.0
 10
168.835799
 20
525.445026
 30
0.0
 10
165.786430
 20
523.684500
 30
0.0
  0
SPLINE
  5
223
100
AcDbEntity
  8
Layer_1
 62
1
100
AcDbSpline
 70
8
 71
3
 72
8
 73
4
 74
0
 40
0
 40
0
 40
0
 40
0
 40
1
 40
1
 40
1
 40
1
 10
165.786430
 20
523.684500
 30
0.0
 10
162.737061
 20
521.923974
 30
0.0
 10
160.858572
 20
518.670388
 30
0.0
 10
160.858572
 20
515.149336
 30
0.0
  0
SPLINE
  5
224
100
AcDbEntity
  8
Layer_1
 62
1
100
AcDbSpline
 70
8
 71
3
 72
8
 73
4
 74
0
 40
0
 40
0
 40
0
 40
0
 40
1
 40
1
 40
1
 40
1
 10
160.858572
 20
515.149336
 30
0.0
 10
160.858572
 20
511.628283
 30
0.0
 10
162.737061
 20
508.374697
 30
0.0
 10
165.786430
 20
506.614171
 30
0.0
  0
SPLINE
  5
225
100
AcDbEntity
  8
Layer_1
 62
1
100
AcDbSpline
 70
8
 71
3
 72
8
 73
4
 74
0
 40
0
 40
0
 40
0
 40
0
 40
1
 40
1
 40
1
 40
1
 10
165.786430
 20
506.614171
 30
0.0
 10
168.835800
 20
504.853645
 30
0.0
 10
172.592778
 20
504.853645
 30
0.0
 10
175.642147
 20
506.614171
 30
0.0
  0
SPLINE
  5
226
100
AcDbEntity
  8
Layer_1
 62
1
100
AcDbSpline
 70
8
 71
3
 72
8
 73
4
 74
0
 40
0
 40
0
 40
0
 40
0
 40
1
 40
1
 40
1
 40
1
 10
175.642147
 20
506.614171
 30
0.0
 10
178.691516
 20
508.374697
 30
0.0
 10
180.570005
 20
511.628283
 30
0.0
 10
180.570005
 20
515.149336
 30
0.0
  0
LINE
  5
227
100
AcDbEntity
  8
Layer_1
 62
1
100
AcDbLine
 10
180.570005
 20
515.149336
 30
0.0
 11
180.570006
 21
515.149336
 31
0.0
  0
SPLINE
  5
228
100
AcDbEntity
  8
Layer_1
 62
1
100
AcDbSpline
 70
8
 71
3
 72
8
 73
4
 74
0
 40
0
 40
0
 40
0
 40
0
 40
1
 40
1
 40
1
 40
1
 10
160.667107
 20
500.936960
 30
0.0
 10
161.523964
 20
501.655478
 30
0.0
 10
161.902138
 20
502.795920
 30
0.0
 10
161.644368
 20
503.884040
 30
0.0
  0
SPLINE
  5
229
100
AcDbEntity
  8
Layer_1
 62
1
100
AcDbSpline
 70
8
 71
3
 72
8
 73
4
 74
0
 40
0
 40
0
 40
0
 40
0
 40
1
 40
1
 40
1
 40
1
 10
161.644368
 20
503.884040
 30
0.0
 10
161.386598
 20
504.972160
 30
0.0
 10
160.536994
 20
505.821758
 30
0.0
 10
159.448859
 20
506.079532
 30
0.0
  0
SPLINE
  5
22a
100
AcDbEntity
  8
Layer_1
 62
1
100
AcDbSpline
 70
8
 71
3
 72
8
 73
4
 74
0
 40
0
 40
0
 40
0
 40
0
 40
1
 40
1
 40
1
 40
1
 10
159.448859
 20
506.079532
 30
0.0
 10
158.360724
 20
506.337307
 30
0.0
 10
157.220260
 20
505.959148
 30
0.0
 10
156.501723
 20
505.102312
 30
0.0
  0
SPLINE
  5
22b
100
AcDbEntity
  8
Layer_1
 62
1
100
AcDbSpline
 70
8
 71
3
 72
8
 73
4
 74
0
 40
0
 40
0
 40
0
 40
0
 40
1
 40
1
 40
1
 40
1
 10
151.993235
 20
500.593888
 30
0.0
 10
150.194139
 20
500.674315
 30
0.0
 10
148.530355
 20
499.641529
 30
0.0
 10
147.804189
 20
497.993556
 30
0.0
  0
SPLINE
  5
22c
100
AcDbEntity
  8
Layer_1
 62
1
100
AcDbSpline
 70
8
 71
3
 72
8
 73
4
 74
0
 40
0
 40
0
 40
0
 40
0
 40
1
 40
1
 40
1
 40
1
 10
147.804189
 20
497.993556
 30
0.0
 10
147.078024
 20
496.345583
 30
0.0
 10
147.438586
 20
494.420813
 30
0.0
 10
148.712006
 20
493.147406
 30
0.0
  0
SPLINE
  5
22d
100
AcDbEntity
  8
Layer_1
 62
1
100
AcDbSpline
 70
8
 71
3
 72
8
 73
4
 74
0
 40
0
 40
0
 40
0
 40
0
 40
1
 40
1
 40
1
 40
1
 10
148.712006
 20
493.147406
 30
0.0
 10
149.985426
 20
491.873998
 30
0.0
 10
151.910223
 20
491.513429
 30
0.0
 10
153.558227
 20
492.239573
 30
0.0
  0
SPLINE
  5
22e
100
AcDbEntity
  8
Layer_1
 62
1
100
AcDbSpline
 70
8
 71
3
 72
8
 73
4
 74
0
 40
0
 40
0
 40
0
 40
0
 40
1
 40
1
 40
1
 40
1
 10
153.558227
 20
492.239573
 30
0.0
 10
155.206231
 20
492.965716
 30
0.0
 10
156.239045
 20
494.629467
 30
0.0
 10
156.158627
 20
496.428536
 30
0.0
  0
LINE
  5
22f
100
AcDbEntity
  8
Layer_1
 62
1
100
AcDbLine
 10
156.867587
 20
505.468192
 30
0.0
 11
151.993235
 21
500.593888
 31
0.0
  0
LINE
  5
230
100
AcDbEntity
  8
Layer_1
 62
1
100
AcDbLine
 10
161.032987
 20
501.302840
 30
0.0
 11
156.158627
 21
496.428536
 31
0.0
  0
SPLINE
  5
231
100
AcDbEntity
  8
Layer_1
 62
1
100
AcDbSpline
 70
8
 71
3
 72
8
 73
4
 74
0
 40
0
 40
0
 40
0
 40
0
 40
1
 40
1
 40
1
 40
1
 10
184.926846
 20
505.102312
 30
0.0
 10
184.208309
 20
505.959148
 30
0.0
 10
183.067845
 20
506.337307
 30
0.0
 10
181.979710
 20
506.079532
 30
0.0
  0
SPLINE
  5
232
100
AcDbEntity
  8
Layer_1
 62
1
100
AcDbSpline
 70
8
 71
3
 72
8
 73
4
 74
0
 40
0
 40
0
 40
0
 40
0
 40
1
 40
1
 40
1
 40
1
 10
181.979710
 20
506.079532
 30
0.0
 10
180.891575
 20
505.821758
 30
0.0
 10
180.041970
 20
504.972160
 30
0.0
 10
179.784201
 20
503.884040
 30
0.0
  0
SPLINE
  5
233
100
AcDbEntity
  8
Layer_1
 62
1
100
AcDbSpline
 70
8
 71
3
 72
8
 73
4
 74
0
 40
0
 40
0
 40
0
 40
0
 40
1
 40
1
 40
1
 40
1
 10
179.784201
 20
503.884040
 30
0.0
 10
179.526431
 20
502.795920
 30
0.0
 10
179.904605
 20
501.655478
 30
0.0
 10
180.761462
 20
500.936960
 30
0.0
  0
SPLINE
  5
234
100
AcDbEntity
  8
Layer_1
 62
1
100
AcDbSpline
 70
8
 71
3
 72
8
 73
4
 74
0
 40
0
 40
0
 40
0
 40
0
 40
1
 40
1
 40
1
 40
1
 10
185.269942
 20
496.428536
 30
0.0
 10
185.189524
 20
494.629466
 30
0.0
 10
186.222339
 20
492.965715
 30
0.0
 10
187.870344
 20
492.239572
 30
0.0
  0
SPLINE
  5
235
100
AcDbEntity
  8
Layer_1
 62
1
100
AcDbSpline
 70
8
 71
3
 72
8
 73
4
 74
0
 40
0
 40
0
 40
0
 40
0
 40
1
 40
1
 40
1
 40
1
 10
187.870344
 20
492.239572
 30
0.0
 10
189.518349
 20
491.513429
 30
0.0
 10
191.443147
 20
491.873999
 30
0.0
 10
192.716566
 20
493.147409
 30
0.0
  0
SPLINE
  5
236
100
AcDbEntity
  8
Layer_1
 62
1
100
AcDbSpline
 70
8
 71
3
 72
8
 73
4
 74
0
 40
0
 40
0
 40
0
 40
0
 40
1
 40
1
 40
1
 40
1
 10
192.716566
 20
493.147409
 30
0.0
 10
193.989985
 20
494.420818
 30
0.0
 10
194.350545
 20
496.345589
 30
0.0
 10
193.624377
 20
497.993562
 30
0.0
  0
SPLINE
  5
237
100
AcDbEntity
  8
Layer_1
 62
1
100
AcDbSpline
 70
8
 71
3
 72
8
 73
4
 74
0
 40
0
 40
0
 40
0
 40
0
 40
1
 40
1
 40
1
 40
1
 10
193.624377
 20
497.993562
 30
0.0
 10
192.898209
 20
499.641534
 30
0.0
 10
191.234423
 20
500.674318
 30
0.0
 10
189.435326
 20
500.593888
 30
0.0
  0
LINE
  5
238
100
AcDbEntity
  8
Layer_1
 62
1
100
AcDbLine
 10
184.560974
 20
505.468192
 30
0.0
 11
189.435326
 21
500.593888
 31
0.0
  0
LINE
  5
239
100
AcDbEntity
  8
Layer_1
 62
1
100
AcDbLine
 10
180.395590
 20
501.302840
 30
0.0
 11
185.269942
 21
496.428536
 31
0.0
  0
SPLINE
  5
23a
100
AcDbEntity
  8
Layer_1
 62
1
100
AcDbSpline
 70
8
 71
3
 72
8
 73
4
 74
0
 40
0
 40
0
 40
0
 40
0
 40
1
 40
1
 40
1
 40
1
 10
156.501723
 20
525.196360
 30
0.0
 10
157.220208
 20
524.339378
 30
0.0
 10
158.360730
 20
523.961095
 30
0.0
 10
159.448952
 20
524.218838
 30
0.0
  0
SPLINE
  5
23b
100
AcDbEntity
  8
Layer_1
 62
1
100
AcDbSpline
 70
8
 71
3
 72
8
 73
4
 74
0
 40
0
 40
0
 40
0
 40
0
 40
1
 40
1
 40
1
 40
1
 10
159.448952
 20
524.218838
 30
0.0
 10
160.537175
 20
524.476580
 30
0.0
 10
161.386854
 20
525.326237
 30
0.0
 10
161.644612
 20
526.414439
 30
0.0
  0
SPLINE
  5
23c
100
AcDbEntity
  8
Layer_1
 62
1
100
AcDbSpline
 70
8
 71
3
 72
8
 73
4
 74
0
 40
0
 40
0
 40
0
 40
0
 40
1
 40
1
 40
1
 40
1
 10
161.644612
 20
526.414439
 30
0.0
 10
161.902371
 20
527.502641
 30
0.0
 10
161.524095
 20
528.643149
 30
0.0
 10
160.667107
 20
529.361632
 30
0.0
  0
SPLINE
  5
23d
100
AcDbEntity
  8
Layer_1
 62
1
100
AcDbSpline
 70
8
 71
3
 72
8
 73
4
 74
0
 40
0
 40
0
 40
0
 40
0
 40
1
 40
1
 40
1
 40
1
 10
156.158627
 20
533.870056
 30
0.0
 10
156.239045
 20
535.669124
 30
0.0
 10
155.206231
 20
537.332875
 30
0.0
 10
153.558227
 20
538.059018
 30
0.0
  0
SPLINE
  5
23e
100
AcDbEntity
  8
Layer_1
 62
1
100
AcDbSpline
 70
8
 71
3
 72
8
 73
4
 74
0
 40
0
 40
0
 40
0
 40
0
 40
1
 40
1
 40
1
 40
1
 10
153.558227
 20
538.059018
 30
0.0
 10
151.910223
 20
538.785162
 30
0.0
 10
149.985426
 20
538.424593
 30
0.0
 10
148.712006
 20
537.151185
 30
0.0
  0
SPLINE
  5
23f
100
AcDbEntity
  8
Layer_1
 62
1
100
AcDbSpline
 70
8
 71
3
 72
8
 73
4
 74
0
 40
0
 40
0
 40
0
 40
0
 40
1
 40
1
 40
1
 40
1
 10
148.712006
 20
537.151185
 30
0.0
 10
147.438586
 20
535.877778
 30
0.0
 10
147.078024
 20
533.953008
 30
0.0
 10
147.804189
 20
532.305036
 30
0.0
  0
SPLINE
  5
240
100
AcDbEntity
  8
Layer_1
 62
1
100
AcDbSpline
 70
8
 71
3
 72
8
 73
4
 74
0
 40
0
 40
0
 40
0
 40
0
 40
1
 40
1
 40
1
 40
1
 10
147.804189
 20
532.305036
 30
0.0
 10
148.530355
 20
530.657063
 30
0.0
 10
150.194139
 20
529.624276
 30
0.0
 10
151.993235
 20
529.704704
 30
0.0
  0
LINE
  5
241
100
AcDbEntity
  8
Layer_1
 62
1
100
AcDbLine
 10
156.867587
 20
524.830480
 30
0.0
 11
151.993235
 21
529.704704
 31
0.0
  0
LINE
  5
242
100
AcDbEntity
  8
Layer_1
 62
1
100
AcDbLine
 10
161.032987
 20
528.995752
 30
0.0
 11
156.158627
 21
533.870056
 31
0.0
  0
SPLINE
  5
243
100
AcDbEntity
  8
Layer_1
 62
1
100
AcDbSpline
 70
8
 71
3
 72
8
 73
4
 74
0
 40
0
 40
0
 40
0
 40
0
 40
1
 40
1
 40
1
 40
1
 10
180.761462
 20
529.361632
 30
0.0
 10
179.904474
 20
528.643149
 30
0.0
 10
179.526198
 20
527.502641
 30
0.0
 10
179.783957
 20
526.414439
 30
0.0
  0
SPLINE
  5
244
100
AcDbEntity
  8
Layer_1
 62
1
100
AcDbSpline
 70
8
 71
3
 72
8
 73
4
 74
0
 40
0
 40
0
 40
0
 40
0
 40
1
 40
1
 40
1
 40
1
 10
179.783957
 20
526.414439
 30
0.0
 10
180.041715
 20
525.326237
 30
0.0
 10
180.891394
 20
524.476580
 30
0.0
 10
181.979616
 20
524.218838
 30
0.0
  0
SPLINE
  5
245
100
AcDbEntity
  8
Layer_1
 62
1
100
AcDbSpline
 70
8
 71
3
 72
8
 73
4
 74
0
 40
0
 40
0
 40
0
 40
0
 40
1
 40
1
 40
1
 40
1
 10
181.979616
 20
524.218838
 30
0.0
 10
183.067839
 20
523.961095
 30
0.0
 10
184.208361
 20
524.339378
 30
0.0
 10
184.926846
 20
525.196360
 30
0.0
  0
SPLINE
  5
246
100
AcDbEntity
  8
Layer_1
 62
1
100
AcDbSpline
 70
8
 71
3
 72
8
 73
4
 74
0
 40
0
 40
0
 40
0
 40
0
 40
1
 40
1
 40
1
 40
1
 10
189.435326
 20
529.704704
 30
0.0
 10
191.234423
 20
529.624273
 30
0.0
 10
192.898209
 20
530.657057
 30
0.0
 10
193.624377
 20
532.305030
 30
0.0
  0
SPLINE
  5
247
100
AcDbEntity
  8
Layer_1
 62
1
100
AcDbSpline
 70
8
 71
3
 72
8
 73
4
 74
0
 40
0
 40
0
 40
0
 40
0
 40
1
 40
1
 40
1
 40
1
 10
193.624377
 20
532.305030
 30
0.0
 10
194.350545
 20
533.953002
 30
0.0
 10
193.989985
 20
535.877773
 30
0.0
 10
192.716566
 20
537.151182
 30
0.0
  0
SPLINE
  5
248
100
AcDbEntity
  8
Layer_1
 62
1
100
AcDbSpline
 70
8
 71
3
 72
8
 73
4
 74
0
 40
0
 40
0
 40
0
 40
0
 40
1
 40
1
 40
1
 40
1
 10
192.716566
 20
537.151182
 30
0.0
 10
191.443147
 20
538.424592
 30
0.0
 10
189.518349
 20
538.785162
 30
0.0
 10
187.870344
 20
538.059019
 30
0.0
  0
SPLINE
  5
249
100
AcDbEntity
  8
Layer_1
 62
1
100
AcDbSpline
 70
8
 71
3
 72
8
 73
4
 74
0
 40
0
 40
0
 40
0
 40
0
 40
1
 40
1
 40
1
 40
1
 10
187.870344
 20
538.059019
 30
0.0
 10
186.222339
 20
537.332876
 30
0.0
 10
185.189524
 20
535.669125
 30
0.0
 10
185.269942
 20
533.870056
 30
0.0
  0
LINE
  5
24a
100
AcDbEntity
  8
Layer_1
 62
1
100
AcDbLine
 10
184.560974
 20
524.830480
 30
0.0
 11
189.435326
 21
529.704704
 31
0.0
  0
LINE
  5
24b
100
AcDbEntity
  8
Layer_1
 62
1
100
AcDbLine
 10
180.395590
 20
528.995752
 30
0.0
 11
185.269942
 21
533.870056
 31
0.0
  0
LINE
  5
24c
100
AcDbEntity
  8
Layer_1
 62
1
100
AcDbLine
 10
531.995720
 20
1081.941720
 30
0.0
 11
531.995720
 21
1025.248806
 31
0.0
  0
LINE
  5
24d
100
AcDbEntity
  8
Layer_1
 62
1
100
AcDbLine
 10
531.995720
 20
1025.248806
 30
0.0
 11
517.822491
 21
1025.248806
 31
0.0
  0
LINE
  5
24e
100
AcDbEntity
  8
Layer_1
 62
1
100
AcDbLine
 10
517.822491
 20
1025.248806
 30
0.0
 11
517.822491
 21
1081.941720
 31
0.0
  0
LINE
  5
24f
100
AcDbEntity
  8
Layer_1
 62
1
100
AcDbLine
 10
517.822491
 20
1081.941720
 30
0.0
 11
531.995720
 21
1081.941720
 31
0.0
  0
LINE
  5
250
100
AcDbEntity
  8
Layer_1
 62
1
100
AcDbLine
 10
531.995720
 20
628.398432
 30
0.0
 11
531.995720
 21
571.705518
 31
0.0
  0
LINE
  5
251
100
AcDbEntity
  8
Layer_1
 62
1
100
AcDbLine
 10
531.995720
 20
571.705518
 30
0.0
 11
517.822491
 21
571.705518
 31
0.0
  0
LINE
  5
252
100
AcDbEntity
  8
Layer_1
 62
1
100
AcDbLine
 10
517.822491
 20
571.705518
 30
0.0
 11
517.822491
 21
628.398432
 31
0.0
  0
LINE
  5
253
100
AcDbEntity
  8
Layer_1
 62
1
100
AcDbLine
 10
517.822491
 20
628.398432
 30
0.0
 11
531.995720
 21
628.398432
 31
0.0
  0
LINE
  5
254
100
AcDbEntity
  8
Layer_1
 62
1
100
AcDbLine
 10
425.696520
 20
1053.590304
 30
0.0
 11
425.696520
 21
996.897390
 31
0.0
  0
LINE
  5
255
100
AcDbEntity
  8
Layer_1
 62
1
100
AcDbLine
 10
425.696520
 20
996.897390
 30
0.0
 11
411.523291
 21
996.897390
 31
0.0
  0
LINE
  5
256
100
AcDbEntity
  8
Layer_1
 62
1
100
AcDbLine
 10
411.523291
 20
996.897390
 30
0.0
 11
411.523291
 21
1053.590304
 31
0.0
  0
LINE
  5
257
100
AcDbEntity
  8
Layer_1
 62
1
100
AcDbLine
 10
411.523291
 20
1053.590304
 30
0.0
 11
425.696520
 21
1053.590304
 31
0.0
  0
LINE
  5
258
100
AcDbEntity
  8
Layer_1
 62
1
100
AcDbLine
 10
638.294936
 20
1053.590304
 30
0.0
 11
638.294936
 21
996.897390
 31
0.0
  0
LINE
  5
259
100
AcDbEntity
  8
Layer_1
 62
1
100
AcDbLine
 10
638.294936
 20
996.897390
 30
0.0
 11
624.121707
 21
996.897390
 31
0.0
  0
LINE
  5
25a
100
AcDbEntity
  8
Layer_1
 62
1
100
AcDbLine
 10
624.121707
 20
996.897390
 30
0.0
 11
624.121707
 21
1053.590304
 31
0.0
  0
LINE
  5
25b
100
AcDbEntity
  8
Layer_1
 62
1
100
AcDbLine
 10
624.121707
 20
1053.590304
 30
0.0
 11
638.294936
 21
1053.590304
 31
0.0
  0
LINE
  5
25c
100
AcDbEntity
  8
Layer_1
 62
1
100
AcDbLine
 10
425.696520
 20
656.739888
 30
0.0
 11
425.696520
 21
600.046974
 31
0.0
  0
LINE
  5
25d
100
AcDbEntity
  8
Layer_1
 62
1
100
AcDbLine
 10
425.696520
 20
600.046974
 30
0.0
 11
411.523290
 21
600.046974
 31
0.0
  0
LINE
  5
25e
100
AcDbEntity
  8
Layer_1
 62
1
100
AcDbLine
 10
411.523290
 20
600.046974
 30
0.0
 11
411.523290
 21
656.739888
 31
0.0
  0
LINE
  5
25f
100
AcDbEntity
  8
Layer_1
 62
1
100
AcDbLine
 10
411.523290
 20
656.739888
 30
0.0
 11
425.696520
 21
656.739888
 31
0.0
  0
LINE
  5
260
100
AcDbEntity
  8
Layer_1
 62
1
100
AcDbLine
 10
638.294936
 20
656.739888
 30
0.0
 11
638.294936
 21
600.046974
 31
0.0
  0
LINE
  5
261
100
AcDbEntity
  8
Layer_1
 62
1
100
AcDbLine
 10
638.294936
 20
600.046974
 30
0.0
 11
624.121706
 21
600.046974
 31
0.0
  0
LINE
  5
262
100
AcDbEntity
  8
Layer_1
 62
1
100
AcDbLine
 10
624.121706
 20
600.046974
 30
0.0
 11
624.121706
 21
656.739888
 31
0.0
  0
LINE
  5
263
100
AcDbEntity
  8
Layer_1
 62
1
100
AcDbLine
 10
624.121706
 20
656.739888
 30
0.0
 11
638.294936
 21
656.739888
 31
0.0
  0
LINE
  5
264
100
AcDbEntity
  8
Layer_1
 62
1
100
AcDbLine
 10
496.562664
 20
777.212352
 30
0.0
 11
553.255578
 21
777.212352
 31
0.0
  0
LINE
  5
265
100
AcDbEntity
  8
Layer_1
 62
1
100
AcDbLine
 10
553.255578
 20
777.212352
 30
0.0
 11
553.255578
 21
763.039123
 31
0.0
  0
LINE
  5
266
100
AcDbEntity
  8
Layer_1
 62
1
100
AcDbLine
 10
553.255578
 20
763.039123
 30
0.0
 11
496.562664
 21
763.039123
 31
0.0
  0
LINE
  5
267
100
AcDbEntity
  8
Layer_1
 62
1
100
AcDbLine
 10
496.562664
 20
763.039123
 30
0.0
 11
496.562664
 21
777.212352
 31
0.0
  0
LINE
  5
268
100
AcDbEntity
  8
Layer_1
 62
1
100
AcDbLine
 10
532.132488
 20
855.306832
 30
0.0
 11
532.132488
 21
798.613918
 31
0.0
  0
LINE
  5
269
100
AcDbEntity
  8
Layer_1
 62
1
100
AcDbLine
 10
532.132488
 20
798.613918
 30
0.0
 11
517.959259
 21
798.613918
 31
0.0
  0
LINE
  5
26a
100
AcDbEntity
  8
Layer_1
 62
1
100
AcDbLine
 10
517.959259
 20
798.613918
 30
0.0
 11
517.959259
 21
855.306832
 31
0.0
  0
LINE
  5
26b
100
AcDbEntity
  8
Layer_1
 62
1
100
AcDbLine
 10
517.959259
 20
855.306832
 30
0.0
 11
532.132488
 21
855.306832
 31
0.0
  0
LINE
  5
26c
100
AcDbEntity
  8
Layer_1
 62
1
100
AcDbLine
 10
517.958336
 20
508.062248
 30
0.0
 11
532.131565
 21
508.062248
 31
0.0
  0
LINE
  5
26d
100
AcDbEntity
  8
Layer_1
 62
1
100
AcDbLine
 10
532.131565
 20
508.062248
 30
0.0
 11
532.131565
 21
496.723665
 31
0.0
  0
LINE
  5
26e
100
AcDbEntity
  8
Layer_1
 62
1
100
AcDbLine
 10
532.131565
 20
496.723665
 30
0.0
 11
517.958336
 21
496.723665
 31
0.0
  0
LINE
  5
26f
100
AcDbEntity
  8
Layer_1
 62
1
100
AcDbLine
 10
517.958336
 20
496.723665
 30
0.0
 11
517.958336
 21
508.062248
 31
0.0
  0
LINE
  5
270
100
AcDbEntity
  8
Layer_1
 62
1
100
AcDbLine
 10
603.157896
 20
841.292888
 30
0.0
 11
603.157896
 21
812.627836
 31
0.0
  0
LINE
  5
271
100
AcDbEntity
  8
Layer_1
 62
1
100
AcDbLine
 10
603.157896
 20
812.627836
 30
0.0
 11
588.666073
 21
812.627836
 31
0.0
  0
LINE
  5
272
100
AcDbEntity
  8
Layer_1
 62
1
100
AcDbLine
 10
588.666073
 20
812.627836
 30
0.0
 11
588.666073
 21
841.292888
 31
0.0
  0
LINE
  5
273
100
AcDbEntity
  8
Layer_1
 62
1
100
AcDbLine
 10
588.666073
 20
841.292888
 30
0.0
 11
603.157896
 21
841.292888
 31
0.0
  0
LINE
  5
274
100
AcDbEntity
  8
Layer_1
 62
1
100
AcDbLine
 10
241.014104
 20
522.227136
 30
0.0
 11
269.361568
 21
522.227136
 31
0.0
  0
LINE
  5
275
100
AcDbEntity
  8
Layer_1
 62
1
100
AcDbLine
 10
269.361568
 20
522.227136
 30
0.0
 11
269.361568
 21
508.052903
 31
0.0
  0
LINE
  5
276
100
AcDbEntity
  8
Layer_1
 62
1
100
AcDbLine
 10
269.361568
 20
508.052903
 30
0.0
 11
241.014104
 21
508.052903
 31
0.0
  0
LINE
  5
277
100
AcDbEntity
  8
Layer_1
 62
1
100
AcDbLine
 10
241.014104
 20
508.052903
 30
0.0
 11
241.014104
 21
522.227136
 31
0.0
  0
LINE
  5
278
100
AcDbEntity
  8
Layer_1
 62
1
100
AcDbLine
 10
780.730576
 20
522.227136
 30
0.0
 11
809.078040
 21
522.227136
 31
0.0
  0
LINE
  5
279
100
AcDbEntity
  8
Layer_1
 62
1
100
AcDbLine
 10
809.078040
 20
522.227136
 30
0.0
 11
809.078040
 21
508.052903
 31
0.0
  0
LINE
  5
27a
100
AcDbEntity
  8
Layer_1
 62
1
100
AcDbLine
 10
809.078040
 20
508.052903
 30
0.0
 11
780.730576
 21
508.052903
 31
0.0
  0
LINE
  5
27b
100
AcDbEntity
  8
Layer_1
 62
1
100
AcDbLine
 10
780.730576
 20
508.052903
 30
0.0
 11
780.730576
 21
522.227136
 31
0.0
  0
LINE
  5
27c
100
AcDbEntity
  8
Layer_1
 62
1
100
AcDbLine
 10
397.486600
 20
522.227136
 30
0.0
 11
425.834064
 21
522.227136
 31
0.0
  0
LINE
  5
27d
100
AcDbEntity
  8
Layer_1
 62
1
100
AcDbLine
 10
425.834064
 20
522.227136
 30
0.0
 11
425.834064
 21
508.052903
 31
0.0
  0
LINE
  5
27e
100
AcDbEntity
  8
Layer_1
 62
1
100
AcDbLine
 10
425.834064
 20
508.052903
 30
0.0
 11
397.486600
 21
508.052903
 31
0.0
  0
LINE
  5
27f
100
AcDbEntity
  8
Layer_1
 62
1
100
AcDbLine
 10
397.486600
 20
508.052903
 30
0.0
 11
397.486600
 21
522.227136
 31
0.0
  0
LINE
  5
280
100
AcDbEntity
  8
Layer_1
 62
1
100
AcDbLine
 10
624.258184
 20
522.227136
 30
0.0
 11
652.605648
 21
522.227136
 31
0.0
  0
LINE
  5
281
100
AcDbEntity
  8
Layer_1
 62
1
100
AcDbLine
 10
652.605648
 20
522.227136
 30
0.0
 11
652.605648
 21
508.052903
 31
0.0
  0
LINE
  5
282
100
AcDbEntity
  8
Layer_1
 62
1
100
AcDbLine
 10
652.605648
 20
508.052903
 30
0.0
 11
624.258184
 21
508.052903
 31
0.0
  0
LINE
  5
283
100
AcDbEntity
  8
Layer_1
 62
1
100
AcDbLine
 10
624.258184
 20
508.052903
 30
0.0
 11
624.258184
 21
522.227136
 31
0.0
  0
LINE
  5
284
100
AcDbEntity
  8
Layer_1
 62
1
100
AcDbLine
 10
250.550748
 20
418.440954
 30
0.0
 11
250.550748
 21
404.269034
 31
0.0
  0
LINE
  5
285
100
AcDbEntity
  8
Layer_1
 62
1
100
AcDbLine
 10
250.550748
 20
404.269034
 30
0.0
 11
123.557002
 21
404.269034
 31
0.0
  0
LINE
  5
286
100
AcDbEntity
  8
Layer_1
 62
1
100
AcDbLine
 10
123.557002
 20
404.269034
 30
0.0
 11
123.557002
 21
347.572154
 31
0.0
  0
LINE
  5
287
100
AcDbEntity
  8
Layer_1
 62
1
100
AcDbLine
 10
123.557002
 20
347.572154
 30
0.0
 11
123.558602
 21
347.572154
 31
0.0
  0
LINE
  5
288
100
AcDbEntity
  8
Layer_1
 62
1
100
AcDbLine
 10
123.558602
 20
347.572154
 30
0.0
 11
123.558602
 21
234.187754
 31
0.0
  0
LINE
  5
289
100
AcDbEntity
  8
Layer_1
 62
1
100
AcDbLine
 10
123.558602
 20
234.187754
 30
0.0
 11
180.252350
 21
234.187754
 31
0.0
  0
LINE
  5
28a
100
AcDbEntity
  8
Layer_1
 62
1
100
AcDbLine
 10
180.252350
 20
234.187754
 30
0.0
 11
202.486726
 21
313.737754
 31
0.0
  0
LINE
  5
28b
100
AcDbEntity
  8
Layer_1
 62
1
100
AcDbLine
 10
202.486726
 20
313.737754
 30
0.0
 11
202.527350
 21
313.737754
 31
0.0
  0
SPLINE
  5
28c
100
AcDbEntity
  8
Layer_1
 62
1
100
AcDbSpline
 70
8
 71
3
 72
8
 73
4
 74
0
 40
0
 40
0
 40
0
 40
0
 40
1
 40
1
 40
1
 40
1
 10
202.527350
 20
313.737754
 30
0.0
 10
202.656634
 20
314.274234
 30
0.0
 10
202.793724
 20
314.806554
 30
0.0
 10
202.935162
 20
315.336234
 30
0.0
  0
LINE
  5
28d
100
AcDbEntity
  8
Layer_1
 62
1
100
AcDbLine
 10
202.935162
 20
315.336234
 30
0.0
 11
203.188287
 21
316.245594
 31
0.0
  0
SPLINE
  5
28e
100
AcDbEntity
  8
Layer_1
 62
1
100
AcDbSpline
 70
8
 71
3
 72
8
 73
4
 74
0
 40
0
 40
0
 40
0
 40
0
 40
1
 40
1
 40
1
 40
1
 10
203.188287
 20
316.245594
 30
0.0
 10
208.042327
 20
333.434154
 30
0.0
 10
219.381951
 20
346.723754
 30
0.0
 10
236.944538
 20
347.522154
 30
0.0
  0
LINE
  5
28f
100
AcDbEntity
  8
Layer_1
 62
1
100
AcDbLine
 10
236.944538
 20
347.522154
 30
0.0
 11
236.944538
 21
347.571754
 31
0.0
  0
LINE
  5
290
100
AcDbEntity
  8
Layer_1
 62
1
100
AcDbLine
 10
236.944538
 20
347.571754
 30
0.0
 11
832.441410
 21
347.571754
 31
0.0
  0
LINE
  5
291
100
AcDbEntity
  8
Layer_1
 62
1
100
AcDbLine
 10
832.441410
 20
347.571754
 30
0.0
 11
832.441410
 21
347.517354
 31
0.0
  0
SPLINE
  5
292
100
AcDbEntity
  8
Layer_1
 62
1
100
AcDbSpline
 70
8
 71
3
 72
8
 73
4
 74
0
 40
0
 40
0
 40
0
 40
0
 40
1
 40
1
 40
1
 40
1
 10
832.441410
 20
347.517354
 30
0.0
 10
848.360210
 20
346.793594
 30
0.0
 10
859.166074
 20
335.807354
 30
0.0
 10
864.664850
 20
320.957914
 30
0.0
  0
LINE
  5
293
100
AcDbEntity
  8
Layer_1
 62
1
100
AcDbLine
 10
864.664850
 20
320.957914
 30
0.0
 11
888.919538
 21
234.187594
 31
0.0
  0
LINE
  5
294
100
AcDbEntity
  8
Layer_1
 62
1
100
AcDbLine
 10
888.919538
 20
234.187594
 30
0.0
 11
945.611730
 21
234.187594
 31
0.0
  0
LINE
  5
295
100
AcDbEntity
  8
Layer_1
 62
1
100
AcDbLine
 10
945.611730
 20
234.187594
 30
0.0
 11
945.611730
 21
347.573594
 31
0.0
  0
LINE
  5
296
100
AcDbEntity
  8
Layer_1
 62
1
100
AcDbLine
 10
945.611730
 20
347.573594
 30
0.0
 11
945.608530
 21
347.573594
 31
0.0
  0
LINE
  5
297
100
AcDbEntity
  8
Layer_1
 62
1
100
AcDbLine
 10
945.608530
 20
347.573594
 30
0.0
 11
945.608530
 21
404.268874
 31
0.0
  0
LINE
  5
298
100
AcDbEntity
  8
Layer_1
 62
1
100
AcDbLine
 10
945.608530
 20
404.268874
 30
0.0
 11
818.614778
 21
404.268874
 31
0.0
  0
LINE
  5
299
100
AcDbEntity
  8
Layer_1
 62
1
100
AcDbLine
 10
818.614778
 20
404.268874
 30
0.0
 11
818.614778
 21
418.440794
 31
0.0
  0
LINE
  5
29a
100
AcDbEntity
  8
Layer_1
 62
1
100
AcDbLine
 10
818.614778
 20
418.440794
 30
0.0
 11
790.266338
 21
418.440794
 31
0.0
  0
LINE
  5
29b
100
AcDbEntity
  8
Layer_1
 62
1
100
AcDbLine
 10
790.266338
 20
418.440794
 30
0.0
 11
790.266338
 21
404.268874
 31
0.0
  0
LINE
  5
29c
100
AcDbEntity
  8
Layer_1
 62
1
100
AcDbLine
 10
790.266338
 20
404.268874
 30
0.0
 11
662.141338
 21
404.268874
 31
0.0
  0
LINE
  5
29d
100
AcDbEntity
  8
Layer_1
 62
1
100
AcDbLine
 10
662.141338
 20
404.268874
 30
0.0
 11
662.141338
 21
418.440794
 31
0.0
  0
LINE
  5
29e
100
AcDbEntity
  8
Layer_1
 62
1
100
AcDbLine
 10
662.141338
 20
418.440794
 30
0.0
 11
633.794466
 21
418.440794
 31
0.0
  0
LINE
  5
29f
100
AcDbEntity
  8
Layer_1
 62
1
100
AcDbLine
 10
633.794466
 20
418.440794
 30
0.0
 11
633.794466
 21
404.268874
 31
0.0
  0
LINE
  5
2a0
100
AcDbEntity
  8
Layer_1
 62
1
100
AcDbLine
 10
633.794466
 20
404.268874
 30
0.0
 11
435.371026
 21
404.268874
 31
0.0
  0
LINE
  5
2a1
100
AcDbEntity
  8
Layer_1
 62
1
100
AcDbLine
 10
435.371026
 20
404.268874
 30
0.0
 11
435.371026
 21
418.440794
 31
0.0
  0
LINE
  5
2a2
100
AcDbEntity
  8
Layer_1
 62
1
100
AcDbLine
 10
435.371026
 20
418.440794
 30
0.0
 11
407.022594
 21
418.440794
 31
0.0
  0
LINE
  5
2a3
100
AcDbEntity
  8
Layer_1
 62
1
100
AcDbLine
 10
407.022594
 20
418.440794
 30
0.0
 11
407.022594
 21
404.268874
 31
0.0
  0
LINE
  5
2a4
100
AcDbEntity
  8
Layer_1
 62
1
100
AcDbLine
 10
407.022594
 20
404.268874
 30
0.0
 11
278.897590
 21
404.268874
 31
0.0
  0
LINE
  5
2a5
100
AcDbEntity
  8
Layer_1
 62
1
100
AcDbLine
 10
278.897590
 20
404.268874
 30
0.0
 11
278.897590
 21
418.440794
 31
0.0
  0
LINE
  5
2a6
100
AcDbEntity
  8
Layer_1
 62
1
100
AcDbLine
 10
278.897590
 20
418.440794
 30
0.0
 11
250.550715
 21
418.440794
 31
0.0
  0
LINE
  5
2a7
100
AcDbEntity
  8
Layer_1
 62
1
100
AcDbLine
 10
250.550715
 20
418.440794
 30
0.0
 11
250.550748
 21
418.440954
 31
0.0
  0
LINE
  5
2a8
100
AcDbEntity
  8
Layer_1
 62
1
100
AcDbLine
 10
541.669587
 20
390.085362
 30
0.0
 11
541.669587
 21
361.737901
 31
0.0
  0
LINE
  5
2a9
100
AcDbEntity
  8
Layer_1
 62
1
100
AcDbLine
 10
541.669587
 20
361.737901
 30
0.0
 11
527.495356
 21
361.737901
 31
0.0
  0
LINE
  5
2aa
100
AcDbEntity
  8
Layer_1
 62
1
100
AcDbLine
 10
527.495356
 20
361.737901
 30
0.0
 11
527.495356
 21
390.085362
 31
0.0
  0
LINE
  5
2ab
100
AcDbEntity
  8
Layer_1
 62
1
100
AcDbLine
 10
527.495356
 20
390.085362
 30
0.0
 11
541.669587
 21
390.085362
 31
0.0
  0
LINE
  5
2ac
100
AcDbEntity
  8
Layer_1
 62
1
100
AcDbLine
 10
789.860703
 20
1557.662242
 30
0.0
 11
789.860703
 21
1302.544104
 31
0.0
  0
LINE
  5
2ad
100
AcDbEntity
  8
Layer_1
 62
1
100
AcDbLine
 10
789.860703
 20
1302.544104
 30
0.0
 11
222.931585
 21
1302.544104
 31
0.0
  0
LINE
  5
2ae
100
AcDbEntity
  8
Layer_1
 62
1
100
AcDbLine
 10
222.931585
 20
1302.544104
 30
0.0
 11
222.931585
 21
1557.662242
 31
0.0
  0
LINE
  5
2af
100
AcDbEntity
  8
Layer_1
 62
1
100
AcDbLine
 10
222.931585
 20
1557.662242
 30
0.0
 11
789.860703
 21
1557.662242
 31
0.0
  0
LINE
  5
2b0
100
AcDbEntity
  8
Layer_1
 62
1
100
AcDbLine
 10
733.167775
 20
1529.315775
 30
0.0
 11
676.474865
 21
1529.315775
 31
0.0
  0
LINE
  5
2b1
100
AcDbEntity
  8
Layer_1
 62
1
100
AcDbLine
 10
676.474865
 20
1529.315775
 30
0.0
 11
676.474865
 21
1543.489005
 31
0.0
  0
LINE
  5
2b2
100
AcDbEntity
  8
Layer_1
 62
1
100
AcDbLine
 10
676.474865
 20
1543.489005
 30
0.0
 11
733.167775
 21
1543.489005
 31
0.0
  0
LINE
  5
2b3
100
AcDbEntity
  8
Layer_1
 62
1
100
AcDbLine
 10
733.167775
 20
1543.489005
 30
0.0
 11
733.167775
 21
1529.315775
 31
0.0
  0
LINE
  5
2b4
100
AcDbEntity
  8
Layer_1
 62
1
100
AcDbLine
 10
733.167775
 20
1316.717329
 30
0.0
 11
676.474865
 21
1316.717329
 31
0.0
  0
LINE
  5
2b5
100
AcDbEntity
  8
Layer_1
 62
1
100
AcDbLine
 10
676.474865
 20
1316.717329
 30
0.0
 11
676.474865
 21
1330.890560
 31
0.0
  0
LINE
  5
2b6
100
AcDbEntity
  8
Layer_1
 62
1
100
AcDbLine
 10
676.474865
 20
1330.890560
 30
0.0
 11
733.167775
 21
1330.890560
 31
0.0
  0
LINE
  5
2b7
100
AcDbEntity
  8
Layer_1
 62
1
100
AcDbLine
 10
733.167775
 20
1330.890560
 30
0.0
 11
733.167775
 21
1316.717329
 31
0.0
  0
LINE
  5
2b8
100
AcDbEntity
  8
Layer_1
 62
1
100
AcDbLine
 10
336.317407
 20
1529.315775
 30
0.0
 11
279.624496
 21
1529.315775
 31
0.0
  0
LINE
  5
2b9
100
AcDbEntity
  8
Layer_1
 62
1
100
AcDbLine
 10
279.624496
 20
1529.315775
 30
0.0
 11
279.624496
 21
1543.489006
 31
0.0
  0
LINE
  5
2ba
100
AcDbEntity
  8
Layer_1
 62
1
100
AcDbLine
 10
279.624496
 20
1543.489006
 30
0.0
 11
336.317407
 21
1543.489006
 31
0.0
  0
LINE
  5
2bb
100
AcDbEntity
  8
Layer_1
 62
1
100
AcDbLine
 10
336.317407
 20
1543.489006
 30
0.0
 11
336.317407
 21
1529.315775
 31
0.0
  0
LINE
  5
2bc
100
AcDbEntity
  8
Layer_1
 62
1
100
AcDbLine
 10
336.317407
 20
1316.717329
 30
0.0
 11
279.624496
 21
1316.717329
 31
0.0
  0
LINE
  5
2bd
100
AcDbEntity
  8
Layer_1
 62
1
100
AcDbLine
 10
279.624496
 20
1316.717329
 30
0.0
 11
279.624496
 21
1330.890560
 31
0.0
  0
LINE
  5
2be
100
AcDbEntity
  8
Layer_1
 62
1
100
AcDbLine
 10
279.624496
 20
1330.890560
 30
0.0
 11
336.317407
 21
1330.890560
 31
0.0
  0
LINE
  5
2bf
100
AcDbEntity
  8
Layer_1
 62
1
100
AcDbLine
 10
336.317407
 20
1330.890560
 30
0.0
 11
336.317407
 21
1316.717329
 31
0.0
  0
LINE
  5
2c0
100
AcDbEntity
  8
Layer_1
 62
1
100
AcDbLine
 10
456.789863
 20
1458.449608
 30
0.0
 11
456.789863
 21
1401.756688
 31
0.0
  0
LINE
  5
2c1
100
AcDbEntity
  8
Layer_1
 62
1
100
AcDbLine
 10
456.789863
 20
1401.756688
 30
0.0
 11
442.616636
 21
1401.756688
 31
0.0
  0
LINE
  5
2c2
100
AcDbEntity
  8
Layer_1
 62
1
100
AcDbLine
 10
442.616636
 20
1401.756688
 30
0.0
 11
442.616636
 21
1458.449608
 31
0.0
  0
LINE
  5
2c3
100
AcDbEntity
  8
Layer_1
 62
1
100
AcDbLine
 10
442.616636
 20
1458.449608
 30
0.0
 11
456.789863
 21
1458.449608
 31
0.0
  0
LINE
  5
2c4
100
AcDbEntity
  8
Layer_1
 62
1
100
AcDbLine
 10
747.294350
 20
1491.550619
 30
0.0
 11
644.514484
 21
1433.255069
 31
0.0
  0
LINE
  5
2c5
100
AcDbEntity
  8
Layer_1
 62
1
100
AcDbLine
 10
644.514484
 20
1433.255069
 30
0.0
 11
747.294350
 21
1374.959519
 31
0.0
  0
LINE
  5
2c6
100
AcDbEntity
  8
Layer_1
 62
1
100
AcDbLine
 10
747.294350
 20
1374.959519
 30
0.0
 11
747.294350
 21
1491.550619
 31
0.0
  0
LINE
  5
2c7
100
AcDbEntity
  8
Layer_1
 62
1
100
AcDbLine
 10
747.294350
 20
1491.550619
 30
0.0
 11
747.294350
 21
1491.550619
 31
0.0
  0
LINE
  5
2c8
100
AcDbEntity
  8
Layer_1
 62
1
100
AcDbLine
 10
726.985695
 20
1362.379998
 30
0.0
 11
623.270005
 21
1421.205292
 31
0.0
  0
LINE
  5
2c9
100
AcDbEntity
  8
Layer_1
 62
1
100
AcDbLine
 10
623.270005
 20
1421.205292
 30
0.0
 11
519.555828
 21
1362.379998
 31
0.0
  0
LINE
  5
2ca
100
AcDbEntity
  8
Layer_1
 62
1
100
AcDbLine
 10
519.555828
 20
1362.379998
 30
0.0
 11
726.985695
 21
1362.379998
 31
0.0
  0
LINE
  5
2cb
100
AcDbEntity
  8
Layer_1
 62
1
100
AcDbLine
 10
726.985695
 20
1362.379998
 30
0.0
 11
726.985695
 21
1362.379998
 31
0.0
  0
LINE
  5
2cc
100
AcDbEntity
  8
Layer_1
 62
1
100
AcDbLine
 10
726.982495
 20
1504.128580
 30
0.0
 11
519.558708
 21
1504.128580
 31
0.0
  0
LINE
  5
2cd
100
AcDbEntity
  8
Layer_1
 62
1
100
AcDbLine
 10
519.558708
 20
1504.128580
 30
0.0
 11
623.269845
 21
1445.304846
 31
0.0
  0
LINE
  5
2ce
100
AcDbEntity
  8
Layer_1
 62
1
100
AcDbLine
 10
623.269845
 20
1445.304846
 30
0.0
 11
726.982495
 21
1504.128580
 31
0.0
  0
LINE
  5
2cf
100
AcDbEntity
  8
Layer_1
 62
1
100
AcDbLine
 10
726.982495
 20
1504.128580
 30
0.0
 11
726.982495
 21
1504.128580
 31
0.0
  0
LINE
  5
2d0
100
AcDbEntity
  8
Layer_1
 62
1
100
AcDbLine
 10
602.026887
 20
1433.255069
 30
0.0
 11
499.247021
 21
1491.550619
 31
0.0
  0
LINE
  5
2d1
100
AcDbEntity
  8
Layer_1
 62
1
100
AcDbLine
 10
499.247021
 20
1491.550619
 30
0.0
 11
499.247021
 21
1374.959519
 31
0.0
  0
LINE
  5
2d2
100
AcDbEntity
  8
Layer_1
 62
1
100
AcDbLine
 10
499.247021
 20
1374.959519
 30
0.0
 11
602.026887
 21
1433.255069
 31
0.0
  0
LINE
  5
2d3
100
AcDbEntity
  8
Layer_1
 62
1
100
AcDbLine
 10
602.026887
 20
1433.255069
 30
0.0
 11
602.026887
 21
1433.255069
 31
0.0
  0
LINE
  5
2d4
100
AcDbEntity
  8
Layer_1
 62
1
100
AcDbLine
 10
400.157531
 20
1488.499403
 30
0.0
 11
344.364350
 21
1430.209037
 31
0.0
  0
LINE
  5
2d5
100
AcDbEntity
  8
Layer_1
 62
1
100
AcDbLine
 10
344.364350
 20
1430.209037
 30
0.0
 11
400.157531
 21
1371.918663
 31
0.0
  0
LINE
  5
2d6
100
AcDbEntity
  8
Layer_1
 62
1
100
AcDbLine
 10
400.157531
 20
1371.918663
 30
0.0
 11
400.157531
 21
1488.499403
 31
0.0
  0
LINE
  5
2d7
100
AcDbEntity
  8
Layer_1
 62
1
100
AcDbLine
 10
400.157531
 20
1488.499403
 30
0.0
 11
400.157531
 21
1488.499403
 31
0.0
  0
LINE
  5
2d8
100
AcDbEntity
  8
Layer_1
 62
1
100
AcDbLine
 10
389.133164
 20
1359.340270
 30
0.0
 11
332.831975
 21
1418.160324
 31
0.0
  0
LINE
  5
2d9
100
AcDbEntity
  8
Layer_1
 62
1
100
AcDbLine
 10
332.831975
 20
1418.160324
 30
0.0
 11
276.531610
 21
1359.340270
 31
0.0
  0
LINE
  5
2da
100
AcDbEntity
  8
Layer_1
 62
1
100
AcDbLine
 10
276.531610
 20
1359.340270
 30
0.0
 11
389.133164
 21
1359.340270
 31
0.0
  0
LINE
  5
2db
100
AcDbEntity
  8
Layer_1
 62
1
100
AcDbLine
 10
389.133164
 20
1359.340270
 30
0.0
 11
389.133164
 21
1359.340270
 31
0.0
  0
LINE
  5
2dc
100
AcDbEntity
  8
Layer_1
 62
1
100
AcDbLine
 10
389.132428
 20
1501.076236
 30
0.0
 11
276.534202
 21
1501.076236
 31
0.0
  0
LINE
  5
2dd
100
AcDbEntity
  8
Layer_1
 62
1
100
AcDbLine
 10
276.534202
 20
1501.076236
 30
0.0
 11
332.832903
 21
1442.257758
 31
0.0
  0
LINE
  5
2de
100
AcDbEntity
  8
Layer_1
 62
1
100
AcDbLine
 10
332.832903
 20
1442.257758
 30
0.0
 11
389.132428
 21
1501.076236
 31
0.0
  0
LINE
  5
2df
100
AcDbEntity
  8
Layer_1
 62
1
100
AcDbLine
 10
389.132428
 20
1501.076236
 30
0.0
 11
389.132428
 21
1501.076236
 31
0.0
  0
LINE
  5
2e0
100
AcDbEntity
  8
Layer_1
 62
1
100
AcDbLine
 10
321.301352
 20
1430.209037
 30
0.0
 11
265.508195
 21
1488.499403
 31
0.0
  0
LINE
  5
2e1
100
AcDbEntity
  8
Layer_1
 62
1
100
AcDbLine
 10
265.508195
 20
1488.499403
 30
0.0
 11
265.508195
 21
1371.918663
 31
0.0
  0
LINE
  5
2e2
100
AcDbEntity
  8
Layer_1
 62
1
100
AcDbLine
 10
265.508195
 20
1371.918663
 30
0.0
 11
321.301352
 21
1430.209037
 31
0.0
  0
LINE
  5
2e3
100
AcDbEntity
  8
Layer_1
 62
1
100
AcDbLine
 10
321.301352
 20
1430.209037
 30
0.0
 11
321.301352
 21
1430.209037
 31
0.0
  0
LINE
  5
2e4
100
AcDbEntity
  8
Layer_1
 62
1
100
AcDbLine
 10
717.277752
 20
923.044432
 30
0.0
 11
717.277752
 21
908.895992
 31
0.0
  0
LINE
  5
2e5
100
AcDbEntity
  8
Layer_1
 62
1
100
AcDbLine
 10
717.277752
 20
908.895992
 30
0.0
 11
688.907440
 21
908.895992
 31
0.0
  0
LINE
  5
2e6
100
AcDbEntity
  8
Layer_1
 62
1
100
AcDbLine
 10
688.907440
 20
908.895992
 30
0.0
 11
688.907440
 21
795.461712
 31
0.0
  0
LINE
  5
2e7
100
AcDbEntity
  8
Layer_1
 62
1
100
AcDbLine
 10
688.907440
 20
795.461712
 30
0.0
 11
717.277752
 21
795.461712
 31
0.0
  0
LINE
  5
2e8
100
AcDbEntity
  8
Layer_1
 62
1
100
AcDbLine
 10
717.277752
 20
795.461712
 30
0.0
 11
717.277752
 21
781.313280
 31
0.0
  0
LINE
  5
2e9
100
AcDbEntity
  8
Layer_1
 62
1
100
AcDbLine
 10
717.277752
 20
781.313280
 30
0.0
 11
773.971528
 21
781.313280
 31
0.0
  0
LINE
  5
2ea
100
AcDbEntity
  8
Layer_1
 62
1
100
AcDbLine
 10
773.971528
 20
781.313280
 30
0.0
 11
773.971528
 21
795.461712
 31
0.0
  0
LINE
  5
2eb
100
AcDbEntity
  8
Layer_1
 62
1
100
AcDbLine
 10
773.971528
 20
795.461712
 30
0.0
 11
802.343360
 21
795.461712
 31
0.0
  0
LINE
  5
2ec
100
AcDbEntity
  8
Layer_1
 62
1
100
AcDbLine
 10
802.343360
 20
795.461712
 30
0.0
 11
802.343360
 21
908.895992
 31
0.0
  0
LINE
  5
2ed
100
AcDbEntity
  8
Layer_1
 62
1
100
AcDbLine
 10
802.343360
 20
908.895992
 30
0.0
 11
773.971528
 21
908.895992
 31
0.0
  0
LINE
  5
2ee
100
AcDbEntity
  8
Layer_1
 62
1
100
AcDbLine
 10
773.971528
 20
908.895992
 30
0.0
 11
773.971528
 21
923.044432
 31
0.0
  0
LINE
  5
2ef
100
AcDbEntity
  8
Layer_1
 62
1
100
AcDbLine
 10
773.971528
 20
923.044432
 30
0.0
 11
717.277752
 21
923.044432
 31
0.0
  0
LINE
  5
2f0
100
AcDbEntity
  8
Layer_1
 62
1
100
AcDbLine
 10
711.027840
 20
894.676384
 30
0.0
 11
788.122104
 21
822.943544
 31
0.0
  0
LINE
  5
2f1
100
AcDbEntity
  8
Layer_1
 62
1
100
AcDbLine
 10
788.122104
 20
822.943544
 30
0.0
 11
788.122104
 21
894.676384
 31
0.0
  0
LINE
  5
2f2
100
AcDbEntity
  8
Layer_1
 62
1
100
AcDbLine
 10
788.122104
 20
894.676384
 30
0.0
 11
711.027840
 21
894.676384
 31
0.0
  0
LINE
  5
2f3
100
AcDbEntity
  8
Layer_1
 62
1
100
AcDbLine
 10
703.082144
 20
881.367696
 30
0.0
 11
703.082144
 21
809.636416
 31
0.0
  0
LINE
  5
2f4
100
AcDbEntity
  8
Layer_1
 62
1
100
AcDbLine
 10
703.082144
 20
809.636416
 30
0.0
 11
780.174808
 21
809.636416
 31
0.0
  0
LINE
  5
2f5
100
AcDbEntity
  8
Layer_1
 62
1
100
AcDbLine
 10
780.174808
 20
809.636416
 30
0.0
 11
703.082144
 21
881.367696
 31
0.0
  0
LINE
  5
2f6
100
AcDbEntity
  8
Layer_1
 62
1
100
AcDbLine
 10
716.326528
 20
1074.002336
 30
0.0
 11
716.326528
 21
1059.853888
 31
0.0
  0
LINE
  5
2f7
100
AcDbEntity
  8
Layer_1
 62
1
100
AcDbLine
 10
716.326528
 20
1059.853888
 30
0.0
 11
687.956224
 21
1059.853888
 31
0.0
  0
LINE
  5
2f8
100
AcDbEntity
  8
Layer_1
 62
1
100
AcDbLine
 10
687.956224
 20
1059.853888
 30
0.0
 11
687.956224
 21
946.419616
 31
0.0
  0
LINE
  5
2f9
100
AcDbEntity
  8
Layer_1
 62
1
100
AcDbLine
 10
687.956224
 20
946.419616
 30
0.0
 11
716.326528
 21
946.419616
 31
0.0
  0
LINE
  5
2fa
100
AcDbEntity
  8
Layer_1
 62
1
100
AcDbLine
 10
716.326528
 20
946.419616
 30
0.0
 11
716.326528
 21
932.271184
 31
0.0
  0
LINE
  5
2fb
100
AcDbEntity
  8
Layer_1
 62
1
100
AcDbLine
 10
716.326528
 20
932.271184
 30
0.0
 11
773.020304
 21
932.271184
 31
0.0
  0
LINE
  5
2fc
100
AcDbEntity
  8
Layer_1
 62
1
100
AcDbLine
 10
773.020304
 20
932.271184
 30
0.0
 11
773.020304
 21
946.419616
 31
0.0
  0
LINE
  5
2fd
100
AcDbEntity
  8
Layer_1
 62
1
100
AcDbLine
 10
773.020304
 20
946.419616
 30
0.0
 11
801.392160
 21
946.419616
 31
0.0
  0
LINE
  5
2fe
100
AcDbEntity
  8
Layer_1
 62
1
100
AcDbLine
 10
801.392160
 20
946.419616
 30
0.0
 11
801.392160
 21
1059.853888
 31
0.0
  0
LINE
  5
2ff
100
AcDbEntity
  8
Layer_1
 62
1
100
AcDbLine
 10
801.392160
 20
1059.853888
 30
0.0
 11
773.020304
 21
1059.853888
 31
0.0
  0
LINE
  5
300
100
AcDbEntity
  8
Layer_1
 62
1
100
AcDbLine
 10
773.020304
 20
1059.853888
 30
0.0
 11
773.020304
 21
1074.002336
 31
0.0
  0
LINE
  5
301
100
AcDbEntity
  8
Layer_1
 62
1
100
AcDbLine
 10
773.020304
 20
1074.002336
 30
0.0
 11
716.326528
 21
1074.002336
 31
0.0
  0
LINE
  5
302
100
AcDbEntity
  8
Layer_1
 62
1
100
AcDbLine
 10
710.076616
 20
1045.634280
 30
0.0
 11
787.170880
 21
973.901448
 31
0.0
  0
LINE
  5
303
100
AcDbEntity
  8
Layer_1
 62
1
100
AcDbLine
 10
787.170880
 20
973.901448
 30
0.0
 11
787.170880
 21
1045.634280
 31
0.0
  0
LINE
  5
304
100
AcDbEntity
  8
Layer_1
 62
1
100
AcDbLine
 10
787.170880
 20
1045.634280
 30
0.0
 11
710.076616
 21
1045.634280
 31
0.0
  0
LINE
  5
305
100
AcDbEntity
  8
Layer_1
 62
1
100
AcDbLine
 10
702.130920
 20
1032.325592
 30
0.0
 11
702.130920
 21
960.594320
 31
0.0
  0
LINE
  5
306
100
AcDbEntity
  8
Layer_1
 62
1
100
AcDbLine
 10
702.130920
 20
960.594320
 30
0.0
 11
779.223584
 21
960.594320
 31
0.0
  0
LINE
  5
307
100
AcDbEntity
  8
Layer_1
 62
1
100
AcDbLine
 10
779.223584
 20
960.594320
 30
0.0
 11
702.130920
 21
1032.325592
 31
0.0
  0
LINE
  5
308
100
AcDbEntity
  8
Layer_1
 62
1
100
AcDbLine
 10
717.926528
 20
771.602336
 30
0.0
 11
717.926528
 21
757.453888
 31
0.0
  0
LINE
  5
309
100
AcDbEntity
  8
Layer_1
 62
1
100
AcDbLine
 10
717.926528
 20
757.453888
 30
0.0
 11
689.556224
 21
757.453888
 31
0.0
  0
LINE
  5
30a
100
AcDbEntity
  8
Layer_1
 62
1
100
AcDbLine
 10
689.556224
 20
757.453888
 30
0.0
 11
689.556224
 21
644.019616
 31
0.0
  0
LINE
  5
30b
100
AcDbEntity
  8
Layer_1
 62
1
100
AcDbLine
 10
689.556224
 20
644.019616
 30
0.0
 11
717.926528
 21
644.019616
 31
0.0
  0
LINE
  5
30c
100
AcDbEntity
  8
Layer_1
 62
1
100
AcDbLine
 10
717.926528
 20
644.019616
 30
0.0
 11
717.926528
 21
629.871184
 31
0.0
  0
LINE
  5
30d
100
AcDbEntity
  8
Layer_1
 62
1
100
AcDbLine
 10
717.926528
 20
629.871184
 30
0.0
 11
774.620304
 21
629.871184
 31
0.0
  0
LINE
  5
30e
100
AcDbEntity
  8
Layer_1
 62
1
100
AcDbLine
 10
774.620304
 20
629.871184
 30
0.0
 11
774.620304
 21
644.019616
 31
0.0
  0
LINE
  5
30f
100
AcDbEntity
  8
Layer_1
 62
1
100
AcDbLine
 10
774.620304
 20
644.019616
 30
0.0
 11
802.992160
 21
644.019616
 31
0.0
  0
LINE
  5
310
100
AcDbEntity
  8
Layer_1
 62
1
100
AcDbLine
 10
802.992160
 20
644.019616
 30
0.0
 11
802.992160
 21
757.453888
 31
0.0
  0
LINE
  5
311
100
AcDbEntity
  8
Layer_1
 62
1
100
AcDbLine
 10
802.992160
 20
757.453888
 30
0.0
 11
774.620304
 21
757.453888
 31
0.0
  0
LINE
  5
312
100
AcDbEntity
  8
Layer_1
 62
1
100
AcDbLine
 10
774.620304
 20
757.453888
 30
0.0
 11
774.620304
 21
771.602336
 31
0.0
  0
LINE
  5
313
100
AcDbEntity
  8
Layer_1
 62
1
100
AcDbLine
 10
774.620304
 20
771.602336
 30
0.0
 11
717.926528
 21
771.602336
 31
0.0
  0
LINE
  5
314
100
AcDbEntity
  8
Layer_1
 62
1
100
AcDbLine
 10
711.676616
 20
743.234280
 30
0.0
 11
788.770880
 21
671.501448
 31
0.0
  0
LINE
  5
315
100
AcDbEntity
  8
Layer_1
 62
1
100
AcDbLine
 10
788.770880
 20
671.501448
 30
0.0
 11
788.770880
 21
743.234280
 31
0.0
  0
LINE
  5
316
100
AcDbEntity
  8
Layer_1
 62
1
100
AcDbLine
 10
788.770880
 20
743.234280
 30
0.0
 11
711.676616
 21
743.234280
 31
0.0
  0
LINE
  5
317
100
AcDbEntity
  8
Layer_1
 62
1
100
AcDbLine
 10
703.730920
 20
729.925592
 30
0.0
 11
703.730920
 21
658.194320
 31
0.0
  0
LINE
  5
318
100
AcDbEntity
  8
Layer_1
 62
1
100
AcDbLine
 10
703.730920
 20
658.194320
 30
0.0
 11
780.823584
 21
658.194320
 31
0.0
  0
LINE
  5
319
100
AcDbEntity
  8
Layer_1
 62
1
100
AcDbLine
 10
780.823584
 20
658.194320
 30
0.0
 11
703.730920
 21
729.925592
 31
0.0
  0
LINE
  5
31a
100
AcDbEntity
  8
Layer_1
 62
1
100
AcDbLine
 10
837.926560
 20
842.002336
 30
0.0
 11
837.926560
 21
827.853888
 31
0.0
  0
LINE
  5
31b
100
AcDbEntity
  8
Layer_1
 62
1
100
AcDbLine
 10
837.926560
 20
827.853888
 30
0.0
 11
809.556240
 21
827.853888
 31
0.0
  0
LINE
  5
31c
100
AcDbEntity
  8
Layer_1
 62
1
100
AcDbLine
 10
809.556240
 20
827.853888
 30
0.0
 11
809.556240
 21
714.419616
 31
0.0
  0
LINE
  5
31d
100
AcDbEntity
  8
Layer_1
 62
1
100
AcDbLine
 10
809.556240
 20
714.419616
 30
0.0
 11
837.926560
 21
714.419616
 31
0.0
  0
LINE
  5
31e
100
AcDbEntity
  8
Layer_1
 62
1
100
AcDbLine
 10
837.926560
 20
714.419616
 30
0.0
 11
837.926560
 21
700.271184
 31
0.0
  0
LINE
  5
31f
100
AcDbEntity
  8
Layer_1
 62
1
100
AcDbLine
 10
837.926560
 20
700.271184
 30
0.0
 11
894.620320
 21
700.271184
 31
0.0
  0
LINE
  5
320
100
AcDbEntity
  8
Layer_1
 62
1
100
AcDbLine
 10
894.620320
 20
700.271184
 30
0.0
 11
894.620320
 21
714.419616
 31
0.0
  0
LINE
  5
321
100
AcDbEntity
  8
Layer_1
 62
1
100
AcDbLine
 10
894.620320
 20
714.419616
 30
0.0
 11
922.992160
 21
714.419616
 31
0.0
  0
LINE
  5
322
100
AcDbEntity
  8
Layer_1
 62
1
100
AcDbLine
 10
922.992160
 20
714.419616
 30
0.0
 11
922.992160
 21
827.853888
 31
0.0
  0
LINE
  5
323
100
AcDbEntity
  8
Layer_1
 62
1
100
AcDbLine
 10
922.992160
 20
827.853888
 30
0.0
 11
894.620320
 21
827.853888
 31
0.0
  0
LINE
  5
324
100
AcDbEntity
  8
Layer_1
 62
1
100
AcDbLine
 10
894.620320
 20
827.853888
 30
0.0
 11
894.620320
 21
842.002336
 31
0.0
  0
LINE
  5
325
100
AcDbEntity
  8
Layer_1
 62
1
100
AcDbLine
 10
894.620320
 20
842.002336
 30
0.0
 11
837.926560
 21
842.002336
 31
0.0
  0
LINE
  5
326
100
AcDbEntity
  8
Layer_1
 62
1
100
AcDbLine
 10
831.676640
 20
813.634280
 30
0.0
 11
908.770880
 21
741.901448
 31
0.0
  0
LINE
  5
327
100
AcDbEntity
  8
Layer_1
 62
1
100
AcDbLine
 10
908.770880
 20
741.901448
 30
0.0
 11
908.770880
 21
813.634280
 31
0.0
  0
LINE
  5
328
100
AcDbEntity
  8
Layer_1
 62
1
100
AcDbLine
 10
908.770880
 20
813.634280
 30
0.0
 11
831.676640
 21
813.634280
 31
0.0
  0
LINE
  5
329
100
AcDbEntity
  8
Layer_1
 62
1
100
AcDbLine
 10
823.730960
 20
800.325592
 30
0.0
 11
823.730960
 21
728.594320
 31
0.0
  0
LINE
  5
32a
100
AcDbEntity
  8
Layer_1
 62
1
100
AcDbLine
 10
823.730960
 20
728.594320
 30
0.0
 11
900.823600
 21
728.594320
 31
0.0
  0
LINE
  5
32b
100
AcDbEntity
  8
Layer_1
 62
1
100
AcDbLine
 10
900.823600
 20
728.594320
 30
0.0
 11
823.730960
 21
800.325592
 31
0.0
  0
LINE
  5
32c
100
AcDbEntity
  8
Layer_1
 62
1
100
AcDbLine
 10
841.126560
 20
1002.002336
 30
0.0
 11
841.126560
 21
987.853888
 31
0.0
  0
LINE
  5
32d
100
AcDbEntity
  8
Layer_1
 62
1
100
AcDbLine
 10
841.126560
 20
987.853888
 30
0.0
 11
812.756240
 21
987.853888
 31
0.0
  0
LINE
  5
32e
100
AcDbEntity
  8
Layer_1
 62
1
100
AcDbLine
 10
812.756240
 20
987.853888
 30
0.0
 11
812.756240
 21
874.419616
 31
0.0
  0
LINE
  5
32f
100
AcDbEntity
  8
Layer_1
 62
1
100
AcDbLine
 10
812.756240
 20
874.419616
 30
0.0
 11
841.126560
 21
874.419616
 31
0.0
  0
LINE
  5
330
100
AcDbEntity
  8
Layer_1
 62
1
100
AcDbLine
 10
841.126560
 20
874.419616
 30
0.0
 11
841.126560
 21
860.271184
 31
0.0
  0
LINE
  5
331
100
AcDbEntity
  8
Layer_1
 62
1
100
AcDbLine
 10
841.126560
 20
860.271184
 30
0.0
 11
897.820320
 21
860.271184
 31
0.0
  0
LINE
  5
332
100
AcDbEntity
  8
Layer_1
 62
1
100
AcDbLine
 10
897.820320
 20
860.271184
 30
0.0
 11
897.820320
 21
874.419616
 31
0.0
  0
LINE
  5
333
100
AcDbEntity
  8
Layer_1
 62
1
100
AcDbLine
 10
897.820320
 20
874.419616
 30
0.0
 11
926.192160
 21
874.419616
 31
0.0
  0
LINE
  5
334
100
AcDbEntity
  8
Layer_1
 62
1
100
AcDbLine
 10
926.192160
 20
874.419616
 30
0.0
 11
926.192160
 21
987.853888
 31
0.0
  0
LINE
  5
335
100
AcDbEntity
  8
Layer_1
 62
1
100
AcDbLine
 10
926.192160
 20
987.853888
 30
0.0
 11
897.820320
 21
987.853888
 31
0.0
  0
LINE
  5
336
100
AcDbEntity
  8
Layer_1
 62
1
100
AcDbLine
 10
897.820320
 20
987.853888
 30
0.0
 11
897.820320
 21
1002.002336
 31
0.0
  0
LINE
  5
337
100
AcDbEntity
  8
Layer_1
 62
1
100
AcDbLine
 10
897.820320
 20
1002.002336
 30
0.0
 11
841.126560
 21
1002.002336
 31
0.0
  0
LINE
  5
338
100
AcDbEntity
  8
Layer_1
 62
1
100
AcDbLine
 10
834.876640
 20
973.634280
 30
0.0
 11
911.970880
 21
901.901448
 31
0.0
  0
LINE
  5
339
100
AcDbEntity
  8
Layer_1
 62
1
100
AcDbLine
 10
911.970880
 20
901.901448
 30
0.0
 11
911.970880
 21
973.634280
 31
0.0
  0
LINE
  5
33a
100
AcDbEntity
  8
Layer_1
 62
1
100
AcDbLine
 10
911.970880
 20
973.634280
 30
0.0
 11
834.876640
 21
973.634280
 31
0.0
  0
LINE
  5
33b
100
AcDbEntity
  8
Layer_1
 62
1
100
AcDbLine
 10
826.930960
 20
960.325592
 30
0.0
 11
826.930960
 21
888.594320
 31
0.0
  0
LINE
  5
33c
100
AcDbEntity
  8
Layer_1
 62
1
100
AcDbLine
 10
826.930960
 20
888.594320
 30
0.0
 11
904.023600
 21
888.594320
 31
0.0
  0
LINE
  5
33d
100
AcDbEntity
  8
Layer_1
 62
1
100
AcDbLine
 10
904.023600
 20
888.594320
 30
0.0
 11
826.930960
 21
960.325592
 31
0.0
  0
ENDSEC
  0
SECTION
  2
OBJECTS
  0
DICTIONARY
  5
C
330
0
100
AcDbDictionary
  3
ACAD_GROUP
350
D
  3
ACAD_MLINESTYLE
350
17
  0
DICTIONARY
  5
D
330
C
100
AcDbDictionary
  0
DICTIONARY
  5
1A
330
C
100
AcDbDictionary
  0
DICTIONARY
  5
17
330
C
100
AcDbDictionary
  3
STANDARD
350
18
  0
DICTIONARY
  5
19
330
C
100
AcDbDictionary
  0
ENDSEC
  0
EOF
